<?xml version="1.0" encoding="UTF-8" standalone="no"?>
<!-- Created with Inkscape (http://www.inkscape.org/) -->

<svg
   version="1.1"
   id="svg1"
   width="176"
   height="41.847839"
   viewBox="0 0 176 41.847841"
   sodipodi:docname="estalciabutton.svg"
   xml:space="preserve"
   inkscape:version="1.3 (0e150ed6c4, 2023-07-21)"
   inkscape:export-filename="estalciabutton.png"
   inkscape:export-xdpi="96"
   inkscape:export-ydpi="96"
   xmlns:inkscape="http://www.inkscape.org/namespaces/inkscape"
   xmlns:sodipodi="http://sodipodi.sourceforge.net/DTD/sodipodi-0.dtd"
   xmlns="http://www.w3.org/2000/svg"
   xmlns:svg="http://www.w3.org/2000/svg"><sodipodi:namedview
     id="namedview1"
     pagecolor="#ffffff"
     bordercolor="#000000"
     borderopacity="0.25"
     inkscape:showpageshadow="2"
     inkscape:pageopacity="0.0"
     inkscape:pagecheckerboard="0"
     inkscape:deskcolor="#d1d1d1"
     inkscape:zoom="0.45717228"
     inkscape:cx="674.80032"
     inkscape:cy="692.2992"
     inkscape:window-width="3440"
     inkscape:window-height="1417"
     inkscape:window-x="-8"
     inkscape:window-y="1432"
     inkscape:window-maximized="1"
     inkscape:current-layer="svg1" /><defs
     id="defs1"><style
       id="style1">&#10;      .cls-1 {&#10;        fill: #fff;&#10;      }&#10;&#10;      .cls-1, .cls-2 {&#10;        stroke-width: 0px;&#10;      }&#10;&#10;      .cls-2 {&#10;        fill: #185886;&#10;      }&#10;    </style><style
       id="style1-1">&#10;      .cls-1 {&#10;        fill: #325733;&#10;      }&#10;&#10;      .cls-1, .cls-2 {&#10;        stroke-width: 0px;&#10;      }&#10;&#10;      .cls-2 {&#10;        fill: #fff;&#10;      }&#10;    </style><style
       id="style1-2">&#10;      .cls-1 {&#10;        fill: #1e90ff;&#10;      }&#10;&#10;      .cls-1, .cls-2 {&#10;        stroke-width: 0px;&#10;      }&#10;&#10;      .cls-2 {&#10;        fill: #fff;&#10;      }&#10;    </style><style
       id="style1-4">&#10;      .cls-1 {&#10;        fill: #008dac;&#10;      }&#10;&#10;      .cls-1, .cls-2 {&#10;        stroke-width: 0px;&#10;      }&#10;&#10;      .cls-2 {&#10;        fill: #fff;&#10;      }&#10;    </style></defs><path
     class="cls-1"
     d="m 20.923876,40.353279 c -10.711,0 -19.4293002,-8.7183 -19.4293002,-19.42935 0,-10.71105 8.7183002,-19.4293398 19.4293002,-19.4293398 H 155.07607 c 10.71105,0 19.42934,8.7182898 19.42934,19.4293398 0,10.71105 -8.71829,19.42935 -19.42934,19.42935 z"
     id="path1-5"
     style="fill:#070b34;fill-opacity:1;stroke:none;stroke-opacity:1" /><path
     class="cls-2"
     d="m 155.07607,2.9891492 c 9.89402,0 17.93478,8.0407598 17.93478,17.9347798 0,9.89402 -8.04076,17.93479 -17.93478,17.93479 H 20.923876 c -9.894,0 -17.9348002,-8.04077 -17.9348002,-17.93479 0,-9.89402 8.0408002,-17.9347798 17.9348002,-17.9347798 H 155.07607 m 0,-2.989130004498 H 20.923876 C 9.3658758,1.9195502e-5 -2.4203474e-5,9.3659592 -2.4203474e-5,20.923929 c 0,11.55797 9.365900003474,20.92392 20.923900203474,20.92392 H 155.07607 c 11.55797,0 20.92391,-9.36595 20.92391,-20.92392 0,-11.5579698 -9.36594,-20.923909804498 -20.92391,-20.923909804498 z"
     id="path2-7"
     style="stroke:#bfa100;stroke-opacity:1" /><g
     id="g14"
     style="stroke:#bfa100;stroke-opacity:1"
     transform="matrix(0.99637681,0,0,0.99637681,-2.4203474e-5,1.9195502e-5)"><path
       class="cls-2"
       d="m 38.34,17.88 c 0,0.14 -0.09,0.3 -0.27,0.48 l -3.62,3.53 0.86,5 v 0.21 c 0,0.13 -0.04,0.24 -0.11,0.34 -0.07,0.1 -0.17,0.15 -0.3,0.15 -0.12,0 -0.26,-0.03 -0.4,-0.12 l -4.49,-2.36 -4.48,2.36 c -0.14,0.08 -0.28,0.12 -0.41,0.12 -0.13,0 -0.23,-0.05 -0.3,-0.16 -0.07,-0.11 -0.11,-0.22 -0.11,-0.34 0,-0.05 0,-0.12 0.02,-0.21 l 0.86,-5 -3.63,-3.53 c -0.17,-0.18 -0.25,-0.34 -0.25,-0.48 0,-0.25 0.18,-0.41 0.55,-0.46 l 5.01,-0.72 2.25,-4.55 c 0.13,-0.27 0.29,-0.41 0.48,-0.41 0.19,0 0.36,0.14 0.5,0.41 l 2.24,4.55 5.01,0.72 c 0.38,0.06 0.57,0.21 0.57,0.46 z"
       id="path3-2"
       style="stroke:#bfa100;stroke-opacity:1" /><path
       class="cls-2"
       d="m 55.44,22.54 1.66,2.49 -0.23,0.16 c -0.16,-0.15 -0.3,-0.23 -0.4,-0.23 -0.1,0 -0.4,0.14 -0.88,0.42 -1,0.58 -1.85,0.97 -2.53,1.17 -0.68,0.2 -1.5,0.3 -2.44,0.3 -1.88,0 -3.43,-0.45 -4.63,-1.34 -0.71,-0.52 -1.27,-1.16 -1.68,-1.93 -0.47,-0.88 -0.71,-1.85 -0.71,-2.91 0,-1.45 0.42,-2.7 1.27,-3.77 1.27,-1.6 3.19,-2.4 5.76,-2.4 0.94,0 1.75,0.1 2.43,0.3 0.68,0.2 1.52,0.59 2.53,1.17 0.48,0.27 0.78,0.41 0.88,0.41 0.1,0 0.24,-0.08 0.4,-0.23 l 0.23,0.16 -1.66,2.49 -0.24,-0.16 c 0.01,-0.09 0.02,-0.17 0.02,-0.24 0,-0.17 -0.07,-0.33 -0.22,-0.47 -0.15,-0.15 -0.4,-0.33 -0.78,-0.54 -1.03,-0.58 -2.12,-0.87 -3.28,-0.87 -1.36,0 -2.45,0.34 -3.26,1.02 -0.96,0.8 -1.43,1.84 -1.43,3.13 0,1.29 0.48,2.33 1.43,3.13 0.81,0.68 1.9,1.02 3.26,1.02 1.15,0 2.25,-0.29 3.28,-0.87 0.37,-0.21 0.63,-0.39 0.78,-0.54 0.15,-0.15 0.22,-0.31 0.22,-0.48 0,-0.06 0,-0.14 -0.02,-0.23 l 0.24,-0.17 z"
       id="path4-44"
       style="stroke:#bfa100;stroke-opacity:1" /><path
       class="cls-2"
       d="m 61.58,17.74 v 8 c 0,0.18 0.04,0.32 0.12,0.42 0.08,0.1 0.23,0.18 0.44,0.24 v 0.25 H 58.68 V 26.4 c 0.2,-0.05 0.35,-0.13 0.43,-0.23 0.08,-0.1 0.13,-0.24 0.13,-0.42 v -8.01 c 0,-0.18 -0.04,-0.32 -0.12,-0.41 -0.08,-0.09 -0.23,-0.17 -0.44,-0.24 v -0.24 h 3.46 v 0.24 c -0.21,0.06 -0.36,0.14 -0.44,0.23 -0.08,0.1 -0.12,0.23 -0.12,0.42 z"
       id="path5-1"
       style="stroke:#bfa100;stroke-opacity:1" /><path
       class="cls-2"
       d="m 69.26,18.62 v 7.12 c 0,0.18 0.04,0.32 0.12,0.42 0.08,0.1 0.23,0.18 0.44,0.24 v 0.25 H 66.36 V 26.4 c 0.2,-0.05 0.35,-0.13 0.43,-0.23 0.08,-0.1 0.13,-0.24 0.13,-0.42 v -7.12 h -2.88 c -0.19,0 -0.33,0.04 -0.42,0.12 -0.1,0.08 -0.17,0.23 -0.23,0.43 h -0.24 v -2.89 h 0.24 c 0.05,0.2 0.13,0.35 0.22,0.43 0.1,0.08 0.24,0.13 0.42,0.13 h 8.12 c 0.19,0 0.33,-0.04 0.42,-0.12 0.1,-0.08 0.17,-0.23 0.23,-0.44 h 0.24 v 2.89 H 72.8 c -0.06,-0.21 -0.14,-0.35 -0.23,-0.43 -0.1,-0.08 -0.24,-0.12 -0.42,-0.12 h -2.88 z"
       id="path6-8"
       style="stroke:#bfa100;stroke-opacity:1" /><path
       class="cls-2"
       d="m 76.94,17.74 v 8 c 0,0.18 0.04,0.32 0.12,0.42 0.08,0.1 0.23,0.18 0.44,0.24 v 0.25 H 74.04 V 26.4 c 0.2,-0.05 0.35,-0.13 0.43,-0.23 0.08,-0.1 0.13,-0.24 0.13,-0.42 v -8.01 c 0,-0.18 -0.04,-0.32 -0.12,-0.41 -0.08,-0.09 -0.23,-0.17 -0.44,-0.24 v -0.24 h 3.46 v 0.24 c -0.21,0.06 -0.36,0.14 -0.44,0.23 -0.08,0.1 -0.12,0.23 -0.12,0.42 z"
       id="path7-6"
       style="stroke:#bfa100;stroke-opacity:1" /><path
       class="cls-2"
       d="m 82.83,24.86 h 4.97 c 0.19,0 0.33,-0.04 0.42,-0.12 0.09,-0.08 0.17,-0.23 0.24,-0.43 H 88.7 V 27.2 H 88.46 C 88.41,27 88.33,26.85 88.24,26.77 88.14,26.69 88,26.64 87.82,26.64 h -8.78 v -0.52 l 5.7,-7.49 H 80 c -0.19,0 -0.33,0.04 -0.42,0.12 -0.09,0.08 -0.17,0.23 -0.24,0.44 H 79.1 V 16.3 h 0.24 c 0.06,0.21 0.14,0.36 0.23,0.44 0.1,0.08 0.24,0.12 0.42,0.12 h 8.61 v 0.43 l -5.77,7.59 z"
       id="path8-9"
       style="stroke:#bfa100;stroke-opacity:1" /><path
       class="cls-2"
       d="m 93.02,22.48 v 2.39 h 6.21 c 0.18,0 0.32,-0.04 0.42,-0.12 0.1,-0.08 0.17,-0.23 0.23,-0.44 h 0.25 V 27.2 H 99.88 C 99.83,27 99.75,26.85 99.65,26.77 99.55,26.69 99.41,26.64 99.23,26.64 h -9.12 v -0.25 c 0.2,-0.05 0.35,-0.13 0.43,-0.23 0.08,-0.1 0.13,-0.24 0.13,-0.42 v -8.01 c 0,-0.18 -0.04,-0.32 -0.12,-0.41 -0.08,-0.09 -0.23,-0.17 -0.44,-0.24 v -0.24 h 8.85 c 0.19,0 0.33,-0.04 0.42,-0.12 0.1,-0.08 0.17,-0.23 0.23,-0.44 h 0.24 v 2.89 h -0.24 c -0.06,-0.21 -0.13,-0.36 -0.23,-0.44 -0.1,-0.08 -0.24,-0.12 -0.42,-0.12 h -5.94 v 2.15 h 3.69 c 0.18,0 0.32,-0.04 0.42,-0.12 0.1,-0.08 0.18,-0.23 0.24,-0.44 h 0.24 v 2.82 h -0.24 c -0.06,-0.21 -0.13,-0.35 -0.23,-0.43 -0.1,-0.08 -0.24,-0.12 -0.42,-0.12 h -3.69 z"
       id="path9-4"
       style="stroke:#bfa100;stroke-opacity:1" /><path
       class="cls-2"
       d="m 104.3,20.19 v 5.55 c 0,0.18 0.04,0.32 0.13,0.42 0.08,0.1 0.23,0.18 0.43,0.24 v 0.25 h -3.25 V 26.4 c 0.2,-0.05 0.35,-0.13 0.43,-0.23 0.08,-0.1 0.13,-0.24 0.13,-0.42 v -8.01 c 0,-0.18 -0.04,-0.32 -0.12,-0.41 -0.08,-0.09 -0.23,-0.17 -0.44,-0.24 v -0.24 h 3.76 v 0.24 c -0.26,0.06 -0.38,0.18 -0.38,0.34 0,0.14 0.09,0.3 0.28,0.49 l 5.25,5.21 v -5.39 c 0,-0.18 -0.04,-0.32 -0.12,-0.42 -0.08,-0.1 -0.23,-0.17 -0.44,-0.23 v -0.24 h 3.25 v 0.24 c -0.21,0.06 -0.36,0.14 -0.44,0.23 -0.08,0.1 -0.12,0.23 -0.12,0.42 v 8 c 0,0.18 0.04,0.32 0.12,0.42 0.08,0.1 0.23,0.18 0.44,0.24 v 0.25 H 109.7 V 26.4 c 0.26,-0.05 0.38,-0.16 0.38,-0.32 0,-0.08 -0.04,-0.17 -0.11,-0.25 -0.07,-0.09 -0.23,-0.26 -0.48,-0.51 l -5.2,-5.12 z"
       id="path10-58"
       style="stroke:#bfa100;stroke-opacity:1" /><path
       class="cls-2"
       d="m 124.33,17.73 -1.18,2.28 -0.21,-0.11 c 0,-0.19 -0.06,-0.34 -0.18,-0.45 -0.33,-0.3 -0.82,-0.54 -1.47,-0.73 -0.65,-0.19 -1.3,-0.29 -1.97,-0.29 -0.56,0 -1.07,0.08 -1.5,0.24 -0.63,0.23 -0.94,0.56 -0.94,0.99 0,0.29 0.15,0.49 0.46,0.61 0.3,0.12 0.89,0.21 1.76,0.28 l 1.38,0.1 c 1.21,0.09 2.12,0.33 2.75,0.7 0.35,0.21 0.64,0.49 0.87,0.84 0.29,0.44 0.43,0.93 0.43,1.48 0,1 -0.45,1.78 -1.35,2.36 -0.86,0.55 -2.02,0.83 -3.48,0.83 -1.46,0 -2.9,-0.31 -4.27,-0.94 -0.09,-0.04 -0.17,-0.06 -0.24,-0.06 -0.12,0 -0.22,0.07 -0.32,0.21 l -0.22,-0.09 1,-2.4 0.22,0.09 v 0.07 c 0,0.15 0.06,0.28 0.17,0.38 0.29,0.26 0.8,0.48 1.51,0.67 0.72,0.19 1.42,0.28 2.12,0.28 0.62,0 1.17,-0.08 1.66,-0.25 0.61,-0.2 0.91,-0.52 0.91,-0.96 0,-0.36 -0.21,-0.6 -0.63,-0.74 -0.28,-0.09 -0.78,-0.17 -1.51,-0.24 l -1.37,-0.11 c -0.74,-0.06 -1.31,-0.13 -1.7,-0.23 -0.39,-0.09 -0.73,-0.23 -1.02,-0.41 -0.37,-0.23 -0.66,-0.55 -0.87,-0.95 -0.21,-0.4 -0.31,-0.84 -0.31,-1.32 0,-1.07 0.46,-1.89 1.38,-2.46 0.84,-0.51 1.88,-0.77 3.11,-0.77 0.67,0 1.29,0.07 1.88,0.22 0.59,0.15 1.27,0.41 2.08,0.78 0.24,0.11 0.41,0.17 0.5,0.17 0.09,0 0.21,-0.06 0.36,-0.19 l 0.21,0.11 z"
       id="path11-6"
       style="stroke:#bfa100;stroke-opacity:1" /><path
       class="cls-2"
       d="m 134.31,22.37 h -5.47 v 3.37 c 0,0.18 0.04,0.32 0.12,0.42 0.08,0.1 0.23,0.18 0.44,0.24 v 0.25 h -3.46 V 26.4 c 0.2,-0.05 0.35,-0.13 0.43,-0.23 0.08,-0.1 0.13,-0.24 0.13,-0.42 v -8.01 c 0,-0.18 -0.04,-0.32 -0.12,-0.41 -0.08,-0.09 -0.23,-0.17 -0.44,-0.24 v -0.24 h 3.46 v 0.24 c -0.21,0.06 -0.36,0.14 -0.44,0.23 -0.08,0.1 -0.12,0.23 -0.12,0.41 v 2.86 h 5.47 v -2.86 c 0,-0.18 -0.04,-0.32 -0.12,-0.41 -0.08,-0.09 -0.23,-0.17 -0.44,-0.24 v -0.24 h 3.46 v 0.24 c -0.21,0.06 -0.36,0.14 -0.44,0.23 -0.08,0.1 -0.12,0.23 -0.12,0.42 v 8 c 0,0.18 0.04,0.32 0.12,0.42 0.08,0.1 0.23,0.18 0.44,0.24 v 0.25 h -3.46 v -0.25 c 0.2,-0.05 0.35,-0.13 0.43,-0.23 0.08,-0.1 0.13,-0.24 0.13,-0.42 z"
       id="path12-3"
       style="stroke:#bfa100;stroke-opacity:1" /><path
       class="cls-2"
       d="m 141.83,17.74 v 8 c 0,0.18 0.04,0.32 0.12,0.42 0.08,0.1 0.23,0.18 0.44,0.24 v 0.25 h -3.46 V 26.4 c 0.2,-0.05 0.35,-0.13 0.43,-0.23 0.08,-0.1 0.13,-0.24 0.13,-0.42 v -8.01 c 0,-0.18 -0.04,-0.32 -0.12,-0.41 -0.08,-0.09 -0.23,-0.17 -0.44,-0.24 v -0.24 h 3.46 v 0.24 c -0.21,0.06 -0.36,0.14 -0.44,0.23 -0.08,0.1 -0.12,0.23 -0.12,0.42 z"
       id="path13-6"
       style="stroke:#bfa100;stroke-opacity:1" /><path
       class="cls-2"
       d="m 147.01,22.62 v 3.12 c 0,0.18 0.04,0.32 0.12,0.41 0.08,0.1 0.23,0.18 0.44,0.24 v 0.25 h -3.46 v -0.25 c 0.2,-0.05 0.35,-0.13 0.43,-0.23 0.08,-0.1 0.13,-0.24 0.13,-0.42 v -8.01 c 0,-0.18 -0.04,-0.32 -0.12,-0.41 -0.08,-0.09 -0.23,-0.17 -0.44,-0.24 v -0.24 h 6.38 c 1.26,0 2.22,0.19 2.86,0.57 0.37,0.22 0.67,0.54 0.87,0.94 0.21,0.41 0.32,0.87 0.32,1.37 0,0.97 -0.33,1.7 -1,2.17 -0.66,0.48 -1.68,0.71 -3.05,0.71 h -3.48 z m 0,-1.78 h 3.34 c 0.61,0 1.04,-0.06 1.28,-0.17 0.35,-0.17 0.52,-0.48 0.52,-0.94 0,-0.46 -0.17,-0.77 -0.52,-0.93 -0.23,-0.12 -0.66,-0.18 -1.28,-0.18 h -3.34 z"
       id="path14-1"
       style="stroke:#bfa100;stroke-opacity:1" /></g></svg>
