<?xml version="1.0" encoding="UTF-8" standalone="no"?>
<!-- Created with Inkscape (http://www.inkscape.org/) -->

<svg
   version="1.1"
   id="svg1"
   width="183.09389"
   height="42"
   viewBox="0 0 183.09389 42.000001"
   sodipodi:docname="estalciabutton.svg"
   xml:space="preserve"
   inkscape:version="1.3 (0e150ed6c4, 2023-07-21)"
   inkscape:export-filename="estalciabutton.png"
   inkscape:export-xdpi="96"
   inkscape:export-ydpi="96"
   xmlns:inkscape="http://www.inkscape.org/namespaces/inkscape"
   xmlns:sodipodi="http://sodipodi.sourceforge.net/DTD/sodipodi-0.dtd"
   xmlns:xlink="http://www.w3.org/1999/xlink"
   xmlns="http://www.w3.org/2000/svg"
   xmlns:svg="http://www.w3.org/2000/svg"><sodipodi:namedview
     id="namedview1"
     pagecolor="#ffffff"
     bordercolor="#000000"
     borderopacity="0.25"
     inkscape:showpageshadow="2"
     inkscape:pageopacity="0.0"
     inkscape:pagecheckerboard="0"
     inkscape:deskcolor="#d1d1d1"
     inkscape:zoom="0.45717228"
     inkscape:cx="674.80032"
     inkscape:cy="692.2992"
     inkscape:window-width="3440"
     inkscape:window-height="1417"
     inkscape:window-x="-8"
     inkscape:window-y="1432"
     inkscape:window-maximized="1"
     inkscape:current-layer="svg1" /><defs
     id="defs1"><linearGradient
       id="e-6"
       x1="0.02"
       gradientUnits="userSpaceOnUse"
       gradientTransform="matrix(-328.19,328.19,-328.19,-328.19,492.76,164.57)"
       x2="0.98000002"><stop
         stop-color="#286c1a"
         offset="0"
         id="stop1-3" /><stop
         stop-color="#368d23"
         offset="1"
         id="stop2-2" /></linearGradient><linearGradient
       id="d-5"
       x1="0.02"
       gradientUnits="userSpaceOnUse"
       gradientTransform="matrix(-299.24,299.24,-299.24,-299.24,674.54,329.97)"
       x2="0.98000002"><stop
         stop-color="#9f1717"
         offset="0"
         id="stop3-1" /><stop
         stop-color="#d11e1e"
         offset="1"
         id="stop4-5" /></linearGradient><linearGradient
       id="c-6"
       x1="0.02"
       gradientUnits="userSpaceOnUse"
       gradientTransform="matrix(-237.4,237.4,-237.4,-237.4,606.48,131.68)"
       x2="0.98000002"><stop
         stop-color="#b7b265"
         offset="0"
         id="stop5-5" /><stop
         stop-color="#c1bc69"
         offset="1"
         id="stop6-6" /></linearGradient><linearGradient
       id="b-0"
       x1="0.02"
       gradientUnits="userSpaceOnUse"
       gradientTransform="matrix(-318.24,318.24,-318.24,-318.24,568.62,250.38)"
       x2="0.98000002"><stop
         stop-color="#032e63"
         offset="0"
         id="stop7-8" /><stop
         stop-color="#03387c"
         offset="1"
         id="stop8-3" /></linearGradient><linearGradient
       id="a-0"
       x1="0.02"
       gradientUnits="userSpaceOnUse"
       gradientTransform="matrix(-500.76,500.76,-500.76,-500.76,751.14,250.38)"
       x2="0.98000002"><stop
         stop-color="#bea41c"
         offset="0"
         id="stop9-3" /><stop
         stop-color="#fcd726"
         offset="1"
         id="stop10-4" /></linearGradient><style
       id="style1">&#10;      .cls-1 {&#10;        fill: #fff;&#10;      }&#10;&#10;      .cls-1, .cls-2 {&#10;        stroke-width: 0px;&#10;      }&#10;&#10;      .cls-2 {&#10;        fill: #185886;&#10;      }&#10;    </style><linearGradient
       inkscape:collect="always"
       xlink:href="#e-6"
       id="linearGradient465"
       gradientUnits="userSpaceOnUse"
       gradientTransform="matrix(-328.19,328.19,-328.19,-328.19,492.76,164.57)"
       x1="0.02"
       x2="0.98000002" /><linearGradient
       inkscape:collect="always"
       xlink:href="#d-5"
       id="linearGradient466"
       gradientUnits="userSpaceOnUse"
       gradientTransform="matrix(-299.24,299.24,-299.24,-299.24,674.54,329.97)"
       x1="0.02"
       x2="0.98000002" /><linearGradient
       inkscape:collect="always"
       xlink:href="#c-6"
       id="linearGradient467"
       gradientUnits="userSpaceOnUse"
       gradientTransform="matrix(-237.4,237.4,-237.4,-237.4,606.48,131.68)"
       x1="0.02"
       x2="0.98000002" /><linearGradient
       inkscape:collect="always"
       xlink:href="#b-0"
       id="linearGradient468"
       gradientUnits="userSpaceOnUse"
       gradientTransform="matrix(-318.24,318.24,-318.24,-318.24,568.62,250.38)"
       x1="0.02"
       x2="0.98000002" /><linearGradient
       inkscape:collect="always"
       xlink:href="#a-0"
       id="linearGradient469"
       gradientUnits="userSpaceOnUse"
       gradientTransform="matrix(-500.76,500.76,-500.76,-500.76,751.14,250.38)"
       x1="0.02"
       x2="0.98000002" /><style
       id="style1-1">&#10;      .cls-1 {&#10;        fill: #325733;&#10;      }&#10;&#10;      .cls-1, .cls-2 {&#10;        stroke-width: 0px;&#10;      }&#10;&#10;      .cls-2 {&#10;        fill: #fff;&#10;      }&#10;    </style><style
       id="style1-2">&#10;      .cls-1 {&#10;        fill: #1e90ff;&#10;      }&#10;&#10;      .cls-1, .cls-2 {&#10;        stroke-width: 0px;&#10;      }&#10;&#10;      .cls-2 {&#10;        fill: #fff;&#10;      }&#10;    </style><style
       id="style1-4">&#10;      .cls-1 {&#10;        fill: #008dac;&#10;      }&#10;&#10;      .cls-1, .cls-2 {&#10;        stroke-width: 0px;&#10;      }&#10;&#10;      .cls-2 {&#10;        fill: #fff;&#10;      }&#10;    </style></defs><path
     class="cls-2"
     d="m 21.000004,40.500009 c -10.75,0 -19.5,-8.75 -19.5,-19.5 0,-10.75 8.75,-19.4999998 19.5,-19.4999998 H 162.7033 c 10.75,0 19.5,8.7499998 19.5,19.4999998 0,10.75 -8.75,19.5 -19.5,19.5 z"
     id="path1"
     sodipodi:nodetypes="sssssss"
     style="fill:#070b34;fill-opacity:1" /><path
     class="cls-1"
     d="m 162.0938,3.0000092 c 9.93,0 18,8.0699998 18,17.9999998 0,9.93 -8.07,18 -18,18 H 21.000004 c -9.93,0 -18,-8.07 -18,-18 0,-9.93 8.07,-17.9999998 18,-17.9999998 H 162.0938 m 0,-3.0000000067211 H 21.000004 C 9.400004,9.1932789e-6 4.0111497e-6,9.4000092 4.0111497e-6,21.000009 c 0,11.6 9.3999999888503,21 20.9999999888503,21 H 162.0938 c 11.6,0 21,-9.4 21,-21 0,-11.5999998 -9.4,-20.9999998067211 -21,-20.9999998067211 z"
     id="path2-1"
     sodipodi:nodetypes="cssssscsssssss"
     style="fill:#ffffff;fill-opacity:1" /><g
     transform="matrix(0.05500657,0,0,-0.05500657,14.262404,34.772549)"
     id="g42"
     clip-path="none"><path
       d="m 427.09,427.09 c 22.948,-22.948 40.965,-49.672 53.552,-79.432 13.034,-30.816 19.643,-63.544 19.643,-97.277 0,-33.732 -6.6093,-66.461 -19.643,-97.277 -12.59,-29.76 -30.6,-56.481 -53.55,-79.429 C 404.142,50.727 377.422,32.71 347.662,20.124 316.842,7.09 284.112,0.48 250.382,0.48 c -33.73,2e-4 -66.46,6.6095 -97.28,19.644 -29.76,12.586 -56.48,30.603 -79.428,53.551 -22.947,22.948 -40.965,49.669 -53.552,79.429 -13.034,30.82 -19.643,63.55 -19.643,97.28 0,33.733 6.6092,66.461 19.643,97.277 12.587,29.76 30.605,56.484 53.552,79.432 22.947,22.947 49.672,40.965 79.432,53.552 30.816,13.034 63.544,19.643 97.277,19.643 33.732,0 66.461,-6.6093 97.277,-19.643 29.759,-12.587 56.484,-30.605 79.431,-53.552 z"
       fill-rule="evenodd"
       stroke="#ffffff"
       stroke-miterlimit="2.6131"
       stroke-width="0.5"
       fill="#ffffff"
       id="path10-6" /><path
       d="M 328.66,12.978 C 303.51,4.6752 277.26,0.477 250.38,0.477 216.65,0.4768 183.92,7.086 153.1,20.12 123.34,32.707 96.619,50.724 73.672,73.672 50.724,96.619 32.706,123.34 20.12,153.1 7.086,183.92 0.476,216.65 0.476,250.38 c 0,26.886 4.1984,53.133 12.502,78.282 l 315.68,-315.68 z"
       fill-rule="evenodd"
       fill="url(#e)"
       id="path11-3"
       style="fill:url(#linearGradient465)" /><path
       d="M 328.66,12.978 C 303.51,4.6752 277.26,0.477 250.38,0.477 216.65,0.4768 183.92,7.086 153.1,20.12 123.34,32.707 96.619,50.724 73.672,73.672 50.724,96.619 32.706,123.34 20.12,153.1 7.086,183.92 0.476,216.65 0.476,250.38 c 0,26.886 4.1984,53.133 12.502,78.282 l 315.68,-315.68 z"
       stroke="#378e42"
       stroke-miterlimit="2.6131"
       stroke-width="0.5"
       fill="none"
       id="path12" /><path
       d="m 487.75,172.13 -237.4,237.4 78.282,78.282 c 6.4054,-2.1149 12.74,-4.496 18.996,-7.1419 29.759,-12.587 56.484,-30.605 79.431,-53.552 22.948,-22.948 40.965,-49.672 53.552,-79.432 13.034,-30.816 19.643,-63.544 19.643,-97.277 0,-26.884 -4.1984,-53.132 -12.501,-78.281"
       fill-rule="evenodd"
       fill="url(#d)"
       id="path13-7"
       style="fill:url(#linearGradient466)" /><path
       d="m 487.75,172.13 -237.4,237.4 78.282,78.282 c 6.4054,-2.1149 12.74,-4.496 18.996,-7.1419 29.759,-12.587 56.484,-30.605 79.431,-53.552 22.948,-22.948 40.965,-49.672 53.552,-79.432 13.034,-30.816 19.643,-63.544 19.643,-97.277 0,-26.884 -4.1984,-53.132 -12.501,-78.281 z"
       stroke="#cc2026"
       stroke-miterlimit="2.6131"
       stroke-width="0.5"
       fill="none"
       id="path14" /><path
       d="m 487.78,172.1 c -2.1149,-6.4057 -4.496,-12.74 -7.1419,-18.996 -12.587,-29.759 -30.604,-56.484 -53.552,-79.431 -22.947,-22.948 -49.672,-40.965 -79.431,-53.552 -6.2555,-2.6459 -12.59,-5.027 -18.996,-7.1416 l -78.282,78.282 159.12,159.12 78.282,-78.282 z"
       fill-rule="evenodd"
       fill="url(#c)"
       id="path15-8"
       style="fill:url(#linearGradient467)" /><path
       d="m 487.78,172.1 c -2.1149,-6.4057 -4.496,-12.74 -7.1419,-18.996 -12.587,-29.759 -30.604,-56.484 -53.552,-79.431 -22.947,-22.948 -49.672,-40.965 -79.431,-53.552 -6.2555,-2.6459 -12.59,-5.027 -18.996,-7.1416 l -78.282,78.282 159.12,159.12 78.282,-78.282 z"
       stroke="#bab566"
       stroke-miterlimit="2.6131"
       stroke-width="0.5"
       fill="none"
       id="path16" /><path
       d="M 91.26,250.38 250.38,409.5 409.5,250.38 250.38,91.26 Z"
       fill-rule="evenodd"
       fill="url(#b)"
       id="path17-0"
       style="fill:url(#linearGradient468)" /><path
       d="M 91.26,250.38 250.38,409.5 409.5,250.38 250.38,91.26 Z"
       stroke="#213d79"
       stroke-miterlimit="2.6131"
       stroke-width="0.5"
       fill="none"
       id="path18-0" /><g
       id="g30"><path
         d="m 48.781,281.82 7.77,-23.916 h 25.146 l -20.343,-14.924 7.7701,-23.987 -20.343,14.744 -20.344,-14.798 7.7709,24.05 -20.344,14.915 H 41.01 l 7.7709,23.916 z"
         fill="#fcd626"
         id="path19" /><path
         d="m 451.98,281.82 7.77,-23.916 h 25.146 l -20.343,-14.924 7.7701,-23.987 -20.343,14.744 -20.344,-14.798 7.7709,24.05 -20.344,14.915 h 25.146 l 7.7709,23.916 z"
         fill="#bfa61c"
         id="path20-3" /><path
         d="m 250.38,80.221 7.77,-23.916 h 25.146 l -20.343,-14.924 7.7701,-23.987 -20.343,14.744 -20.344,-14.798 7.7709,24.05 -20.344,14.915 h 25.146 l 7.7709,23.916 z"
         fill="#bfa61c"
         id="path21" /><path
         d="m 250.38,483.42 7.77,-23.916 h 25.146 l -20.343,-14.924 7.7701,-23.987 -20.343,14.744 -20.344,-14.798 7.7709,24.05 -20.344,14.915 h 25.146 l 7.7709,23.916 z"
         fill="#fcd626"
         id="path22" /><path
         d="m 424.97,382.62 7.77,-23.916 h 25.146 l -20.343,-14.924 7.77,-23.987 -20.343,14.744 -20.344,-14.798 7.7709,24.05 -20.344,14.915 h 25.146 l 7.7709,23.916 z"
         fill="#e0c221"
         id="path23" /><path
         d="m 75.79,181.02 7.7701,-23.916 h 25.146 l -20.343,-14.924 7.77,-23.987 -20.343,14.744 -20.344,-14.798 7.7709,24.05 -20.344,14.915 h 25.146 l 7.7709,23.916 z"
         fill="#f7d426"
         id="path24" /><path
         d="m 351.18,456.41 7.77,-23.916 h 25.146 l -20.343,-14.924 7.7701,-23.987 -20.343,14.744 -20.344,-14.798 7.7709,24.05 -20.344,14.915 h 25.146 l 7.7709,23.916 z"
         fill="#f7d426"
         id="path25" /><path
         d="m 149.58,107.23 7.77,-23.916 h 25.146 l -20.343,-14.924 7.7701,-23.987 -20.343,14.744 -20.344,-14.798 7.7709,24.05 -20.344,14.915 h 25.146 l 7.7709,23.916 z"
         fill="#e0c221"
         id="path26" /><path
         d="m 75.789,382.62 -7.7701,-23.916 h -25.146 l 20.343,-14.924 -7.77,-23.987 20.343,14.744 20.344,-14.798 -7.7709,24.05 20.344,14.915 H 83.56 l -7.7709,23.916 z"
         fill="#fcd626"
         id="path27" /><path
         d="m 424.97,181.02 -7.7701,-23.916 h -25.146 l 20.343,-14.924 -7.7701,-23.987 20.343,14.744 20.344,-14.798 -7.7709,24.05 20.344,14.915 h -25.146 z"
         fill="#bfa61c"
         id="path28" /><path
         d="m 149.58,456.41 -7.77,-23.916 h -25.146 l 20.343,-14.924 -7.77,-23.987 20.343,14.744 20.344,-14.798 -7.7709,24.05 20.344,14.915 h -25.146 l -7.7709,23.916 z"
         fill="#fcd626"
         id="path29" /><path
         d="m 351.18,107.23 -7.77,-23.916 h -25.146 l 20.343,-14.924 -7.77,-23.987 20.343,14.744 20.344,-14.798 -7.7709,24.05 20.344,14.915 h -25.146 l -7.7709,23.916 z"
         fill="#bfa61c"
         id="path30" /></g><path
       d="m 250.38,500.76 c 138.28,0 250.38,-112.1 250.38,-250.38 C 500.76,112.1 388.66,0 250.38,0 112.1,0 0,112.1 0,250.38 0,388.66 112.1,500.76 250.38,500.76 Z m 0,-10.188 c 132.65,0 240.19,-107.54 240.19,-240.19 0,-132.65 -107.54,-240.19 -240.19,-240.19 -132.65,0 -240.19,107.54 -240.19,240.19 0,132.65 107.54,240.19 240.19,240.19"
       fill-rule="evenodd"
       fill="url(#a)"
       id="path31"
       style="fill:url(#linearGradient469)" /><g
       fill-rule="evenodd"
       stroke-miterlimit="2.6131"
       stroke-width="2.0001"
       id="g41"><path
         d="m 288.15,302.05 -37.773,116.26 6e-4,-167.93 37.773,51.668 z"
         stroke="#ffe300"
         fill="#ffe300"
         id="path32" /><path
         d="m 250.38,250.38 37.773,51.668 h 122.25 l -160.02,-51.67 z"
         stroke="#f2cc00"
         fill="#f2cc00"
         id="path33" /><path
         d="M 410.4,302.05 250.38,250.38 311.503,229.496 410.4,302.049 Z"
         stroke="#d6c200"
         fill="#d6c200"
         id="path34-5" /><path
         d="M 250.38,250.38 349.28,112.89 311.5,229.5 Z"
         stroke="#bfa100"
         fill="#bfa100"
         id="path35" /><path
         d="m 250.38,250.38 98.896,-137.49 -98.897,71.676 6e-4,65.818 z"
         stroke="#d6c200"
         fill="#d6c200"
         id="path36-5" /><path
         d="m 212.61,302.05 37.773,116.26 -6e-4,-167.93 -37.773,51.668 z"
         stroke="#ffeb80"
         fill="#ffeb80"
         id="path37" /><path
         d="m 250.38,250.38 -37.773,51.668 H 90.357 l 160.02,-51.668 z"
         stroke="#fff2a3"
         fill="#fff2a3"
         id="path38" /><path
         d="M 90.36,302.05 250.38,250.38 189.26,229.5 Z"
         stroke="#ffde2e"
         fill="#ffde2e"
         id="path39" /><path
         d="M 250.38,250.38 151.48,112.89 189.26,229.5 Z"
         stroke="#f5db00"
         fill="#f5db00"
         id="path40" /><path
         d="m 250.38,250.38 -98.896,-137.49 98.897,71.676 -6e-4,65.818 z"
         stroke="#bfa100"
         fill="#bfa100"
         id="path41-2" /></g></g><path
     class="cls-1"
     d="m 57.830004,22.691459 -1.42,2.81 -0.24,-0.13999 c 0,-0.06 0,-0.11001 0,-0.14 0,-0.2 -0.17,-0.41 -0.51,-0.64 -1.04,-0.72 -2.25,-1.08 -3.65,-1.08 -0.62,0 -1.16,0.08 -1.63,0.23 -0.34,0.12 -0.62,0.29 -0.83,0.52 -0.21,0.23 -0.32,0.49 -0.32,0.76 0,0.45 0.27,0.75 0.81,0.92 0.28,0.08 0.88,0.17 1.8,0.26 l 1.37,0.14 c 0.82,0.09 1.48,0.21 1.98,0.36 0.5,0.15 0.95,0.36 1.34,0.64 0.4,0.29 0.71,0.66 0.94,1.13 0.23,0.47 0.35,0.96 0.35,1.49 0,0.84 -0.27,1.58 -0.81,2.23 -0.49,0.6 -1.25,1.04 -2.28,1.32 -0.77,0.21 -1.59,0.32 -2.47,0.32 -1.58,0 -3.14,-0.38 -4.68,-1.14 -0.33,-0.15 -0.52,-0.23 -0.59,-0.23 -0.08,0 -0.2,0.06 -0.36,0.19 l -0.25,-0.13 1.29,-2.93 0.25,0.12 v 0.11 c 0,0.26 0.13,0.5 0.38,0.72 0.38,0.34 0.96,0.63 1.76,0.88 0.8,0.25 1.54,0.37 2.25,0.37 0.78,0 1.44,-0.13 1.98,-0.39 0.3,-0.14 0.54,-0.34 0.73,-0.58 0.18,-0.24 0.27,-0.49 0.27,-0.76 0,-0.39 -0.21,-0.68 -0.64,-0.85 -0.3,-0.12 -0.9,-0.22 -1.8,-0.32 l -1.35,-0.14 c -0.9,-0.09 -1.54,-0.18 -1.91,-0.27 -0.37,-0.09 -0.75,-0.22 -1.12,-0.41 -0.53,-0.26 -0.95,-0.66 -1.25,-1.18 -0.27,-0.47 -0.41,-1.02 -0.41,-1.63 0,-1.01 0.35,-1.84 1.04,-2.5 0.91,-0.87 2.27,-1.3 4.09,-1.3 0.76,0 1.47,0.08 2.13,0.23 0.66,0.15 1.48,0.44 2.46,0.86 0.34,0.13 0.54,0.2 0.62,0.2 0.12,0 0.27,-0.07 0.43,-0.2 l 0.24,0.13 z"
     id="path4"
     style="fill:#ffffff;fill-opacity:1" /><path
     class="cls-1"
     d="m 64.870004,25.591459 v 7.12 c 0,0.18 0.04,0.32 0.12,0.42 0.08,0.10001 0.23,0.18001 0.44,0.24001 v 0.25 h -3.46 v -0.25 c 0.2,-0.05 0.35,-0.13 0.43,-0.23001 0.08,-0.1 0.13,-0.24 0.13,-0.42 v -7.12 h -2.88 c -0.19,0 -0.33,0.04 -0.42,0.12 -0.1,0.08 -0.17,0.23 -0.23,0.43 h -0.24 v -2.89 h 0.24 c 0.05,0.21 0.13,0.35001 0.22,0.43 0.1,0.08 0.24,0.13 0.42,0.13 h 8.12 c 0.19,0 0.33,-0.04 0.42,-0.12 0.09,-0.08 0.17,-0.23 0.23,-0.44 h 0.24 v 2.89 h -0.24 c -0.06,-0.21 -0.14,-0.35 -0.23,-0.43 -0.1,-0.08 -0.24,-0.12 -0.42,-0.12 h -2.88 z"
     id="path5"
     style="fill:#ffffff;fill-opacity:1" /><path
     class="cls-1"
     d="m 75.990004,31.161459 h -4.5 l -0.51,1.07 c -0.12,0.26 -0.18,0.46 -0.18,0.6 0,0.28 0.19,0.46 0.56,0.53 v 0.25 h -3.6 v -0.25 c 0.22,-0.03 0.39,-0.1 0.49,-0.2 0.11,-0.1 0.23,-0.29 0.38,-0.59 l 3.57,-7.24 c 0.13,-0.26999 0.2,-0.51 0.2,-0.72 0,-0.24 -0.16,-0.42 -0.49,-0.56 v -0.24 h 3.8 v 0.24 c -0.32,0.13 -0.48,0.33 -0.48,0.59 0,0.19 0.07,0.43 0.22,0.71 l 3.71,7.02 c 0.2,0.38 0.36,0.63 0.48,0.74 0.12,0.11 0.29,0.19 0.53,0.24 v 0.25 h -4 v -0.25 c 0.38,-0.06 0.57,-0.24 0.57,-0.53 0,-0.18 -0.07,-0.4 -0.22,-0.67 l -0.54,-1 z m -0.7,-1.37 -1.6,-3.15 -1.53,3.15 z"
     id="path6"
     style="fill:#ffffff;fill-opacity:1" /><path
     class="cls-1"
     d="m 83.900004,29.591459 v 3.12 c 0,0.18 0.04,0.32 0.12,0.41001 0.08,0.09 0.23,0.18 0.44,0.24 v 0.25 h -3.46 v -0.25 c 0.2,-0.05 0.35,-0.13 0.43,-0.23001 0.08,-0.1 0.13,-0.24 0.13,-0.42 v -8.01 c 0,-0.18 -0.04,-0.32 -0.12,-0.41 -0.08,-0.09 -0.23,-0.17 -0.44,-0.24 v -0.24 h 6.42 c 0.83,0 1.47,0.04 1.91,0.12 0.44,0.09 0.83,0.24 1.17,0.46 0.7,0.46 1.06,1.21 1.06,2.26 0,0.79 -0.22,1.41 -0.65,1.86 -0.43,0.45 -1.13,0.77 -2.1,0.96 l 1.85,2.58 c 0.34,0.48 0.61,0.8 0.81,0.97 0.2,0.17 0.43,0.28 0.69,0.33 v 0.25 h -4.12 v -0.25 c 0.3,-0.08 0.46,-0.21 0.46,-0.39 0,-0.13 -0.09,-0.32 -0.28,-0.59 l -1.96,-2.8 h -2.34 z m 0,-1.77999 h 3.53 c 0.54,0 0.93,-0.06 1.19,-0.18001 0.36,-0.16 0.54,-0.47 0.54,-0.94 0,-0.41 -0.13,-0.69999 -0.38,-0.87 -0.25,-0.16 -0.7,-0.24 -1.35,-0.24 h -3.53 v 2.22001 z"
     id="path7"
     style="fill:#ffffff;fill-opacity:1" /><path
     class="cls-1"
     d="m 98.780004,25.591459 v 7.12 c 0,0.18 0.04,0.32 0.12,0.42 0.08,0.10001 0.23,0.18001 0.44,0.24001 v 0.25 h -3.46 v -0.25 c 0.2,-0.05 0.35,-0.13 0.43,-0.23001 0.08,-0.1 0.13,-0.24 0.13,-0.42 v -7.12 h -2.88 c -0.19,0 -0.33,0.04 -0.42,0.12 -0.1,0.08 -0.17,0.23 -0.23,0.43 h -0.24 v -2.89 h 0.24 c 0.05,0.21 0.13,0.35001 0.22,0.43 0.1,0.08 0.24,0.13 0.42,0.13 H 101.67 c 0.19,0 0.33,-0.04 0.42,-0.12 0.09,-0.08 0.17,-0.23 0.23,-0.44 h 0.24 v 2.89 h -0.24 c -0.06,-0.21 -0.14,-0.35 -0.23,-0.43 -0.1,-0.08 -0.24,-0.12 -0.42,-0.12 h -2.879996 z"
     id="path8"
     style="fill:#ffffff;fill-opacity:1" /><path
     class="cls-1"
     d="m 118.3,28.401459 h -6.88 v 4.3 c 0,0.18 0.04,0.31 0.13,0.41001 0.08,0.1 0.23,0.17 0.43,0.22 v 0.28 h -3.72 v -0.28 c 0.21,-0.06 0.36,-0.13 0.44,-0.23 0.08,-0.10001 0.12,-0.23 0.12,-0.4 v -10.11 c 0,-0.18 -0.04,-0.31 -0.12,-0.4 -0.08,-0.09 -0.23,-0.17 -0.44,-0.23 v -0.28 h 3.72 v 0.28 c -0.21,0.05 -0.36,0.13 -0.44,0.22 -0.08,0.1 -0.12,0.23 -0.12,0.41 v 3.85 h 6.88 v -3.85 c 0,-0.18 -0.04,-0.31 -0.12,-0.41 -0.08,-0.1 -0.23,-0.17 -0.44,-0.22 v -0.28 h 3.72 v 0.28 c -0.21,0.06 -0.36,0.13 -0.44,0.23 -0.08,0.09 -0.12,0.23 -0.12,0.4 v 10.11 c 0,0.18 0.04,0.31 0.12,0.4 0.08,0.09 0.23,0.17 0.44,0.23 v 0.28 h -3.72 v -0.28 c 0.2,-0.05 0.35,-0.13 0.43,-0.22 0.08,-0.10001 0.13,-0.23001 0.13,-0.41001 z"
     id="path9"
     style="fill:#ffffff;fill-opacity:1" /><path
     class="cls-1"
     d="m 126.3,29.451459 v 2.38 h 6.21 c 0.18,0 0.32,-0.04 0.42,-0.12 0.1,-0.08 0.17,-0.23 0.23,-0.44 h 0.25 v 2.89 h -0.25 c -0.05,-0.2 -0.13,-0.35 -0.23,-0.43 -0.1,-0.09 -0.24,-0.13 -0.42,-0.13 h -9.12 v -0.25 c 0.2,-0.05 0.35,-0.13 0.43,-0.23 0.08,-0.1 0.13,-0.24 0.13,-0.42 v -8.01 c 0,-0.18 -0.04,-0.32 -0.12,-0.41 -0.08,-0.09 -0.23,-0.17 -0.44,-0.24 v -0.24 h 8.85 c 0.19,0 0.33,-0.04 0.42,-0.12 0.09,-0.08 0.17,-0.23 0.23,-0.44 h 0.24 v 2.89 h -0.24 c -0.06,-0.21 -0.14,-0.36 -0.23,-0.44 -0.09,-0.08 -0.24,-0.12 -0.42,-0.12 h -5.94 v 2.15 h 3.69 c 0.18,0 0.32,-0.04 0.42,-0.12 0.1,-0.08 0.18,-0.23 0.24,-0.44 h 0.24 v 2.82 h -0.24 c -0.06,-0.21 -0.14,-0.35 -0.23,-0.44 -0.1,-0.08 -0.24,-0.12 -0.42,-0.12 h -3.69 z"
     id="path10-5"
     style="fill:#ffffff;fill-opacity:1" /><path
     class="cls-1"
     d="m 137.79,29.591459 v 3.12 c 0,0.18 0.04,0.32 0.12,0.41001 0.08,0.09 0.23,0.18 0.44,0.24 v 0.25 h -3.46 v -0.25 c 0.2,-0.05 0.35,-0.13 0.43,-0.23001 0.08,-0.1 0.13,-0.24 0.13,-0.42 v -8.01 c 0,-0.18 -0.04,-0.32 -0.12,-0.41 -0.08,-0.09 -0.23,-0.17 -0.44,-0.24 v -0.24 h 6.42 c 0.83,0 1.47,0.04 1.91,0.12 0.44,0.09 0.83,0.24 1.17,0.46 0.7,0.46 1.06,1.21 1.06,2.26 0,0.79 -0.22,1.41 -0.65,1.86 -0.43,0.45 -1.13,0.77 -2.1,0.96 l 1.85,2.58 c 0.34,0.48 0.61,0.8 0.81,0.97 0.2,0.17 0.43,0.28 0.69,0.33 v 0.25 h -4.12 v -0.25 c 0.3,-0.08 0.46,-0.21 0.46,-0.39 0,-0.13 -0.09,-0.32 -0.28,-0.59 l -1.96,-2.8 h -2.34 z m 0,-1.77999 h 3.53 c 0.54,0 0.93,-0.06 1.19,-0.18001 0.36,-0.16 0.54,-0.47 0.54,-0.94 0,-0.41 -0.13,-0.69999 -0.38,-0.87 -0.25,-0.16 -0.7,-0.24 -1.35,-0.24 h -3.53 v 2.22001 z"
     id="path11-5"
     style="fill:#ffffff;fill-opacity:1" /><path
     class="cls-1"
     d="m 150.11,29.451459 v 2.38 h 6.21 c 0.18,0 0.32,-0.04 0.42,-0.12 0.1,-0.08 0.17,-0.23 0.23,-0.44 h 0.25 v 2.89 h -0.25 c -0.05,-0.2 -0.13,-0.35 -0.23,-0.43 -0.1,-0.09 -0.24,-0.13 -0.42,-0.13 h -9.12 v -0.25 c 0.2,-0.05 0.35,-0.13 0.43,-0.23 0.08,-0.1 0.13,-0.24 0.13,-0.42 v -8.01 c 0,-0.18 -0.04,-0.32 -0.12,-0.41 -0.08,-0.09 -0.23,-0.17 -0.44,-0.24 v -0.24 h 8.85 c 0.19,0 0.33,-0.04 0.42,-0.12 0.09,-0.08 0.17,-0.23 0.23,-0.44 h 0.24 v 2.89 h -0.24 c -0.06,-0.21 -0.14,-0.36 -0.23,-0.44 -0.09,-0.08 -0.24,-0.12 -0.42,-0.12 h -5.94 v 2.15 h 3.69 c 0.18,0 0.32,-0.04 0.42,-0.12 0.1,-0.08 0.18,-0.23 0.24,-0.44 h 0.24 v 2.82 h -0.24 c -0.06,-0.21 -0.14,-0.35 -0.23,-0.44 -0.1,-0.08 -0.24,-0.12 -0.42,-0.12 h -3.69 z"
     id="path12-8"
     style="fill:#ffffff;fill-opacity:1" /><path
     class="cls-1"
     d="m 162.37,29.411459 h -2.31 v -0.28 c 0.24,-0.06 0.4,-0.13 0.46,-0.20999 0.07,-0.08 0.1,-0.22001 0.1,-0.42001 0,-0.12 0,-0.25 -0.03,-0.38999 l -0.64,-5.38 c -0.04,-0.31 -0.08,-0.5 -0.14,-0.59 -0.06,-0.08 -0.21,-0.14 -0.43,-0.18 v -0.28 h 3.67 v 0.28 c -0.23,0.04 -0.37,0.1 -0.43,0.18 -0.06,0.08 -0.11,0.28 -0.14,0.59 l -0.64,5.38 c -0.02,0.13999 -0.03,0.26999 -0.03,0.38999 0,0.21 0.03,0.35001 0.1,0.43001 0.06,0.08 0.22,0.14999 0.46,0.20999 v 0.28 z m -1.15,1.54 c 0.4,0 0.74,0.14 1.02,0.42001 0.28,0.27999 0.42,0.62 0.42,1.01999 0,0.4 -0.14,0.72001 -0.42,1 -0.28,0.28 -0.62,0.42001 -1.01,0.42001 -0.39,0 -0.73,-0.14 -1.01,-0.42001 -0.28,-0.27999 -0.42,-0.62 -0.42,-1.01999 0,-0.4 0.14,-0.72001 0.42,-1 0.28,-0.28 0.62,-0.42001 1.02,-0.42001 z"
     id="path13-5"
     style="fill:#ffffff;fill-opacity:1" /><path
     class="cls-1"
     d="m 126.5652,15.805009 v 2.38 h 6.21 c 0.18,0 0.32,-0.04 0.42,-0.12 0.1,-0.08 0.17,-0.23 0.23,-0.44 h 0.25 v 2.89 h -0.25 c -0.05,-0.2 -0.13,-0.35 -0.23,-0.43 -0.1,-0.09 -0.24,-0.13 -0.42,-0.13 h -9.12 v -0.25 c 0.2,-0.05 0.35,-0.13 0.43,-0.23 0.08,-0.1 0.13,-0.24 0.13,-0.42 v -8.01 c 0,-0.18 -0.04,-0.32 -0.12,-0.41 -0.08,-0.09 -0.23,-0.17 -0.44,-0.24 v -0.24 h 8.85 c 0.19,0 0.33,-0.04 0.42,-0.12 0.09,-0.08 0.17,-0.2299998 0.23,-0.4399998 h 0.24 v 2.8899998 h -0.24 c -0.06,-0.21 -0.14,-0.36 -0.23,-0.44 -0.09,-0.08 -0.24,-0.12 -0.42,-0.12 h -5.94 v 2.15 h 3.69 c 0.18,0 0.32,-0.04 0.42,-0.12 0.1,-0.08 0.18,-0.23 0.24,-0.44 h 0.24 v 2.82 h -0.24 c -0.06,-0.21 -0.14,-0.35 -0.23,-0.44 -0.1,-0.08 -0.24,-0.12 -0.42,-0.12 h -3.69 z"
     id="path369"
     style="fill:#ffffff;fill-opacity:1" /><path
     style="fill:#f9f9f9;stroke-width:0.0492104"
     d="m 67.062704,20.139299 c -0.041,-0.0619 -0.1477,-0.15201 -0.2367,-0.20053 -0.1613,-0.0879 -0.182,-0.0884 -5.8969,-0.10021 l -5.735,-0.0119 0.018,-0.13511 c 0.016,-0.12484 0.04,-0.13865 0.3049,-0.18176 0.3496,-0.0568 0.5169,-0.12981 0.5979,-0.26066 0.042,-0.0688 0.061,-1.67839 0.061,-5.25151 V 8.8453592 l -0.163,-0.11996 c -0.1163,-0.0856 -0.2639,-0.1346 -0.5162,-0.17113 -0.3491,-0.0506 -0.3532,-0.0527 -0.3532,-0.19343 v -0.14229 h 5.4764 c 6.0471,0 5.8467,0.009 6.0065,-0.25718 0.062,-0.10418 0.1065,-0.12282 0.2892,-0.12282 h 0.2155 v 1.28776 1.2877498 h -0.2159 c -0.1688,0 -0.2281,-0.0207 -0.2724,-0.095 -0.031,-0.0523 -0.147,-0.1282 -0.2574,-0.16882 -0.1845,-0.0678 -0.4827,-0.0739 -3.6851,-0.0739 l -3.4845,-9e-5 v 1.43552 1.43552 h 2.1211 c 2.3593,0 2.505,-0.0142 2.6413,-0.25637 0.06,-0.10663 0.1001,-0.12363 0.292,-0.12363 h 0.2225 v 1.28774 1.28775 h -0.2295 c -0.1523,0 -0.2294,-0.0188 -0.2294,-0.056 0,-0.0307 -0.067,-0.10198 -0.148,-0.15832 l -0.1479,-0.10239 -2.261,-0.0119 -2.2611,-0.0119 v 1.60781 1.60781 l 3.7139,-0.0126 c 4.0786,-0.0138 3.9432,-0.004 4.1152,-0.27174 0.078,-0.12069 0.1213,-0.14191 0.2896,-0.14191 h 0.1981 v 1.32995 1.32997 h -0.1977 c -0.1569,0 -0.213,-0.0231 -0.2724,-0.11231 z m 6.6641,-0.18633 c -2.3277,-0.2043 -3.6994,-0.99088 -4.1913,-2.40357 -0.1549,-0.44486 -0.1947,-1.26333 -0.1956,-4.02366 -8e-4,-3.05703 0.01,-2.98544 -0.3487,-3.07677 -0.1418,-0.0364 -0.1684,-0.066 -0.1684,-0.18685 v -0.14365 h 1.8354 1.8355 v 0.14099 c 0,0.10863 -0.032,0.15183 -0.1404,0.18809 -0.077,0.0259 -0.1869,0.0994 -0.2438,0.1632 -0.097,0.10859 -0.1044,0.30579 -0.1205,3.0313 -0.012,1.86743 0,3.0352 0.043,3.24915 0.1805,1.00202 1.1455,1.54171 2.7611,1.54411 1.5158,0.003 2.4884,-0.53982 2.6901,-1.4993 0.041,-0.19564 0.056,-1.28798 0.046,-3.25733 -0.016,-2.92436 -0.018,-2.96454 -0.1355,-3.08216 -0.065,-0.0656 -0.1753,-0.13792 -0.2438,-0.16085 -0.091,-0.0304 -0.1245,-0.079 -0.1245,-0.17944 v -0.13776 h 1.8067 1.8068 v 0.14493 c 0,0.10849 -0.029,0.15175 -0.1162,0.17208 -0.064,0.015 -0.1608,0.0771 -0.2151,0.13814 -0.091,0.10167 -0.1018,0.37532 -0.1319,3.25839 -0.023,2.18321 -0.054,3.23149 -0.1022,3.42184 -0.3826,1.51546 -1.5748,2.34793 -3.7789,2.63882 -0.8524,0.1103 -1.7115,0.0825 -2.5672,0.0603 z m 28.622896,0.0213 c -0.6065,-0.0609 -1.0322,-0.12562 -1.4339,-0.21812 -2.189396,-0.50409 -3.740996,-1.86723 -4.193796,-3.68446 -0.1249,-0.5012 -0.1391,-1.52625 -0.028,-2.02661 0.4335,-1.95547 2.1441,-3.42071 4.512796,-3.86571 3.08,-0.5786298 6.0479,0.39493 7.3441,2.40906 1.0948,1.70127 0.8967,3.92744 -0.4866,5.4672 -0.2823,0.3142 -1.1638,0.96177 -1.5808,1.16123 -0.9957,0.47634 -2.0704,0.72253 -3.302,0.75648 -0.3627,0.0104 -0.737,0.0104 -0.8316,9.5e-4 z m 1.3479,-1.59798 c 1.4234,-0.22264 2.4593,-1.04638 2.8781,-2.28868 0.1687,-0.50024 0.1847,-1.54987 0.032,-2.0718 -0.2042,-0.69639 -0.5994,-1.25909 -1.1942,-1.70044 -0.8614,-0.6392 -2.1525,-0.90239 -3.3349,-0.6798 -1.3894,0.2616 -2.345496,1.02774 -2.779896,2.22779 -0.1317,0.36409 -0.1502,0.49779 -0.153,1.11057 0,0.76955 0.091,1.16384 0.4154,1.73208 0.731496,1.28165 2.376196,1.94569 4.136896,1.67028 z m -20.727596,1.30531 c -1e-4,-0.1145 0.024,-0.14776 0.104,-0.14776 0.1587,0 0.3438,-0.15076 0.4112,-0.3349 0.041,-0.11246 0.056,-1.49969 0.045,-4.31883 -0.015,-3.9642 -0.02,-4.15859 -0.1219,-4.27275 -0.059,-0.0658 -0.1812,-0.14034 -0.2725,-0.16571 -0.1367,-0.0379 -0.1659,-0.0706 -0.1659,-0.18462 v -0.13853 l 3.7138,2.9e-4 c 2.8518,2.2e-4 3.8354,0.0138 4.2376,0.0582 2.1526,0.23797 3.3353,1.16129 3.4456,2.68999 0.024,0.33411 0.01,0.52705 -0.063,0.76181 -0.3056,1.01125 -1.4067,1.84645 -2.7595,2.09301 -0.2208,0.0402 -0.4099,0.0767 -0.4202,0.0811 -0.027,0.0113 2.669,3.3426 2.8417,3.5122 0.079,0.0771 0.2046,0.16086 0.2802,0.18622 0.1052,0.0352 0.1375,0.0794 0.1375,0.18711 v 0.141 h -1.778 -1.7781 v -0.13776 c 0,-0.10239 0.033,-0.14847 0.1291,-0.17945 0.167,-0.0539 0.198,-0.26242 0.067,-0.45065 -0.1029,-0.14786 -2.1199,-2.64581 -2.3546,-2.91595 l -0.1375,-0.15833 h -1.175 -1.175 l 2e-4,1.61497 c 3e-4,1.53096 0.01,1.62203 0.1128,1.75104 0.062,0.0749 0.178,0.14816 0.2578,0.16291 0.1198,0.0222 0.1452,0.0521 0.1452,0.17002 v 0.1432 h -1.8641 -1.8641 z m 7.312,-5.23164 c 1.1343,-0.18923 1.5783,-0.58233 1.5783,-1.39709 0,-0.81077 -0.4437,-1.2094 -1.5518,-1.39431 -0.334,-0.0557 -0.8299,-0.0758 -2.2767,-0.0926 l -1.8498,-0.0213 v 1.50886 1.50882 l 1.8498,-0.0228 c 0.7521,0.008 1.502,-0.0299 2.2502,-0.0896 z m 21.034496,5.23164 c 0,-0.0945 0.028,-0.14776 0.076,-0.14776 0.042,0 0.1385,-0.049 0.2151,-0.10897 l 0.1391,-0.10894 0.017,-4.22928 c 0.012,-2.9851 0,-4.27639 -0.046,-4.38935 -0.047,-0.11884 -0.114,-0.17797 -0.2608,-0.22949 -0.1667,-0.0585 -0.1978,-0.0913 -0.1978,-0.20934 v -0.13998 l 3.169,6.1e-4 c 3.4433,6.5e-4 3.9774,0.0261 4.8323,0.22807 1.0391,0.2455 1.7639,0.67366 2.1499,1.26995 0.3046,0.47057 0.3717,0.71439 0.3717,1.35109 0,0.63448 -0.065,0.87062 -0.3766,1.36611 -0.1795,0.28553 -0.3067,0.41462 -0.6672,0.67696 -0.4779,0.34784 -0.8901,0.53212 -1.5784,0.70572 -0.6955,0.1754 -1.4017,0.22618 -3.1569,0.22701 l -1.5942,6.3e-4 0.017,1.63605 c 0.015,1.47907 0.027,1.64939 0.1198,1.77472 0.069,0.0927 0.159,0.14691 0.2724,0.1636 0.1477,0.0216 0.1696,0.0435 0.1696,0.16746 v 0.14251 h -1.8354 -1.8354 z m 6.5446,-5.28685 c 0.5031,-0.0943 0.7625,-0.2012 1.0427,-0.42951 0.2892,-0.23564 0.3569,-0.41816 0.3545,-0.95459 0,-0.51752 -0.061,-0.66278 -0.3727,-0.9241 -0.4711,-0.39497 -1.117,-0.50291 -3.0379,-0.50784 l -1.4052,-0.004 -0.015,1.47215 -0.015,1.47215 1.5063,-0.0215 c 1.2327,-0.0176 1.5856,-0.0363 1.9425,-0.10323 z m 18.5488,5.29557 c 0,-0.11948 0.026,-0.1447 0.1817,-0.17943 0.1,-0.0223 0.2355,-0.094 0.3011,-0.1596 0.119,-0.1189 0.1195,-0.13002 0.1195,-4.37736 v -4.25815 l -0.1205,-0.11885 c -0.066,-0.0654 -0.2018,-0.13601 -0.3011,-0.15698 -0.1564,-0.033 -0.1806,-0.0571 -0.1806,-0.17979 v -0.14167 h 1.9502 1.9501 v 0.14167 c 0,0.12267 -0.024,0.14678 -0.1806,0.17979 -0.099,0.021 -0.2348,0.0915 -0.3012,0.15697 -0.1202,0.11862 -0.1204,0.12672 -0.1375,4.30621 -0.012,2.92228 0,4.23513 0.045,4.34546 0.062,0.1563 0.2809,0.28524 0.4852,0.28524 0.063,0 0.089,0.0425 0.089,0.14777 v 0.14777 h -1.9502 -1.9501 z m 5.8306,-0.004 c 0,-0.0783 0.041,-0.16729 0.09,-0.19748 0.049,-0.0302 0.1254,-0.10566 0.1691,-0.16774 0.098,-0.13979 3.0189,-6.35165 3.5775,-7.60887 0.2244,-0.50491 0.4079,-0.96206 0.4079,-1.0159 0,-0.0538 -0.052,-0.13873 -0.1146,-0.18856 -0.07,-0.0553 -0.1147,-0.149 -0.1147,-0.24019 v -0.14951 h 1.8641 1.8641 v 0.13055 c 0,0.0717 -0.052,0.17886 -0.1147,0.2379 -0.063,0.0592 -0.1146,0.13158 -0.1146,0.16119 0,0.1094 0.7121,1.63277 2.4562,5.25467 0.2852,0.59213 0.7023,1.46611 0.9269,1.94216 0.6177,1.30917 0.7457,1.52569 0.9606,1.6252 0.1434,0.0665 0.1835,0.11444 0.1852,0.22197 v 0.13722 h -1.778 -1.7781 v -0.14122 c 0,-0.0903 0.044,-0.17024 0.1214,-0.22166 0.2998,-0.19876 0.2701,-0.34125 -0.3119,-1.49751 l -0.3705,-0.73621 -2.1732,-0.0111 -2.1732,-0.0111 -0.3885,0.81325 c -0.4514,0.94487 -0.5203,1.23991 -0.3333,1.42615 0.068,0.0673 0.1231,0.18032 0.1231,0.25093 v 0.12837 h -1.4913 -1.4912 z m 7.4412,-3.77342 c 0.1183,0.0118 -0.9292,-2.53053 -1.2777,-3.48734 -0.1678,-0.46087 -0.3192,-0.84833 -0.3365,-0.86101 -0.017,-0.0126 -0.044,0.004 -0.059,0.0357 -0.081,0.17204 -1.6956,4.30753 -1.6956,4.34371 0,0.0279 0.5894,0.0428 1.6987,0.0428 1.5904,0 1.6969,-0.004 1.6702,-0.0739 z"
     id="path65"
     sodipodi:nodetypes="ssscsssscssscssscccscsscccssscccssccccccscscccssssscsscccssscccssssscccsssccsscsscsssscccsssssscssssscssscscscssssscccsscscccsssscccsssscccccsscscccsscssssssscccscscccscccsccccsccccssccsscccsssccsscccccccsssscccssssssccccscscccssscccccsscssccs" /></svg>
