<?xml version="1.0" encoding="UTF-8" standalone="no"?>
<!-- Created with Inkscape (http://www.inkscape.org/) -->

<svg
   version="1.1"
   id="svg1"
   width="1000000"
   height="11029"
   viewBox="0 0 1000000 11029"
   xml:space="preserve"
   xmlns="http://www.w3.org/2000/svg"
   xmlns:svg="http://www.w3.org/2000/svg"><defs
     id="defs1"><clipPath
       clipPathUnits="userSpaceOnUse"
       id="clipPath27"><rect
         style="vector-effect:non-scaling-stroke;fill:none;fill-opacity:1;stroke:#000000;stroke-width:2.09441;stroke-dasharray:none;stroke-opacity:1;-inkscape-stroke:hairline"
         id="rect28"
         width="644.48944"
         height="841.68408"
         x="4319.563"
         y="-66.052979" /></clipPath><style
       id="style1">&#10;      .cls-1 {&#10;        fill: #fff;&#10;      }&#10;&#10;      .cls-1, .cls-2 {&#10;        stroke-width: 0px;&#10;      }&#10;&#10;      .cls-2 {&#10;        fill: #185886;&#10;      }&#10;    </style><style
       id="style1-6">&#10;      .cls-1 {&#10;        fill: #fff;&#10;      }&#10;&#10;      .cls-1, .cls-2 {&#10;        stroke-width: 0px;&#10;      }&#10;&#10;      .cls-2 {&#10;        fill: #bb1b1b;&#10;      }&#10;    </style></defs><rect
     style="vector-effect:non-scaling-stroke;fill:#070b34;fill-opacity:1;stroke-width:1609.08;-inkscape-stroke:hairline"
     id="rect1"
     width="999999.94"
     height="11029.003"
     x="4.7607951e-05"
     y="0.0004614073" /><g
     id="g12"
     transform="matrix(19.739877,0,0,19.739877,902010.21,1303.8777)"
     clip-path="url(#clipPath27)"><rect
       style="fill:#bb1b1b;fill-opacity:1;stroke:#e0c221;stroke-width:20;stroke-dasharray:none;stroke-opacity:1"
       id="rect3"
       width="123.35744"
       height="884.06097"
       x="2950.5986"
       y="3223.3757"
       transform="rotate(-48.41539)" /><rect
       style="fill:#318120;fill-opacity:1;stroke:#e0c221;stroke-width:20;stroke-dasharray:none;stroke-opacity:1"
       id="rect4"
       width="101.09546"
       height="883.06964"
       x="3051.6938"
       y="3223.3757"
       transform="rotate(-48.41539)" /><rect
       style="fill:#bcb767;fill-opacity:1;stroke:#e0c221;stroke-width:20;stroke-dasharray:none;stroke-opacity:1"
       id="rect5"
       width="101.09546"
       height="886.87231"
       x="3152.7893"
       y="3223.3757"
       transform="rotate(-48.41539)" /><rect
       style="fill:#ffffff;fill-opacity:1;stroke:#e0c221;stroke-width:20;stroke-dasharray:none;stroke-opacity:1"
       id="rect6"
       width="101.09546"
       height="885.34747"
       x="3253.8848"
       y="3223.3757"
       transform="rotate(-48.41539)" /></g><path
     style="fill:#ffffff;stroke-width:58.0693"
     d="m 461402.18,10768.235 c -28.74,-74.877 -290.45,-87.103 -1864.44,-87.103 -1923.8,0 -1992.68,-9.961 -1714.86,-247.838 112.45,-96.287 116.14,-171.301 116.14,-2364.7126 0,-2187.843 -3.96,-2269.2383 -116.14,-2381.4072 -63.89,-63.8767 -116.14,-142.2692 -116.14,-174.2076 0,-37.4854 649.04,-58.0687 1831,-58.0687 1573.99,0 1835.7,-12.2272 1864.44,-87.1044 18.38,-47.9075 82.89,-87.1045 143.34,-87.1045 101.48,0 109.94,51.295 109.94,667.7971 0,559.7022 -14.34,667.7958 -88.54,667.7958 -48.7,0 -113.38,-65.3273 -143.75,-145.1719 l -55.18,-145.1744 h -1191.87 -1191.86 v 638.7627 638.7614 h 699.61 c 671.66,0 704.98,-5.7974 834.14,-145.1732 74,-79.8445 151.15,-145.1718 171.45,-145.1718 20.27,0 36.89,300.5075 36.89,667.7957 0,656.3012 -43.88,795.2053 -174.21,551.6583 -57.25,-106.971 -121.59,-116.1388 -815.02,-116.1388 h -752.86 v 696.8315 696.8301 h 1191.86 1191.87 l 56.98,-149.8927 c 31.35,-82.4415 89.49,-139.107 129.22,-125.9245 50.49,16.7531 77.17,219.2058 88.65,672.5167 15.37,607.185 9.22,648.548 -95.41,648.548 -61.51,0 -126.87,-39.198 -145.25,-87.104 z m -18851.51,-92.792 c -742.76,-145.055 -1476.81,-733.4793 -1819.81,-1458.7878 -273.07,-577.433 -351.66,-955.0339 -347.81,-1671.2643 5.4,-992.9712 279.55,-1762.2278 839.13,-2353.896 792.96,-838.4353 2210.76,-1048.634 3305.62,-490.0769 1095.05,558.6481 1700.65,2085.4718 1426.83,3597.2578 -312.7,1726.4762 -1716.13,2706.3912 -3403.96,2376.7672 z m 1372.9,-1086.4454 c 814.78,-417.6806 1152.14,-1767.095 774.86,-3099.4005 -107.25,-378.7328 -416.11,-758.4274 -761.24,-935.8063 -581.62,-298.9397 -1392.53,-200.1337 -1807.94,220.2875 -439.84,445.1524 -589.14,975.8176 -555.02,1972.6546 20.88,610.0828 44.25,742.9352 184.08,1047.1478 231.37,503.3226 498.17,753.8764 966.19,907.3372 259.31,85.0279 938.23,21.4899 1199.07,-112.2203 z m 83872.78,1060.9684 c -610.72,-170.347 -1101.64,-605.805 -1339.66,-1188.2948 -48.16,-117.8635 -83.05,-398.3925 -83.05,-667.7958 0,-391.6807 25.62,-516.6974 163.24,-796.9576 176.56,-359.5618 527.09,-700.5075 834.43,-811.6487 106.01,-38.3339 192.76,-86.0253 192.76,-105.9802 0,-19.9549 -68.78,-99.632 -152.84,-177.0601 -365.21,-336.396 -492.75,-1147.7891 -259.46,-1650.5794 441.84,-952.296 1955.8,-1163.0126 2717.86,-378.2729 294.65,303.4181 391.85,557.1289 393.35,1026.5512 1.32,370.6744 -17.91,443.3394 -175.06,666.9367 -97,138.0161 -258.68,306.4144 -359.3,374.2174 l -182.94,123.2802 168.06,124.2485 c 92.43,68.3354 237,241.8934 321.27,385.6844 84.27,143.791 162.46,261.4384 173.76,261.4384 11.33,0 104.32,-176.3855 206.69,-391.9679 135.5,-285.3316 310.14,-514.4022 641.96,-842.0046 250.7,-247.5208 481.84,-450.0367 513.65,-450.0367 35.85,0 57.84,331.3483 57.84,871.039 0,559.6494 -21.4,871.039 -59.89,871.039 -32.94,0 -74.93,-39.197 -93.32,-87.1045 -53.77,-140.1136 -178.52,-101.2144 -335.52,104.6047 -176.8,231.8032 -440.37,813.0611 -440.37,971.1651 0,124.3513 354,547.0323 542.76,648.0491 95.57,51.1527 135.8,39.8557 217.56,-61.115 193.46,-238.9156 226.86,-153.5965 226.86,579.5555 v 703.426 l -275.84,-39.832 c -377.07,-54.451 -822.65,-265.24 -1110.63,-525.418 l -240.17,-216.9848 -262.73,242.1688 c -144.5,133.192 -386.04,295.601 -536.8,360.907 -365.79,158.478 -1044.03,194.019 -1464.47,76.742 z m 989.74,-897.7034 c 233.49,-64.8649 540.97,-356.115 632.63,-599.2338 170.92,-453.3583 4.22,-1068.0381 -363.63,-1340.8724 -232.34,-172.3273 -833.27,-172.3958 -1065.77,-0.091 -662.57,490.9333 -594.05,1562.8241 120.67,1887.404 272.61,123.8111 388.09,132.8326 676.1,52.8221 z m 246.35,-3238.1597 c 269.27,-243.6721 346.62,-633.6412 186.93,-942.4311 -121.55,-235.0498 -307.96,-349.0555 -570.71,-349.0555 -178.64,0 -265.97,40.7912 -422.61,197.4353 -167.91,167.9174 -197.44,237.801 -197.44,467.4381 0,148.5001 40.9,349.0699 90.86,445.7084 167.31,323.5113 649.77,419.1103 912.97,180.9048 z m -80938.43,4105.2951 c -20.99,-33.951 3.69,-107.87 54.66,-164.263 81.24,-89.786 92.78,-352.872 92.78,-2115.8683 V 6325.9316 h -602.61 c -464.82,0 -619.16,19.918 -674.91,87.1044 -39.76,47.9062 -108.29,87.1031 -152.29,87.1031 -62.86,0 -79.99,-130.5479 -79.99,-609.727 0,-559.5282 9.09,-609.727 109.93,-609.727 60.45,0 124.96,39.1969 143.35,87.1044 50.32,131.1514 3566.03,131.1514 3616.36,0 18.39,-47.9075 69.83,-87.1044 114.31,-87.1044 64.01,0 80.9,127.2737 80.9,609.727 0,482.4546 -16.89,609.727 -80.9,609.727 -44.48,0 -95.92,-39.1969 -114.31,-87.1031 -26.91,-70.1431 -158.16,-87.1044 -674.01,-87.1044 h -640.57 l 1.31,1959.8384 c 1.32,1625.038 15.18,1988.251 87.11,2126.164 47.71,91.482 86.75,189.473 86.75,217.761 0,75.078 -1320.28,65.133 -1366.91,-10.304 z m 3633.45,-10.857 c 1.32,-39.922 40.2,-123.311 87.09,-185.306 127.15,-168.103 127.15,-4542.3451 0,-4710.4483 -178.45,-235.9444 -126.72,-257.8928 607.88,-257.8928 553.18,0 696.84,16.4923 696.84,79.9934 0,43.9969 -39.2,112.5247 -87.11,152.2842 -70.73,58.7025 -87.1,245.5747 -87.1,994.2875 v 921.998 h 1074.28 1074.28 v -921.998 c 0,-748.7128 -16.36,-935.585 -87.11,-994.2875 -47.89,-39.7595 -87.09,-108.2873 -87.09,-152.2842 0,-63.5011 143.67,-79.9934 696.83,-79.9934 734.6,0 786.34,21.9484 607.87,257.8928 -71.56,94.6147 -85.24,474.7125 -85.24,2366.3223 0,2189.632 3.42,2256.96 118.25,2371.859 65.03,65.041 102.69,143.435 83.68,174.209 -48.15,77.91 -1346.22,72.533 -1394.63,-5.785 -20.97,-33.95 3.69,-107.868 54.65,-164.262 77.2,-85.305 92.79,-265.213 92.79,-1070.6233 v -968.0873 h -1074.28 -1074.28 v 983.8838 c 0,934.9208 6.06,988.1528 122.44,1069.6418 228.24,159.864 70.66,211.176 -648.48,211.176 -517.01,0 -692.94,-18.467 -691.56,-72.587 z m 11235.86,16.636 c -19.02,-30.774 18.63,-109.168 83.67,-174.209 114.93,-114.919 118.27,-182.161 118.27,-2382.9571 0,-2187.2752 -3.96,-2268.6718 -116.15,-2380.8394 -63.88,-63.8766 -116.14,-142.2705 -116.14,-174.2088 0,-80.452 2727.63,-75.8984 3166.79,5.2835 444.75,82.2188 711.54,222.1045 970.75,509.0225 245.64,271.8895 333.52,542.9213 332.2,1024.5274 -1.32,413.5224 -131.27,732.6145 -410.64,1006.8191 -211.18,207.2961 -571.2,415.8782 -717.79,415.8782 -49.19,0 -89.43,28.7366 -89.43,63.8582 0,100.1881 1103.78,1910.4964 1164.87,1910.4964 30.03,0 54.59,52.263 54.59,116.138 0,109.371 -38.7,116.139 -664.37,116.139 -655.37,0 -821.78,-46.87 -677.78,-190.881 35.53,-35.542 64.63,-100.657 64.63,-144.699 0,-44.041 -225.58,-456.9133 -501.28,-917.4947 l -501.26,-837.4181 h -456.88 -456.87 v 892.9624 c 0,722.9034 16.59,906.7314 87.1,965.2534 47.91,39.759 87.11,108.287 87.11,152.284 0,63.479 -143.14,79.993 -693.41,79.993 -382.12,0 -708.93,-25.117 -727.98,-55.951 z m 2906.29,-2854.6103 c 364.16,-91.6962 547.52,-323.2675 547.52,-691.457 0,-661.2039 -261.15,-811.2455 -1411.99,-811.2455 h -794.64 v 783.9346 783.9358 h 700.15 c 385.08,0 816.62,-29.3268 958.96,-65.1679 z"
     id="path2" /><path
     style="fill:#bb1b1b;fill-opacity:1;stroke-width:58.0693"
     d="m 540281.23,10768.235 c -61.94,-74.62 -387.51,-87.103 -2271.81,-87.103 -2311.13,0 -2428.95,-14.204 -2024.95,-244.094 l 173.84,-98.922 V 7581.2741 c 0,-2428.7956 -10.8,-2767.7017 -91.25,-2848.093 -50.19,-50.1895 -128.58,-91.2561 -174.2,-91.2561 -45.63,0 -82.95,-39.1956 -82.95,-87.1031 0,-73.9049 145.17,-87.1044 958.13,-87.1044 744.87,0 958.15,16.7188 958.15,75.0959 0,41.3037 -84.93,100.0985 -188.73,130.6546 l -188.73,55.5614 v 2467.9452 2467.9451 h 1415.67 c 1403.7,0 1416.41,-1.0541 1502.38,-130.6573 47.68,-71.8599 122.69,-130.6547 166.71,-130.6547 63.72,0 80.02,147.9191 80.02,725.8663 0,577.825 -16.31,725.865 -79.99,725.865 -44,0 -112.52,-39.198 -152.29,-87.104 z m 16747.17,-88.534 c -162.9,-29.252 -515.66,-146.036 -783.94,-259.521 -415.32,-175.69 -507.17,-196.059 -618.33,-137.138 -71.81,38.06 -145.02,54.753 -162.67,37.096 -52.79,-52.78 574.79,-1264.9506 654.89,-1264.9506 42.26,0 73.86,69.8572 73.86,163.2584 0,331.6606 453.68,607.4081 1165.41,708.3511 690.04,97.8641 1177.32,-58.0503 1355.6,-433.75 256.18,-539.8461 20.87,-714.2499 -1412.76,-1047.0687 -1177.64,-273.3969 -1599.14,-679.1323 -1599.14,-1539.3539 0,-507.4743 129.74,-814.4262 458.96,-1085.7901 349.37,-287.9773 736.98,-395.1038 1425.59,-393.993 532.84,0.7905 680.85,24.8708 1173.66,190.3941 365.4,122.7254 615.83,176.3842 711.34,152.412 81.09,-20.3502 146.86,-14.5673 146.18,12.8464 -2.37,92.4776 -549.87,1085.5279 -608.48,1103.538 -31.94,9.816 -97.28,-66.4644 -145.17,-169.5064 -62.06,-133.4862 -184.9,-236.2211 -427.24,-357.3206 -299.41,-149.6056 -403.8,-170.3431 -871.51,-173.1074 -452.38,-2.6747 -562.66,16.1971 -741.84,126.9285 -430.36,265.9815 -439.6,749.9316 -18.72,981.5609 126.57,69.6583 543.7,204.4093 926.95,299.447 802.08,198.8938 1009.09,279.7041 1348.54,526.4488 359.79,261.5241 503.08,575.6384 505.86,1108.9111 1.84,356.069 -22.19,475.0616 -131.73,652.2786 -184.27,298.0978 -523.52,575.5898 -859.88,703.3628 -328.67,124.845 -1128.14,173.192 -1565.43,94.665 z m -15554.43,-52.895 c -18.46,-29.875 32.26,-120.147 112.72,-200.602 l 146.27,-146.283 V 8068.0096 5856.0982 l -146.27,-146.2826 c -80.46,-80.4559 -131.18,-170.7278 -112.72,-200.6041 49.01,-79.2938 1536.51,-70.6214 1536.51,8.9596 0,34.8041 -58.79,110.8882 -130.65,169.0782 l -130.65,105.7983 v 2274.9633 2274.9621 l 135.08,109.385 c 74.3,60.163 118.49,136.248 98.2,169.078 -46.71,75.577 -1461.98,80.617 -1508.49,5.376 z m 3010.43,-14.84 c -23.5,-38.037 -11.46,-79.566 26.65,-92.287 239.76,-79.921 241.52,-97.789 241.52,-2451.6694 0,-2353.8802 -1.71,-2371.748 -241.52,-2451.6677 -38.16,-12.7279 -50.15,-54.2516 -26.65,-92.2904 66.36,-107.3663 1719.9,-96.9508 1719.9,10.8306 0,43.9969 -39.79,113.0134 -88.42,153.3712 -56.35,46.7664 -74.4,117.791 -49.78,195.8357 21.26,67.3511 466.07,799.9947 988.48,1628.0961 l 949.87,1505.6381 V 7384.8218 c 0,-1595.1604 -2.77,-1634.9884 -122.45,-1718.7567 -225.98,-158.2924 -70.84,-211.1764 619.47,-211.1764 702.07,0 790.83,40.1179 548.22,247.8383 -112.46,96.2867 -116.13,171.3009 -116.13,2365.2786 0,2193.9774 3.69,2268.9924 116.13,2365.2804 246.95,211.447 156.44,247.837 -616.5,247.837 -787.62,0 -763.29,11.173 -637.09,-292.501 23.9,-57.539 -226.85,-490.8792 -705.64,-1219.454 -408.48,-621.6077 -886.04,-1349.2629 -1061.22,-1617.0099 l -318.53,-486.8132 -16.01,1648.1985 c -15.49,1594.8086 -12.25,1651.3216 101.63,1744.6106 230.79,189.157 143.47,222.969 -575.79,222.969 -473.75,0 -706.94,-21.908 -736.14,-69.161 z m 5958.95,-5.033 c 0,-40.809 52.27,-118.948 116.14,-173.638 112.45,-96.288 116.14,-171.302 116.14,-2365.2801 0,-2193.9778 -3.69,-2268.992 -116.14,-2365.2787 -246.55,-211.1013 -156.18,-247.8383 609.74,-247.8383 577.81,0 725.86,16.3157 725.86,79.9934 0,43.9969 -39.2,112.5246 -87.11,152.2842 -70.78,58.7486 -86.74,242.2688 -85.17,979.7703 l 1.85,907.4808 119.63,-145.1731 c 65.82,-79.8446 443.85,-475.7297 840.08,-879.7404 396.24,-404.0133 720.42,-761.774 720.42,-795.026 0,-33.252 -26.13,-76.6072 -58.06,-96.346 -31.94,-19.7401 -58.07,-73.5438 -58.07,-119.5672 0,-68.7227 140.08,-83.676 783.94,-83.676 658.11,0 783.92,13.9796 783.92,87.1044 0,47.9062 -29.51,87.1031 -65.6,87.1031 -36.09,0 -504.65,434.2744 -1041.26,965.0542 l -975.66,965.0555 876.68,1314.1636 c 482.16,722.7906 968.97,1399.1483 1081.78,1503.0173 140.72,129.56 186.33,207.628 145.3,248.659 -89.57,89.573 -1485.67,47.647 -1516.61,-45.545 -13.27,-39.923 17.28,-72.586 67.85,-72.586 191.73,0 73.89,-268.193 -556.57,-1266.6761 -356.68,-564.8829 -657.67,-1038.428 -668.86,-1052.322 -11.2,-13.8926 -124.4,76.3371 -251.56,200.5106 l -231.23,225.7713 v 881.1792 c 0,712.428 16.68,895.022 87.11,953.469 47.91,39.758 87.1,108.286 87.1,152.282 0,63.679 -148.04,79.994 -725.86,79.994 -550.39,0 -725.87,-17.938 -725.87,-74.199 z"
     id="path3" /><path
     style="fill:#185886;fill-opacity:1;stroke-width:58.0693"
     d="m 516821.25,10768.235 c -61.39,-73.977 -341.98,-87.103 -1861.9,-87.103 -1085.27,0 -1803.21,-22.021 -1824.19,-55.953 -19.02,-30.773 18.63,-109.166 83.67,-174.207 114.93,-114.919 118.27,-182.162 118.27,-2382.9571 0,-2187.2765 -3.96,-2268.6732 -116.15,-2380.8407 -63.87,-63.8767 -116.13,-142.2692 -116.13,-174.2076 0,-37.4788 646.07,-58.0687 1822.08,-58.0687 1548.77,0 1832.91,-13.0705 1894.35,-87.1044 39.76,-47.9075 108.29,-87.1045 152.28,-87.1045 63.32,0 80,139.2941 80,667.7971 0,519.3168 -17.29,667.7958 -77.78,667.7958 -42.78,0 -107.54,-65.3273 -143.93,-145.1719 l -66.15,-145.1744 h -1191.66 -1191.67 v 638.7627 638.7614 h 721.66 c 706.84,0 724.06,-3.0832 839.67,-150.0404 64.9,-82.5231 145.2,-133.2437 178.43,-112.7117 35.86,22.1671 60.38,295.3993 60.38,672.6643 0,519.2469 -15.53,635.3343 -85.05,635.3343 -46.77,0 -113.03,-52.2621 -147.21,-116.1375 -57.27,-106.971 -121.59,-116.1388 -815.02,-116.1388 h -752.86 v 696.8315 696.8301 h 1191.67 1191.66 l 66.84,-146.6765 c 128.78,-282.6595 191.65,-118.7726 208.41,543.376 13.33,527.204 1.31,648.548 -65.49,648.548 -45.05,0 -114.42,-39.198 -154.18,-87.104 z m -33962.91,-114.624 c -203.43,-46.281 -542.36,-164.873 -753.22,-263.541 -329,-153.959 -402.11,-169.357 -515.61,-108.607 -72.74,38.93 -150.8,52.253 -173.43,29.606 -22.67,-22.648 95.68,-316.3992 262.97,-652.7781 303.39,-610.0156 431.82,-724.0014 456.34,-405.0081 16.7,217.3796 94.17,296.9448 455.47,467.8716 354.03,167.4773 1001.64,276.0004 1337.36,224.1045 467.98,-72.3421 780.72,-348.7167 780.72,-689.9062 0,-415.7741 -95.92,-476.59 -1144.68,-725.6286 -1450.85,-344.5269 -1928.33,-729.7066 -1931.7,-1558.289 -1.98,-473.6703 106.97,-756.816 406.99,-1058.1378 374.88,-376.514 726.46,-488.9253 1508.02,-482.1489 520.3,4.5193 692.34,32.4561 1173.06,190.5429 363.43,119.5158 615.86,172.0757 711.35,148.1101 81.4,-20.4318 148,-21.893 148,-3.2412 0,72.1418 -593.37,1140.0759 -633.45,1140.0759 -23.32,0 -79.8,-84.5865 -125.48,-187.9723 -223.04,-504.7048 -1552,-739.3777 -2100.34,-370.8866 -243.28,163.4784 -341.29,495.9467 -213.53,724.232 115.69,206.6743 368.89,317.2963 1206.35,527.0511 806.97,202.118 1191.88,378.037 1483.01,677.8107 254.65,262.2066 350.58,533.3939 347.25,981.5702 -4.35,596.2375 -294.6,995.9978 -937.46,1291.5198 -391.78,180.098 -1201.09,228.09 -1747.99,103.658 z m 20636.02,7.669 c -605.59,-158.198 -1171.81,-571.55 -1462.58,-1067.6906 -499.49,-852.3174 -499.72,-2204.2483 -1.31,-3047.8169 610.78,-1032.126 1978.06,-1434.9087 3095.99,-912.0265 219.74,102.7837 507.48,202.5818 639.42,221.7737 l 239.87,34.8937 -347.66,594.8238 c -346.68,593.1294 -451.47,678.0611 -451.47,365.9074 0,-363.8216 -683.62,-698.7433 -1263.89,-619.2097 -936.25,128.3278 -1514.29,1226.067 -1267.9,2407.7933 201.94,968.4535 994.82,1471.4508 1903.21,1207.3731 445.68,-129.5624 628.58,-285.1788 628.58,-534.8156 0,-109.4652 22.34,-199.0282 49.67,-199.0282 60.02,0 775.53,900.9655 769.22,968.5825 -2.5,26.198 -53.41,50.42 -113.28,53.833 -59.88,3.412 -223.53,83.862 -363.69,178.777 -140.15,94.915 -371.57,218.312 -514.26,274.215 -338.99,132.806 -1161.84,171.587 -1540.71,72.615 z m 16166.2,19.036 c -147.07,-24.871 -506.88,-142.174 -799.57,-260.673 -423.35,-171.402 -549.21,-201.293 -615.6,-146.193 -45.91,38.093 -110.02,52.84 -142.5,32.77 -76.58,-47.329 518.86,-1251.0313 618.85,-1251.0313 42.95,0 73.86,71.1392 73.86,169.9794 0,373.913 718.5,715.391 1509.8,717.5664 529.48,1.4625 824.11,-110.9146 985.7,-375.9461 318.37,-522.1997 47.8,-801.1818 -996.39,-1027.3445 -1378.48,-298.5668 -1883.04,-654.7595 -1988.26,-1403.6133 -93.89,-668.1687 199.27,-1211.1573 818.43,-1515.8692 380.57,-187.2978 417.85,-193.9411 1063.29,-189.4942 597.24,4.1108 727.23,24.8075 1213.37,193.1781 332.74,115.2376 598.09,175.1167 682.33,153.976 75.8,-19.0273 138.11,-14.4974 138.46,10.0664 1.32,24.5625 -123.76,286.0523 -275.82,581.0879 -251.07,487.1334 -421.66,671.2887 -421.66,455.203 0,-162.261 -294.82,-432.1202 -567.88,-519.7767 -1077.27,-345.8312 -2032.8,23.3609 -1809.74,699.2374 85.14,257.9732 322.9,375.7274 1194.53,591.6089 379.23,93.9243 807.3,222.0544 951.26,284.7334 563.87,245.5036 860.16,648.5485 914.12,1243.4197 101.24,1116.6957 -1036.64,1812.4637 -2546.58,1557.1177 z m -47932.47,-61.092 c -28.16,-45.584 -19.22,-85.748 22.17,-99.544 245.27,-81.758 243.38,-56.891 227.55,-2993.5127 l -15.06,-2797.1418 -130.66,-57.3191 c -71.86,-31.5259 -130.66,-92.4169 -130.66,-135.3189 0,-63.9979 299.54,-73.8943 1669.49,-55.1542 1526.84,20.8811 1697.94,33.389 2002.42,146.3629 830.79,308.28 1364.07,905.3424 1648.79,1845.9909 131.33,433.8541 147.77,1641.9202 28.83,2117.0477 -205.69,821.5886 -642.96,1393.8619 -1305.22,1708.1932 -619.02,293.815 -859.47,329.105 -2483.04,364.439 -1194.01,25.986 -1496.69,17.3 -1534.61,-44.043 z m 2631.28,-984.0041 c 1215.83,-128.088 1597.03,-610.9695 1603.9,-2031.7629 8.03,-1657.3083 -495.75,-2148.5631 -2203.24,-2148.5631 h -606.86 v 2080.8154 c 0,1144.4477 17.41,2098.2352 38.71,2119.5274 54.65,54.651 537.24,46.3765 1167.49,-20.0168 z m 4194.23,972.7731 c 0,-40.226 52.27,-105.775 116.15,-145.666 113,-70.565 116.13,-135.419 116.13,-2394.3161 0,-2258.8966 -3.16,-2323.7522 -116.13,-2394.3157 -63.88,-39.8926 -116.15,-105.4413 -116.15,-145.6659 0,-55.0515 186.68,-73.1354 754.9,-73.1354 464.56,0 754.9,22.3331 754.9,58.0688 0,31.9383 -52.25,110.3322 -116.13,174.2088 -112.17,112.1689 -116.13,193.5642 -116.13,2381.4073 0,2193.4102 3.69,2268.4242 116.13,2364.7122 248.25,212.553 157.31,247.837 -638.77,247.837 -568.22,0 -754.9,-18.085 -754.9,-73.135 z m 8330.68,11.41 c -20.98,-33.95 3.69,-107.87 54.65,-164.263 81.72,-90.296 92.79,-376.627 92.79,-2399.1046 0,-1970.5544 -12.39,-2306.8332 -87.11,-2368.8599 -47.91,-39.7596 -87.09,-110.9686 -87.09,-158.2397 0,-126.9391 2685.84,-76.4307 3097.83,58.2545 675.15,220.7158 971.87,607.0708 1013.1,1319.1375 31.76,548.8545 -118.15,949.0732 -467.58,1248.1656 -360.7,308.7452 -659.54,387.5791 -1596.41,421.1341 l -827.49,29.6392 v 863.725 c 0,791.4543 9.88,873.6193 118.26,981.9803 65.03,65.041 102.69,143.435 83.68,174.208 -48.16,77.911 -1346.24,72.534 -1394.63,-5.784 z m 2747.34,-2939.4125 c 256.43,-125.5912 359.61,-308.62 360.78,-639.9736 2.11,-591.2558 -294.51,-772.1488 -1265.98,-772.1488 h -649.45 v 745.2212 c 0,409.8727 19.59,765.7479 43.55,790.8361 83.07,87.0017 1281.01,-11.2522 1511.1,-123.9349 z m 2045.63,2940.1885 c 0,-33.525 41.05,-140.31 91.21,-237.302 90.74,-175.501 586.25,-1576.6518 1257.93,-3557.1764 292.65,-862.8989 340.74,-1057.7491 283.61,-1149.2305 -37.84,-60.5867 -53.31,-135.2254 -34.37,-165.8646 18.94,-30.6392 344.46,-55.7076 723.4,-55.7076 h 688.97 l -6.46,246.7948 c -6.06,232.1603 213.15,891.7132 1353.08,4071.538 124.41,347.0123 270.25,663.1553 324.13,702.5383 203.87,149.083 26.93,205.363 -645.7,205.363 -702.63,0 -811.39,-41.504 -631.06,-240.781 103.28,-114.118 101.31,-131.079 -72.11,-620.5857 l -178.27,-503.2607 -872.71,-15.9889 -872.74,-15.9889 -138.28,364.404 c -92.77,244.4652 -136.17,474.3022 -131.86,698.3032 l 6.32,333.898 h -572.59 c -361.08,0 -572.6,-22.516 -572.6,-60.953 z m 2903.47,-2092.8543 c 0,-60.9345 -299.07,-1233.3164 -406.02,-1591.6608 -28.6,-95.8137 -81.32,-287.9035 -117.14,-426.8629 -35.84,-138.9621 -75.71,-242.1068 -88.6,-229.2129 -30.41,30.4099 -665.76,2183.1867 -665.76,2255.8174 0,31.5826 273.49,55.2333 638.76,55.2333 422.41,0 638.76,-21.4464 638.76,-63.3141 z m 3685.13,2092.0783 c -20.97,-33.95 3.69,-107.87 54.66,-164.263 81.24,-89.785 92.78,-352.872 92.78,-2115.868 V 6325.9369 h -602.61 c -464.82,0 -619.15,19.918 -674.91,87.1044 -39.76,47.9062 -108.29,87.1031 -152.29,87.1031 -62.86,0 -79.99,-130.5479 -79.99,-609.727 0,-559.5283 9.1,-609.7271 109.93,-609.7271 60.46,0 124.96,39.197 143.35,87.1045 28.7,74.7955 284.19,87.1031 1808.18,87.1031 1523.99,0 1779.48,-12.3063 1808.18,-87.1031 18.39,-47.9075 69.83,-87.1045 114.32,-87.1045 64,0 80.9,127.2738 80.9,609.7271 0,482.4546 -16.9,609.727 -80.9,609.727 -44.49,0 -95.93,-39.1969 -114.32,-87.1031 -26.9,-70.1431 -158.16,-87.1044 -674.01,-87.1044 h -640.57 v 1992.2906 c 0,1661.8487 14.14,2010.9875 85.25,2105.0115 177.34,234.475 125.1,257.893 -575.42,257.893 -406.53,0 -679.18,-23.958 -702.53,-61.729 z m 8859.68,-10.857 c 1.31,-39.922 40.21,-123.31 87.1,-185.306 71.55,-94.592 85.26,-473.3721 85.26,-2355.2238 0,-1881.8517 -13.71,-2260.6319 -85.26,-2355.2242 -178.45,-235.9444 -126.71,-257.8928 607.88,-257.8928 553.17,0 696.84,16.4922 696.84,79.9934 0,43.9969 -39.2,112.5247 -87.11,152.2842 -70.74,58.7025 -87.1,245.5747 -87.1,994.2875 v 921.998 h 1074.28 1074.28 v -921.998 c 0,-748.7128 -16.36,-935.585 -87.11,-994.2875 -47.9,-39.7595 -87.1,-108.2873 -87.1,-152.2842 0,-63.5012 143.67,-79.9934 696.83,-79.9934 734.61,0 786.34,21.9484 607.88,257.8928 -71.55,94.6094 -85.26,474.4384 -85.26,2364.0599 0,2214.4531 1.98,2253.2091 122.33,2365.2941 207.56,193.383 90.04,238.987 -615.91,238.987 -689.7,0 -810.61,-42.393 -644.44,-225.991 77.19,-85.305 92.78,-265.214 92.78,-1070.6222 v -968.0885 h -1074.28 -1074.28 v 986.6863 c 0,923.7954 7.37,991.3084 116.13,1059.2144 63.89,39.891 116.14,105.44 116.14,145.666 0,54.9 -180.98,73.135 -725.86,73.135 -542.96,0 -725.41,-18.291 -724.02,-72.587 z"
     id="path4" /></svg>
