<?xml version="1.0" encoding="UTF-8" standalone="no"?>
<!-- Created with Inkscape (http://www.inkscape.org/) -->

<svg
   version="1.1"
   id="svg1"
   width="7589.626"
   height="83.705994"
   viewBox="0 0 7589.6261 83.705996"
   xml:space="preserve"
   sodipodi:docname="bottomcorner.svg"
   xmlns:inkscape="http://www.inkscape.org/namespaces/inkscape"
   xmlns:sodipodi="http://sodipodi.sourceforge.net/DTD/sodipodi-0.dtd"
   xmlns="http://www.w3.org/2000/svg"
   xmlns:svg="http://www.w3.org/2000/svg"><sodipodi:namedview
     id="namedview1"
     pagecolor="#ffffff"
     bordercolor="#000000"
     borderopacity="0.25"
     inkscape:showpageshadow="2"
     inkscape:pageopacity="0.0"
     inkscape:pagecheckerboard="0"
     inkscape:deskcolor="#d1d1d1" /><defs
     id="defs1"><clipPath
       clipPathUnits="userSpaceOnUse"
       id="clipPath27"><rect
         style="vector-effect:non-scaling-stroke;fill:none;fill-opacity:1;stroke:#000000;stroke-width:2.09441;stroke-dasharray:none;stroke-opacity:1;-inkscape-stroke:hairline"
         id="rect28"
         width="644.48944"
         height="841.68408"
         x="4319.563"
         y="-66.052979" /></clipPath><style
       id="style1">&#10;      .cls-1 {&#10;        fill: #fff;&#10;      }&#10;&#10;      .cls-1, .cls-2 {&#10;        stroke-width: 0px;&#10;      }&#10;&#10;      .cls-2 {&#10;        fill: #185886;&#10;      }&#10;    </style><style
       id="style1-6">&#10;      .cls-1 {&#10;        fill: #fff;&#10;      }&#10;&#10;      .cls-1, .cls-2 {&#10;        stroke-width: 0px;&#10;      }&#10;&#10;      .cls-2 {&#10;        fill: #bb1b1b;&#10;      }&#10;    </style></defs><rect
     style="vector-effect:non-scaling-stroke;fill:#070b34;fill-opacity:1;stroke-width:12.2123;-inkscape-stroke:hairline"
     id="rect1"
     width="7589.6255"
     height="83.706001"
     x="4.7607951e-05"
     y="-1.2902722e-05"
     inkscape:export-filename="footerhat.svg"
     inkscape:export-xdpi="96"
     inkscape:export-ydpi="96" /><g
     id="g12"
     transform="matrix(0.14981828,0,0,0.14981828,6845.92,9.8959271)"
     clip-path="url(#clipPath27)"><rect
       style="fill:#bb1b1b;fill-opacity:1;stroke:#e0c221;stroke-width:20;stroke-dasharray:none;stroke-opacity:1"
       id="rect3"
       width="123.35744"
       height="884.06097"
       x="2950.5986"
       y="3223.3757"
       transform="rotate(-48.41539)" /><rect
       style="fill:#318120;fill-opacity:1;stroke:#e0c221;stroke-width:20;stroke-dasharray:none;stroke-opacity:1"
       id="rect4"
       width="101.09546"
       height="883.06964"
       x="3051.6938"
       y="3223.3757"
       transform="rotate(-48.41539)" /><rect
       style="fill:#bcb767;fill-opacity:1;stroke:#e0c221;stroke-width:20;stroke-dasharray:none;stroke-opacity:1"
       id="rect5"
       width="101.09546"
       height="886.87231"
       x="3152.7893"
       y="3223.3757"
       transform="rotate(-48.41539)" /><rect
       style="fill:#ffffff;fill-opacity:1;stroke:#e0c221;stroke-width:20;stroke-dasharray:none;stroke-opacity:1"
       id="rect6"
       width="101.09546"
       height="885.34747"
       x="3253.8848"
       y="3223.3757"
       transform="rotate(-48.41539)" /></g><path
     style="fill:#ffffff;stroke-width:0.637758"
     d="m 3370.9043,76.400107 c -0.3155,-0.82235 -3.1898,-0.95663 -20.4765,-0.95663 -21.1285,0 -21.8851,-0.10935 -18.8338,-2.72193 1.235,-1.05749 1.2755,-1.88135 1.2755,-25.97094 0,-24.02844 -0.043,-24.92238 -1.2755,-26.1543 -0.7016,-0.70154 -1.2756,-1.56251 -1.2756,-1.91328 0,-0.41169 7.1283,-0.63775 20.1094,-0.63775 17.2867,0 20.161,-0.13428 20.4765,-0.95664 0.2019,-0.52615 0.9104,-0.95664 1.5744,-0.95664 1.1145,0 1.2073,0.56335 1.2073,7.33422 0,6.14704 -0.1574,7.33421 -0.9724,7.33421 -0.5348,0 -1.2452,-0.71748 -1.5787,-1.59439 l -0.6061,-1.5944 h -13.0898 -13.0899 v 7.01534 7.01533 h 7.6836 c 7.3766,0 7.7426,-0.0637 9.1611,-1.59439 0.8127,-0.87692 1.6601,-1.59439 1.8829,-1.59439 0.2228,0 0.4052,3.30039 0.4052,7.33421 0,7.20796 -0.4818,8.73351 -1.9133,6.0587 -0.6288,-1.17483 -1.3354,-1.27552 -8.9511,-1.27552 h -8.2684 v 7.6531 7.65309 h 13.0899 13.0898 l 0.6259,-1.64624 c 0.3442,-0.90542 0.9829,-1.52777 1.4192,-1.38298 0.5544,0.18399 0.8475,2.40746 0.9736,7.38605 0.1688,6.66854 0.1019,7.12281 -1.0479,7.12281 -0.6755,0 -1.3934,-0.43049 -1.5953,-0.95664 z m -207.0406,-1.01911 c -8.1575,-1.59309 -16.2193,-8.05558 -19.9864,-16.02144 -2.9991,-6.34177 -3.8621,-10.48885 -3.8199,-18.355 0.059,-10.90551 3.0703,-19.35403 9.216,-25.85215 8.7088,-9.2082899 24.2801,-11.5168499 36.3046,-5.3823799 12.0266,6.1354799 18.6777,22.9041299 15.6705,39.5076299 -3.4344,18.96139 -18.8478,29.72352 -37.3848,26.10334 z m 15.0782,-11.93211 c 8.9485,-4.58726 12.6536,-19.40748 8.5101,-34.0398 -1.1779,-4.15952 -4.57,-8.3296 -8.3604,-10.2777 -6.3878,-3.28316 -15.2939,-2.19801 -19.8562,2.41936 -4.8306,4.88898 -6.4704,10.71712 -6.0956,21.66509 0.2294,6.70036 0.4859,8.15944 2.0217,11.50051 2.541,5.52785 5.4712,8.27961 10.6113,9.96502 2.8481,0.93385 10.3044,0.23602 13.1691,-1.23248 z m 921.1502,11.6523 c -6.7073,-1.87087 -12.0989,-6.65337 -14.713,-13.05068 -0.5289,-1.29447 -0.9121,-4.37543 -0.9121,-7.33421 0,-4.30171 0.2813,-5.67474 1.7928,-8.75275 1.9391,-3.94896 5.7888,-7.69348 9.1643,-8.91411 1.1643,-0.42101 2.117,-0.94479 2.117,-1.16395 0,-0.21916 -0.7553,-1.09422 -1.6786,-1.94459 -4.0109,-3.69454 -5.4117,-12.60583 -2.8496,-18.12783 4.8527,-10.4587999 21.4801,-12.7730299 29.8495,-4.15447 3.236,3.33235 4.3036,6.11879 4.32,11.27431 0.013,4.07102 -0.1966,4.86908 -1.9225,7.32478 -1.0654,1.51579 -2.8411,3.36525 -3.9462,4.10992 l -2.0091,1.35395 1.8457,1.36458 c 1.0152,0.75051 2.6029,2.65665 3.5284,4.23586 0.9255,1.57921 1.7842,2.8713 1.9084,2.8713 0.1241,0 1.1456,-1.93719 2.27,-4.30487 1.4882,-3.13371 3.4062,-5.64953 7.0504,-9.24749 2.7534,-2.71844 5.292,-4.94262 5.6413,-4.94262 0.3937,0 0.6353,3.6391 0.6353,9.56637 0,6.14647 -0.2351,9.56636 -0.6578,9.56636 -0.3617,0 -0.8229,-0.43048 -1.0249,-0.95663 -0.5905,-1.53883 -1.9607,-1.11162 -3.6849,1.14883 -1.9417,2.54584 -4.8365,8.92962 -4.8365,10.66603 0,1.36571 3.8879,6.0079 5.961,7.11734 1.0497,0.56179 1.4914,0.43771 2.3893,-0.67121 2.1248,-2.62395 2.4916,-1.68691 2.4916,6.36509 v 7.72551 l -3.0294,-0.43745 c -4.1413,-0.59802 -9.0349,-2.91306 -12.1978,-5.77052 l -2.6377,-2.38308 -2.8854,2.65967 c -1.587,1.46281 -4.2399,3.24649 -5.8955,3.96373 -4.0174,1.74052 -11.4663,2.13086 -16.084,0.84283 z m 10.8702,-9.85921 c 2.5643,-0.71238 5.9412,-3.9111 6.9479,-6.58121 1.8772,-4.97909 0.047,-11.72994 -3.9936,-14.7264 -2.5518,-1.89263 -9.1515,-1.89338 -11.7051,-0.001 -7.2768,5.39177 -6.5242,17.16404 1.3252,20.7288 2.9941,1.35978 4.2624,1.45887 7.4256,0.58013 z m 2.7056,-35.56375 c 2.9572,-2.67619 3.8067,-6.95911 2.0529,-10.35045 -1.335,-2.58149 -3.3822,-3.83358 -6.268,-3.83358 -1.962,0 -2.921,0.448 -4.6413,2.16837 -1.8442,1.84419 -2.1684,2.61171 -2.1684,5.13374 0,1.63094 0.4491,3.83374 0.9979,4.89509 1.8374,3.55303 7.1361,4.60297 10.0269,1.98683 z m -888.9232,45.08725 c -0.2305,-0.37287 0.04,-1.1847 0.6002,-1.80405 0.8923,-0.98609 1.019,-3.8755 1.019,-23.23797 v -22.11187 h -6.6183 c -5.105,0 -6.8,0.21875 -7.4123,0.95664 -0.4367,0.52615 -1.1893,0.95664 -1.6725,0.95664 -0.6904,0 -0.8786,-1.43377 -0.8786,-6.69646 0,-6.14513 0.1,-6.69646 1.2073,-6.69646 0.664,0 1.3725,0.43049 1.5744,0.95664 0.5527,1.44041 39.1647,1.44041 39.7175,0 0.2019,-0.52615 0.7669,-0.95664 1.2555,-0.95664 0.7029,0 0.8884,1.39781 0.8884,6.69646 0,5.29865 -0.1855,6.69646 -0.8884,6.69646 -0.4886,0 -1.0536,-0.43049 -1.2555,-0.95664 -0.2956,-0.77035 -1.7371,-0.95664 -7.4025,-0.95664 h -7.0353 l 0.01,21.52433 c 0.01,17.84732 0.1667,21.83638 0.9567,23.35105 0.524,1.00471 0.9527,2.08092 0.9527,2.39159 0,0.82458 -14.5002,0.71535 -15.0122,-0.11308 z m 39.905,-0.11925 c 0.011,-0.43846 0.4416,-1.35429 0.9566,-2.03517 1.3964,-1.84622 1.3964,-49.88725 0,-51.73347 -1.9599,-2.59131 -1.3918,-2.83236 6.6762,-2.83236 6.0753,0 7.6531,0.18113 7.6531,0.87854 0,0.4832 -0.4305,1.23582 -0.9567,1.67249 -0.7768,0.64471 -0.9566,2.69708 -0.9566,10.91997 v 10.12603 h 11.7985 11.7985 v -10.12603 c 0,-8.22289 -0.1797,-10.27526 -0.9566,-10.91997 -0.5261,-0.43667 -0.9566,-1.18929 -0.9566,-1.67249 0,-0.69741 1.5779,-0.87854 7.6531,-0.87854 8.0679,0 8.6361,0.24105 6.6761,2.83236 -0.7859,1.03912 -0.9363,5.21363 -0.9363,25.98863 0,24.04808 0.037,24.78752 1.2988,26.04943 0.7143,0.71433 1.1279,1.5753 0.919,1.91328 -0.5288,0.85567 -14.7851,0.79661 -15.3167,-0.0635 -0.2304,-0.37286 0.04,-1.18469 0.6002,-1.80405 0.8478,-0.93687 1.019,-2.91275 1.019,-11.75833 v -10.63222 h -11.7985 -11.7985 v 10.80571 c 0,10.26795 0.067,10.85259 1.3447,11.74756 2.5067,1.75574 0.7761,2.31928 -7.1221,2.31928 -5.6781,0 -7.6103,-0.20282 -7.5952,-0.7972 z m 123.4002,0.1827 c -0.2089,-0.33798 0.2047,-1.19895 0.919,-1.91328 1.2622,-1.26212 1.2988,-2.00062 1.2988,-26.17132 0,-24.02221 -0.043,-24.91617 -1.2755,-26.14807 -0.7016,-0.70154 -1.2756,-1.56251 -1.2756,-1.91328 0,-0.88358 29.9567,-0.83357 34.7799,0.058 4.8847,0.90298 7.8146,2.4393 10.6615,5.59044 2.6977,2.98608 3.6629,5.96275 3.6485,11.25209 -0.013,4.54159 -1.4418,8.04609 -4.5099,11.0576 -2.3195,2.27667 -6.2734,4.56746 -7.8834,4.56746 -0.5402,0 -0.9821,0.31561 -0.9821,0.70134 0,1.10034 12.1225,20.98243 12.7934,20.98243 0.3297,0 0.5995,0.57398 0.5995,1.27551 0,1.20119 -0.4251,1.27552 -7.2966,1.27552 -7.1977,0 -9.0254,-0.51476 -7.4438,-2.0964 0.3903,-0.39035 0.7097,-1.10548 0.7097,-1.58918 0,-0.48369 -2.4773,-5.01815 -5.5053,-10.07657 l -5.5053,-9.19713 h -5.0177 -5.0177 v 9.80715 c 0,7.93944 0.1822,9.95836 0.9567,10.6011 0.5261,0.43666 0.9566,1.18928 0.9566,1.67248 0,0.69718 -1.5721,0.87855 -7.6155,0.87855 -4.1968,0 -7.7859,-0.27585 -7.9952,-0.6145 z m 31.9189,-31.35135 c 3.9995,-1.00707 6.0133,-3.55035 6.0133,-7.59406 0,-7.26182 -2.8681,-8.90968 -15.5075,-8.90968 h -8.7273 v 8.60973 8.60973 h 7.6896 c 4.2292,0 8.9686,-0.32208 10.5319,-0.71572 z"
     id="path2"
     sodipodi:nodetypes="sssssssssssscccccsssssscccccsssssssssssssssssssssssssssssssscsssssssssssssscsscssssssssssssssssscsscssssssssssssccssccssssssscccssssssssssscccsssssssssssssssssssssscccssssssssscccss" /><path
     style="fill:#bb1b1b;fill-opacity:1;stroke-width:0.637758"
     d="m 4237.21,76.400107 c -0.6802,-0.81953 -4.256,-0.95663 -24.9506,-0.95663 -25.3825,0 -26.6765,-0.15599 -22.2395,-2.68081 l 1.9093,-1.08642 v -30.2776 c 0,-26.67475 -0.1193,-30.39686 -1.0022,-31.27977 -0.5512,-0.5512199 -1.4122,-1.0022399 -1.9132,-1.0022399 -0.5011,0 -0.9111,-0.43048 -0.9111,-0.95663 0,-0.81168 1.5944,-0.95664 10.523,-0.95664 8.1807,0 10.523,0.18361 10.523,0.82475 0,0.45363 -0.9328,1.09936 -2.0727,1.43495 l -2.0728,0.6102099 v 27.10473 27.10471 h 15.5479 c 15.4165,0 15.556,-0.0121 16.5001,-1.43496 0.5237,-0.78922 1.3476,-1.43495 1.831,-1.43495 0.6998,0 0.8788,1.62455 0.8788,7.97197 0,6.34609 -0.1791,7.97197 -0.8785,7.97197 -0.4832,0 -1.2358,-0.43049 -1.6725,-0.95664 z m 183.9292,-0.97234 c -1.789,-0.32126 -5.6633,-1.60387 -8.6097,-2.85025 -4.5613,-1.92954 -5.5701,-2.15325 -6.791,-1.50613 -0.7887,0.418 -1.5927,0.60133 -1.7866,0.4074 -0.5797,-0.57966 6.3128,-13.89258 7.1925,-13.89258 0.4641,0 0.8112,0.76722 0.8112,1.79302 0,3.64254 4.9826,6.67099 12.7994,7.77961 7.5785,1.07482 12.9301,-0.63755 14.8882,-4.76374 2.8135,-5.92897 0.2291,-7.84441 -15.5159,-11.49965 -12.9338,-3.00264 -17.563,-7.45872 -17.563,-16.90628 0,-5.57344 1.4249,-8.9446 5.0406,-11.92492 3.837,-3.16276 8.0941,-4.3393 15.6569,-4.3271 5.852,0.009 7.4776,0.27315 12.89,2.09104 4.013,1.34785 6.7635,1.93717 7.8125,1.67389 0.8905,-0.22349 1.6129,-0.15999 1.6053,0.14111 -0.026,1.01565 -6.0391,11.92203 -6.6827,12.11983 -0.3508,0.10779 -1.0683,-0.72995 -1.5944,-1.86164 -0.6816,-1.46604 -2.0307,-2.59434 -4.6923,-3.92434 -3.2882,-1.64308 -4.4348,-1.87083 -9.5715,-1.90119 -4.9683,-0.0293 -6.1795,0.17789 -8.1473,1.39402 -4.7266,2.9212 -4.828,8.23628 -0.2057,10.78019 1.3901,0.76504 5.9713,2.24497 10.1805,3.28874 8.809,2.18439 11.0825,3.07191 14.8106,5.78184 3.9514,2.87224 5.5251,6.32207 5.5556,12.17884 0.02,3.9106 -0.2436,5.21747 -1.4467,7.16379 -2.0238,3.27392 -5.7496,6.32153 -9.4438,7.72483 -3.6096,1.37114 -12.39,1.90211 -17.1927,1.03967 z m -170.8297,-0.58093 c -0.2028,-0.32811 0.3543,-1.31954 1.2379,-2.20316 l 1.6065,-1.60658 v -24.29277 -24.29278 l -1.6065,-1.60658 c -0.8836,-0.88363 -1.4407,-1.87505 -1.2379,-2.20317 0.5383,-0.87087 16.8751,-0.77562 16.8751,0.0984 0,0.38224 -0.6457,1.21785 -1.4349,1.85693 l -1.435,1.16196 v 24.98525 24.98524 l 1.4836,1.20135 c 0.816,0.66075 1.3013,1.49636 1.0785,1.85693 -0.513,0.83004 -16.0565,0.88539 -16.5673,0.059 z m 33.0627,-0.16298 c -0.2582,-0.41775 -0.1265,-0.87386 0.2926,-1.01357 2.6332,-0.87775 2.6526,-1.07399 2.6526,-26.92596 0,-25.85198 -0.019,-26.04822 -2.6526,-26.92596 -0.4191,-0.13972 -0.5508,-0.59583 -0.2926,-1.01359 0.7288,-1.17917 18.8891,-1.06478 18.8891,0.11899 0,0.4832 -0.4369,1.2412 -0.9711,1.68443 -0.6188,0.51362 -0.8171,1.29366 -0.5467,2.15081 0.2334,0.7397 5.1187,8.78611 10.8563,17.8809 l 10.432,16.53598 v -17.93477 c 0,-17.51919 -0.031,-17.95661 -1.3447,-18.87661 -2.482,-1.73847 -0.7782,-2.31928 6.8033,-2.31928 7.7108,0 8.6855,0.4406 6.021,2.72193 -1.2351,1.05749 -1.2755,1.88135 -1.2755,25.97717 0,24.09582 0.04,24.91967 1.2755,25.97717 2.7123,2.32227 1.7181,2.72193 -6.7708,2.72193 -8.6502,0 -8.3831,0.12263 -6.9971,-3.21245 0.2625,-0.63193 -2.4913,-5.39119 -7.7497,-13.39291 -4.4863,-6.82694 -9.7312,-14.81856 -11.6552,-17.75915 l -3.4982,-5.34653 -0.1759,18.10169 c -0.1701,17.51532 -0.134,18.13598 1.1161,19.16054 2.5347,2.07746 1.5758,2.44881 -6.3236,2.44881 -5.2031,0 -7.7641,-0.2406 -8.0848,-0.75957 z m 65.4454,-0.0553 c 0,-0.4482 0.574,-1.30637 1.2755,-1.90703 1.2351,-1.0575 1.2755,-1.88135 1.2755,-25.97717 0,-24.09582 -0.04,-24.91968 -1.2755,-25.97717 -2.7078,-2.31847 -1.7152,-2.72193 6.6965,-2.72193 6.3461,0 7.972,0.17918 7.972,0.87854 0,0.4832 -0.4305,1.23582 -0.9567,1.67249 -0.7774,0.64522 -0.9526,2.66077 -0.9354,10.76053 l 0.021,9.9666 1.3139,-1.5944 c 0.7228,-0.87691 4.8746,-5.22479 9.2264,-9.66193 4.3517,-4.43715 7.9122,-8.36634 7.9122,-8.73154 0,-0.36519 -0.287,-0.84135 -0.6378,-1.05814 -0.3508,-0.21679 -0.6377,-0.80771 -0.6377,-1.31316 0,-0.75477 1.5385,-0.91899 8.6097,-0.91899 7.2279,0 8.6097,0.15353 8.6097,0.95663 0,0.52615 -0.3242,0.95664 -0.7205,0.95664 -0.3963,0 -5.5425,4.76951 -11.4359,10.59891 l -10.7154,10.59892 9.6283,14.43307 c 5.2955,7.9382 10.642,15.36643 11.8809,16.5072 1.5455,1.42292 2.0465,2.28032 1.5958,2.73095 -0.9837,0.98375 -16.3167,0.52329 -16.6565,-0.5002 -0.1456,-0.43846 0.1898,-0.7972 0.7451,-0.7972 2.1058,0 0.8116,-2.94549 -6.1125,-13.91153 -3.9173,-6.20395 -7.223,-11.40475 -7.3459,-11.55734 -0.123,-0.15259 -1.3663,0.83838 -2.7629,2.20214 l -2.5394,2.47959 v 9.67772 c 0,7.82439 0.1832,9.82977 0.9566,10.47167 0.5262,0.43666 0.9567,1.18928 0.9567,1.67248 0,0.69937 -1.6259,0.87855 -7.972,0.87855 -6.0447,0 -7.972,-0.19701 -7.972,-0.8149 z"
     id="path3"
     sodipodi:nodetypes="ssscssssssscccssssssssssssssssssssssssssssssssssscccsssscccssssssssssssscsssssssssscsssssssssssscssssssssscsssssssscssssss" /><path
     style="fill:#185886;fill-opacity:1;stroke-width:0.637758"
     d="m 3979.5559,76.400107 c -0.6743,-0.81247 -3.7559,-0.95663 -20.4487,-0.95663 -11.9192,0 -19.8042,-0.24185 -20.0345,-0.6145 -0.209,-0.33798 0.2046,-1.19895 0.9189,-1.91328 1.2622,-1.26212 1.2988,-2.00062 1.2988,-26.17132 0,-24.02221 -0.043,-24.91617 -1.2755,-26.14807 -0.7016,-0.70154 -1.2755,-1.56251 -1.2755,-1.91328 0,-0.41162 7.0956,-0.63775 20.0113,-0.63775 17.0097,0 20.1304,-0.14349 20.8052,-0.95664 0.4366,-0.52615 1.1893,-0.95664 1.6725,-0.95664 0.6953,0 0.8785,1.52982 0.8785,7.33422 0,5.70351 -0.1899,7.33421 -0.8543,7.33421 -0.4698,0 -1.1811,-0.71748 -1.5807,-1.59439 l -0.7264,-1.5944 h -13.0877 -13.0878 v 7.01534 7.01533 h 7.9257 c 7.7631,0 7.9523,-0.0338 9.2219,-1.64785 0.7129,-0.90632 1.5947,-1.46337 1.9596,-1.23788 0.3939,0.24345 0.6633,3.24429 0.6633,7.38767 0,5.70274 -0.1706,6.9777 -0.9342,6.9777 -0.5137,0 -1.2414,-0.57398 -1.6168,-1.27551 -0.6288,-1.17483 -1.3353,-1.27552 -8.9511,-1.27552 h -8.2684 v 7.6531 7.65309 h 13.0878 13.0877 l 0.734,-1.61091 c 1.4144,-3.10437 2.1048,-1.30444 2.2889,5.96774 0.1465,5.79012 0.012,7.12281 -0.7192,7.12281 -0.4947,0 -1.2567,-0.43049 -1.6933,-0.95664 z m -373.0049,-1.25887 c -2.2341,-0.5083 -5.9565,-1.81077 -8.2722,-2.8944 -3.6133,-1.69088 -4.4163,-1.86 -5.6629,-1.19281 -0.7989,0.42757 -1.6561,0.57389 -1.9048,0.32516 -0.2488,-0.24874 1.051,-3.47491 2.8883,-7.16927 3.332,-6.69962 4.7425,-7.9515 5.0118,-4.44809 0.1835,2.38742 1.0341,3.26127 5.0023,5.1385 3.8881,1.83935 11.0007,3.03124 14.6878,2.46128 5.1396,-0.79452 8.5745,-3.82985 8.5745,-7.57704 0,-4.56632 -1.0536,-5.23425 -12.5717,-7.96937 -15.9343,-3.78384 -21.1783,-8.01415 -21.2154,-17.11423 -0.021,-5.20219 1.1749,-8.31189 4.4698,-11.62122 4.1173,-4.13514 7.9786,-5.36972 16.5622,-5.2953 5.7143,0.0496 7.6038,0.35646 12.8834,2.09268 3.9914,1.31261 6.7638,1.88985 7.8126,1.62664 0.894,-0.22439 1.6255,-0.24044 1.6255,-0.0356 0,0.79231 -6.5169,12.52112 -6.9571,12.52112 -0.2562,0 -0.8764,-0.929 -1.3781,-2.06445 -2.4495,-5.54302 -17.0451,-8.12037 -23.0674,-4.07334 -2.6719,1.79544 -3.7484,5.44684 -2.3451,7.95403 1.2705,2.26984 4.0513,3.48478 13.2489,5.78845 8.8627,2.2198 13.09,4.15187 16.2875,7.44419 2.7967,2.87975 3.8504,5.85811 3.8138,10.78031 -0.048,6.5483 -3.2356,10.93875 -10.2959,14.18438 -4.3027,1.97796 -13.1912,2.50505 -19.1978,1.13845 z m 226.6395,0.0842 c -6.651,-1.73744 -12.8697,-6.27716 -16.063,-11.72613 -5.4858,-9.36075 -5.4883,-24.20861 -0.01,-33.47329 6.708,-11.33553 21.7246,-15.75918 34.0023,-10.01652 2.4134,1.12885 5.5736,2.2249 7.0226,2.43568 l 2.6345,0.38323 -3.8183,6.53278 c -3.8075,6.51416 -4.9584,7.44694 -4.9584,4.01865 0,-3.99575 -7.5079,-7.6741 -13.8808,-6.8006 -10.2826,1.40938 -16.6311,13.46554 -13.925,26.44409 2.2177,10.63624 10.9257,16.16051 20.9023,13.26022 4.8948,-1.42294 6.9035,-3.13203 6.9035,-5.87372 0,-1.20222 0.2455,-2.18586 0.5456,-2.18586 0.6591,0 8.5174,9.89503 8.4481,10.63766 -0.027,0.28771 -0.5867,0.55375 -1.2442,0.59123 -0.6576,0.0375 -2.455,0.92102 -3.9942,1.96345 -1.5393,1.04242 -4.0809,2.39766 -5.648,3.01163 -3.723,1.45856 -12.7601,1.88448 -16.9212,0.7975 z m 177.5487,0.20908 c -1.6153,-0.27315 -5.5669,-1.56146 -8.7814,-2.8629 -4.6496,-1.88247 -6.0319,-2.21075 -6.7611,-1.6056 -0.5041,0.41837 -1.2083,0.58032 -1.565,0.3599 -0.841,-0.5198 5.6985,-13.73971 6.7967,-13.73971 0.4717,0 0.8112,0.7813 0.8112,1.86684 0,4.10657 7.891,7.85693 16.5817,7.88082 5.8152,0.016 9.0509,-1.21814 10.8256,-4.12891 3.4966,-5.73517 0.525,-8.79914 -10.943,-11.28302 -15.1395,-3.27908 -20.6809,-7.19104 -21.8366,-15.41548 -1.0311,-7.3383 2.1886,-13.30178 8.9886,-16.64835 4.1797,-2.05704 4.5891,-2.12999 11.6779,-2.08116 6.5593,0.0452 7.9869,0.27246 13.3261,2.12162 3.6544,1.26562 6.5686,1.92326 7.4937,1.69108 0.8325,-0.20897 1.5169,-0.15922 1.5208,0.11053 0.01,0.26976 -1.3593,3.14162 -3.0293,6.38191 -2.7574,5.35004 -4.6309,7.37257 -4.6309,4.99937 0,-1.78207 -3.238,-4.74586 -6.2369,-5.70856 -11.8314,-3.79817 -22.3257,0.25656 -19.8759,7.67952 0.935,2.83324 3.5463,4.1265 13.1193,6.49747 4.1649,1.03154 8.8662,2.43875 10.4473,3.12714 6.1928,2.6963 9.447,7.12282 10.0395,13.65611 1.112,12.26434 -11.3851,19.90576 -27.9683,17.10138 z m -526.4283,-0.67097 c -0.3093,-0.50063 -0.2112,-0.94173 0.2434,-1.09326 2.6938,-0.89792 2.673,-0.62482 2.4992,-32.87687 l -0.1655,-30.72019 -1.435,-0.6295299 c -0.7892,-0.34624 -1.4349,-1.01499 -1.4349,-1.48617 0,-0.70287 3.2897,-0.81155 18.3355,-0.60574 16.7688,0.22934 18.648,0.36671 21.9919,1.60747 9.1244,3.3857499 14.9813,9.9431099 18.1083,20.2739699 1.4423,4.7649 1.6229,18.03274 0.3165,23.25092 -2.259,9.02327 -7.0614,15.30838 -14.3348,18.7606 -6.7986,3.22687 -9.4393,3.61445 -27.2705,4.00252 -13.1135,0.2854 -16.4377,0.19 -16.8541,-0.48372 z m 28.8984,-10.80703 c 13.3532,-1.40674 17.5398,-6.71009 17.6152,-22.31426 0.088,-18.20173 -5.4446,-23.59703 -24.1974,-23.59703 h -6.6651 v 22.85298 c 0,12.56914 0.1913,23.04431 0.4252,23.27816 0.6002,0.60021 5.9004,0.50933 12.8221,-0.21985 z m 46.0642,10.68368 c 0,-0.44178 0.574,-1.16169 1.2755,-1.5998 1.241,-0.775 1.2755,-1.48727 1.2755,-26.29607 0,-24.80881 -0.034,-25.52109 -1.2755,-26.29608 -0.7015,-0.43812 -1.2755,-1.15802 -1.2755,-1.5998 0,-0.60461 2.0501,-0.80322 8.2908,-0.80322 5.1021,0 8.2909,0.24528 8.2909,0.63775 0,0.35077 -0.574,1.21174 -1.2755,1.91328 -1.2319,1.23192 -1.2755,2.12586 -1.2755,26.1543 0,24.08959 0.04,24.91345 1.2755,25.97094 2.7264,2.33442 1.7277,2.72193 -7.0154,2.72193 -6.2407,0 -8.2908,-0.19863 -8.2908,-0.80323 z m 91.4934,0.12528 c -0.2305,-0.37287 0.04,-1.1847 0.6002,-1.80405 0.8974,-0.99171 1.019,-4.13638 1.019,-26.34867 0,-21.64203 -0.1358,-25.33527 -0.9566,-26.0165 -0.5262,-0.43667 -0.9566,-1.21873 -0.9566,-1.7379 0,-1.39413 29.4978,-0.83942 34.0226,0.63979 7.415,2.42406 10.6738,6.66728 11.1265,14.48771 0.3489,6.02791 -1.2976,10.42339 -5.1352,13.70823 -3.9615,3.39086 -7.2435,4.25667 -17.533,4.6252 l -9.088,0.32551 v 9.48604 c 0,8.69232 0.1086,9.59471 1.2988,10.78481 0.7143,0.71433 1.1278,1.5753 0.919,1.91328 -0.5289,0.85567 -14.7852,0.79661 -15.3167,-0.0635 z m 30.1732,-32.28271 c 2.8163,-1.37933 3.9495,-3.38948 3.9623,-7.02864 0.023,-6.49359 -3.2345,-8.48029 -13.9038,-8.48029 h -7.1328 v 8.18455 c 0,4.50151 0.2152,8.40999 0.4783,8.68552 0.9124,0.95551 14.069,-0.12354 16.596,-1.36114 z m 22.4666,32.29123 c 0,-0.36819 0.4507,-1.54098 1.0016,-2.60621 0.9967,-1.92748 6.4386,-17.31592 13.8155,-39.06744 3.2141,-9.47696 3.7422,-11.61695 3.1148,-12.62166 -0.4156,-0.66541 -0.5854,-1.48515 -0.3774,-1.82165 0.2079,-0.3365 3.7831,-0.61181 7.9448,-0.61181 h 7.5668 l -0.071,2.71047 c -0.066,2.54975 2.3408,9.79342 14.8605,44.71651 1.3663,3.81114 2.9681,7.28324 3.5597,7.71577 2.2391,1.63734 0.2958,2.25545 -7.0914,2.25545 -7.7168,0 -8.9114,-0.45583 -6.9308,-2.64443 1.1342,-1.25332 1.1126,-1.43961 -0.7919,-6.81571 l -1.9579,-5.52717 -9.5849,-0.1756 -9.5849,-0.1756 -1.5187,4.00215 c -1.0189,2.68488 -1.4956,5.20912 -1.4482,7.66925 l 0.07,3.66711 h -6.2886 c -3.9656,0 -6.2887,-0.24729 -6.2887,-0.66943 z m 31.8879,-22.98521 c 0,-0.66922 -3.2845,-13.54515 -4.4592,-17.48074 -0.3141,-1.0523 -0.8931,-3.16196 -1.2866,-4.68812 -0.3935,-1.52617 -0.8314,-2.65899 -0.973,-2.51738 -0.334,0.33399 -7.3118,23.97731 -7.3118,24.77499 0,0.34687 3.0037,0.60661 7.0153,0.60661 4.6392,0 7.0153,-0.23553 7.0153,-0.69536 z m 40.4728,22.97669 c -0.2304,-0.37287 0.04,-1.1847 0.6002,-1.80405 0.8923,-0.98609 1.019,-3.8755 1.019,-23.23797 v -22.11187 h -6.6183 c -5.105,0 -6.7999,0.21875 -7.4123,0.95664 -0.4367,0.52615 -1.1893,0.95664 -1.6725,0.95664 -0.6904,0 -0.8786,-1.43377 -0.8786,-6.69646 0,-6.14513 0.1,-6.69646 1.2073,-6.69646 0.6641,0 1.3725,0.43049 1.5744,0.95664 0.3152,0.82147 3.1212,0.95664 19.8587,0.95664 16.7376,0 19.5436,-0.13517 19.8588,-0.95664 0.2019,-0.52615 0.7669,-0.95664 1.2555,-0.95664 0.7029,0 0.8884,1.39781 0.8884,6.69646 0,5.29865 -0.1855,6.69646 -0.8884,6.69646 -0.4886,0 -1.0536,-0.43049 -1.2555,-0.95664 -0.2956,-0.77035 -1.7371,-0.95664 -7.4025,-0.95664 h -7.0353 v 21.88075 c 0,18.2516 0.1553,22.08608 0.9363,23.11872 1.9478,2.57518 1.374,2.83237 -6.3196,2.83237 -4.4648,0 -7.4592,-0.26312 -7.7156,-0.67795 z m 97.3032,-0.11925 c 0.011,-0.43846 0.4416,-1.35429 0.9566,-2.03517 0.7858,-1.03887 0.9364,-5.19891 0.9364,-25.86673 0,-20.66783 -0.1506,-24.82787 -0.9364,-25.86674 -1.9599,-2.59131 -1.3917,-2.83236 6.6762,-2.83236 6.0753,0 7.6531,0.18113 7.6531,0.87854 0,0.4832 -0.4305,1.23582 -0.9566,1.67249 -0.7769,0.64471 -0.9567,2.69708 -0.9567,10.91997 v 10.12603 h 11.7985 11.7986 v -10.12603 c 0,-8.22289 -0.1798,-10.27526 -0.9567,-10.91997 -0.5261,-0.43667 -0.9566,-1.18929 -0.9566,-1.67249 0,-0.69741 1.5779,-0.87854 7.6531,-0.87854 8.0679,0 8.6361,0.24105 6.6762,2.83236 -0.7859,1.03907 -0.9364,5.21062 -0.9364,25.96378 0,24.32069 0.022,24.74633 1.3434,25.97733 2.2796,2.12387 0.9889,2.62473 -6.7643,2.62473 -7.5749,0 -8.9026,-0.4656 -7.0778,-2.482 0.8478,-0.93688 1.0191,-2.91276 1.0191,-11.75833 v -10.63223 h -11.7986 -11.7985 v 10.83648 c 0,10.14578 0.081,10.88725 1.2755,11.63305 0.7016,0.43811 1.2756,1.15802 1.2756,1.5998 0,0.60296 -1.9877,0.80323 -7.972,0.80323 -5.9632,0 -7.9669,-0.20088 -7.9517,-0.7972 z"
     id="path4"
     sodipodi:nodetypes="ssssssssssssscccccssssssscccccsssssssssssssssssssssssssssssscscsscsssssssssssccsssssssssssssscssssssssssscsssssssssssscsssssssssssssssssssssssscsssssssscssssssssscsssssscccsscssssssssssssscssssssssssssscsssssssssssscccsssssssssscccsssss" /></svg>
