<?xml version="1.0" encoding="UTF-8" standalone="no"?>
<!-- Created with Inkscape (http://www.inkscape.org/) -->

<svg
   version="1.1"
   id="svg1"
   width="7589.626"
   height="89.801331"
   viewBox="0 0 7589.6261 89.801333"
   xml:space="preserve"
   sodipodi:docname="bottomcorner.svg"
   xmlns:inkscape="http://www.inkscape.org/namespaces/inkscape"
   xmlns:sodipodi="http://sodipodi.sourceforge.net/DTD/sodipodi-0.dtd"
   xmlns="http://www.w3.org/2000/svg"
   xmlns:svg="http://www.w3.org/2000/svg"><sodipodi:namedview
     id="namedview1"
     pagecolor="#ffffff"
     bordercolor="#000000"
     borderopacity="0.25"
     inkscape:showpageshadow="2"
     inkscape:pageopacity="0.0"
     inkscape:pagecheckerboard="0"
     inkscape:deskcolor="#d1d1d1" /><defs
     id="defs1"><clipPath
       clipPathUnits="userSpaceOnUse"
       id="clipPath27"><rect
         style="vector-effect:non-scaling-stroke;fill:none;fill-opacity:1;stroke:#000000;stroke-width:2.09441;stroke-dasharray:none;stroke-opacity:1;-inkscape-stroke:hairline"
         id="rect28"
         width="644.48944"
         height="841.68408"
         x="4319.563"
         y="-66.052979" /></clipPath><style
       id="style1">&#10;      .cls-1 {&#10;        fill: #fff;&#10;      }&#10;&#10;      .cls-1, .cls-2 {&#10;        stroke-width: 0px;&#10;      }&#10;&#10;      .cls-2 {&#10;        fill: #185886;&#10;      }&#10;    </style><style
       id="style1-6">&#10;      .cls-1 {&#10;        fill: #fff;&#10;      }&#10;&#10;      .cls-1, .cls-2 {&#10;        stroke-width: 0px;&#10;      }&#10;&#10;      .cls-2 {&#10;        fill: #bb1b1b;&#10;      }&#10;    </style></defs><rect
     style="vector-effect:non-scaling-stroke;fill:#070b34;fill-opacity:1;stroke-width:12.2123;-inkscape-stroke:hairline"
     id="rect1"
     width="7589.6255"
     height="83.706001"
     x="4.7607951e-05"
     y="-1.2902722e-05"
     inkscape:export-filename="footerhat.svg"
     inkscape:export-xdpi="12648.845"
     inkscape:export-ydpi="12648.845" /><g
     id="g12"
     transform="matrix(0.14981828,0,0,0.14981828,6845.92,9.8959271)"
     clip-path="url(#clipPath27)"><rect
       style="fill:#bb1b1b;fill-opacity:1;stroke:#e0c221;stroke-width:20;stroke-dasharray:none;stroke-opacity:1"
       id="rect3"
       width="123.35744"
       height="884.06097"
       x="2950.5986"
       y="3223.3757"
       transform="rotate(-48.41539)" /><rect
       style="fill:#318120;fill-opacity:1;stroke:#e0c221;stroke-width:20;stroke-dasharray:none;stroke-opacity:1"
       id="rect4"
       width="101.09546"
       height="883.06964"
       x="3051.6938"
       y="3223.3757"
       transform="rotate(-48.41539)" /><rect
       style="fill:#bcb767;fill-opacity:1;stroke:#e0c221;stroke-width:20;stroke-dasharray:none;stroke-opacity:1"
       id="rect5"
       width="101.09546"
       height="886.87231"
       x="3152.7893"
       y="3223.3757"
       transform="rotate(-48.41539)" /><rect
       style="fill:#ffffff;fill-opacity:1;stroke:#e0c221;stroke-width:20;stroke-dasharray:none;stroke-opacity:1"
       id="rect6"
       width="101.09546"
       height="885.34747"
       x="3253.8848"
       y="3223.3757"
       transform="rotate(-48.41539)" /></g><path
     style="fill:#ffffff;stroke-width:0.440724"
     d="m 3501.8699,81.726857 c -0.2181,-0.56829 -2.2044,-0.66108 -14.1504,-0.66108 -14.6009,0 -15.1237,-0.0756 -13.0151,-1.881 0.8534,-0.73078 0.8814,-1.30011 0.8814,-17.94728 0,-16.60491 -0.03,-17.22267 -0.8814,-18.07399 -0.4849,-0.4848 -0.8815,-1.07977 -0.8815,-1.32217 0,-0.2845 4.926,-0.44072 13.8966,-0.44072 11.946,0 13.9323,-0.0928 14.1504,-0.66109 0.1395,-0.3636 0.6291,-0.66109 1.0879,-0.66109 0.7702,0 0.8344,0.38931 0.8344,5.06833 0,4.24793 -0.1088,5.06832 -0.672,5.06832 -0.3696,0 -0.8605,-0.49581 -1.091,-1.1018 l -0.4188,-1.10182 h -9.0458 -9.0458 v 4.84797 4.84796 h 5.3098 c 5.0976,0 5.3505,-0.044 6.3308,-1.10181 0.5616,-0.60599 1.1472,-1.1018 1.3012,-1.1018 0.1539,0 0.28,2.28074 0.28,5.06832 0,4.98108 -0.333,6.03531 -1.3222,4.18688 -0.4345,-0.81187 -0.9228,-0.88145 -6.1857,-0.88145 h -5.7139 v 5.28869 5.28868 h 9.0458 9.0458 l 0.4325,-1.13763 c 0.2379,-0.6257 0.6792,-1.05577 0.9807,-0.95572 0.3832,0.12715 0.5857,1.66369 0.6728,5.10415 0.1167,4.60831 0.07,4.92224 -0.7241,4.92224 -0.4668,0 -0.9629,-0.2975 -1.1024,-0.66109 z m -143.0759,-0.70426 c -5.6373,-1.10091 -11.2084,-5.56683 -13.8117,-11.07165 -2.0725,-4.3825 -2.6689,-7.24835 -2.6397,-12.68427 0.041,-7.53628 2.1217,-13.37465 6.3687,-17.86519 6.0182,-6.36341 16.7788,-7.95874 25.0884,-3.7195 8.311,4.23993 12.9073,15.82795 10.8291,27.30184 -2.3733,13.10331 -13.0248,20.5405 -25.8348,18.03877 z m 10.4198,-8.24571 c 6.1839,-3.17004 8.7443,-13.41159 5.8809,-23.52329 -0.814,-2.87444 -3.1581,-5.75618 -5.7775,-7.10242 -4.4143,-2.26884 -10.5688,-1.51894 -13.7216,1.6719 -3.3382,3.37854 -4.4714,7.40609 -4.2124,14.97171 0.1585,4.6303 0.3358,5.6386 1.3971,7.94746 1.756,3.82003 3.7809,5.72164 7.333,6.88635 1.9681,0.64533 7.1208,0.1631 9.1005,-0.85171 z m 636.563,8.05235 c -4.6351,-1.29287 -8.361,-4.59783 -10.1675,-9.01871 -0.3655,-0.89454 -0.6303,-3.02365 -0.6303,-5.06832 0,-2.97271 0.1944,-3.92154 1.2389,-6.04861 1.34,-2.72894 4.0004,-5.31659 6.333,-6.16011 0.8046,-0.29094 1.463,-0.6529 1.463,-0.80435 0,-0.15145 -0.522,-0.75617 -1.16,-1.34382 -2.7718,-2.55312 -3.7398,-8.71129 -1.9692,-12.52728 3.3534,-7.22757 14.8438,-8.82683 20.6275,-2.87095 2.2363,2.30283 2.974,4.2284 2.9854,7.79114 0.01,2.81328 -0.1359,3.36478 -1.3286,5.0618 -0.7362,1.04749 -1.9633,2.32557 -2.727,2.84017 l -1.3884,0.93565 1.2755,0.943 c 0.7015,0.51864 1.7987,1.83588 2.4383,2.9272 0.6396,1.09132 1.233,1.98422 1.3188,1.98422 0.086,0 0.7917,-1.3387 1.5687,-2.97489 1.0284,-2.16556 2.3538,-3.90412 4.8722,-6.3905 1.9027,-1.87859 3.657,-3.41561 3.8984,-3.41561 0.2721,0 0.439,2.51481 0.439,6.61086 0,4.24753 -0.1624,6.61086 -0.4545,6.61086 -0.25,0 -0.5687,-0.29749 -0.7083,-0.66109 -0.4081,-1.06341 -1.3549,-0.76818 -2.5465,0.79391 -1.3418,1.7593 -3.3422,6.17083 -3.3422,7.37078 0,0.94378 2.6867,4.15177 4.1193,4.91845 0.7254,0.38823 1.0307,0.30249 1.6512,-0.46384 1.4683,-1.81328 1.7218,-1.16574 1.7218,4.39861 v 5.33874 l -2.0935,-0.30231 c -2.8618,-0.41326 -6.2436,-2.01307 -8.4293,-3.98773 l -1.8228,-1.64683 -1.994,1.83797 c -1.0967,1.01088 -2.9299,2.2435 -4.0741,2.73915 -2.7762,1.20279 -7.9238,1.47253 -11.1148,0.58244 z m 7.5118,-6.81323 c 1.7721,-0.4923 4.1057,-2.70278 4.8014,-4.54796 1.2972,-3.44082 0.032,-8.10601 -2.7598,-10.17672 -1.7634,-1.3079 -6.3242,-1.30842 -8.0888,-6.9e-4 -5.0287,3.726 -4.5086,11.86125 0.9158,14.32469 2.069,0.93968 2.9455,1.00815 5.1314,0.4009 z m 1.8697,-24.57642 c 2.0436,-1.84938 2.6307,-4.8091 1.4187,-7.1527 -0.9225,-1.78394 -2.3373,-2.6492 -4.3315,-2.6492 -1.3558,0 -2.0186,0.30959 -3.2074,1.49846 -1.2744,1.27443 -1.4985,1.80482 -1.4985,3.54768 0,1.12706 0.3104,2.64931 0.6896,3.38276 1.2698,2.45533 4.9315,3.18089 6.9291,1.373 z m -614.2924,31.15765 c -0.1593,-0.25767 0.028,-0.81869 0.4148,-1.24669 0.6166,-0.68144 0.7042,-2.67817 0.7042,-16.05865 v -15.28046 h -4.5736 c -3.5278,0 -4.6992,0.15117 -5.1223,0.66109 -0.3018,0.36359 -0.8219,0.66108 -1.1558,0.66108 -0.4771,0 -0.6071,-0.99081 -0.6071,-4.6276 0,-4.24661 0.069,-4.6276 0.8343,-4.6276 0.4588,0 0.9484,0.29749 1.088,0.66109 0.3819,0.99539 27.0648,0.99539 27.4468,0 0.1396,-0.3636 0.53,-0.66109 0.8676,-0.66109 0.4858,0 0.614,0.96596 0.614,4.6276 0,3.66165 -0.1282,4.6276 -0.614,4.6276 -0.3376,0 -0.728,-0.29749 -0.8676,-0.66108 -0.2042,-0.53236 -1.2004,-0.66109 -5.1155,-0.66109 h -4.8617 l 0.01,14.87444 c 0.01,12.33343 0.1152,15.09008 0.6611,16.13679 0.3621,0.69431 0.6584,1.43803 0.6584,1.65272 0,0.56982 -10.0204,0.49434 -10.3743,-0.0782 z m 27.5765,-0.0824 c 0.01,-0.30299 0.3051,-0.93588 0.661,-1.4064 0.965,-1.27584 0.965,-34.4747 0,-35.75054 -1.3544,-1.79073 -0.9618,-1.95731 4.6136,-1.95731 4.1984,0 5.2887,0.12517 5.2887,0.60712 0,0.33392 -0.2975,0.85402 -0.6611,1.15578 -0.5368,0.44553 -0.6611,1.86382 -0.6611,7.54627 v 6.99762 h 8.1534 8.1534 v -6.99762 c 0,-5.68245 -0.1242,-7.10074 -0.6611,-7.54627 -0.3635,-0.30176 -0.661,-0.82186 -0.661,-1.15578 0,-0.48195 1.0904,-0.60712 5.2887,-0.60712 5.5753,0 5.968,0.16658 4.6135,1.95731 -0.5431,0.71809 -0.647,3.60289 -0.647,17.9595 0,16.61849 0.026,17.12948 0.8975,18.00152 0.4936,0.49364 0.7794,1.08862 0.6351,1.32218 -0.3654,0.59131 -10.2173,0.5505 -10.5847,-0.0439 -0.1592,-0.25767 0.028,-0.81868 0.4148,-1.24669 0.5859,-0.64743 0.7042,-2.01287 0.7042,-8.12563 v -7.34742 h -8.1534 -8.1534 v 7.46731 c 0,7.0957 0.046,7.49971 0.9293,8.11818 1.7323,1.21331 0.5363,1.60275 -4.9217,1.60275 -3.9239,0 -5.2592,-0.14016 -5.2487,-0.55091 z m 85.276,0.12626 c -0.1444,-0.23356 0.1414,-0.82854 0.635,-1.32218 0.8723,-0.87219 0.8976,-1.38253 0.8976,-18.08575 0,-16.6006 -0.03,-17.21837 -0.8815,-18.06968 -0.4848,-0.4848 -0.8815,-1.07978 -0.8815,-1.32218 0,-0.6106 20.7017,-0.57604 24.0348,0.0401 3.3755,0.62401 5.4003,1.68569 7.3676,3.86329 1.8643,2.06354 2.5313,4.12057 2.5213,7.77578 -0.01,3.13848 -0.9963,5.56027 -3.1166,7.64138 -1.6028,1.5733 -4.3352,3.15636 -5.4478,3.15636 -0.3733,0 -0.6787,0.2181 -0.6787,0.48466 0,0.76039 8.3773,14.49995 8.8409,14.49995 0.2279,0 0.4143,0.39666 0.4143,0.88145 0,0.83008 -0.2937,0.88145 -5.0423,0.88145 -4.974,0 -6.237,-0.35573 -5.1441,-1.44872 0.2697,-0.26975 0.4905,-0.76395 0.4905,-1.09821 0,-0.33425 -1.712,-3.4678 -3.8045,-6.96344 l -3.8044,-6.35569 h -3.4675 -3.4675 v 6.77725 c 0,5.48657 0.1259,6.88175 0.6611,7.32591 0.3636,0.30176 0.6611,0.82186 0.6611,1.15578 0,0.48178 -1.0864,0.60712 -5.2627,0.60712 -2.9002,0 -5.3805,-0.19063 -5.5251,-0.42465 z m 22.0576,-21.66542 c 2.7639,-0.69594 4.1555,-2.45348 4.1555,-5.2479 0,-5.01829 -1.982,-6.15705 -10.7165,-6.15705 h -6.031 v 5.94977 5.94978 h 5.3139 c 2.9226,0 6.1978,-0.22258 7.2781,-0.4946 z"
     id="path2"
     sodipodi:nodetypes="sssssssssssscccccsssssscccccsssssssssssssssssssssssssssssssscsssssssssssssscsscssssssssssssssssscsscssssssssssssccssccssssssscccssssssssssscccsssssssssssssssssssssscccssssssssscccss" /><path
     style="fill:#bb1b1b;fill-opacity:1;stroke-width:0.440724"
     d="m 4100.5324,81.726857 c -0.4701,-0.56634 -2.9411,-0.66108 -17.2422,-0.66108 -17.5406,0 -18.4348,-0.1078 -15.3686,-1.85258 l 1.3194,-0.75078 v -20.9234 c 0,-18.43365 -0.082,-21.00582 -0.6926,-21.61596 -0.3809,-0.38092 -0.9759,-0.6926 -1.3221,-0.6926 -0.3463,0 -0.6296,-0.29748 -0.6296,-0.66108 0,-0.56091 1.1018,-0.66109 7.2719,-0.66109 5.6533,0 7.272,0.12689 7.272,0.56995 0,0.31348 -0.6446,0.75971 -1.4324,0.99162 l -1.4324,0.42169 v 18.73078 18.73078 h 10.7444 c 10.6536,0 10.75,-0.008 11.4025,-0.99164 0.3619,-0.54539 0.9312,-0.99162 1.2653,-0.99162 0.4836,0 0.6073,1.12265 0.6073,5.50905 0,4.38548 -0.1238,5.50905 -0.6071,5.50905 -0.3339,0 -0.854,-0.2975 -1.1558,-0.66109 z m 127.1047,-0.67194 c -1.2363,-0.22201 -3.9136,-1.10836 -5.9498,-1.96967 -3.1521,-1.33342 -3.8492,-1.48801 -4.6929,-1.04082 -0.545,0.28886 -1.1006,0.41555 -1.2346,0.28154 -0.4006,-0.40058 4.3625,-9.6005 4.9704,-9.6005 0.3207,0 0.5606,0.53019 0.5606,1.23907 0,2.51718 3.4432,4.61 8.845,5.37612 5.2371,0.74275 8.9354,-0.44058 10.2885,-3.292 1.9443,-4.09723 0.1584,-5.42089 -10.7223,-7.94686 -8.9379,-2.07498 -12.1369,-5.15436 -12.1369,-11.68312 0,-3.85154 0.9847,-6.18119 3.4833,-8.24074 2.6516,-2.18564 5.5934,-2.99869 10.8197,-2.99026 4.0441,0.006 5.1674,0.18876 8.9077,1.44502 2.7732,0.93144 4.6739,1.33869 5.3988,1.15675 0.6154,-0.15445 1.1146,-0.11056 1.1094,0.0975 -0.018,0.70187 -4.1733,8.23875 -4.6181,8.37544 -0.2424,0.0745 -0.7383,-0.50444 -1.1018,-1.28649 -0.471,-1.01311 -1.4033,-1.79283 -3.2426,-2.71193 -2.2724,-1.13545 -3.0647,-1.29284 -6.6144,-1.31382 -3.4334,-0.0203 -4.2704,0.12293 -5.6303,0.96334 -3.2663,2.0187 -3.3364,5.6917 -0.1421,7.44968 0.9606,0.52868 4.1265,1.55139 7.0352,2.27269 6.0875,1.50953 7.6586,2.12285 10.2349,3.99555 2.7307,1.98487 3.8182,4.36888 3.8393,8.41622 0.014,2.70243 -0.1684,3.60554 -0.9998,4.95055 -1.3985,2.26245 -3.9733,4.36851 -6.5261,5.33826 -2.4945,0.94753 -8.5622,1.31446 -11.8811,0.71847 z m -118.0523,-0.40145 c -0.1401,-0.22674 0.2449,-0.91187 0.8555,-1.5225 l 1.1102,-1.11023 v -16.78758 -16.78758 l -1.1102,-1.11023 c -0.6106,-0.61063 -0.9956,-1.29576 -0.8555,-1.52251 0.372,-0.60181 11.6616,-0.53599 11.6616,0.068 0,0.26415 -0.4462,0.8416 -0.9916,1.28324 l -0.9916,0.80297 v 17.26612 17.26611 l 1.0252,0.83019 c 0.5639,0.45662 0.8993,1.03407 0.7453,1.28324 -0.3545,0.5736 -11.0959,0.61185 -11.4489,0.0408 z m 22.8481,-0.11263 c -0.1784,-0.28869 -0.087,-0.60388 0.2022,-0.70043 1.8197,-0.60657 1.8331,-0.74218 1.8331,-18.60725 0,-17.86507 -0.013,-18.00068 -1.8331,-18.60724 -0.2896,-0.0966 -0.3806,-0.41175 -0.2022,-0.70045 0.5036,-0.81487 13.0534,-0.73582 13.0534,0.0822 0,0.33392 -0.302,0.85773 -0.6711,1.16403 -0.4277,0.35494 -0.5647,0.89399 -0.3778,1.48632 0.1613,0.51117 3.5373,6.07166 7.5022,12.35664 l 7.2091,11.42723 v -12.39387 c 0,-12.10667 -0.021,-12.40895 -0.9293,-13.04472 -1.7151,-1.20138 -0.5377,-1.60275 4.7015,-1.60275 5.3285,0 6.0021,0.30448 4.1608,1.881 -0.8535,0.73078 -0.8814,1.30011 -0.8814,17.95158 0,16.65147 0.028,17.2208 0.8814,17.95159 1.8743,1.60481 1.1873,1.88099 -4.679,1.88099 -5.9777,0 -5.7931,0.0848 -4.8353,-2.21997 0.1814,-0.4367 -1.7217,-3.72559 -5.3555,-9.2552 -3.1002,-4.71777 -6.7247,-10.2404 -8.0543,-12.2725 l -2.4175,-3.69473 -0.1215,12.50921 c -0.1176,12.104 -0.093,12.53291 0.7713,13.24094 1.7516,1.43563 1.0889,1.69225 -4.37,1.69225 -3.5956,0 -5.3654,-0.16627 -5.587,-0.5249 z m 45.2262,-0.0382 c 0,-0.30973 0.3967,-0.90277 0.8814,-1.31785 0.8535,-0.73079 0.8815,-1.30012 0.8815,-17.95159 0,-16.65147 -0.028,-17.2208 -0.8815,-17.95158 -1.8712,-1.60218 -1.1853,-1.881 4.6277,-1.881 4.3854,0 5.509,0.12383 5.509,0.60712 0,0.33392 -0.2975,0.85402 -0.6611,1.15578 -0.5372,0.44588 -0.6583,1.83873 -0.6464,7.43609 l 0.014,6.88744 0.908,-1.10181 c 0.4995,-0.60599 3.3686,-3.61061 6.3759,-6.6769 3.0073,-3.06631 5.4677,-5.78158 5.4677,-6.03395 0,-0.25237 -0.1983,-0.58142 -0.4407,-0.73123 -0.2424,-0.14982 -0.4407,-0.55817 -0.4407,-0.90747 0,-0.52158 1.0632,-0.63507 5.9498,-0.63507 4.9948,0 5.9497,0.1061 5.9497,0.66109 0,0.36359 -0.224,0.66108 -0.4979,0.66108 -0.2739,0 -3.8301,3.29598 -7.9028,7.3244 l -7.4049,7.32441 6.6537,9.97401 c 3.6594,5.48571 7.3541,10.61901 8.2103,11.40734 1.068,0.98331 1.4142,1.57582 1.1028,1.88723 -0.6798,0.67982 -11.2757,0.36162 -11.5105,-0.34567 -0.1007,-0.303 0.1311,-0.5509 0.5149,-0.5509 1.4552,0 0.5608,-2.03549 -4.2241,-9.6136 -2.7071,-4.28725 -4.9915,-7.88128 -5.0764,-7.98673 -0.085,-0.10544 -0.9442,0.57937 -1.9093,1.5218 l -1.7549,1.71352 v 6.68782 c 0,5.40706 0.1266,6.79288 0.6611,7.23647 0.3636,0.30175 0.6611,0.82185 0.6611,1.15577 0,0.4833 -1.1236,0.60712 -5.509,0.60712 -4.1773,0 -5.5091,-0.13614 -5.5091,-0.56314 z"
     id="path3"
     sodipodi:nodetypes="ssscssssssscccssssssssssssssssssssssssssssssssssscccsssscccssssssssssssscsssssssssscsssssssssssscssssssssscsssssssscssssss" /><path
     style="fill:#185886;fill-opacity:1;stroke-width:0.440724"
     d="m 3922.4799,81.726857 c -0.4659,-0.56146 -2.5955,-0.66108 -14.1311,-0.66108 -8.2368,0 -13.6857,-0.16713 -13.8449,-0.42466 -0.1444,-0.23356 0.1414,-0.82853 0.635,-1.32217 0.8723,-0.87219 0.8976,-1.38254 0.8976,-18.08575 0,-16.60061 -0.03,-17.21838 -0.8815,-18.06969 -0.4848,-0.4848 -0.8814,-1.07977 -0.8814,-1.32217 0,-0.28445 4.9034,-0.44072 13.8289,-0.44072 11.7546,0 13.9111,-0.0992 14.3774,-0.66109 0.3018,-0.3636 0.8219,-0.66109 1.1558,-0.66109 0.4805,0 0.6071,1.05719 0.6071,5.06833 0,3.94142 -0.1312,5.06832 -0.5903,5.06832 -0.3247,0 -0.8162,-0.49581 -1.0924,-1.1018 l -0.502,-1.10182 h -9.0443 -9.0443 v 4.84797 4.84796 h 5.4771 c 5.3647,0 5.4954,-0.0234 6.3728,-1.13875 0.4926,-0.62632 1.102,-1.01127 1.3542,-0.85544 0.2722,0.16824 0.4583,2.24197 0.4583,5.10527 0,3.94089 -0.1179,4.82195 -0.6455,4.82195 -0.355,0 -0.8579,-0.39665 -1.1173,-0.88144 -0.4346,-0.81187 -0.9228,-0.88145 -6.1857,-0.88145 h -5.7139 v 5.28869 5.28868 h 9.0443 9.0443 l 0.5073,-1.11322 c 0.9774,-2.14528 1.4545,-0.90144 1.5817,4.12402 0.1012,4.00128 0.01,4.92224 -0.497,4.92224 -0.3419,0 -0.8684,-0.2975 -1.1702,-0.66109 z m -257.7658,-0.86995 c -1.5439,-0.35126 -4.1163,-1.25133 -5.7166,-2.00018 -2.497,-1.16849 -3.0519,-1.28536 -3.9133,-0.82429 -0.5521,0.29547 -1.1445,0.39658 -1.3163,0.2247 -0.172,-0.17189 0.7262,-2.40135 1.9959,-4.95434 2.3026,-4.62979 3.2773,-5.4949 3.4634,-3.07386 0.1268,1.64983 0.7147,2.2537 3.4569,3.55097 2.6869,1.27109 7.602,2.09474 10.15,1.70087 3.5518,-0.54905 5.9254,-2.64663 5.9254,-5.23613 0,-3.15557 -0.728,-3.61714 -8.6877,-5.50725 -11.0114,-2.61483 -14.6353,-5.5382 -14.6609,-11.82683 -0.015,-3.59498 0.8119,-5.74395 3.0889,-8.03087 2.8452,-2.8576 5.5136,-3.71076 11.4453,-3.65933 3.9489,0.0343 5.2546,0.24633 8.9031,1.44615 2.7583,0.90708 4.6742,1.30599 5.3989,1.1241 0.6178,-0.15507 1.1233,-0.16616 1.1233,-0.0246 0,0.54753 -4.5035,8.65275 -4.8077,8.65275 -0.177,0 -0.6056,-0.64198 -0.9523,-1.42664 -1.6928,-3.83052 -11.7791,-5.6116 -15.9408,-2.81489 -1.8464,1.24074 -2.5903,3.76405 -1.6206,5.49665 0.878,1.56858 2.7997,2.40816 9.1557,4.00012 6.1246,1.534 9.0459,2.86916 11.2555,5.14433 1.9327,1.99005 2.6608,4.04826 2.6355,7.44975 -0.033,4.52522 -2.2359,7.55925 -7.115,9.80215 -2.9734,1.36688 -9.1158,1.73112 -13.2666,0.78673 z m 156.6197,0.0582 c -4.5962,-1.20066 -8.8936,-4.33785 -11.1004,-8.10337 -3.791,-6.46877 -3.7927,-16.72942 -0.01,-23.13179 4.6356,-7.83345 15.0128,-10.89042 23.4974,-6.92194 1.6678,0.78009 3.8516,1.53752 4.853,1.68318 l 1.8205,0.26483 -2.6386,4.51449 c -2.6312,4.50163 -3.4265,5.14623 -3.4265,2.7771 0,-2.76127 -5.1884,-5.3032 -9.5924,-4.69957 -7.1058,0.97396 -11.4929,9.30539 -9.6229,18.27425 1.5326,7.3502 7.5503,11.16776 14.4446,9.16351 3.3826,-0.98333 4.7707,-2.1644 4.7707,-4.05905 0,-0.8308 0.1696,-1.51055 0.377,-1.51055 0.4555,0 5.886,6.83799 5.8381,7.35118 -0.019,0.19883 -0.4054,0.38267 -0.8598,0.40857 -0.4544,0.0259 -1.6965,0.63648 -2.7602,1.35685 -1.0637,0.72037 -2.8201,1.65691 -3.9031,2.08119 -2.5728,1.00795 -8.8179,1.30228 -11.6934,0.55112 z m 122.6954,0.14448 c -1.1162,-0.18876 -3.847,-1.07905 -6.0684,-1.97841 -3.2131,-1.30088 -4.1683,-1.52774 -4.6722,-1.10955 -0.3484,0.28911 -0.835,0.40103 -1.0815,0.24871 -0.5812,-0.35921 3.9379,-9.49486 4.6968,-9.49486 0.326,0 0.5606,0.53992 0.5606,1.29008 0,2.83786 5.4531,5.42955 11.4588,5.44606 4.0186,0.0111 6.2547,-0.8418 7.4811,-2.85329 2.4163,-3.9633 0.3628,-6.08067 -7.5622,-7.79716 -10.4622,-2.26601 -14.2916,-4.96938 -15.0902,-10.6529 -0.7126,-5.07115 1.5124,-9.19223 6.2116,-11.50488 2.8884,-1.42152 3.1713,-1.47194 8.07,-1.43819 4.5328,0.0312 5.5194,0.18828 9.209,1.46615 2.5254,0.87461 4.5393,1.32907 5.1786,1.16862 0.5753,-0.14441 1.0482,-0.11003 1.0509,0.0764 0.01,0.18642 -0.9393,2.17103 -2.0934,4.41024 -1.9055,3.69716 -3.2002,5.09483 -3.2002,3.45482 0,-1.2315 -2.2376,-3.27963 -4.31,-3.94491 -8.1761,-2.62473 -15.4282,0.1773 -13.7353,5.30695 0.6462,1.95792 2.4507,2.85163 9.0661,4.49009 2.8782,0.71285 6.1271,1.68531 7.2197,2.16102 4.2795,1.86328 6.5283,4.92224 6.9378,9.43709 0.7684,8.4753 -7.8677,13.75592 -19.3276,11.81794 z m -363.7895,-0.46367 c -0.2137,-0.34596 -0.1459,-0.65079 0.1683,-0.7555 1.8615,-0.62051 1.8471,-0.43178 1.727,-22.71964 l -0.1143,-21.22926 -0.9917,-0.43503 c -0.5454,-0.23927 -0.9916,-0.70141 -0.9916,-1.02702 0,-0.48572 2.2734,-0.56083 12.6708,-0.4186 11.5881,0.15848 12.8867,0.25341 15.1976,1.11084 6.3054,2.33973 10.3528,6.87121 12.5137,14.01038 0.9967,3.29279 1.1215,12.46156 0.2188,16.0676 -1.5611,6.23555 -4.8798,10.57889 -9.9061,12.96455 -4.6982,2.22994 -6.5231,2.49778 -18.8454,2.76595 -9.0621,0.19723 -11.3593,0.1313 -11.6471,-0.33427 z m 19.9704,-7.46822 c 9.2277,-0.97214 12.1209,-4.63703 12.173,-15.42032 0.061,-12.57835 -3.7625,-16.30679 -16.7217,-16.30679 h -4.6059 v 15.79261 c 0,8.68593 0.1322,15.92482 0.2938,16.08642 0.4148,0.41478 4.0775,0.35198 8.8608,-0.15192 z m 31.8327,7.38298 c 0,-0.3053 0.3967,-0.80279 0.8815,-1.10555 0.8576,-0.53556 0.8814,-1.02778 0.8814,-18.17196 0,-17.14418 -0.024,-17.63641 -0.8814,-18.17196 -0.4848,-0.30277 -0.8815,-0.80026 -0.8815,-1.10555 0,-0.41782 1.4168,-0.55507 5.7294,-0.55507 3.5258,0 5.7294,0.1695 5.7294,0.44072 0,0.2424 -0.3966,0.83738 -0.8814,1.32218 -0.8513,0.85132 -0.8814,1.46908 -0.8814,18.07399 0,16.64716 0.028,17.21649 0.8814,17.94728 1.8841,1.6132 1.1939,1.88099 -4.848,1.88099 -4.3126,0 -5.7294,-0.13726 -5.7294,-0.55507 z m 63.2267,0.0866 c -0.1592,-0.25767 0.028,-0.81869 0.4148,-1.24669 0.6202,-0.68532 0.7042,-2.85846 0.7042,-18.20831 0,-14.95577 -0.094,-17.508 -0.6611,-17.97876 -0.3636,-0.30176 -0.661,-0.84221 -0.661,-1.20098 0,-0.96342 20.3845,-0.58008 23.5114,0.44213 5.1241,1.67515 7.3761,4.60744 7.689,10.01176 0.2411,4.1656 -0.8967,7.20311 -3.5487,9.47311 -2.7376,2.34326 -5.0057,2.94158 -12.1162,3.19625 l -6.2803,0.22495 v 6.55535 c 0,6.00684 0.075,6.63044 0.8975,7.45286 0.4936,0.49364 0.7794,1.08862 0.6351,1.32218 -0.3655,0.59131 -10.2174,0.5505 -10.5847,-0.0439 z m 20.8513,-22.30904 c 1.9462,-0.95319 2.7293,-2.34231 2.7382,-4.85716 0.016,-4.48741 -2.2352,-5.86032 -9.6083,-5.86032 h -4.9291 v 5.65595 c 0,3.11078 0.1487,5.81174 0.3305,6.00215 0.6305,0.66031 9.7224,-0.0854 11.4687,-0.94062 z m 15.5256,22.31493 c 0,-0.25444 0.3115,-1.0649 0.6922,-1.80103 0.6887,-1.33199 4.4494,-11.9662 9.5472,-26.99764 2.2211,-6.54908 2.5861,-8.02792 2.1525,-8.72223 -0.2872,-0.45983 -0.4046,-1.02631 -0.2608,-1.25885 0.1437,-0.23254 2.6143,-0.4228 5.4903,-0.4228 h 5.229 l -0.049,1.87308 c -0.046,1.76201 1.6177,6.76777 10.2694,30.90145 0.9442,2.63369 2.0511,5.0331 2.46,5.332 1.5473,1.13149 0.2044,1.55863 -4.9006,1.55863 -5.3327,0 -6.1582,-0.315 -4.7895,-1.82744 0.7838,-0.86611 0.7689,-0.99484 -0.5473,-4.71001 l -1.353,-3.81956 -6.6236,-0.12135 -6.6237,-0.12135 -1.0495,2.76569 c -0.7041,1.8554 -1.0335,3.59978 -1.0008,5.29986 l 0.048,2.53416 h -4.3458 c -2.7404,0 -4.3458,-0.17089 -4.3458,-0.46261 z m 22.0362,-15.88398 c 0,-0.46247 -2.2698,-9.36041 -3.0815,-12.08011 -0.2171,-0.72719 -0.6172,-2.18508 -0.8891,-3.23973 -0.272,-1.05467 -0.5746,-1.8375 -0.6724,-1.73964 -0.2308,0.2308 -5.0529,16.56957 -5.0529,17.12081 0,0.2397 2.0757,0.4192 4.848,0.4192 3.2059,0 4.8479,-0.16277 4.8479,-0.48053 z m 27.9688,15.87809 c -0.1592,-0.25767 0.028,-0.81869 0.4148,-1.24669 0.6166,-0.68144 0.7042,-2.67817 0.7042,-16.05865 v -15.28046 h -4.5736 c -3.5278,0 -4.6991,0.15117 -5.1223,0.66109 -0.3018,0.36359 -0.8219,0.66108 -1.1558,0.66108 -0.4771,0 -0.6071,-0.99081 -0.6071,-4.6276 0,-4.24661 0.069,-4.6276 0.8343,-4.6276 0.4589,0 0.9484,0.29749 1.088,0.66109 0.2178,0.56767 2.1569,0.66108 13.7234,0.66108 11.5665,0 13.5056,-0.0934 13.7234,-0.66108 0.1396,-0.3636 0.53,-0.66109 0.8676,-0.66109 0.4858,0 0.614,0.96596 0.614,4.6276 0,3.66165 -0.1282,4.6276 -0.614,4.6276 -0.3376,0 -0.728,-0.29749 -0.8676,-0.66108 -0.2042,-0.53236 -1.2004,-0.66109 -5.1155,-0.66109 h -4.8617 v 15.12074 c 0,12.61281 0.1073,15.26264 0.647,15.97625 1.346,1.77958 0.9495,1.95731 -4.3672,1.95731 -3.0854,0 -5.1547,-0.18183 -5.3319,-0.4685 z m 67.2416,-0.0824 c 0.01,-0.30299 0.3052,-0.93588 0.6611,-1.4064 0.543,-0.71792 0.6471,-3.59272 0.6471,-17.87527 0,-14.28255 -0.1041,-17.15735 -0.6471,-17.87527 -1.3544,-1.79073 -0.9617,-1.95731 4.6136,-1.95731 4.1983,0 5.2887,0.12517 5.2887,0.60712 0,0.33392 -0.2975,0.85402 -0.6611,1.15578 -0.5369,0.44553 -0.6611,1.86382 -0.6611,7.54627 v 6.99762 h 8.1534 8.1534 v -6.99762 c 0,-5.68245 -0.1242,-7.10074 -0.6611,-7.54627 -0.3636,-0.30176 -0.6611,-0.82186 -0.6611,-1.15578 0,-0.48195 1.0904,-0.60712 5.2887,-0.60712 5.5754,0 5.968,0.16658 4.6136,1.95731 -0.5431,0.71805 -0.6471,3.60081 -0.6471,17.94233 0,16.80687 0.015,17.10101 0.9284,17.9517 1.5753,1.4677 0.6834,1.81382 -4.6745,1.81382 -5.2346,0 -6.1522,-0.32175 -4.8911,-1.71519 0.5859,-0.64743 0.7042,-2.01287 0.7042,-8.12562 v -7.34743 h -8.1534 -8.1534 v 7.48858 c 0,7.01126 0.056,7.52366 0.8814,8.03904 0.4849,0.30276 0.8815,0.80025 0.8815,1.10555 0,0.41667 -1.3736,0.55507 -5.509,0.55507 -4.1209,0 -5.5056,-0.13882 -5.4951,-0.55091 z"
     id="path4"
     sodipodi:nodetypes="ssssssssssssscccccssssssscccccsssssssssssssssssssssssssssssscscsscsssssssssssccsssssssssssssscssssssssssscsssssssssssscsssssssssssssssssssssssscsssssssscssssssssscsssssscccsscssssssssssssscssssssssssssscsssssssssssscccsssssssssscccsssss" /></svg>
