<?xml version="1.0" encoding="UTF-8" standalone="no"?>
<!-- Created with Inkscape (http://www.inkscape.org/) -->

<svg
   width="187.15694mm"
   height="37.10133mm"
   viewBox="0 0 187.15694 37.10133"
   version="1.1"
   id="svg1"
   xml:space="preserve"
   xmlns="http://www.w3.org/2000/svg"
   xmlns:svg="http://www.w3.org/2000/svg"><defs
     id="defs1" /><g
     id="layer1"
     transform="translate(-9.8422654,-9.2051284)"><g
       transform="matrix(0.10614172,0,0,0.10614172,9.842269,-74.265964)"
       id="g885"
       style="fill:#ffffff;fill-opacity:1"><path
         style="fill:#ffffff;fill-opacity:1;fill-rule:evenodd;stroke:none;stroke-width:0.647111px;stroke-linecap:butt;stroke-linejoin:miter;stroke-opacity:1"
         d="m 245.79606,786.41426 c -10.81866,-0.16276 -21.90614,7.53566 -32.92431,7.09042 -15.35394,-5.09463 -31.77032,-4.93348 -47.74471,-4.25679 -14.0704,-2.8639 -22.97517,10.42762 -31.30019,19.28822 -8.51916,11.24758 -25.51664,6.26559 -34.69125,16.51777 -11.654086,15.28927 0.252502,37.15524 -12.326694,51.93068 -12.013427,11.13696 -6.272385,28.50432 -6.952628,42.75358 -5.648958,15.28404 -13.048029,30.19636 -15.141434,46.53387 4.653442,1.0905 9.512018,0.47707 14.069623,-0.7596 14.564211,-2.03666 19.767244,-18.17882 31.876573,-24.46889 13.30888,-0.12187 29.81436,-6.47546 28.78629,-23.07229 5.4501,-13.91123 25.46817,-13.96973 30.10711,-28.51208 -3.69177,-15.61483 10.27251,-20.4919 23.6019,-19.45758 1.79826,-7.11111 11.60277,-12.5183 17.35954,-3.4264 5.53823,10.10447 17.18844,14.07579 28.05706,14.76602 10.90784,-0.48625 20.02907,4.48901 29.96805,7.5669 12.73715,2.06183 23.92441,-5.60765 31.23075,-15.28042 13.01898,-3.4632 24.76372,13.94041 39.3322,9.71678 13.62299,-5.32665 17.92913,-24.33537 21.54803,-37.5729 -5.05452,-13.18392 -7.81115,-28.42139 -10.59644,-43.08978 -11.91067,-11.3708 -29.54704,-18.60945 -45.93986,-13.87877 -14.48804,8.06605 -32.75845,8.40135 -47.60312,0.9871 -3.53401,-2.39418 -7.11027,-3.32159 -10.71649,-3.37584 z M 362.63,972.52321 l -1.50279,5.60661 H 340.07843 313.2776 l -4.26938,4.26942 -1.91098,3.24946 -4.93927,-1.32455 v 1.40291 l -10.04414,3.88267 v 0.81774 h -0.73557 v 1.86676 h -3.92189 v -3.17362 h 2.69716 v -1.71637 h -7.35461 v 1.71637 h 2.77805 v 3.17362 h -4.98353 l -5.24892,9.08987 v -24.52069 h -2.75909 v 24.18579 h -8.49838 v -11.92859 c -3.58991,-2.7881 -7.06846,-4.37498 -10.45868,-4.99995 v -2.68198 h -6.78205 v 2.66808 c -3.8771,0.67855 -7.65164,2.47762 -11.35725,5.01385 v 17.97499 h -8.49839 v -19.77351 c -4.12675,-2.14587 -8.23921,-3.53249 -12.33814,-4.13924 v -2.47848 h -9.15055 v 2.44183 c -4.0733,0.57916 -8.13153,1.95865 -12.17501,4.17589 v 18.79401 l -4.62587,1.2386 h -3.87251 l -1.74293,-1.006 v -15.92123 c -3.39636,-2.89297 -6.88009,-5.07792 -10.51303,-6.04392 v -3.02575 h -6.29167 v 2.65164 c -3.70103,0.56003 -7.5758,2.53795 -11.68463,6.41803 v 15.68863 l -4.79011,1.2829 h -2.72751 l -1.09453,-1.8959 v -18.34406 c -4.18681,-2.16353 -8.45858,-4.0038 -12.99153,-4.84069 V 979.8386 H 123.171 v 2.40645 c -3.8168,0.66997 -7.8593,2.20513 -12.20789,4.91399 v 19.12016 h -10.1326 l -1.280306,-4.7788 1.506536,-2.60867 -0.5195,-1.93627 -4.126561,-1.10591 -4.5677,-4.76866 -8.988764,1.47117 -0.653453,3.26842 -3.488318,0.93401 v -18.58422 l 1.363722,-1.63421 H 55.236929 l 0.625627,2.33946 v 28.38438 h -5.528207 v -3.5957 l 3.821969,-1.0238 c -0.0343,-3.77121 0.872176,-9.45414 -5.130105,-11.55951 -5.547038,1.20668 -6.808775,7.21016 -5.719105,11.43951 h 3.104129 l 0.164301,4.7079 H 35.299106 c -6.061879,7.7953 -9.476168,15.3818 -10.99332,22.8183 h -2.130938 v 6.298 h 1.286651 c -0.36277,5.3593 0.167279,10.6479 1.31066,15.8883 H 21.0778 v 4.7965 h 4.902645 c 0.597154,2.0902 1.28141,4.1737 2.02727,6.2524 H 213.55678 l 5.21604,9.0381 v 14.0772 h 173.56742 v 3.6691 H 215.10377 v -16.763 l -3.66783,-6.3523 H 22.54396 l 0.612944,2.2902 h 4.461574 l -7.354614,16.6239 -0.489087,-16.9955 -5.393026,1.3068 -7.0398585,-1.279 0.338698,9.6131 4.9999705,-0.4474 2.058849,7.5568 H 8.1595823 l -0.8872543,-1.7972 -1.715039,4.7383 -5.557327081061,0.6547 0.08211842106,3.6766 4.49438206,-0.082 2.4506752,2.7781 2.5328583,1.3081 v 2.6959 l -0.2451905,18.5489 10.0871056,-1.2538 12.827235,3.5818 6.23977,4.6221 v 4.8533 h 2.65801 l 1.252484,-5.5738 4.641017,-1.2436 h 2.44058 c -0.0071,0.097 -0.0091,0.1947 -0.01424,0.2919 0,6.9245 5.613367,12.5378 12.537781,12.5378 6.924415,0 12.537781,-5.6133 12.537781,-12.5378 0,-0.097 -0.0078,-0.1946 -0.01035,-0.2919 h 1.742929 c 0.03041,3.6432 0.749549,6.8561 2.521469,9.4109 h 33.647263 5.12506 c -0.68283,-0.8428 -1.21172,-1.8962 -1.68094,-3.0295 -0.9552,-2.3076 -1.62244,-5.2122 -2.0197,-8.4163 -0.7951,-6.4081 -0.5052,-13.9617 1.60005,-19.8291 l 3.44917,1.2373 c -1.79166,4.9935 -2.14479,12.2105 -1.40922,18.1381 0.3675,2.9637 1.00723,5.6184 1.77192,7.4658 0.76483,1.8474 1.70398,2.6143 1.84401,2.6466 1.57973,-0.8113 3.19634,-6.4792 3.30635,-8.2014 l 7.22817,-0.3489 c 1.01351,7.8595 7.70088,13.7471 15.62547,13.7562 8.71135,0 15.77334,-7.0619 15.77334,-15.7733 0,-0.044 -6.5e-4,-0.088 -0.0103,-0.1315 l 11.45335,-0.7823 c -0.0194,0.2495 -0.0311,0.4994 -0.0382,0.7495 -5.2e-4,8.8018 7.1346,15.9375 15.93641,15.9376 8.80233,5e-4 15.93816,-7.1353 15.93764,-15.9376 -0.007,-0.9763 -0.0964,-1.9502 -0.27806,-2.9095 l 15.00359,-1.0263 c -0.33526,1.2853 -0.5085,2.6075 -0.51561,3.9358 -5.9e-4,8.8023 7.1353,15.9381 15.93764,15.9376 8.80181,-10e-5 15.93686,-7.1358 15.93634,-15.9376 0,-1.5037 -0.2184,-2.9993 -0.63947,-4.4426 l 15.54328,-0.1946 c -0.45821,1.5031 -0.69163,3.0657 -0.6926,4.6372 -5.2e-4,8.8018 7.13453,15.9375 15.93635,15.9376 8.80181,-10e-5 15.93679,-7.1358 15.93641,-15.9376 -0.007,-1.7062 -0.2868,-3.4003 -0.83038,-5.0177 l 13.47681,-0.168 c -0.58053,1.6675 -0.87994,3.42 -0.88596,5.1857 -5.2e-4,8.8018 7.13453,15.9375 15.93641,15.9376 8.80181,-10e-5 15.93686,-7.1358 15.93634,-15.9376 0,-1.8992 -0.34543,-3.7825 -1.01111,-5.5611 l 25.60264,-0.321 3.26836,7.8437 h 26.12084 c -0.0362,0.3801 -0.0557,0.7618 -0.0582,1.1438 -2.6e-4,7.0872 5.74512,12.8325 12.83228,12.8322 7.08671,-3e-4 12.83131,-5.7456 12.83099,-12.8322 0,-0.6962 -0.0589,-1.3911 -0.1731,-2.0779 h 16.52405 v 1.9654 h 4.73705 v -3.6653 h 33.90002 v -4.8091 c 2.53215,-0.3105 5.03848,-0.6805 5.01893,-6.7744 v -74.3976 c 0,-1.4485 0.0634,-3.8802 -2.24088,-3.8802 h -3.26461 v -8.171 l -6.37256,-3.6792 -2.9461,-34.72535 -50.33309,-1.14382 -2.46336,-4.26689 h -37.73591 l -4.97467,-4.97593 z m -60.47203,15.4106 v 7.88667 H 294.974 v -4.004 z m 74.92714,5.59903 h 29.3639 c 1.89694,0 3.42387,1.52693 3.42387,3.42388 v 34.17048 c 0,1.897 -1.52693,3.4239 -3.42387,3.4239 h -29.3639 c -1.89695,0 -3.42393,-1.5269 -3.42387,-3.4239 v -34.17048 c 0,-1.89695 1.52692,-3.42388 3.42387,-3.42388 z m -25.74416,3.10411 h 11.13866 c 2.66332,0 4.80778,2.14451 4.80778,4.80785 v 26.6643 c 0,2.6633 -2.14446,4.8078 -4.80778,4.8078 h -11.13866 c -2.66338,0 -4.80784,-2.1445 -4.80784,-4.8078 v -26.6643 c 0,-2.66334 2.14446,-4.80785 4.80784,-4.80785 z m -26.06144,2.45195 h 12.43793 c 2.30346,0 4.15821,1.8548 4.15821,4.1582 v 23.0609 c 0,2.3035 -1.85475,4.1569 -4.15821,4.1569 h -12.43793 c -2.30339,0 -4.15821,-1.8534 -4.15821,-4.1569 v -23.0609 c 0,-2.3034 1.85482,-4.1582 4.15821,-4.1582 z m -241.16647,1.8958 c 0,0 2.080075,0.6359 2.253501,0.8671 0.173426,0.2311 3.177769,1.2702 3.640001,1.2702 0.462231,0 -0.462555,4.9696 -0.462555,4.9696 l -10.57244,-0.3463 c 0,0 0.05695,-5.8937 0.05695,-6.1248 z m -22.51999,19.5436 h 202.67351 v 3.669 H 65.262106 v 25.6671 H 61.59305 Z m 215.91781,22.2874 h 9.56003 c 1.89694,0 3.42516,1.5269 3.42516,3.4238 v 0.5473 c 0,1.897 -1.52822,3.4252 -3.42516,3.4252 h -9.56003 c -1.89695,0 -3.42393,-1.5282 -3.42387,-3.4252 v -0.5473 c 0,-1.8969 1.52692,-3.4238 3.42387,-3.4238 z m 16.87038,23.1115 h 9.56133 c 1.89694,0 3.42387,1.5269 3.42387,3.4238 v 0.5473 c 0,1.8969 -1.52693,3.4239 -3.42387,3.4239 h -9.56133 c -1.89694,0 -3.42386,-1.527 -3.42386,-3.4239 v -0.5473 c 0,-1.8969 1.52692,-3.4238 3.42386,-3.4238 z m 29.32476,0.2666 h 40.81479 c 1.62593,0 2.93472,1.31 2.93472,2.936 v 1.5256 c 0,1.6259 -1.03454,2.9347 -2.93472,2.9347 H 323.706 c -1.62594,0 -2.93478,-1.3088 -2.93478,-2.9347 v -1.5256 c 0,-1.626 1.30884,-2.936 2.93478,-2.936 z M 8.9267975,1087.1719 h 6.7820495 l 1.941334,3.1053 -0.164366,2.1246 -3.023175,-1.8794 -3.921882,-0.082 z m 359.5688725,20.9325 v 2.064 l -124.74332,1.4142 -111.91362,4.3794 0.11505,-1.6178 111.74169,-4.8533 z m 41.73745,2.2637 h 14.98716 l 2.11832,7.9056 h -6.59121 c -1.78467,-4.368 -5.82258,-7.4041 -10.51427,-7.9056 z m -84.26223,7.5011 c 1.50019,-3e-4 2.71637,1.2159 2.71612,2.7161 -4.6e-4,1.4997 -1.21644,2.7151 -2.71612,2.7148 -1.49923,-4e-4 -2.71444,-1.2156 -2.71483,-2.7148 -3.2e-4,-1.4997 1.21514,-2.7157 2.71483,-2.7161 z m -43.70784,0.039 c 1.5002,-4e-4 2.71644,1.2159 2.71612,2.7161 3.2e-4,1.5002 -1.21592,2.7164 -2.71612,2.716 -1.5002,4e-4 -2.71638,-1.2158 -2.71612,-2.716 -2.6e-4,-1.5002 1.21592,-2.7165 2.71612,-2.7161 z m -92.24371,0.5965 c 1.50026,-3e-4 2.71644,1.216 2.71612,2.7161 -3.9e-4,1.4997 -1.21638,2.7152 -2.71612,2.7149 -1.49916,-5e-4 -2.71444,-1.2157 -2.71483,-2.7149 -3.2e-4,-1.4997 1.21515,-2.7157 2.71483,-2.7161 z m 46.28114,0.2894 c 1.49916,5e-4 2.71444,1.2157 2.71483,2.7149 3.2e-4,1.4997 -1.21515,2.7157 -2.71483,2.7161 -1.50026,3e-4 -2.71644,-1.216 -2.71612,-2.7161 3.9e-4,-1.4997 1.21644,-2.7151 2.71612,-2.7149 z m 172.59668,1.3828 c 1.49975,-4e-4 2.71573,1.2151 2.71612,2.7148 2.6e-4,1.5002 -1.21592,2.7164 -2.71612,2.7161 -1.49968,-4e-4 -2.71508,-1.2164 -2.71482,-2.7161 4.5e-4,-1.4992 1.21566,-2.7144 2.71482,-2.7148 z"
         id="path48374" /><path
         style="fill:#ffffff;fill-opacity:1;fill-rule:evenodd;stroke:none;stroke-width:1.10792px;stroke-linecap:butt;stroke-linejoin:miter;stroke-opacity:1"
         d="m 508.61171,998.10433 c -10.10271,1.06721 -13.54197,2.27177 -18.65752,7.08667 l 3.47065,6.0451 v 87.4068 h -3.65391 v -0.9087 c 0,-2.3034 -1.12953,-4.1582 -2.53286,-4.1582 -1.40326,0 -2.53279,1.8548 -2.53279,4.1582 v 0.9087 h -6.62784 c -2.30346,0 -4.15821,1.8535 -4.15821,4.157 v 1.4901 c 0,2.3034 1.85475,4.1582 4.15821,4.1582 h 6.62784 v 2.0513 c 0,2.3034 1.12953,4.1582 2.53279,4.1582 1.40333,0 2.53286,-1.8548 2.53286,-4.1582 v -2.0513 h 3.65391 v 10.7455 h 42.23663 c -0.006,0.1314 -0.0116,0.2628 -0.0136,0.3944 -7e-5,9.04 7.32737,16.3687 16.36737,16.3686 9.04003,10e-5 16.36865,-7.3286 16.36863,-16.3686 -0.005,-0.1316 -0.0116,-0.2629 -0.019,-0.3944 h 10.39928 c -0.005,0.1314 -0.0128,0.2628 -0.0151,0.3944 -7e-5,9.04 7.32861,16.3687 16.36863,16.3686 9.04003,10e-5 16.36868,-7.3286 16.36863,-16.3686 -0.005,-0.1316 -0.009,-0.2629 -0.019,-0.3944 h 175.9119 c -0.007,0.1314 -0.0127,0.2628 -0.0151,0.3944 -7e-5,9.04 7.32863,16.3687 16.36863,16.3686 9.04002,10e-5 16.36868,-7.3286 16.36862,-16.3686 -0.007,-0.1316 -0.0129,-0.2629 -0.0202,-0.3944 h 10.40055 c -0.007,0.1314 -0.0127,0.2628 -0.0151,0.3944 -5e-5,9.04 7.32861,16.3687 16.36863,16.3686 9.04,10e-5 16.3687,-7.3286 16.36863,-16.3686 -0.007,-0.1316 -0.0128,-0.2629 -0.0177,-0.3944 h 42.24424 v -107.9576 l 3.46937,-6.0451 c -5.11553,-4.8149 -8.55477,-6.01946 -18.65753,-7.08667 H 699.42653 Z m -1.51289,11.91597 h 384.6546 c 3.8452,0 6.94128,0.5152 6.94128,1.1564 0,0.6412 -3.09608,1.1578 -6.94128,1.1578 h -384.6546 c -3.8452,0 -6.94124,-0.5166 -6.94124,-1.1578 0,-0.6412 3.09604,-1.1564 6.94124,-1.1564 z m 6.13242,14.9657 h 49.47873 c 4.94682,0 8.99257,4.0478 8.99257,8.9938 v 34.5156 c 4.2e-4,1.1281 -0.91433,2.0428 -2.04245,2.0424 h -63.38025 c -1.12811,4e-4 -2.04287,-0.9143 -2.04241,-2.0424 v -34.5156 c 0,-4.9467 4.04703,-8.9938 8.99381,-8.9938 z m 80.72839,0 h 49.47873 c 4.94676,0 8.99258,4.0478 8.99258,8.9938 v 34.5156 c 3.6e-4,1.1281 -0.91428,2.0428 -2.04244,2.0424 h -63.38026 c -1.12811,4e-4 -2.04281,-0.9143 -2.04244,-2.0424 v -34.5156 c 0,-4.9467 4.04703,-8.9938 8.99383,-8.9938 z m 80.7284,0 h 49.47747 c 4.94678,0 8.99257,4.0478 8.99257,8.9938 v 34.5156 c 4.6e-4,1.1281 -0.91428,2.0428 -2.04244,2.0424 h -63.38026 c -1.12811,4e-4 -2.04284,-0.9143 -2.04244,-2.0424 v -34.5156 c 0,-4.9467 4.04825,-8.9938 8.9951,-8.9938 z m 80.72713,0 h 49.47873 c 4.94685,0 8.99258,4.0478 8.99258,8.9938 v 34.5156 c 3.9e-4,1.1281 -0.91426,2.0428 -2.04245,2.0424 h -63.38025 c -1.12812,4e-4 -2.04284,-0.9143 -2.04245,-2.0424 v -34.5156 c 0,-4.9467 4.04706,-8.9938 8.99384,-8.9938 z m 80.7284,0 h 49.47874 c 4.94677,0 8.9913,4.0478 8.9913,8.9938 v 34.5156 c 3.9e-4,1.1281 -0.91433,2.0428 -2.04244,2.0424 H 829.1909 c -1.12811,4e-4 -2.04284,-0.9143 -2.04244,-2.0424 v -34.5156 c 0,-4.9467 4.04832,-8.9938 8.9951,-8.9938 z m -322.91232,4.0849 c -2.75456,0 -4.90892,2.1544 -4.90892,4.9089 v 32.4731 h 59.29533 v -32.4731 c 0,-2.7552 -2.1531,-4.9089 -4.90768,-4.9089 z m 80.72839,0 c -2.75455,0 -4.91021,2.1544 -4.91021,4.9089 v 32.4731 h 59.29663 v -32.4731 c 0,-2.7552 -2.15313,-4.9089 -4.90769,-4.9089 z m 80.7284,0 c -2.75456,0 -4.91021,2.1544 -4.91021,4.9089 v 32.4731 h 59.29536 v -32.4731 c 0,-2.7552 -2.15313,-4.9089 -4.90768,-4.9089 z m 80.72713,0 c -2.75456,0 -4.90895,2.1544 -4.90895,4.9089 v 32.4731 h 59.29537 v -32.4731 c 0,-2.7552 -2.1531,-4.9089 -4.90769,-4.9089 z m 80.7284,0 c -2.75455,0 -4.91021,2.1544 -4.91021,4.9089 v 32.4731 h 59.29662 v -32.4731 c 0,-2.7552 -2.15317,-4.9089 -4.90767,-4.9089 z m -330.79013,52.5184 h 388.14669 c 3.84519,0 2.61877,1.338 2.61877,3.0004 0,1.6625 1.22642,3.0018 -2.61877,3.0018 H 505.35343 c -3.84526,0 -2.62008,-1.3393 -2.62008,-3.0018 0,-1.6624 -1.22518,-3.0004 2.62008,-3.0004 z m 34.01502,37.6044 h 2.60236 c -0.007,0.1575 -0.0252,0.3132 -0.0252,0.4728 0,5.5361 4.46249,9.9998 9.99865,9.9998 5.53616,0 9.99232,-4.4637 9.99232,-9.9998 0,-0.1595 -0.0179,-0.3151 -0.0253,-0.4728 h 2.59982 c 0.005,0.1583 0.024,0.3132 0.024,0.4728 0,6.9405 -5.65031,12.5997 -12.59086,12.5997 -6.94055,0 -12.5984,-5.6592 -12.5984,-12.5997 0,-0.1595 0.0181,-0.3146 0.0226,-0.4728 z m 43.22376,0 h 2.59855 c -0.0147,0.2204 -0.0329,0.4406 -0.0329,0.6649 0,5.5362 4.46249,9.9999 9.99863,9.9999 5.53616,0 9.99231,-4.4637 9.99231,-9.9999 0,-0.2243 -0.0199,-0.4443 -0.0341,-0.6649 h 2.59982 c 0.0122,0.2217 0.0329,0.4405 0.0329,0.6649 0,6.9406 -5.65029,12.5997 -12.59086,12.5997 -6.94052,0 -12.59845,-5.6591 -12.59845,-12.5997 0,-0.2243 0.0224,-0.4434 0.0341,-0.6649 z m 208.49622,0 h 2.59983 c -0.007,0.1575 -0.0253,0.3132 -0.0253,0.4728 0,5.5361 4.46247,9.9998 9.99863,9.9998 5.53611,0 9.9923,-4.4637 9.9923,-9.9998 0,-0.1595 -0.0142,-0.3151 -0.024,-0.4728 h 2.59982 c 0.007,0.1583 0.024,0.3132 0.024,0.4728 0,6.9405 -5.65158,12.5997 -12.59213,12.5997 -6.9406,0 -12.59719,-5.6592 -12.59719,-12.5997 0,-0.1595 0.0167,-0.3146 0.024,-0.4728 z m 43.22123,0 h 2.59981 c -0.0147,0.2204 -0.0341,0.4406 -0.0341,0.6649 0,5.5362 4.46245,9.9999 9.99863,9.9999 5.53608,0 9.99231,-4.4637 9.99231,-9.9999 0,-0.2243 -0.0199,-0.4443 -0.0341,-0.6649 h 2.59983 c 0.0122,0.2217 0.0341,0.4405 0.0341,0.6649 0,6.9406 -5.65161,12.5997 -12.59213,12.5997 -6.94053,0 -12.59845,-5.6591 -12.59845,-12.5997 0,-0.2243 0.0224,-0.4434 0.0341,-0.6649 z"
         id="path48624-1" /><path
         style="fill:#ffffff;fill-opacity:1;fill-rule:evenodd;stroke:none;stroke-width:1.10793px;stroke-linecap:butt;stroke-linejoin:miter;stroke-opacity:1"
         d="m 935.7987,998.10433 c -10.10269,1.06721 -13.54193,2.27177 -18.65754,7.08667 l 3.47064,6.0451 v 86.1821 h -5.45747 v -0.9087 c 0,-2.3034 -1.12952,-4.1582 -2.53284,-4.1582 -1.40333,0 -2.53283,1.8548 -2.53283,4.1582 v 0.9087 h -6.62784 c -2.30345,0 -4.15819,1.8535 -4.15819,4.157 v 1.4901 c 0,2.3034 1.85474,4.1582 4.15819,4.1582 h 6.62784 v 2.0513 c 0,2.3034 1.1295,4.1582 2.53283,4.1582 1.40332,0 2.53284,-1.8548 2.53284,-4.1582 v -2.0513 h 5.45747 v 11.9702 h 42.23791 c -0.007,0.1314 -0.0127,0.2628 -0.0151,0.3944 0,9.04 7.32856,16.3687 16.36863,16.3686 9.04002,10e-5 16.36863,-7.3286 16.36863,-16.3686 -0.007,-0.1316 -0.0129,-0.2629 -0.0202,-0.3944 h 10.39923 c -0.01,0.1314 -0.011,0.2628 -0.014,0.3944 -1e-4,9.04 7.3286,16.3687 16.3686,16.3686 9.0401,10e-5 16.3674,-7.3286 16.3674,-16.3686 -0.01,-0.1316 -0.01,-0.2629 -0.019,-0.3944 h 175.9119 c -0.01,0.1314 -0.012,0.2628 -0.014,0.3944 0,9.04 7.3286,16.3687 16.3686,16.3686 9.04,10e-5 16.3674,-7.3286 16.3674,-16.3686 -0.01,-0.1316 -0.012,-0.2629 -0.019,-0.3944 h 10.3993 c -0.01,0.1314 -0.011,0.2628 -0.014,0.3944 0,9.04 7.3286,16.3687 16.3686,16.3686 9.04,10e-5 16.3674,-7.3286 16.3674,-16.3686 -0.01,-0.1316 -0.012,-0.2629 -0.016,-0.3944 h 42.2429 v -107.9576 l 3.4681,-6.0451 c -5.1154,-4.8149 -8.5547,-6.01946 -18.6575,-7.08667 h -190.8144 z m -1.51288,11.91597 h 384.65458 c 3.8452,0 6.9413,0.5152 6.9413,1.1564 0,0.6412 -3.0961,1.1578 -6.9413,1.1578 H 934.28582 c -3.84527,0 -6.94128,-0.5166 -6.94128,-1.1578 0,-0.6412 3.09601,-1.1564 6.94128,-1.1564 z m 6.13366,14.9657 h 49.47873 c 4.94678,0 8.99131,4.0478 8.99131,8.9938 v 34.5156 c 3.9e-4,1.1281 -0.91307,2.0428 -2.04118,2.0424 h -63.38152 c -1.12804,4e-4 -2.04291,-0.9143 -2.04245,-2.0424 v -34.5156 c 0,-4.9467 4.04833,-8.9938 8.99511,-8.9938 z m 80.72712,0 h 49.4787 c 4.9468,0 8.9926,4.0478 8.9926,8.9938 v 34.5156 c 4e-4,1.1281 -0.9142,2.0428 -2.0424,2.0424 h -63.3803 c -1.1281,4e-4 -2.0427,-0.9143 -2.0424,-2.0424 v -34.5156 c 0,-4.9467 4.047,-8.9938 8.9938,-8.9938 z m 80.7284,0 h 49.4787 c 4.9468,0 8.9926,4.0478 8.9926,8.9938 v 34.5156 c 4e-4,1.1281 -0.9143,2.0428 -2.0424,2.0424 h -63.3815 c -1.1281,4e-4 -2.0416,-0.9143 -2.0412,-2.0424 v -34.5156 c 0,-4.9467 4.047,-8.9938 8.9938,-8.9938 z m 80.7284,0 h 49.4775 c 4.9468,0 8.9925,4.0478 8.9925,8.9938 v 34.5156 c 5e-4,1.1281 -0.9142,2.0428 -2.0424,2.0424 h -63.3803 c -1.1281,4e-4 -2.0428,-0.9143 -2.0424,-2.0424 v -34.5156 c 0,-4.9467 4.0483,-8.9938 8.9951,-8.9938 z m 80.7271,0 h 49.4788 c 4.9468,0 8.9925,4.0478 8.9925,8.9938 v 34.5156 c 4e-4,1.1281 -0.9143,2.0428 -2.0424,2.0424 h -63.3803 c -1.1281,4e-4 -2.0428,-0.9143 -2.0424,-2.0424 v -34.5156 c 0,-4.9467 4.0471,-8.9938 8.9938,-8.9938 z m -322.91102,4.0849 c -2.75456,0 -4.91022,2.1544 -4.91022,4.9089 v 32.4731 h 59.29664 v -32.4731 c 0,-2.7552 -2.15313,-4.9089 -4.90769,-4.9089 z m 80.72712,0 c -2.7545,0 -4.9089,2.1544 -4.9089,4.9089 v 32.4731 h 59.2953 v -32.4731 c 0,-2.7552 -2.1531,-4.9089 -4.9077,-4.9089 z m 80.7284,0 c -2.7545,0 -4.9102,2.1544 -4.9102,4.9089 v 32.4731 h 59.2966 v -32.4731 c 0,-2.7552 -2.1531,-4.9089 -4.9077,-4.9089 z m 80.7284,0 c -2.7545,0 -4.9102,2.1544 -4.9102,4.9089 v 32.4731 h 59.2954 v -32.4731 c 0,-2.7552 -2.1532,-4.9089 -4.9077,-4.9089 z m 80.7271,0 c -2.7545,0 -4.9089,2.1544 -4.9089,4.9089 v 32.4731 h 59.2954 v -32.4731 c 0,-2.7552 -2.1532,-4.9089 -4.9077,-4.9089 z m -330.79011,52.5184 h 388.14671 c 3.8452,0 2.6188,1.338 2.6188,3.0004 0,1.6625 1.2264,3.0018 -2.6188,3.0018 H 932.54039 c -3.84525,0 -2.62004,-1.3393 -2.62004,-3.0018 0,-1.6624 -1.22521,-3.0004 2.62004,-3.0004 z m 34.01505,37.6044 h 10e-4 2.60108 c -0.007,0.1575 -0.0253,0.3132 -0.0253,0.4728 0,5.5361 4.46254,9.9998 9.99862,9.9998 5.53619,0 9.99232,-4.4637 9.99232,-9.9998 0,-0.1595 -0.0164,-0.3151 -0.024,-0.4728 h 2.59855 c 0.007,0.1583 0.0253,0.3132 0.0253,0.4728 0,6.9405 -5.6516,12.5997 -12.59212,12.5997 -6.94059,0 -12.59719,-5.6592 -12.59719,-12.5997 0,-0.1595 0.0166,-0.3146 0.0215,-0.4728 z m 43.22376,0 h 2.5998 c -0.015,0.2204 -0.034,0.4406 -0.034,0.6649 0,5.5362 4.4625,9.9999 9.9986,9.9999 5.5362,0 9.9923,-4.4637 9.9923,-9.9999 0,-0.2243 -0.02,-0.4443 -0.034,-0.6649 h 2.5999 c 0.012,0.2217 0.034,0.4405 0.034,0.6649 0,6.9406 -5.6516,12.5997 -12.5922,12.5997 -6.9405,0 -12.5984,-5.6591 -12.5984,-12.5997 0,-0.2243 0.022,-0.4434 0.034,-0.6649 z m 208.4949,0 h 2.6024 c -0.01,0.1575 -0.025,0.3132 -0.025,0.4728 0,5.5361 4.4625,9.9998 9.9986,9.9998 5.5361,0 9.9924,-4.4637 9.9924,-9.9998 0,-0.1595 -0.018,-0.3151 -0.025,-0.4728 h 2.5998 c 0.01,0.1583 0.024,0.3132 0.024,0.4728 0,6.9405 -5.6503,12.5997 -12.5908,12.5997 -6.9406,0 -12.5985,-5.6592 -12.5985,-12.5997 0,-0.1595 0.018,-0.3146 0.023,-0.4728 z m 43.2225,0 h 2.5999 c -0.015,0.2204 -0.034,0.4406 -0.034,0.6649 0,5.5362 4.4624,9.9999 9.9986,9.9999 5.5362,0 9.9923,-4.4637 9.9923,-9.9999 0,-0.2243 -0.019,-0.4443 -0.033,-0.6649 h 2.5986 c 0.012,0.2217 0.034,0.4405 0.034,0.6649 0,6.9406 -5.6516,12.5997 -12.5922,12.5997 -6.9405,0 -12.5971,-5.6591 -12.5971,-12.5997 0,-0.2243 0.021,-0.4434 0.033,-0.6649 z"
         id="path48624-1-1" /><path
         style="fill:#ffffff;fill-opacity:1;fill-rule:evenodd;stroke:none;stroke-width:1.10793px;stroke-linecap:butt;stroke-linejoin:miter;stroke-opacity:1"
         d="m 1362.9857,998.10433 c -10.1027,1.06721 -13.5419,2.27177 -18.6576,7.08667 l 3.4707,6.0451 v 87.8163 h -5.1377 v -0.9087 c 0,-2.3034 -1.1295,-4.1582 -2.5329,-4.1582 -1.4032,0 -2.5328,1.8548 -2.5328,4.1582 v 0.9087 h -6.6278 c -2.3034,0 -4.1582,1.8535 -4.1582,4.157 v 1.4901 c 0,2.3034 1.8548,4.1582 4.1582,4.1582 h 6.6278 v 2.0513 c 0,2.3034 1.1296,4.1582 2.5328,4.1582 1.4034,0 2.5329,-1.8548 2.5329,-4.1582 v -2.0513 h 5.1377 v 10.336 h 42.2379 c -0.01,0.1314 -0.013,0.2628 -0.015,0.3944 -10e-5,9.04 7.3286,16.3687 16.3686,16.3686 9.0401,10e-5 16.3686,-7.3286 16.3686,-16.3686 -0.01,-0.1316 -0.012,-0.2629 -0.019,-0.3944 h 10.3992 c -0.01,0.1314 -0.013,0.2628 -0.015,0.3944 -10e-5,9.04 7.3286,16.3687 16.3686,16.3686 9.0401,10e-5 16.3687,-7.3286 16.3687,-16.3686 -0.01,-0.1316 -0.011,-0.2629 -0.02,-0.3944 h 175.9131 c -0.01,0.1314 -0.013,0.2628 -0.015,0.3944 0,9.04 7.3285,16.3687 16.3686,16.3686 9.04,10e-5 16.3686,-7.3286 16.3686,-16.3686 -0.01,-0.1316 -0.013,-0.2629 -0.02,-0.3944 h 10.4006 c -0.01,0.1314 -0.013,0.2628 -0.015,0.3944 -10e-5,9.04 7.3286,16.3687 16.3686,16.3686 9.04,10e-5 16.3687,-7.3286 16.3686,-16.3686 -0.01,-0.1316 -0.013,-0.2629 -0.018,-0.3944 h 42.243 v -107.9576 l 3.4694,-6.0451 c -5.1155,-4.8149 -8.5548,-6.01946 -18.6575,-7.08667 h -190.8159 z m -1.5129,11.91597 h 384.6546 c 3.8452,0 6.9425,0.5152 6.9425,1.1564 0,0.6412 -3.0973,1.1578 -6.9425,1.1578 h -384.6546 c -3.8452,0 -6.9413,-0.5166 -6.9413,-1.1578 0,-0.6412 3.0961,-1.1564 6.9413,-1.1564 z m 6.1337,14.9657 h 49.4787 c 4.9468,0 8.9926,4.0478 8.9926,8.9938 v 34.5156 c 4e-4,1.1281 -0.9144,2.0428 -2.0425,2.0424 h -63.3802 c -1.1281,4e-4 -2.0429,-0.9143 -2.0425,-2.0424 v -34.5156 c 0,-4.9467 4.0471,-8.9938 8.9939,-8.9938 z m 80.7284,0 h 49.4787 c 4.9468,0 8.9913,4.0478 8.9913,8.9938 v 34.5156 c 4e-4,1.1281 -0.9143,2.0428 -2.0424,2.0424 h -63.3803 c -1.1281,4e-4 -2.0428,-0.9143 -2.0424,-2.0424 v -34.5156 c 0,-4.9467 4.0483,-8.9938 8.9951,-8.9938 z m 80.7271,0 h 49.4787 c 4.9468,0 8.9926,4.0478 8.9926,8.9938 v 34.5156 c 4e-4,1.1281 -0.9143,2.0428 -2.0425,2.0424 h -63.3802 c -1.1282,4e-4 -2.0429,-0.9143 -2.0425,-2.0424 v -34.5156 c 0,-4.9467 4.0471,-8.9938 8.9939,-8.9938 z m 80.7284,0 h 49.4787 c 4.9468,0 8.9913,4.0478 8.9913,8.9938 v 34.5156 c 5e-4,1.1281 -0.913,2.0428 -2.0412,2.0424 h -63.3815 c -1.1281,4e-4 -2.0428,-0.9143 -2.0424,-2.0424 v -34.5156 c 0,-4.9467 4.0483,-8.9938 8.9951,-8.9938 z m 80.7271,0 h 49.4788 c 4.9467,0 8.9925,4.0478 8.9925,8.9938 v 34.5156 c 4e-4,1.1281 -0.9143,2.0428 -2.0424,2.0424 h -63.3803 c -1.1281,4e-4 -2.0428,-0.9143 -2.0424,-2.0424 v -34.5156 c 0,-4.9467 4.047,-8.9938 8.9938,-8.9938 z m -322.911,4.0849 c -2.7546,0 -4.909,2.1544 -4.909,4.9089 v 32.4731 h 59.2954 v -32.4731 c 0,-2.7552 -2.1532,-4.9089 -4.9077,-4.9089 z m 80.7284,0 c -2.7546,0 -4.9103,2.1544 -4.9103,4.9089 v 32.4731 h 59.2967 v -32.4731 c 0,-2.7552 -2.1532,-4.9089 -4.9077,-4.9089 z m 80.7271,0 c -2.7546,0 -4.909,2.1544 -4.909,4.9089 v 32.4731 h 59.2954 v -32.4731 c 0,-2.7552 -2.1531,-4.9089 -4.9077,-4.9089 z m 80.7284,0 c -2.7546,0 -4.9102,2.1544 -4.9102,4.9089 v 32.4731 h 59.2966 v -32.4731 c 0,-2.7552 -2.1531,-4.9089 -4.9077,-4.9089 z m 80.7271,0 c -2.7545,0 -4.9089,2.1544 -4.9089,4.9089 v 32.4731 h 59.2953 v -32.4731 c 0,-2.7552 -2.1531,-4.9089 -4.9076,-4.9089 z m -330.7889,52.5184 h 388.1467 c 3.8453,0 2.6176,1.338 2.6176,3.0004 0,1.6625 1.2277,3.0018 -2.6176,3.0018 h -388.1467 c -3.8452,0 -2.6213,-1.3393 -2.6213,-3.0018 0,-1.6624 -1.2239,-3.0004 2.6213,-3.0004 z m 34.0138,37.6044 v 0 h 2.6011 c -0.01,0.1575 -0.025,0.3132 -0.025,0.4728 0,5.5361 4.4625,9.9998 9.9986,9.9998 5.5362,0 9.9936,-4.4637 9.9936,-9.9998 0,-0.1595 -0.018,-0.3151 -0.025,-0.4728 h 2.5998 c 0.01,0.1583 0.024,0.3132 0.024,0.4728 0,6.9405 -5.6515,12.5997 -12.5921,12.5997 -6.9405,0 -12.5972,-5.6592 -12.5972,-12.5997 0,-0.1595 0.017,-0.3146 0.022,-0.4728 z m 43.2238,0 h 2.5998 c -0.015,0.2204 -0.034,0.4406 -0.034,0.6649 0,5.5362 4.4624,9.9999 9.9986,9.9999 5.5362,0 9.9923,-4.4637 9.9923,-9.9999 0,-0.2243 -0.019,-0.4443 -0.033,-0.6649 h 2.5985 c 0.012,0.2217 0.034,0.4405 0.034,0.6649 0,6.9406 -5.6515,12.5997 -12.5921,12.5997 -6.9406,0 -12.5972,-5.6591 -12.5972,-12.5997 0,-0.2243 0.021,-0.4434 0.033,-0.6649 z m 208.4949,0 v 0 h 2.6011 c -0.01,0.1575 -0.025,0.3132 -0.025,0.4728 0,5.5361 4.4625,9.9998 9.9986,9.9998 5.5361,0 9.9923,-4.4637 9.9923,-9.9998 0,-0.1595 -0.017,-0.3151 -0.024,-0.4728 h 2.5986 c 0.01,0.1583 0.025,0.3132 0.025,0.4728 0,6.9405 -5.6516,12.5997 -12.5921,12.5997 -6.9406,0 -12.5972,-5.6592 -12.5972,-12.5997 0,-0.1595 0.017,-0.3146 0.022,-0.4728 z m 43.2238,0 h 2.5985 c -0.015,0.2204 -0.033,0.4406 -0.033,0.6649 0,5.5362 4.4624,9.9999 9.9986,9.9999 5.5361,0 9.9923,-4.4637 9.9923,-9.9999 0,-0.2243 -0.02,-0.4443 -0.034,-0.6649 h 2.5998 c 0.012,0.2217 0.034,0.4405 0.034,0.6649 0,6.9406 -5.6516,12.5997 -12.5921,12.5997 -6.9406,0 -12.5985,-5.6591 -12.5985,-12.5997 0,-0.2243 0.022,-0.4434 0.034,-0.6649 z"
         id="path48624-1-7" /></g></g></svg>
