<?xml version="1.0" encoding="UTF-8" standalone="no"?>
<!-- Created with Inkscape (http://www.inkscape.org/) -->

<svg
   version="1.1"
   id="svg1"
   width="183.88"
   height="42"
   viewBox="0 0 183.88001 42.000001"
   sodipodi:docname="estalciabutton.svg"
   xml:space="preserve"
   inkscape:version="1.3 (0e150ed6c4, 2023-07-21)"
   inkscape:export-filename="estalciabutton.png"
   inkscape:export-xdpi="96"
   inkscape:export-ydpi="96"
   xmlns:inkscape="http://www.inkscape.org/namespaces/inkscape"
   xmlns:sodipodi="http://sodipodi.sourceforge.net/DTD/sodipodi-0.dtd"
   xmlns="http://www.w3.org/2000/svg"
   xmlns:svg="http://www.w3.org/2000/svg"><sodipodi:namedview
     id="namedview1"
     pagecolor="#ffffff"
     bordercolor="#000000"
     borderopacity="0.25"
     inkscape:showpageshadow="2"
     inkscape:pageopacity="0.0"
     inkscape:pagecheckerboard="0"
     inkscape:deskcolor="#d1d1d1"
     inkscape:zoom="0.45717228"
     inkscape:cx="674.80032"
     inkscape:cy="692.2992"
     inkscape:window-width="3440"
     inkscape:window-height="1417"
     inkscape:window-x="-8"
     inkscape:window-y="1432"
     inkscape:window-maximized="1"
     inkscape:current-layer="svg1" /><defs
     id="defs1"><style
       id="style1">&#10;      .cls-1 {&#10;        fill: #fff;&#10;      }&#10;&#10;      .cls-1, .cls-2 {&#10;        stroke-width: 0px;&#10;      }&#10;&#10;      .cls-2 {&#10;        fill: #185886;&#10;      }&#10;    </style><style
       id="style1-1">&#10;      .cls-1 {&#10;        fill: #325733;&#10;      }&#10;&#10;      .cls-1, .cls-2 {&#10;        stroke-width: 0px;&#10;      }&#10;&#10;      .cls-2 {&#10;        fill: #fff;&#10;      }&#10;    </style><style
       id="style1-2">&#10;      .cls-1 {&#10;        fill: #1e90ff;&#10;      }&#10;&#10;      .cls-1, .cls-2 {&#10;        stroke-width: 0px;&#10;      }&#10;&#10;      .cls-2 {&#10;        fill: #fff;&#10;      }&#10;    </style><style
       id="style1-4">&#10;      .cls-1 {&#10;        fill: #008dac;&#10;      }&#10;&#10;      .cls-1, .cls-2 {&#10;        stroke-width: 0px;&#10;      }&#10;&#10;      .cls-2 {&#10;        fill: #fff;&#10;      }&#10;    </style></defs><path
     class="cls-1"
     d="m 20.999983,40.50001 c -10.75,0 -19.5000001,-8.75 -19.5000001,-19.5 0,-10.75 8.7500001,-19.5000004 19.5000001,-19.5000004 H 162.87998 c 10.75,0 19.5,8.7500004 19.5,19.5000004 0,10.75 -8.75,19.5 -19.5,19.5 z"
     id="path1-2"
     style="fill:#070b34;fill-opacity:1" /><path
     class="cls-2"
     d="m 162.87998,3.0000096 c 9.93,0 18,8.0700004 18,18.0000004 0,9.93 -8.07,18 -18,18 H 20.999983 c -9.93,0 -18.0000001,-8.07 -18.0000001,-18 0,-9.93 8.0700001,-18.0000004 18.0000001,-18.0000004 H 162.87998 m 0,-3.0000000493682 H 20.999983 C 9.3999829,9.5506318e-6 -1.7140306e-5,9.4000096 -1.7140306e-5,21.00001 v 0 c 0,11.6 9.400000040306,21 21.000000140306,21 H 162.87998 c 11.6,0 21,-9.4 21,-21 v 0 c 0,-11.6000004 -9.4,-21.0000004493682 -21,-21.0000004493682 z"
     id="path2-8" /><g
     id="g13"
     transform="translate(-1.7140306e-5)"><path
       class="cls-2"
       d="m 32.48,17.69 c 0.25,0 0.46,0.09 0.64,0.26 0.18,0.17 0.26,0.38 0.26,0.63 v 6.27 l 1.68,2.85 c 0.07,0.13 0.11,0.23 0.11,0.29 0,0.19 -0.11,0.32 -0.32,0.39 -0.12,0.04 -0.31,0.05 -0.57,0.05 H 19.06 c -0.25,0 -0.44,-0.02 -0.57,-0.05 -0.21,-0.07 -0.32,-0.2 -0.32,-0.39 0,-0.06 0.04,-0.16 0.12,-0.29 l 0.11,-0.16 1.56,-2.69 v -6.27 c 0,-0.25 0.09,-0.46 0.26,-0.63 0.17,-0.17 0.38,-0.26 0.63,-0.26 h 11.64 z m 0.89,-0.9 H 19.94 l 6.71,-4.47 6.71,4.47 z M 22,19.74 c -0.17,0.17 -0.26,0.38 -0.26,0.63 v 5.37 h 1.79 v -5.37 c -0.05,-0.26 -0.15,-0.48 -0.3,-0.64 -0.16,-0.17 -0.35,-0.25 -0.59,-0.25 -0.24,0 -0.46,0.09 -0.63,0.26 z m 4.02,0 c -0.17,0.17 -0.26,0.38 -0.26,0.63 v 5.37 h 1.79 v -5.37 c 0,-0.25 -0.09,-0.46 -0.26,-0.63 -0.17,-0.17 -0.38,-0.26 -0.63,-0.26 -0.25,0 -0.46,0.09 -0.64,0.26 z m 4.03,0 c -0.17,0.17 -0.26,0.38 -0.26,0.63 v 5.37 h 1.79 v -5.37 c 0,-0.25 -0.09,-0.46 -0.26,-0.63 -0.17,-0.17 -0.38,-0.26 -0.64,-0.26 -0.26,0 -0.46,0.09 -0.64,0.26 z"
       id="path3-80" /><path
       class="cls-2"
       d="m 51.32,22.35 h -2.95 c -0.18,0 -0.32,0.04 -0.41,0.12 -0.09,0.08 -0.16,0.23 -0.22,0.44 h -0.28 v -2.78 h 0.28 c 0.06,0.22 0.13,0.36 0.22,0.44 0.09,0.08 0.23,0.12 0.41,0.12 h 5.66 v 0.28 c -0.21,0.06 -0.35,0.13 -0.44,0.23 -0.08,0.09 -0.12,0.23 -0.12,0.41 v 2.45 c 0,0.18 0.04,0.32 0.12,0.41 0.08,0.09 0.23,0.17 0.44,0.23 v 0.22 c -2.27,1.29 -4.46,1.94 -6.59,1.94 -1.93,0 -3.5,-0.46 -4.72,-1.37 -1.53,-1.15 -2.3,-2.76 -2.3,-4.81 0,-1.91 0.68,-3.43 2.04,-4.56 1.29,-1.07 3.01,-1.61 5.16,-1.61 0.68,0 1.32,0.06 1.93,0.19 0.6,0.13 1.29,0.34 2.06,0.63 0.4,0.16 0.68,0.24 0.85,0.24 0.12,0 0.27,-0.07 0.43,-0.2 l 0.25,0.13 -1.4,2.86 -0.25,-0.13 c 0,-0.19 -0.03,-0.33 -0.08,-0.41 -0.05,-0.08 -0.15,-0.19 -0.31,-0.31 -0.36,-0.27 -0.88,-0.49 -1.56,-0.68 -0.69,-0.19 -1.34,-0.28 -1.95,-0.28 -1.25,0 -2.28,0.35 -3.1,1.05 -0.93,0.79 -1.39,1.84 -1.39,3.13 0,1.29 0.45,2.27 1.35,3.05 0.83,0.71 1.92,1.07 3.27,1.07 0.66,0 1.31,-0.08 1.95,-0.23 0.64,-0.15 1.19,-0.36 1.66,-0.62 v -1.63 z"
       id="path4-5" /><path
       class="cls-2"
       d="m 61.36,16.64 c 1.56,0 2.85,0.4 3.89,1.19 1.24,0.96 1.86,2.29 1.86,3.99 0,1.6 -0.62,2.88 -1.86,3.84 -1.03,0.79 -2.32,1.19 -3.88,1.19 -1.56,0 -2.85,-0.4 -3.88,-1.19 -1.25,-0.96 -1.87,-2.26 -1.87,-3.92 0,-1.66 0.62,-2.98 1.87,-3.92 1.03,-0.78 2.32,-1.17 3.86,-1.19 z m 0.01,1.85 c -1.01,0 -1.83,0.32 -2.47,0.97 -0.59,0.61 -0.88,1.37 -0.88,2.28 0,0.91 0.29,1.67 0.88,2.27 0.64,0.65 1.46,0.98 2.48,0.98 1.02,0 1.83,-0.33 2.47,-0.98 0.59,-0.6 0.88,-1.34 0.88,-2.23 0,-0.96 -0.29,-1.74 -0.88,-2.33 -0.64,-0.64 -1.47,-0.96 -2.48,-0.97 z"
       id="path5-6" /><path
       class="cls-2"
       d="m 73.02,23.54 2.38,-5.18 c 0.14,-0.3 0.21,-0.52 0.21,-0.66 0,-0.29 -0.19,-0.49 -0.57,-0.6 v -0.24 h 3.79 v 0.24 c -0.23,0.08 -0.4,0.17 -0.51,0.28 -0.1,0.11 -0.24,0.34 -0.4,0.68 l -3.43,7.21 c -0.12,0.26 -0.18,0.45 -0.18,0.58 0,0.29 0.19,0.48 0.58,0.55 v 0.24 H 71.05 V 26.4 c 0.38,-0.08 0.57,-0.26 0.57,-0.55 0,-0.13 -0.06,-0.33 -0.18,-0.58 l -3.43,-7.21 c -0.16,-0.35 -0.3,-0.58 -0.4,-0.69 -0.1,-0.11 -0.27,-0.2 -0.51,-0.28 v -0.24 h 3.92 v 0.24 c -0.37,0.12 -0.56,0.32 -0.56,0.6 0,0.13 0.07,0.35 0.22,0.66 l 2.36,5.18 z"
       id="path6-2" /><path
       class="cls-2"
       d="m 82.73,22.48 v 2.39 h 6.21 c 0.18,0 0.32,-0.04 0.42,-0.12 0.1,-0.08 0.17,-0.23 0.23,-0.44 h 0.25 V 27.2 H 89.59 C 89.54,27 89.46,26.85 89.36,26.77 89.26,26.69 89.12,26.64 88.94,26.64 h -9.12 v -0.25 c 0.2,-0.05 0.35,-0.13 0.43,-0.23 0.08,-0.1 0.13,-0.24 0.13,-0.42 v -8.01 c 0,-0.18 -0.04,-0.32 -0.12,-0.41 -0.08,-0.09 -0.23,-0.17 -0.44,-0.24 v -0.24 h 8.85 c 0.19,0 0.33,-0.04 0.42,-0.12 0.1,-0.08 0.17,-0.23 0.23,-0.44 h 0.24 v 2.89 h -0.24 c -0.06,-0.21 -0.14,-0.36 -0.23,-0.44 -0.1,-0.08 -0.24,-0.12 -0.42,-0.12 h -5.94 v 2.15 h 3.69 c 0.18,0 0.32,-0.04 0.42,-0.12 0.1,-0.08 0.18,-0.23 0.24,-0.44 h 0.24 v 2.82 h -0.24 c -0.06,-0.21 -0.14,-0.35 -0.23,-0.43 -0.1,-0.08 -0.24,-0.12 -0.42,-0.12 h -3.69 z"
       id="path7-4" /><path
       class="cls-2"
       d="m 94.21,22.62 v 3.12 c 0,0.18 0.04,0.32 0.12,0.41 0.08,0.1 0.23,0.18 0.44,0.24 v 0.25 h -3.46 v -0.25 c 0.2,-0.05 0.35,-0.13 0.43,-0.23 0.08,-0.1 0.13,-0.24 0.13,-0.42 v -8.01 c 0,-0.18 -0.04,-0.32 -0.12,-0.41 -0.08,-0.09 -0.23,-0.17 -0.44,-0.24 v -0.24 h 6.42 c 0.83,0 1.47,0.04 1.91,0.13 0.44,0.08 0.83,0.24 1.17,0.46 0.71,0.46 1.06,1.21 1.06,2.25 0,0.79 -0.22,1.41 -0.65,1.86 -0.43,0.45 -1.13,0.77 -2.1,0.97 l 1.85,2.58 c 0.34,0.48 0.61,0.8 0.81,0.97 0.2,0.17 0.43,0.28 0.69,0.33 v 0.25 h -4.12 v -0.25 c 0.3,-0.08 0.46,-0.21 0.46,-0.39 0,-0.13 -0.09,-0.32 -0.28,-0.58 l -1.96,-2.8 h -2.34 z m 0,-1.78 h 3.53 c 0.54,0 0.93,-0.06 1.19,-0.17 0.36,-0.16 0.54,-0.47 0.54,-0.94 0,-0.41 -0.13,-0.7 -0.38,-0.87 -0.25,-0.16 -0.7,-0.25 -1.35,-0.25 h -3.53 v 2.22 z"
       id="path8-97" /><path
       class="cls-2"
       d="m 106.33,20.19 v 5.55 c 0,0.18 0.04,0.32 0.13,0.42 0.08,0.1 0.23,0.18 0.43,0.24 v 0.25 h -3.25 V 26.4 c 0.2,-0.05 0.35,-0.13 0.43,-0.23 0.08,-0.1 0.13,-0.24 0.13,-0.42 v -8.01 c 0,-0.18 -0.04,-0.32 -0.12,-0.41 -0.08,-0.09 -0.23,-0.17 -0.44,-0.24 v -0.24 h 3.76 v 0.24 c -0.26,0.06 -0.38,0.18 -0.38,0.34 0,0.14 0.09,0.3 0.28,0.49 l 5.25,5.21 v -5.39 c 0,-0.18 -0.04,-0.32 -0.12,-0.42 -0.08,-0.1 -0.23,-0.17 -0.44,-0.23 v -0.24 h 3.25 v 0.24 c -0.21,0.06 -0.36,0.14 -0.44,0.23 -0.08,0.1 -0.12,0.23 -0.12,0.42 v 8 c 0,0.18 0.04,0.32 0.12,0.42 0.08,0.1 0.23,0.18 0.44,0.24 v 0.25 h -3.51 V 26.4 c 0.26,-0.05 0.38,-0.16 0.38,-0.32 0,-0.08 -0.04,-0.17 -0.11,-0.25 -0.07,-0.09 -0.23,-0.26 -0.48,-0.51 l -5.2,-5.12 z"
       id="path9-3" /><path
       class="cls-2"
       d="m 123.21,26.64 -3.57,-6.44 v 5.54 c 0,0.18 0.04,0.32 0.12,0.42 0.08,0.1 0.23,0.18 0.44,0.24 v 0.25 h -3.25 V 26.4 c 0.2,-0.05 0.35,-0.13 0.43,-0.23 0.08,-0.1 0.13,-0.24 0.13,-0.42 v -8.01 c 0,-0.18 -0.04,-0.32 -0.12,-0.42 -0.08,-0.1 -0.23,-0.17 -0.44,-0.23 v -0.24 h 4.14 v 0.24 c -0.27,0.09 -0.41,0.25 -0.41,0.5 0,0.25 0.1,0.53 0.3,0.87 l 2.44,4.43 2.46,-4.37 c 0.28,-0.46 0.42,-0.79 0.42,-0.98 0,-0.24 -0.14,-0.39 -0.43,-0.46 v -0.24 h 4.03 v 0.24 c -0.21,0.06 -0.36,0.14 -0.44,0.23 -0.08,0.1 -0.12,0.23 -0.12,0.42 v 8 c 0,0.18 0.04,0.32 0.12,0.42 0.08,0.1 0.23,0.18 0.44,0.24 v 0.25 h -3.46 v -0.25 c 0.2,-0.05 0.35,-0.13 0.43,-0.23 0.08,-0.1 0.13,-0.24 0.13,-0.42 v -5.55 l -3.78,6.44 z"
       id="path10-15" /><path
       class="cls-2"
       d="m 134.51,22.48 v 2.39 h 6.21 c 0.18,0 0.32,-0.04 0.42,-0.12 0.1,-0.08 0.17,-0.23 0.23,-0.44 h 0.25 v 2.89 h -0.25 c -0.05,-0.2 -0.13,-0.35 -0.23,-0.43 -0.1,-0.08 -0.24,-0.13 -0.42,-0.13 h -9.12 v -0.25 c 0.2,-0.05 0.35,-0.13 0.43,-0.23 0.08,-0.1 0.13,-0.24 0.13,-0.42 v -8.01 c 0,-0.18 -0.04,-0.32 -0.12,-0.41 -0.08,-0.09 -0.23,-0.17 -0.44,-0.24 v -0.24 h 8.85 c 0.19,0 0.33,-0.04 0.42,-0.12 0.1,-0.08 0.17,-0.23 0.23,-0.44 h 0.24 v 2.89 h -0.24 c -0.06,-0.21 -0.13,-0.36 -0.23,-0.44 -0.1,-0.08 -0.24,-0.12 -0.42,-0.12 h -5.94 v 2.15 h 3.69 c 0.18,0 0.32,-0.04 0.42,-0.12 0.1,-0.08 0.18,-0.23 0.24,-0.44 h 0.24 v 2.82 h -0.24 c -0.06,-0.21 -0.13,-0.35 -0.23,-0.43 -0.1,-0.08 -0.24,-0.12 -0.42,-0.12 h -3.69 z"
       id="path11-4" /><path
       class="cls-2"
       d="m 145.78,20.19 v 5.55 c 0,0.18 0.04,0.32 0.13,0.42 0.08,0.1 0.23,0.18 0.43,0.24 v 0.25 h -3.25 V 26.4 c 0.2,-0.05 0.35,-0.13 0.43,-0.23 0.08,-0.1 0.13,-0.24 0.13,-0.42 v -8.01 c 0,-0.18 -0.04,-0.32 -0.12,-0.41 -0.08,-0.09 -0.23,-0.17 -0.44,-0.24 v -0.24 h 3.76 v 0.24 c -0.26,0.06 -0.38,0.18 -0.38,0.34 0,0.14 0.09,0.3 0.28,0.49 l 5.25,5.21 v -5.39 c 0,-0.18 -0.04,-0.32 -0.12,-0.42 -0.08,-0.1 -0.23,-0.17 -0.44,-0.23 v -0.24 h 3.25 v 0.24 c -0.21,0.06 -0.36,0.14 -0.44,0.23 -0.08,0.1 -0.12,0.23 -0.12,0.42 v 8 c 0,0.18 0.04,0.32 0.12,0.42 0.08,0.1 0.23,0.18 0.44,0.24 v 0.25 h -3.51 V 26.4 c 0.26,-0.05 0.38,-0.16 0.38,-0.32 0,-0.08 -0.04,-0.17 -0.11,-0.25 -0.07,-0.09 -0.23,-0.26 -0.48,-0.51 l -5.2,-5.12 z"
       id="path12-80" /><path
       class="cls-2"
       d="m 161.8,18.62 v 7.12 c 0,0.18 0.04,0.32 0.12,0.42 0.08,0.1 0.23,0.18 0.44,0.24 v 0.25 H 158.9 V 26.4 c 0.2,-0.05 0.35,-0.13 0.43,-0.23 0.08,-0.1 0.13,-0.24 0.13,-0.42 v -7.12 h -2.88 c -0.19,0 -0.33,0.04 -0.42,0.12 -0.1,0.08 -0.17,0.23 -0.23,0.43 h -0.24 v -2.89 h 0.24 c 0.05,0.2 0.13,0.35 0.22,0.43 0.1,0.08 0.24,0.13 0.42,0.13 h 8.12 c 0.19,0 0.33,-0.04 0.42,-0.12 0.1,-0.08 0.17,-0.23 0.23,-0.44 h 0.24 v 2.89 h -0.24 c -0.06,-0.21 -0.14,-0.35 -0.23,-0.43 -0.1,-0.08 -0.24,-0.12 -0.42,-0.12 h -2.88 z"
       id="path13-4" /></g></svg>
