<?xml version="1.0" encoding="UTF-8" standalone="no"?>
<!-- Created with Inkscape (http://www.inkscape.org/) -->

<svg
   width="78.73761mm"
   height="11.10106mm"
   viewBox="0 0 78.737609 11.10106"
   version="1.1"
   id="svg1"
   xml:space="preserve"
   xmlns:xlink="http://www.w3.org/1999/xlink"
   xmlns="http://www.w3.org/2000/svg"
   xmlns:svg="http://www.w3.org/2000/svg"><defs
     id="defs1"><linearGradient
       id="linearGradient20"><stop
         style="stop-color:#490869;stop-opacity:1;"
         offset="0"
         id="stop20" /><stop
         style="stop-color:#175785;stop-opacity:1;"
         offset="1"
         id="stop21" /></linearGradient><style
       id="style1">&#10;      .cls-1 {&#10;        fill: #fff;&#10;      }&#10;&#10;      .cls-1, .cls-2 {&#10;        stroke-width: 0px;&#10;      }&#10;&#10;      .cls-2 {&#10;        fill: #185886;&#10;      }&#10;    </style><style
       id="style1-3">&#10;      .cls-1 {&#10;        fill: url(#linear-gradient);&#10;      }&#10;&#10;      .cls-1, .cls-2 {&#10;        stroke-width: 0px;&#10;      }&#10;&#10;      .cls-2 {&#10;        fill: #fff;&#10;      }&#10;    </style><linearGradient
       xlink:href="#linearGradient20"
       id="linearGradient21"
       x1="-128.75562"
       y1="159.44595"
       x2="-50.818218"
       y2="159.44595"
       gradientUnits="userSpaceOnUse"
       gradientTransform="translate(82.945946,1.8243243)" /></defs><g
     id="layer1"
     transform="translate(46.206131,-155.71974)"><path
       class="cls-2"
       d="m -40.655604,166.42434 c -2.84134,0 -5.15406,-2.31272 -5.15406,-5.15407 0,-2.84134 2.31272,-5.15406 5.15406,-5.15406 h 67.629265 c 2.841344,0 5.154066,2.31272 5.154066,5.15406 0,2.84135 -2.312722,5.15407 -5.154066,5.15407 z"
       id="path1"
       style="fill:url(#linearGradient21)" /><path
       class="cls-1"
       d="m 26.980951,156.51267 c 2.624609,0 4.757599,2.13299 4.757599,4.7576 0,2.62461 -2.13299,4.7576 -4.757599,4.7576 h -67.636555 c -2.62461,0 -4.7576,-2.13299 -4.7576,-4.7576 0,-2.62461 2.13299,-4.7576 4.7576,-4.7576 h 67.636555 m 0,-0.79293 h -67.636555 c -3.06601,0 -5.55053,2.48452 -5.55053,5.55053 0,3.06601 2.48452,5.55053 5.55053,5.55053 h 67.636555 c 3.066008,0 5.550532,-2.48452 5.550532,-5.55053 0,-3.06601 -2.484524,-5.55053 -5.550532,-5.55053 z"
       id="path2"
       style="fill:#ffffff;fill-opacity:1" /><path
       class="cls-1"
       d="m -37.523514,162.39624 c 0.10308,0.0608 0.18501,0.14273 0.24316,0.24581 0.0608,0.10308 0.0899,0.21673 0.0899,0.33567 v 0.0238 h -1.32948 v -0.0238 c 0,-0.11894 0.0291,-0.22995 0.0872,-0.33303 0.0582,-0.10308 0.14008,-0.18502 0.24052,-0.24581 0.10308,-0.0608 0.21409,-0.0925 0.33303,-0.0925 0.11894,0 0.22995,0.0291 0.33303,0.0899 z m 2.46337,-0.48369 c -0.0159,0.0159 -0.0264,0.0291 -0.0317,0.037 -0.24581,0.24581 -0.53655,0.41233 -0.86958,0.49691 -0.3251,0.0846 -0.6502,0.0846 -0.97531,0 -0.33567,-0.0846 -0.62377,-0.2511 -0.86958,-0.49691 -0.24581,-0.24581 -0.41233,-0.53655 -0.50219,-0.86958 -0.0846,-0.3251 -0.0846,-0.65021 0,-0.97531 0.0872,-0.33567 0.25638,-0.62377 0.50219,-0.86958 0.0132,-0.0132 0.0238,-0.0238 0.0344,-0.0317 l 2.71447,2.71183 z m -1.08631,-2.23079 c 0.10572,0.037 0.20087,0.0925 0.28545,0.16652 0.11366,0.0872 0.20352,0.20087 0.26696,0.33303 0.0634,0.13216 0.0978,0.27488 0.0978,0.41761 -0.003,0.0264 -0.0159,0.0476 -0.0344,0.0634 -0.0211,0.0185 -0.0423,0.0264 -0.0661,0.0264 -0.0238,0 -0.0449,-0.0106 -0.0661,-0.0291 -0.0211,-0.0185 -0.0317,-0.0396 -0.0317,-0.0661 0,-0.0925 -0.0159,-0.18238 -0.0502,-0.2696 -0.0344,-0.0872 -0.0793,-0.16652 -0.14009,-0.2326 -0.0687,-0.0846 -0.15594,-0.15065 -0.25902,-0.19823 -0.10308,-0.0476 -0.21145,-0.0714 -0.32246,-0.0714 -0.0264,0 -0.0476,-0.0106 -0.0687,-0.0317 -0.0211,-0.0211 -0.0291,-0.0449 -0.0291,-0.0687 0,-0.0238 0.0106,-0.0449 0.0291,-0.0634 0.0185,-0.0185 0.0397,-0.0291 0.0634,-0.0317 0.11101,0 0.21938,0.0185 0.3251,0.0555 z m -0.29603,-0.4229 c 0.15858,0.005 0.30924,0.037 0.45726,0.0952 0.14801,0.0555 0.27752,0.1348 0.39382,0.23788 0.14273,0.12158 0.25374,0.27224 0.33303,0.44668 0.0793,0.17445 0.12158,0.35682 0.12423,0.54713 0,0.0211 -0.0106,0.0423 -0.0317,0.0608 -0.0211,0.0185 -0.0423,0.0291 -0.0687,0.0291 -0.0264,0 -0.0476,-0.0106 -0.0687,-0.0317 -0.0211,-0.0211 -0.0317,-0.0423 -0.0317,-0.0687 -0.003,-0.15858 -0.0397,-0.30924 -0.10573,-0.4599 -0.0687,-0.14801 -0.16123,-0.27488 -0.28281,-0.37796 -0.0978,-0.0872 -0.2088,-0.15595 -0.33567,-0.20352 -0.12687,-0.0476 -0.25639,-0.0714 -0.38854,-0.0767 -0.0317,0 -0.0555,-0.008 -0.0714,-0.0238 -0.0264,-0.0185 -0.037,-0.0476 -0.0317,-0.0819 0.003,-0.037 0.0185,-0.0634 0.0423,-0.0793 0.0185,-0.0106 0.037,-0.0132 0.0555,-0.0132 h 0.005 z"
       id="path3"
       style="fill:#ffffff;fill-opacity:1" /><path
       class="cls-1"
       d="m -30.202104,160.59892 v 0.33568 c 0,0.39118 -0.12951,0.7295 -0.38854,1.01759 -0.25902,0.2881 -0.58148,0.45198 -0.96473,0.49162 v 0.34889 h 0.67664 c 0.0476,0 0.0872,0.0185 0.11894,0.0529 0.0317,0.0344 0.0502,0.074 0.0529,0.11894 0.003,0.0449 -0.0132,0.0846 -0.0529,0.11894 -0.037,0.0344 -0.0767,0.0529 -0.11894,0.0529 h -1.68895 c -0.0476,0 -0.0872,-0.0185 -0.11894,-0.0529 -0.0317,-0.0344 -0.0502,-0.074 -0.0529,-0.11894 -0.003,-0.0449 0.0132,-0.0846 0.0529,-0.11894 0.037,-0.0344 0.0767,-0.0529 0.11894,-0.0529 h 0.67663 v -0.34889 c -0.3806,-0.0423 -0.70306,-0.20616 -0.96473,-0.49162 -0.26167,-0.28545 -0.39118,-0.62641 -0.38854,-1.01759 v -0.33568 c 0,-0.0476 0.0185,-0.0872 0.0529,-0.11894 0.0344,-0.0317 0.074,-0.0502 0.11894,-0.0529 0.0449,-0.003 0.0846,0.0132 0.11894,0.0529 0.0344,0.037 0.0502,0.0767 0.0476,0.11894 v 0.33568 c 0,0.3251 0.1163,0.60527 0.34889,0.83786 0.2326,0.2326 0.51012,0.34889 0.83258,0.34625 0.32246,-0.003 0.59999,-0.11894 0.83787,-0.34625 0.23788,-0.2273 0.35153,-0.50747 0.34625,-0.83786 v -0.33568 c 0,-0.0476 0.0185,-0.0872 0.0529,-0.11894 0.0344,-0.0317 0.074,-0.0502 0.11894,-0.0529 0.0449,-0.003 0.0846,0.0132 0.11894,0.0529 0.0344,0.037 0.0529,0.0767 0.0529,0.11894 z m -0.67663,-1.01231 v 1.34799 c 0,0.23259 -0.0819,0.43347 -0.24581,0.59734 -0.16388,0.16387 -0.36475,0.24845 -0.59999,0.2511 -0.23524,0.003 -0.43611,-0.0793 -0.59734,-0.2511 -0.16123,-0.16916 -0.24317,-0.37004 -0.24581,-0.59734 v -1.34799 c 0,-0.23259 0.0819,-0.43347 0.24581,-0.59999 0.16387,-0.16651 0.3621,-0.24845 0.59734,-0.2458 0.23524,0.003 0.43347,0.0846 0.59999,0.2458 0.16651,0.16123 0.24845,0.36211 0.24581,0.59999 z"
       id="path4"
       style="fill:#ffffff;fill-opacity:1" /><path
       class="cls-1"
       d="m -24.099164,159.132 c 0.13745,0 0.25639,0.0476 0.35418,0.14537 0.0978,0.0978 0.14537,0.21409 0.14273,0.34624 v 2.95764 c 0,0.1348 -0.0476,0.2511 -0.14273,0.34625 -0.0952,0.0951 -0.21409,0.14273 -0.35418,0.14537 h -4.43249 c -0.14009,0 -0.25638,-0.0502 -0.34889,-0.14537 -0.0951,-0.0978 -0.14273,-0.21409 -0.14273,-0.34625 v -2.95764 c 0,-0.13215 0.0476,-0.24845 0.14273,-0.34624 0.0952,-0.0978 0.21145,-0.14537 0.34889,-0.14537 z m -4.43249,0.49161 v 2.95764 h 1.97176 v -2.95764 z m 1.72595,0.37004 v 0.74271 c 0,0.0317 -0.0132,0.0608 -0.037,0.0846 -0.0264,0.0238 -0.0529,0.037 -0.0846,0.0317 h -1.22905 c -0.0317,0 -0.0608,-0.0106 -0.0899,-0.0317 -0.0291,-0.0211 -0.0423,-0.0502 -0.037,-0.0846 v -0.74271 c 0,-0.0317 0.0132,-0.0608 0.037,-0.0846 0.0238,-0.0238 0.0555,-0.037 0.0899,-0.0344 h 1.22905 c 0.0317,0 0.0608,0.0106 0.0846,0.0344 0.0264,0.0212 0.037,0.0502 0.037,0.0846 z m -0.12158,1.11011 c 0.0317,0 0.0608,0.0132 0.0846,0.037 0.0264,0.0264 0.037,0.0529 0.037,0.0846 0,0.0317 -0.0132,0.0608 -0.037,0.0846 -0.0264,0.0264 -0.0529,0.037 -0.0846,0.037 h -1.22905 c -0.0317,0 -0.0608,-0.0132 -0.0899,-0.037 -0.0291,-0.0238 -0.0423,-0.0529 -0.037,-0.0846 0.003,-0.0317 0.0159,-0.0608 0.037,-0.0846 0.0211,-0.0238 0.0529,-0.037 0.0899,-0.037 z m 0,0.48897 c 0.0317,0 0.0608,0.0132 0.0846,0.0423 0.0264,0.0291 0.037,0.0555 0.037,0.0846 0,0.0291 -0.0132,0.0555 -0.037,0.0846 -0.0264,0.0291 -0.0529,0.0423 -0.0846,0.037 h -1.22905 c -0.0317,0 -0.0608,-0.0132 -0.0899,-0.037 -0.0291,-0.0238 -0.0423,-0.0529 -0.037,-0.0846 0.003,-0.0317 0.0159,-0.0608 0.037,-0.0846 0.0211,-0.0238 0.0529,-0.0396 0.0899,-0.0423 z m 0,0.49691 c 0.0317,0 0.0608,0.0132 0.0846,0.0423 0.0264,0.0291 0.037,0.0555 0.037,0.0846 0,0.0291 -0.0132,0.0555 -0.037,0.0793 -0.0264,0.0264 -0.0529,0.037 -0.0846,0.037 h -1.22905 c -0.0317,0 -0.0608,-0.0132 -0.0899,-0.037 -0.0291,-0.0238 -0.0423,-0.0529 -0.037,-0.0793 0.003,-0.0291 0.0159,-0.0555 0.037,-0.0846 0.0211,-0.0291 0.0529,-0.0423 0.0899,-0.0423 z m 2.82812,0.49161 v -2.95764 h -2.21492 v 2.95764 z m -0.97795,-2.5876 v 1.23433 c 0,0.0317 -0.0132,0.0608 -0.037,0.0846 -0.0264,0.0264 -0.0529,0.037 -0.0846,0.037 h -0.74271 c -0.0317,0 -0.0608,-0.0132 -0.0846,-0.037 -0.0238,-0.0238 -0.037,-0.0529 -0.037,-0.0846 v -1.23433 c 0,-0.0317 0.0132,-0.0608 0.037,-0.0846 0.0238,-0.0238 0.0529,-0.037 0.0846,-0.0344 h 0.74271 c 0.0317,0 0.0608,0.0106 0.0846,0.0344 0.0264,0.0212 0.037,0.0502 0.037,0.0846 z m -0.86694,1.85018 c -0.0317,0 -0.0608,-0.0132 -0.0846,-0.037 -0.0264,-0.0238 -0.037,-0.0529 -0.037,-0.0846 0,-0.0317 0.0132,-0.0608 0.037,-0.0846 0.0264,-0.0238 0.0529,-0.0396 0.0846,-0.0423 h 0.74272 c 0.0317,0 0.0608,0.0132 0.0846,0.0423 0.0264,0.0291 0.037,0.0555 0.037,0.0846 0,0.0291 -0.0132,0.0555 -0.037,0.0846 -0.0264,0.0291 -0.0529,0.0423 -0.0846,0.037 z m 0.74272,0.24581 c 0.0317,0 0.0608,0.0132 0.0846,0.0423 0.0264,0.0291 0.037,0.0555 0.037,0.0846 0,0.0291 -0.0132,0.0555 -0.037,0.0793 -0.0264,0.0264 -0.0529,0.037 -0.0846,0.037 h -0.74272 c -0.0317,0 -0.0608,-0.0132 -0.0846,-0.037 -0.0238,-0.0238 -0.037,-0.0529 -0.037,-0.0793 0,-0.0264 0.0132,-0.0555 0.037,-0.0846 0.0238,-0.0291 0.0529,-0.0423 0.0846,-0.0423 z m 0.48897,-1.97441 c -0.0317,0 -0.0608,-0.0132 -0.0846,-0.037 -0.0264,-0.0264 -0.037,-0.0529 -0.037,-0.0846 0,-0.0317 0.0132,-0.0608 0.037,-0.0846 0.0264,-0.0264 0.0529,-0.037 0.0846,-0.0344 h 0.2511 c 0.0317,0 0.0608,0.0106 0.0846,0.0344 0.0264,0.0212 0.037,0.0502 0.037,0.0846 0,0.0344 -0.0132,0.0634 -0.037,0.0846 -0.0264,0.0211 -0.0529,0.0344 -0.0846,0.037 z m 0,0.49691 c -0.0317,0 -0.0608,-0.0132 -0.0846,-0.037 -0.0264,-0.0238 -0.037,-0.0529 -0.037,-0.0846 0,-0.0317 0.0132,-0.0608 0.037,-0.0846 0.0264,-0.0238 0.0529,-0.0396 0.0846,-0.0423 h 0.2511 c 0.0317,0 0.0608,0.0132 0.0846,0.0423 0.0264,0.0291 0.037,0.0555 0.037,0.0846 0,0.0291 -0.0132,0.0555 -0.037,0.0846 -0.0264,0.0291 -0.0529,0.0423 -0.0846,0.037 z m 0,0.49162 c -0.0317,0 -0.0608,-0.0132 -0.0846,-0.037 -0.0264,-0.0264 -0.037,-0.0555 -0.037,-0.0899 0,-0.0344 0.0132,-0.0634 0.037,-0.0846 0.0264,-0.0212 0.0529,-0.0344 0.0846,-0.037 h 0.2511 c 0.0317,0 0.0608,0.0132 0.0846,0.037 0.0264,0.0264 0.037,0.0529 0.037,0.0846 0,0.0317 -0.0132,0.0608 -0.037,0.0899 -0.0264,0.0291 -0.0529,0.0423 -0.0846,0.037 z m 0.37268,0.36475 v 0.748 c 0,0.0317 -0.0132,0.0581 -0.037,0.0793 -0.0264,0.0211 -0.0529,0.0344 -0.0846,0.037 h -0.25109 c -0.0317,0 -0.0608,-0.0132 -0.0846,-0.037 -0.0264,-0.0264 -0.037,-0.0529 -0.037,-0.0793 v -0.748 c 0,-0.0317 0.0132,-0.0582 0.037,-0.0793 0.0264,-0.0211 0.0529,-0.0344 0.0846,-0.037 h 0.25109 c 0.0317,0 0.0608,0.0132 0.0846,0.037 0.0264,0.0264 0.037,0.0529 0.037,0.0793 z"
       id="path5"
       style="fill:#ffffff;fill-opacity:1" /><path
       class="cls-1"
       d="m -19.338764,162.76099 -1.16296,-2.17793 v 1.93476 c 0,0.0476 0.0106,0.0846 0.0317,0.10837 0.0211,0.0238 0.0608,0.0449 0.1163,0.0608 v 0.074 h -0.92509 v -0.074 c 0.0555,-0.0159 0.0951,-0.0344 0.11629,-0.0608 0.0212,-0.0238 0.0317,-0.0608 0.0317,-0.10837 v -2.66954 c 0,-0.0449 -0.0106,-0.0819 -0.0317,-0.10573 -0.0211,-0.0238 -0.0608,-0.0449 -0.11629,-0.0608 v -0.074 h 1.21582 v 0.074 c -0.0714,0.0185 -0.10837,0.0608 -0.10837,0.12687 0,0.0317 0.0106,0.0661 0.0317,0.10573 l 0.85901,1.6308 0.87222,-1.60173 c 0.0396,-0.0714 0.0581,-0.12158 0.0581,-0.15594 0,-0.0634 -0.0396,-0.0978 -0.11629,-0.10573 v -0.074 h 1.19204 v 0.074 c -0.0555,0.0159 -0.0951,0.0344 -0.1163,0.0608 -0.0211,0.0238 -0.0317,0.0608 -0.0317,0.10573 v 2.66954 c 0,0.0476 0.0106,0.0846 0.0317,0.10837 0.0212,0.0238 0.0608,0.0449 0.1163,0.0608 v 0.074 h -0.98324 v -0.074 c 0.0529,-0.0132 0.0925,-0.0344 0.11366,-0.0581 0.0211,-0.0264 0.0344,-0.0608 0.0344,-0.11101 v -1.93476 z"
       id="path15"
       style="fill:#ffffff;fill-opacity:1" /><path
       class="cls-1"
       d="m -16.000531,161.66145 v 0.63171 h 1.641358 c 0.0476,0 0.0846,-0.0106 0.11101,-0.0317 0.0264,-0.0212 0.0449,-0.0608 0.0608,-0.1163 h 0.0661 v 0.76386 h -0.0661 c -0.0132,-0.0529 -0.0344,-0.0925 -0.0608,-0.11365 -0.0264,-0.0212 -0.0634,-0.0344 -0.11101,-0.0344 h -2.410505 v -0.0661 c 0.0529,-0.0132 0.0925,-0.0344 0.11366,-0.0608 0.0211,-0.0264 0.0344,-0.0634 0.0344,-0.11101 v -2.11714 c 0,-0.0476 -0.0106,-0.0846 -0.0317,-0.10836 -0.0211,-0.0238 -0.0608,-0.0449 -0.1163,-0.0634 v -0.0634 h 2.339148 c 0.0502,0 0.0872,-0.0106 0.111007,-0.0317 0.0264,-0.0211 0.0449,-0.0608 0.0608,-0.1163 h 0.0634 v 0.76386 h -0.0634 c -0.0159,-0.0555 -0.037,-0.0952 -0.0608,-0.11629 -0.0238,-0.0212 -0.0634,-0.0317 -0.111007,-0.0317 h -1.570001 v 0.56827 h 0.975304 c 0.0476,0 0.0846,-0.0106 0.111007,-0.0317 0.0264,-0.0211 0.0476,-0.0608 0.0634,-0.1163 h 0.0634 v 0.74536 h -0.0634 c -0.0159,-0.0555 -0.037,-0.0925 -0.0608,-0.11365 -0.0264,-0.0212 -0.0634,-0.0317 -0.111007,-0.0317 h -0.975304 z"
       id="path16"
       style="fill:#ffffff;fill-opacity:1" /><path
       class="cls-1"
       d="m -13.584746,162.52575 v -2.11713 c 0,-0.0476 -0.0106,-0.0846 -0.0317,-0.10837 -0.0211,-0.0238 -0.0608,-0.0449 -0.11629,-0.0634 v -0.0634 h 1.517131 c 0.31453,0 0.565627,0.0396 0.745357,0.11894 0.25638,0.11101 0.438757,0.29339 0.552407,0.54977 0.0793,0.17973 0.11894,0.38854 0.11894,0.62642 0,0.44139 -0.13215,0.77707 -0.39382,1.00438 -0.118937,0.10044 -0.259027,0.17444 -0.420257,0.21938 -0.161227,0.0449 -0.362097,0.0687 -0.602627,0.0687 h -1.517131 v -0.0661 c 0.0529,-0.0132 0.0925,-0.0344 0.11365,-0.0608 0.0211,-0.0264 0.0344,-0.0634 0.0344,-0.11101 z m 0.621127,-0.23524 h 0.660777 c 0.303957,0 0.523337,-0.0687 0.660774,-0.2088 0.14273,-0.14537 0.21409,-0.35154 0.21409,-0.61585 0,-0.26431 -0.0714,-0.47311 -0.21409,-0.61584 -0.0714,-0.0714 -0.158587,-0.12423 -0.264307,-0.15859 -0.10573,-0.0317 -0.23788,-0.0502 -0.396467,-0.0502 h -0.660777 z"
       id="path17"
       style="fill:#ffffff;fill-opacity:1" /><path
       class="cls-1"
       d="m -9.635957,160.40862 v 2.11449 c 0,0.0476 0.0106,0.0846 0.0317,0.11101 0.0211,0.0264 0.0608,0.0476 0.11629,0.0634 v 0.0661 h -0.914484 v -0.0661 c 0.0529,-0.0132 0.0925,-0.0344 0.11365,-0.0608 0.0211,-0.0264 0.0344,-0.0634 0.0344,-0.11101 v -2.11713 c 0,-0.0476 -0.0106,-0.0846 -0.0317,-0.10837 -0.0211,-0.0238 -0.0608,-0.0449 -0.11629,-0.0634 v -0.0634 h 0.914504 v 0.0634 c -0.0555,0.0159 -0.0952,0.037 -0.11629,0.0608 -0.0211,0.0264 -0.0317,0.0608 -0.0317,0.11101 z"
       id="path18"
       style="fill:#ffffff;fill-opacity:1" /><path
       class="cls-1"
       d="m -7.072152,162.11342 h -1.189394 l -0.1348,0.28282 c -0.0317,0.0687 -0.0476,0.12158 -0.0476,0.15858 0,0.074 0.0502,0.12159 0.14802,0.14009 v 0.0661 H -9.24744 v -0.0661 c 0.0581,-0.008 0.10308,-0.0264 0.12951,-0.0529 0.0291,-0.0264 0.0608,-0.0767 0.100437,-0.15595 l 0.943587,-1.91361 c 0.0344,-0.0714 0.0529,-0.1348 0.0529,-0.1903 0,-0.0634 -0.0423,-0.11101 -0.129507,-0.14802 v -0.0634 h 1.004381 v 0.0634 c -0.0846,0.0344 -0.12687,0.0872 -0.12687,0.15595 0,0.0502 0.0185,0.11365 0.0581,0.18766 l 0.980584,1.85546 c 0.0529,0.10044 0.0952,0.16652 0.12687,0.19559 0.0317,0.0291 0.0767,0.0502 0.14009,0.0634 v 0.0661 h -1.057244 v -0.0661 c 0.100437,-0.0159 0.150657,-0.0634 0.150657,-0.14009 0,-0.0476 -0.0185,-0.10572 -0.0582,-0.17709 l -0.142727,-0.26431 z m -0.18766,-0.3621 -0.422897,-0.83258 -0.404397,0.83258 z"
       id="path19"
       style="fill:#ffffff;fill-opacity:1" /><path
       class="cls-1"
       d="m -1.854682,161.38393 h -1.818451 v 1.13653 c 0,0.0449 0.0106,0.0819 0.0344,0.10837 0.0211,0.0264 0.0608,0.0449 0.11365,0.0581 v 0.074 h -0.983234 v -0.074 c 0.0555,-0.0159 0.0952,-0.0344 0.1163,-0.0608 0.0212,-0.0238 0.0317,-0.0608 0.0317,-0.10573 v -2.67218 c 0,-0.0449 -0.0106,-0.0819 -0.0317,-0.10573 -0.0211,-0.0238 -0.0608,-0.0449 -0.1163,-0.0608 v -0.074 h 0.983234 v 0.074 c -0.0555,0.0132 -0.0951,0.0344 -0.1163,0.0582 -0.0211,0.0264 -0.0317,0.0608 -0.0317,0.10837 v 1.0176 h 1.818451 v -1.0176 c 0,-0.0449 -0.0106,-0.0819 -0.0317,-0.10837 -0.0212,-0.0264 -0.0608,-0.0449 -0.1163,-0.0582 v -0.074 h 0.983234 v 0.074 c -0.0555,0.0159 -0.0952,0.0344 -0.1163,0.0608 -0.0211,0.0238 -0.0317,0.0608 -0.0317,0.10573 v 2.67218 c 0,0.0449 0.0106,0.0819 0.0317,0.10573 0.0212,0.0238 0.0608,0.0449 0.1163,0.0608 v 0.074 h -0.983234 v -0.074 c 0.0529,-0.0132 0.0925,-0.0344 0.11366,-0.0581 0.0211,-0.0264 0.0344,-0.0608 0.0344,-0.10837 z"
       id="path20"
       style="fill:#ffffff;fill-opacity:1" /><path
       class="cls-1"
       d="m 0.25979599,160.40862 v 2.11449 c 0,0.0476 0.0106,0.0846 0.0317,0.11101 0.0211,0.0264 0.0608,0.0476 0.1163,0.0634 v 0.0661 h -0.914517 v -0.0661 c 0.0529,-0.0132 0.0925,-0.0344 0.11366,-0.0608 0.0211,-0.0264 0.0344,-0.0634 0.0344,-0.11101 v -2.11713 c 0,-0.0476 -0.0106,-0.0846 -0.0317,-0.10837 -0.0211,-0.0238 -0.0608,-0.0449 -0.1163,-0.0634 v -0.0634 h 0.914517 v 0.0634 c -0.0555,0.0159 -0.0952,0.037 -0.1163,0.0608 -0.0211,0.0264 -0.0317,0.0608 -0.0317,0.11101 z"
       id="path21"
       style="fill:#ffffff;fill-opacity:1" /><path
       class="cls-1"
       d="m 3.196277,161.76189 h -0.58941 c -0.0502,0 -0.0872,0.0106 -0.11101,0.0317 -0.0264,0.0211 -0.0449,0.0608 -0.0608,0.11629 h -0.0634 v -0.6872 h 0.0634 c 0.0159,0.0555 0.037,0.0925 0.0608,0.11629 0.0264,0.0211 0.0634,0.0317 0.11101,0.0317 h 1.23169 v 0.0661 c -0.0529,0.0159 -0.0925,0.037 -0.11366,0.0661 -0.0211,0.0291 -0.0344,0.0714 -0.0344,0.12422 v 0.54448 c 0,0.0476 0.0106,0.0846 0.0344,0.11101 0.0211,0.0264 0.0608,0.0476 0.11366,0.0634 v 0.0529 c -0.49955,0.27488 -0.99646,0.41233 -1.49336,0.41233 -0.42818,0 -0.77443,-0.10044 -1.038737,-0.30396 -0.14273,-0.11101 -0.25903,-0.24845 -0.34625001,-0.41233 -0.103077,-0.19294 -0.155937,-0.40175 -0.155937,-0.62113 0,-0.30396 0.0952,-0.5762 0.28280701,-0.81408 0.29338,-0.36739 0.724207,-0.54976 1.297767,-0.54976 0.25109,0 0.53655,0.0555 0.85901,0.16651 0.12687,0.0423 0.20352,0.0661 0.22466,0.0661 0.0264,0 0.0581,-0.0132 0.0925,-0.037 l 0.0555,0.0291 -0.30925,0.65021 -0.0555,-0.0264 v -0.0132 c 0,-0.0582 -0.0581,-0.1163 -0.17181,-0.17445 -0.21144,-0.11365 -0.43611,-0.16915 -0.67928,-0.16915 -0.27752,0 -0.50747,0.0767 -0.68456,0.22995 -0.18766,0.16123 -0.282807,0.37532 -0.282807,0.64756 0,0.25374 0.0846,0.45726 0.256377,0.61056 0.17444,0.15594 0.4229,0.23259 0.74007,0.23259 0.31717,0 0.5577,-0.0555 0.76386,-0.16916 v -0.39647 z"
       id="path22"
       style="fill:#ffffff;fill-opacity:1" /><path
       class="cls-1"
       d="m 6.481667,161.63238 h -1.44578 v 0.89073 c 0,0.0476 0.0106,0.0846 0.0317,0.11101 0.0212,0.0264 0.0608,0.0476 0.1163,0.0634 v 0.0661 h -0.91452 v -0.0661 c 0.0529,-0.0132 0.0925,-0.0344 0.11366,-0.0608 0.0211,-0.0264 0.0344,-0.0634 0.0344,-0.11101 v -2.11713 c 0,-0.0476 -0.0106,-0.0846 -0.0317,-0.10837 -0.0211,-0.0238 -0.0608,-0.0449 -0.1163,-0.0634 v -0.0634 h 0.91452 v 0.0634 c -0.0555,0.0159 -0.0951,0.037 -0.1163,0.0608 -0.0211,0.0238 -0.0317,0.0608 -0.0317,0.10836 v 0.75593 h 1.44578 v -0.75593 c 0,-0.0476 -0.0106,-0.0846 -0.0317,-0.10836 -0.0211,-0.0238 -0.0608,-0.0449 -0.1163,-0.0634 v -0.0634 h 0.91452 v 0.0634 c -0.0555,0.0159 -0.0952,0.037 -0.1163,0.0608 -0.0211,0.0264 -0.0317,0.0608 -0.0317,0.11101 v 2.11449 c 0,0.0476 0.0106,0.0846 0.0317,0.11101 0.0211,0.0264 0.0608,0.0476 0.1163,0.0634 v 0.0661 h -0.91452 v -0.0661 c 0.0529,-0.0132 0.0925,-0.0344 0.11366,-0.0608 0.0211,-0.0264 0.0344,-0.0634 0.0344,-0.11101 z"
       id="path23"
       style="fill:#ffffff;fill-opacity:1" /><path
       class="cls-1"
       d="m 8.466637,162.29051 h 1.44843 c 0.0502,0 0.0872,-0.0106 0.11101,-0.0317 0.0238,-0.0212 0.0449,-0.0608 0.0634,-0.1163 h 0.0634 v 0.76386 h -0.0634 c -0.0159,-0.0555 -0.037,-0.0951 -0.0608,-0.1163 -0.0264,-0.0211 -0.0634,-0.0317 -0.11101,-0.0317 h -2.21493 v -0.0661 c 0.0529,-0.0132 0.0925,-0.0344 0.11366,-0.0608 0.0211,-0.0264 0.0344,-0.0634 0.0344,-0.11101 v -2.11713 c 0,-0.0476 -0.0106,-0.0846 -0.0317,-0.10837 -0.0211,-0.0238 -0.0608,-0.0449 -0.1163,-0.0634 v -0.0634 h 0.91452 v 0.0634 c -0.0555,0.0159 -0.0951,0.037 -0.1163,0.0608 -0.0211,0.0264 -0.0317,0.0634 -0.0317,0.11101 v 1.8819 z"
       id="path24"
       style="fill:#ffffff;fill-opacity:1" /><path
       class="cls-1"
       d="m 11.183757,160.40862 v 2.11449 c 0,0.0476 0.0106,0.0846 0.0317,0.11101 0.0211,0.0264 0.0608,0.0476 0.11629,0.0634 v 0.0661 h -0.91451 v -0.0661 c 0.0529,-0.0132 0.0925,-0.0344 0.11365,-0.0608 0.0212,-0.0264 0.0344,-0.0634 0.0344,-0.11101 v -2.11713 c 0,-0.0476 -0.0106,-0.0846 -0.0317,-0.10837 -0.0211,-0.0238 -0.0608,-0.0449 -0.1163,-0.0634 v -0.0634 h 0.91451 v 0.0634 c -0.0555,0.0159 -0.0951,0.037 -0.11629,0.0608 -0.0212,0.0264 -0.0317,0.0608 -0.0317,0.11101 z"
       id="path25"
       style="fill:#ffffff;fill-opacity:1" /><path
       class="cls-1"
       d="m 14.120257,161.76189 h -0.58942 c -0.0502,0 -0.0872,0.0106 -0.11101,0.0317 -0.0264,0.0211 -0.0449,0.0608 -0.0608,0.11629 h -0.0634 v -0.6872 h 0.0634 c 0.0159,0.0555 0.037,0.0925 0.0608,0.11629 0.0264,0.0211 0.0634,0.0317 0.11101,0.0317 h 1.23169 v 0.0661 c -0.0529,0.0159 -0.0925,0.037 -0.11365,0.0661 -0.0212,0.0291 -0.0344,0.0714 -0.0344,0.12422 v 0.54448 c 0,0.0476 0.0106,0.0846 0.0344,0.11101 0.0211,0.0264 0.0608,0.0476 0.11365,0.0634 v 0.0529 c -0.49955,0.27488 -0.99645,0.41233 -1.49336,0.41233 -0.42818,0 -0.77443,-0.10044 -1.03874,-0.30396 -0.14273,-0.11101 -0.25902,-0.24845 -0.34624,-0.41233 -0.10309,-0.19294 -0.15595,-0.40175 -0.15595,-0.62113 0,-0.30396 0.0952,-0.5762 0.28281,-0.81408 0.29339,-0.36739 0.72422,-0.54976 1.29777,-0.54976 0.2511,0 0.53655,0.0555 0.85901,0.16651 0.12687,0.0423 0.20352,0.0661 0.22467,0.0661 0.0264,0 0.0581,-0.0132 0.0925,-0.037 l 0.0555,0.0291 -0.30924,0.65021 -0.0555,-0.0264 v -0.0132 c 0,-0.0582 -0.0581,-0.1163 -0.1718,-0.17445 -0.21145,-0.11365 -0.43611,-0.16915 -0.67928,-0.16915 -0.27753,0 -0.50748,0.0767 -0.68457,0.22995 -0.18766,0.16123 -0.28281,0.37532 -0.28281,0.64756 0,0.25374 0.0846,0.45726 0.25638,0.61056 0.17445,0.15594 0.4229,0.23259 0.74007,0.23259 0.31718,0 0.5577,-0.0555 0.76386,-0.16916 v -0.39647 z"
       id="path26"
       style="fill:#ffffff;fill-opacity:1" /><path
       class="cls-1"
       d="m 17.405637,161.63238 h -1.44578 v 0.89073 c 0,0.0476 0.0106,0.0846 0.0317,0.11101 0.0211,0.0264 0.0608,0.0476 0.1163,0.0634 v 0.0661 h -0.91452 v -0.0661 c 0.0529,-0.0132 0.0925,-0.0344 0.11365,-0.0608 0.0211,-0.0264 0.0344,-0.0634 0.0344,-0.11101 v -2.11713 c 0,-0.0476 -0.0106,-0.0846 -0.0317,-0.10837 -0.0212,-0.0238 -0.0608,-0.0449 -0.1163,-0.0634 v -0.0634 h 0.91452 v 0.0634 c -0.0555,0.0159 -0.0952,0.037 -0.1163,0.0608 -0.0211,0.0238 -0.0317,0.0608 -0.0317,0.10836 v 0.75593 h 1.44578 v -0.75593 c 0,-0.0476 -0.0106,-0.0846 -0.0317,-0.10836 -0.0212,-0.0238 -0.0608,-0.0449 -0.1163,-0.0634 v -0.0634 h 0.91451 v 0.0634 c -0.0555,0.0159 -0.0952,0.037 -0.11629,0.0608 -0.0212,0.0264 -0.0317,0.0608 -0.0317,0.11101 v 2.11449 c 0,0.0476 0.0106,0.0846 0.0317,0.11101 0.0211,0.0264 0.0608,0.0476 0.11629,0.0634 v 0.0661 h -0.91451 v -0.0661 c 0.0529,-0.0132 0.0925,-0.0344 0.11365,-0.0608 0.0212,-0.0264 0.0344,-0.0634 0.0344,-0.11101 z"
       id="path27"
       style="fill:#ffffff;fill-opacity:1" /><path
       class="cls-1"
       d="m 20.054037,160.64121 v 1.8819 c 0,0.0476 0.0106,0.0846 0.0317,0.11101 0.0211,0.0264 0.0608,0.0476 0.11629,0.0634 v 0.0661 h -0.91451 v -0.0661 c 0.0529,-0.0132 0.0925,-0.0344 0.11365,-0.0608 0.0212,-0.0264 0.0344,-0.0634 0.0344,-0.11101 v -1.8819 h -0.76121 c -0.0502,0 -0.0872,0.0106 -0.11101,0.0317 -0.0238,0.0211 -0.0449,0.0608 -0.0608,0.11366 h -0.0634 v -0.76386 h 0.0634 c 0.0132,0.0529 0.0344,0.0925 0.0582,0.11365 0.0264,0.0212 0.0634,0.0344 0.11101,0.0344 h 2.14621 c 0.0502,0 0.0872,-0.0106 0.11101,-0.0317 0.0264,-0.0211 0.0449,-0.0608 0.0608,-0.11629 h 0.0634 v 0.76386 h -0.0634 c -0.0159,-0.0555 -0.037,-0.0925 -0.0608,-0.11366 -0.0238,-0.0211 -0.0634,-0.0317 -0.11101,-0.0317 h -0.76122 z"
       id="path28"
       style="fill:#ffffff;fill-opacity:1" /><path
       class="cls-1"
       d="m 23.804607,160.40597 -0.31188,0.60263 -0.0555,-0.0291 c 0,-0.0502 -0.0159,-0.0899 -0.0476,-0.11894 -0.0872,-0.0793 -0.21674,-0.14273 -0.38854,-0.19295 -0.1718,-0.0502 -0.34361,-0.0767 -0.52069,-0.0767 -0.14802,0 -0.28282,0.0212 -0.39647,0.0634 -0.16652,0.0608 -0.24845,0.14801 -0.24845,0.26167 0,0.0767 0.0396,0.12951 0.11894,0.16122 0.0793,0.0317 0.23523,0.0555 0.46518,0.074 l 0.36475,0.0264 c 0.31982,0.0238 0.56034,0.0872 0.72686,0.18502 0.0925,0.0555 0.16916,0.12951 0.22995,0.22202 0.0767,0.1163 0.11365,0.24581 0.11365,0.39118 0,0.26431 -0.11894,0.47048 -0.35682,0.62378 -0.2273,0.14537 -0.53391,0.21937 -0.9198,0.21937 -0.38589,0 -0.7665,-0.0819 -1.12861,-0.24845 -0.0238,-0.0106 -0.0449,-0.0159 -0.0634,-0.0159 -0.0317,0 -0.0582,0.0185 -0.0846,0.0555 l -0.0581,-0.0238 0.26695,-0.63435 0.0582,0.0238 v 0.0185 c 0,0.0396 0.0159,0.074 0.0449,0.10044 0.0767,0.0687 0.21145,0.12687 0.39911,0.17709 0.19031,0.0502 0.37533,0.074 0.56034,0.074 0.16388,0 0.30925,-0.0212 0.43876,-0.0661 0.16123,-0.0529 0.24052,-0.13744 0.24052,-0.25374 0,-0.0952 -0.0555,-0.15858 -0.16651,-0.19559 -0.074,-0.0238 -0.20617,-0.0449 -0.39911,-0.0634 l -0.36211,-0.0291 c -0.19559,-0.0159 -0.34625,-0.0344 -0.44933,-0.0608 -0.10308,-0.0238 -0.19294,-0.0608 -0.26959,-0.10837 -0.0978,-0.0608 -0.17445,-0.14537 -0.22996,-0.25109 -0.0555,-0.10573 -0.0819,-0.22202 -0.0819,-0.34889 0,-0.28282 0.12158,-0.49955 0.36475,-0.65021 0.22202,-0.1348 0.4969,-0.20352 0.82201,-0.20352 0.17708,0 0.34096,0.0185 0.4969,0.0582 0.1533,0.0396 0.33567,0.10837 0.54977,0.20616 0.0634,0.0291 0.10572,0.0449 0.13215,0.0449 0.0264,0 0.0555,-0.0159 0.0951,-0.0502 l 0.0555,0.0291 z"
       id="path29"
       style="fill:#ffffff;fill-opacity:1" /></g></svg>
