<?xml version="1.0" encoding="UTF-8" standalone="no"?>
<!-- Created with Inkscape (http://www.inkscape.org/) -->

<svg
   version="1.1"
   id="svg1"
   width="317.54639"
   height="41.884644"
   viewBox="0 0 317.54639 41.884645"
   xml:space="preserve"
   sodipodi:docname="dispatchbanner+.svg"
   inkscape:version="1.3 (0e150ed6c4, 2023-07-21)"
   xmlns:inkscape="http://www.inkscape.org/namespaces/inkscape"
   xmlns:sodipodi="http://sodipodi.sourceforge.net/DTD/sodipodi-0.dtd"
   xmlns="http://www.w3.org/2000/svg"
   xmlns:svg="http://www.w3.org/2000/svg"><sodipodi:namedview
     id="namedview1"
     pagecolor="#ffffff"
     bordercolor="#000000"
     borderopacity="0.25"
     inkscape:showpageshadow="2"
     inkscape:pageopacity="0.0"
     inkscape:pagecheckerboard="0"
     inkscape:deskcolor="#d1d1d1"
     showgrid="false"
     inkscape:zoom="0.1709165"
     inkscape:cx="716.72427"
     inkscape:cy="1073.6237"
     inkscape:window-width="3440"
     inkscape:window-height="1417"
     inkscape:window-x="-8"
     inkscape:window-y="1432"
     inkscape:window-maximized="1"
     inkscape:current-layer="svg1" /><defs
     id="defs1"><style
       id="style1">&#10;      .cls-1 {&#10;        fill: #fff;&#10;      }&#10;&#10;      .cls-1, .cls-2 {&#10;        stroke-width: 0px;&#10;      }&#10;&#10;      .cls-2 {&#10;        fill: #185886;&#10;      }&#10;    </style></defs><g
     id="g2"
     transform="matrix(0.99725308,0,0,0.99725308,-5.6886331,8.3761897e-6)"><path
       class="cls-2"
       d="m 27.741383,40.5 c -10.75,0 -19.5,-8.75 -19.5,-19.5 0,-10.75 8.75,-19.5 19.5,-19.5 H 303.67529 c 10.75,0 19.5,8.75 19.5,19.5 0,10.75 -8.75,19.5 -19.5,19.5 z"
       id="path1-3"
       sodipodi:nodetypes="sssssss" /><path
       class="cls-1"
       d="m 303.12526,3 c 9.93,0 18,8.07 18,18 0,9.93 -8.07,18 -18,18 H 26.704247 c -9.93,0 -17.9999998,-8.07 -17.9999998,-18 0,-9.93 8.0699998,-18 17.9999998,-18 H 303.12526 m 0,-3 H 26.704247 c -11.6,0 -20.9999998,9.4 -20.9999998,21 0,11.6 9.3999998,21 20.9999998,21 H 303.12526 c 11.6,0 21,-9.4 21,-21 0,-11.6 -9.41,-21 -21,-21 z"
       id="path2"
       sodipodi:nodetypes="cssssscsssssss" /></g><path
     style="fill:#ffffff;stroke-width:0.06187"
     d="m 20.856367,29.013458 c -5.6117,0.0155 -5.86,0.0115 -6.0679,-0.0994 -0.1194,-0.0638 -0.2996,-0.24899 -0.4021,-0.41343 l -0.1856,-0.29788 -0.019,-3.31498 c -0.01,-1.82323 0,-3.45974 0.019,-3.63666 0.021,-0.17694 0.1006,-0.41293 0.1754,-0.52443 0.075,-0.11149 0.2305,-0.26603 0.3453,-0.3434 0.1571,-0.10583 0.297,-0.14069 0.5647,-0.14069 h 0.3559 l 0.026,-1.56221 c 0.025,-1.48221 0.036,-1.59074 0.1956,-2.11905 0.093,-0.30625 0.2635,-0.72697 0.3795,-0.93491 0.116,-0.20795 0.3689,-0.57996 0.5619,-0.8267 0.1931,-0.24675 0.5713,-0.62274 0.8404,-0.83555 0.2692,-0.21282 0.693,-0.48624 0.9417,-0.60763 0.2488,-0.12138 0.6023,-0.26414 0.7856,-0.31724 0.1832,-0.0531 0.5767,-0.12111 0.8745,-0.15113 0.3098,-0.0312 0.7728,-0.0315 1.0827,-5.8e-4 0.2978,0.0296 0.7355,0.11242 0.9728,0.18394 0.2374,0.0715 0.5715,0.20024 0.7424,0.28608 0.1711,0.0859 0.4781,0.27452 0.6822,0.41931 0.2042,0.14478 0.5833,0.48522 0.8423,0.75654 0.2592,0.27131 0.5847,0.68547 0.7235,0.92036 0.1388,0.23489 0.3248,0.64477 0.4134,0.91086 0.095,0.28628 0.1845,0.74096 0.2181,1.11366 0.031,0.34642 0.058,1.10688 0.059,1.6899 v 1.06006 l 0.3895,0.0248 c 0.2783,0.0177 0.4462,0.0654 0.589,0.1671 0.1099,0.0782 0.2619,0.25828 0.3377,0.40004 l 0.1379,0.25774 v 3.55751 c 0,3.37492 -0.011,3.56972 -0.118,3.79506 -0.065,0.13065 -0.2299,0.31162 -0.3667,0.40216 l -0.2487,0.16462 z m -0.036,-8.77082 h 2.9389 v -1.191 c 0,-0.65504 -0.027,-1.35489 -0.06,-1.55522 -0.034,-0.20033 -0.1431,-0.54242 -0.245,-0.76022 -0.1073,-0.22925 -0.3345,-0.55238 -0.5394,-0.76732 -0.2398,-0.25132 -0.4955,-0.44042 -0.7911,-0.58515 -0.2728,-0.13355 -0.5995,-0.23627 -0.8699,-0.27354 -0.2659,-0.0367 -0.5765,-0.0381 -0.8044,-0.004 -0.2041,0.0307 -0.4549,0.0814 -0.5574,0.11268 -0.1026,0.0313 -0.3318,0.13068 -0.5098,0.22088 -0.1779,0.0902 -0.4715,0.31188 -0.6522,0.4926 -0.1807,0.18073 -0.4035,0.45629 -0.4949,0.61237 -0.091,0.15608 -0.2083,0.44527 -0.2598,0.64266 -0.069,0.26701 -0.093,0.70396 -0.093,1.70702 v 1.34813 z"
     id="path29" /><path
     style="fill:#ffffff;stroke-width:0.116916"
     d="m 55.521967,26.996308 c -0.091,0 -0.3066,-0.0947 -0.4787,-0.20624 -0.2971,-0.19261 -0.532,-0.20279 -4.6728,-0.20279 -3.1747,0 -4.3601,-0.032 -4.3601,-0.11754 0,-0.0646 0.1041,-0.1769 0.2319,-0.24947 0.215,-0.12218 0.2322,-0.46534 0.2322,-4.63412 0,-4.16875 -0.017,-4.51192 -0.2322,-4.63411 -0.1272,-0.0725 -0.2319,-0.18483 -0.2319,-0.24948 0,-0.0856 1.206,-0.11751 4.4422,-0.11751 4.2782,0 4.4507,-0.008 4.6692,-0.20624 0.1247,-0.11342 0.3033,-0.20623 0.3964,-0.20623 0.1285,0 0.1694,0.3116 0.1694,1.28895 0,1.07698 -0.032,1.28895 -0.1987,1.28895 -0.1093,0 -0.1989,-0.0464 -0.1989,-0.10312 0,-0.0567 -0.1209,-0.19592 -0.2651,-0.30934 -0.2486,-0.19345 -0.4419,-0.20625 -3.1154,-0.20625 h -2.8501 v 1.28895 1.28895 h 1.796 1.7959 l 0.3073,-0.25778 c 0.1689,-0.14168 0.3746,-0.2578 0.4575,-0.2578 0.1042,0 0.1504,0.39597 0.1504,1.28895 0,1.02942 -0.037,1.28895 -0.1835,1.28895 -0.1003,0 -0.2812,-0.11611 -0.4006,-0.25778 l -0.2173,-0.2578 h -1.8528 -1.8529 v 1.39206 1.39207 h 2.9125 2.9125 l 0.29,-0.30531 c 0.1598,-0.1679 0.3404,-0.28117 0.4019,-0.25169 0.062,0.0294 0.1118,0.60769 0.1118,1.28489 0,0.91814 -0.042,1.22788 -0.1656,1.22788 z m 65.272603,0.004 c 0,0.094 -0.2747,-0.0812 -0.4022,-0.18046 -0.2101,-0.1634 -0.6508,-0.18325 -4.6682,-0.21018 -3.7858,-0.0253 -4.4362,-0.0519 -4.4362,-0.18044 0,-0.0829 0.1183,-0.15073 0.2604,-0.15073 0.1432,0 0.3222,-0.0898 0.3976,-0.19945 0.089,-0.12841 0.1373,-1.74197 0.1373,-4.52974 0,-3.79913 -0.024,-4.35015 -0.2084,-4.49232 -0.1157,-0.0892 -0.2934,-0.16203 -0.3976,-0.16203 -0.1042,0 -0.1893,-0.0697 -0.1893,-0.15467 0,-0.13062 0.3092,-0.15468 1.9882,-0.15468 1.1742,0 1.9886,0.0403 1.9886,0.0984 0,0.0541 -0.1492,0.2144 -0.3314,0.35622 l -0.3313,0.25778 v 3.87153 3.87154 h 2.7899 2.79 l 0.2258,-0.3087 c 0.1247,-0.16979 0.3004,-0.30898 0.3916,-0.30935 0.1234,0 0.1657,0.32553 0.1657,1.2883 0,0.98151 -0.1705,1.15945 -0.1705,1.28895 z m 29.3893,0 c -0.1054,0 -0.2505,-0.0812 -0.3219,-0.18046 -0.1196,-0.16541 -0.506,-0.18293 -4.6464,-0.21013 -2.7779,-0.0182 -4.5166,-0.0679 -4.5166,-0.12891 0,-0.0545 0.1196,-0.192 0.2652,-0.30543 0.2567,-0.19977 0.2652,-0.34372 0.2652,-4.58865 0,-4.24494 -0.013,-4.3889 -0.2652,-4.58866 -0.1459,-0.11342 -0.2652,-0.25263 -0.2652,-0.30934 0,-0.0667 1.5688,-0.10312 4.4409,-0.10312 4.2643,0 4.4516,-0.009 4.706,-0.20623 0.1459,-0.11343 0.3249,-0.20624 0.3976,-0.20624 0.081,0 0.1327,0.49839 0.1327,1.28895 0,1.07698 -0.032,1.28896 -0.1989,1.28896 -0.1093,0 -0.1987,-0.0624 -0.1987,-0.13869 0,-0.0763 -0.1093,-0.2155 -0.2425,-0.30935 -0.2099,-0.14775 -0.628,-0.17066 -3.1152,-0.17066 h -2.8728 v 1.28894 1.28894 h 1.7959 1.7959 l 0.3071,-0.25779 c 0.1691,-0.14188 0.3748,-0.25778 0.4577,-0.25778 0.1041,0 0.1505,0.39596 0.1505,1.28894 0,1.02943 -0.037,1.28895 -0.1837,1.28895 -0.1002,0 -0.2812,-0.11596 -0.4007,-0.25779 l -0.2171,-0.25778 h -1.8529 -1.8527 v 1.39206 1.39207 l 2.8832,-0.002 c 1.5859,-10e-4 2.949,-0.0357 3.0292,-0.0773 0.08,-0.0417 0.2164,-0.18017 0.3029,-0.30777 0.086,-0.12761 0.2146,-0.23201 0.2849,-0.23201 0.076,0 0.1285,0.52972 0.1285,1.28895 0,1.05736 -0.035,1.28894 -0.1923,1.28894 z m 154.0672,0 c -0.1055,0 -0.2507,-0.0812 -0.3221,-0.18046 -0.1195,-0.16532 -0.5029,-0.18294 -4.5801,-0.21018 -3.4017,-0.0226 -4.4503,-0.0595 -4.4503,-0.156 0,-0.0695 0.1343,-0.17204 0.2984,-0.22806 l 0.2982,-0.10179 v -4.53709 -4.5371 l -0.2982,-0.10178 c -0.1641,-0.056 -0.2984,-0.1604 -0.2984,-0.23201 0,-0.0991 0.4753,-0.13023 1.9887,-0.13023 1.513,0 1.9884,0.0311 1.9884,0.13023 0,0.0716 -0.1342,0.17599 -0.2984,0.23201 l -0.2983,0.10178 -0.035,3.99573 -0.035,3.99575 2.686,-0.002 c 1.4774,-10e-4 2.7515,-0.0357 2.8318,-0.0773 0.08,-0.0417 0.2165,-0.18017 0.3031,-0.30777 0.086,-0.12761 0.2145,-0.23201 0.2848,-0.23201 0.076,0 0.1286,0.52972 0.1286,1.28895 0,1.05736 -0.035,1.28894 -0.1922,1.28894 z M 62.215067,26.785298 c -0.4126,0 -1.0487,-0.0664 -1.4134,-0.13673 -0.3645,-0.0704 -0.9859,-0.25673 -1.3808,-0.41412 -0.395,-0.15739 -1.0304,-0.52922 -1.4124,-0.82629 -0.3818,-0.29707 -0.8794,-0.82552 -1.1058,-1.17435 -0.2264,-0.34882 -0.4997,-0.9247 -0.6072,-1.27974 -0.108,-0.35505 -0.1957,-0.94715 -0.1956,-1.31579 2e-4,-0.36863 0.086,-0.98438 0.1906,-1.36832 0.1041,-0.38395 0.3865,-0.98469 0.6267,-1.33498 0.2399,-0.35029 0.7087,-0.84819 1.0414,-1.10645 0.3329,-0.25826 0.9051,-0.59593 1.2716,-0.7504 0.3666,-0.15444 1.0492,-0.35097 1.5169,-0.43671 0.4675,-0.0857 1.1782,-0.15577 1.5792,-0.15562 0.4011,0 1.1215,0.065 1.601,0.14403 0.4794,0.0791 1.2793,0.28754 1.7777,0.46327 0.8566,0.30216 0.9233,0.31052 1.2301,0.1542 0.1888,-0.0962 0.3736,-0.12708 0.4419,-0.0738 0.068,0.0532 -0.2635,0.58511 -0.795,1.27276 -0.502,0.6497 -0.9617,1.18126 -1.0212,1.18126 -0.06,0 -0.1485,-0.1527 -0.1975,-0.33935 -0.049,-0.18664 -0.1901,-0.42597 -0.3133,-0.53183 -0.1234,-0.10585 -0.5296,-0.29474 -0.9031,-0.41976 -0.4696,-0.15708 -0.9696,-0.23071 -1.6198,-0.2384 -0.7773,-0.01 -1.0712,0.0385 -1.692,0.27475 -0.4283,0.16299 -0.9259,0.45739 -1.1574,0.68471 -0.2233,0.21935 -0.5206,0.60047 -0.6608,0.84695 -0.1401,0.24647 -0.316,0.749 -0.3909,1.1167 -0.084,0.41428 -0.093,0.90732 -0.021,1.29634 0.064,0.34529 0.2654,0.85571 0.4484,1.13427 0.1832,0.27858 0.5621,0.67821 0.8417,0.88807 0.2797,0.20989 0.8068,0.48523 1.1713,0.61187 0.4684,0.16273 0.9157,0.22983 1.5247,0.2287 0.6003,-9.2e-4 1.1027,-0.0772 1.657,-0.25122 l 0.7952,-0.24965 0.039,-0.85044 0.039,-0.85044 h -1.2486 c -0.948,0 -1.2882,0.0372 -1.4136,0.15467 -0.091,0.085 -0.2471,0.15468 -0.3475,0.15468 -0.1436,0 -0.1827,-0.23183 -0.1827,-1.08271 0,-0.85091 0.04,-1.08273 0.1827,-1.08273 0.1003,0 0.2568,0.0696 0.3475,0.15468 0.1364,0.12774 0.6122,0.15467 2.7339,0.15467 2.0934,0 2.5687,0.0263 2.5687,0.14204 0,0.0782 -0.09,0.19981 -0.1989,0.27041 -0.1585,0.10243 -0.1989,0.4078 -0.1989,1.51106 0,1.13392 0.036,1.39334 0.1989,1.44203 0.1093,0.0327 0.1989,0.12036 0.1989,0.19495 0,0.0746 -0.2512,0.30294 -0.5583,0.50747 -0.3073,0.20453 -0.944,0.51355 -1.4154,0.68672 -0.4712,0.17318 -1.2987,0.38067 -1.8392,0.4611 -0.5406,0.0805 -1.3203,0.13747 -1.7333,0.13747 z m 16.9473,-0.002 c -0.4377,-0.004 -1.0937,-0.0637 -1.4581,-0.13293 -0.3648,-0.0691 -1.0351,-0.28013 -1.4898,-0.4689 -0.4547,-0.18878 -1.0909,-0.56293 -1.4139,-0.83145 -0.3229,-0.26854 -0.7361,-0.7168 -0.918,-0.99613 -0.1819,-0.27936 -0.4321,-0.77875 -0.5557,-1.10979 -0.1433,-0.38317 -0.225,-0.96692 -0.225,-1.6063 0,-0.63783 0.081,-1.22567 0.2251,-1.61069 0.1234,-0.33346 0.4087,-0.87602 0.6338,-1.20567 0.2247,-0.32965 0.7092,-0.80953 1.0765,-1.06639 0.3674,-0.25686 1.0131,-0.60256 1.435,-0.76823 0.4368,-0.17156 1.1952,-0.353 1.7617,-0.4215 0.7578,-0.0916 1.2315,-0.0916 1.9893,0 0.5873,0.0711 1.327,0.25081 1.8064,0.43902 0.4464,0.1753 1.0944,0.52452 1.4401,0.77602 0.3458,0.25152 0.8102,0.72351 1.0321,1.04887 0.2219,0.32537 0.5107,0.87 0.6417,1.21029 0.1684,0.43672 0.2353,0.93713 0.2278,1.7014 -0.013,0.84663 -0.076,1.22886 -0.3126,1.75296 -0.1661,0.36865 -0.492,0.90228 -0.7247,1.18584 -0.2324,0.28357 -0.6635,0.68426 -0.9579,0.89039 -0.2944,0.20614 -0.7969,0.49414 -1.117,0.63997 -0.32,0.14586 -0.9687,0.33613 -1.4417,0.42282 -0.4729,0.0868 -1.2178,0.15439 -1.6551,0.1504 z m 0.083,-1.547 c 0,-0.19239 0.6544,-0.066 1.0269,-0.15964 0.3727,-0.0936 0.914,-0.32757 1.2028,-0.51992 0.3043,-0.20268 0.7088,-0.63959 0.9615,-1.03925 0.4171,-0.65877 0.4365,-0.74248 0.4365,-1.87752 0,-1.06352 -0.036,-1.24743 -0.3434,-1.75514 -0.1887,-0.31192 -0.5097,-0.72022 -0.7131,-0.90733 -0.2035,-0.18711 -0.6753,-0.46219 -1.0485,-0.6113 -0.5324,-0.21261 -0.8647,-0.27037 -1.5404,-0.26768 -0.6589,0.002 -1.0213,0.0664 -1.5404,0.2711 -0.3733,0.14722 -0.845,0.42077 -1.0483,0.60788 -0.2032,0.18711 -0.522,0.59541 -0.7086,0.90733 -0.3009,0.50282 -0.3399,0.70163 -0.3436,1.75297 -0.013,1.06532 0.03,1.24348 0.3387,1.75298 0.189,0.31192 0.5095,0.71996 0.7126,0.90677 0.203,0.18681 0.6153,0.43805 0.916,0.55828 0.3007,0.12024 0.7257,0.25267 0.9445,0.29428 0.2187,0.0416 0.7468,0.27829 0.7468,0.0862 z m 53.819703,1.5455 c 0,-0.0224 -1.4551,-0.0574 -1.8558,-0.14646 -0.469,-0.10428 -1.4135,-0.3136 -2.0878,-0.52349 l -1.226,-0.38161 -0.2684,0.18896 c -0.1608,0.11325 -0.3136,0.15065 -0.3811,0.0934 -0.064,-0.0543 0.2499,-0.67446 0.7268,-1.43603 0.4616,-0.73728 0.9164,-1.34051 1.0105,-1.34051 0.095,0 0.1898,0.12594 0.2127,0.27986 0.023,0.15409 0.2156,0.39379 0.4288,0.53335 0.2129,0.13942 0.7313,0.36089 1.1515,0.49215 0.6709,0.2095 0.9912,0.23884 2.6203,0.24002 1.7251,9.3e-4 1.8953,-0.0163 2.4193,-0.24964 0.3718,-0.16567 0.6534,-0.3958 0.8285,-0.67702 0.1459,-0.23432 0.2649,-0.5622 0.2647,-0.72861 0,-0.16642 -0.1144,-0.44704 -0.2523,-0.62363 -0.1387,-0.1767 -0.525,-0.42396 -0.8596,-0.54994 -0.3342,-0.1259 -1.4586,-0.38982 -2.4984,-0.58651 -1.0399,-0.19667 -2.2067,-0.44817 -2.5928,-0.55888 -0.386,-0.1107 -0.923,-0.28986 -1.1931,-0.39815 -0.27,-0.10826 -0.6782,-0.35173 -0.9069,-0.54101 -0.2288,-0.18928 -0.52,-0.50448 -0.6473,-0.70041 -0.1272,-0.19594 -0.2603,-0.6401 -0.296,-0.98705 -0.041,-0.41023 0.013,-0.82649 0.1443,-1.19048 0.1157,-0.30784 0.393,-0.75356 0.6172,-0.99051 0.2243,-0.23695 0.6867,-0.57448 1.0274,-0.75008 0.3408,-0.17557 1.0098,-0.41451 1.4869,-0.53097 0.6596,-0.16103 1.2166,-0.21105 2.3254,-0.2088 0.8858,0.002 1.7705,0.0664 2.2538,0.16459 0.4373,0.089 1.2537,0.30727 1.8142,0.48518 0.9718,0.30851 1.0345,0.31564 1.352,0.15387 0.183,-0.0933 0.3623,-0.13248 0.3983,-0.087 0.036,0.0454 -0.3979,0.68293 -0.9644,1.4167 -0.5666,0.73376 -1.1148,1.33413 -1.2186,1.33413 -0.1157,0 -0.2046,-0.12898 -0.2299,-0.33363 -0.024,-0.20101 -0.1966,-0.45434 -0.4319,-0.63737 -0.2149,-0.16707 -0.7331,-0.40688 -1.1518,-0.53291 -0.5734,-0.17262 -1.0553,-0.23097 -1.9542,-0.2366 -0.897,-0.006 -1.2996,0.0372 -1.6225,0.17265 -0.2365,0.099 -0.5225,0.29021 -0.6359,0.42481 -0.1144,0.13461 -0.2395,0.40489 -0.2804,0.60059 -0.047,0.23075 0.013,0.4734 0.148,0.69022 0.154,0.23158 0.4401,0.4119 0.9304,0.58654 0.3895,0.13867 1.4738,0.38736 2.4098,0.55262 0.9362,0.16526 2.055,0.39593 2.4866,0.51261 0.4315,0.11666 1.0805,0.35982 1.4421,0.54032 0.3617,0.18052 0.8304,0.51377 1.0417,0.74057 0.2111,0.22679 0.4794,0.66782 0.5962,0.98005 0.1483,0.39721 0.188,0.76717 0.1324,1.2318 -0.044,0.36526 -0.2129,0.87838 -0.3757,1.1403 -0.1629,0.2619 -0.5823,0.69923 -0.9325,0.97184 -0.3587,0.27919 -1.0102,0.63169 -1.4921,0.80709 -0.4706,0.17128 -1.32,0.37678 -1.8879,0.45455 -0.5667,0.0776 -2.0265,0.18115 -2.0265,0.13855 z m 24.9255,-0.0318 c -0.7728,0.0261 -1.4612,-0.0127 -1.954,-0.11009 -0.4186,-0.0827 -1.0106,-0.24951 -1.316,-0.37065 -0.3051,-0.12112 -0.8782,-0.45808 -1.2734,-0.74875 -0.3952,-0.2907 -0.8615,-0.71851 -1.0364,-0.9507 -0.175,-0.23217 -0.4478,-0.69684 -0.6064,-1.03259 -0.2388,-0.50559 -0.2883,-0.83185 -0.2883,-1.8994 0,-1.06755 0.049,-1.39382 0.2883,-1.8994 0.1586,-0.33577 0.4314,-0.80043 0.6064,-1.03261 0.1749,-0.23218 0.6412,-0.65998 1.0364,-0.95067 0.3952,-0.2907 0.9657,-0.62665 1.2678,-0.7466 0.3024,-0.11992 0.9244,-0.28677 1.3824,-0.37076 0.4579,-0.084 1.1333,-0.1534 1.5008,-0.15422 0.3674,-9.3e-4 1.0091,0.0676 1.4258,0.15202 0.4168,0.0845 1.126,0.29801 1.5756,0.47459 0.6164,0.242 0.9281,0.30708 1.2669,0.26434 0.314,-0.0397 0.4367,-0.0192 0.4076,0.0679 -0.023,0.0685 -0.3994,0.59858 -0.837,1.17775 -0.4374,0.57919 -0.87,1.05427 -0.961,1.05571 -0.099,0.002 -0.1658,-0.13301 -0.1658,-0.33896 0,-0.23808 -0.1106,-0.42393 -0.3645,-0.61322 -0.2004,-0.14937 -0.6031,-0.34988 -0.8946,-0.44553 -0.312,-0.10233 -0.8852,-0.17444 -1.3921,-0.17515 -0.667,-9.4e-4 -1.0148,0.0592 -1.5402,0.2665 -0.3733,0.14725 -0.8453,0.42082 -1.0487,0.60791 -0.2033,0.18712 -0.5078,0.57357 -0.6763,0.8588 -0.1687,0.28525 -0.369,0.86056 -0.4452,1.27849 -0.075,0.41794 -0.1054,0.927 -0.066,1.13124 0.041,0.20426 0.1715,0.64095 0.2906,0.97044 0.1391,0.38412 0.397,0.75819 0.7187,1.04257 0.2944,0.26023 0.7916,0.54185 1.2028,0.68149 0.4801,0.16298 0.9728,0.24065 1.5627,0.2464 0.474,0.005 1.0703,-0.0571 1.3256,-0.13699 0.2552,-0.0799 0.658,-0.25634 0.8948,-0.39194 0.3416,-0.19546 0.4308,-0.32027 0.4308,-0.60221 0,-0.21842 0.064,-0.35376 0.1658,-0.35073 0.091,0.003 0.5676,0.40255 1.0587,0.88855 0.4912,0.48597 0.8605,0.92458 0.8209,0.97465 -0.04,0.0501 -0.1926,0.0911 -0.339,0.0911 -0.1467,0 -0.5402,0.14642 -0.8746,0.32536 -0.3344,0.17896 -0.9118,0.41529 -1.2833,0.52519 -0.4218,0.12482 -1.1231,0.21495 -1.8683,0.24013 z m 10.8421,0.0354 c -0.5153,-0.005 -1.3214,-0.0731 -1.7914,-0.15232 -0.47,-0.0792 -1.1241,-0.27378 -1.4536,-0.43226 -0.3295,-0.15847 -0.7936,-0.4864 -1.031,-0.72872 -0.2377,-0.24232 -0.5337,-0.68213 -0.6578,-0.97738 -0.1891,-0.44955 -0.2345,-1.09483 -0.2795,-3.96984 -0.051,-3.24768 -0.068,-3.43968 -0.308,-3.55651 -0.1397,-0.0679 -0.2541,-0.18195 -0.2541,-0.25337 0,-0.098 0.439,-0.12987 1.7895,-0.12987 1.4318,0 1.7897,0.0285 1.7897,0.14203 0,0.0782 -0.093,0.20126 -0.2038,0.27363 -0.1772,0.1145 -0.1988,0.58068 -0.1655,3.5959 l 0.037,3.46434 0.3095,0.33745 c 0.1703,0.18564 0.5579,0.438 0.8616,0.56088 0.4099,0.1658 0.7916,0.22409 1.4802,0.22603 0.724,0.002 1.0452,-0.0488 1.4605,-0.23125 0.293,-0.12862 0.6806,-0.40192 0.8618,-0.60736 l 0.3289,-0.37349 v -3.44449 c 0,-3.1614 -0.019,-3.45533 -0.2319,-3.57655 -0.1273,-0.0726 -0.232,-0.18496 -0.232,-0.24959 0,-0.0822 0.5388,-0.11753 1.7898,-0.11753 1.1047,0 1.7895,0.0396 1.7895,0.10312 0,0.0567 -0.1209,0.19591 -0.2651,0.30934 -0.2539,0.19752 -0.2652,0.34458 -0.2668,3.48017 0,2.47746 -0.046,3.40598 -0.1873,3.81673 -0.1015,0.29853 -0.3344,0.73935 -0.5157,0.97959 -0.1814,0.24024 -0.5017,0.53507 -0.7115,0.65518 -0.2099,0.1201 -0.6203,0.3131 -0.912,0.42884 -0.2917,0.11577 -0.8824,0.26111 -1.3128,0.32299 -0.4303,0.0619 -1.2038,0.10881 -1.7191,0.10431 z m 62.3859,-0.006 c -0.4739,-0.003 -1.1594,-0.0539 -1.5232,-0.10787 -0.3638,-0.054 -1.0499,-0.24187 -1.5244,-0.41756 -0.5676,-0.21008 -1.1621,-0.55203 -1.7366,-0.99885 -0.5776,-0.44934 -1.0137,-0.9089 -1.288,-1.35717 -0.2279,-0.37279 -0.5068,-0.95281 -0.6195,-1.28895 -0.1132,-0.33614 -0.2406,-0.98238 -0.2845,-1.43609 -0.054,-0.56074 -0.013,-1.13867 0.1393,-1.80453 0.1502,-0.67068 0.3826,-1.24269 0.7378,-1.81387 0.3383,-0.54439 0.7714,-1.03409 1.246,-1.40933 0.4002,-0.31628 1.1039,-0.73782 1.5642,-0.93675 0.4601,-0.19894 1.2195,-0.4381 1.6874,-0.53147 0.4696,-0.0936 1.3609,-0.1693 1.9884,-0.16872 0.7511,9.3e-4 1.4162,0.0689 1.9577,0.20077 0.4511,0.10985 1.13,0.34805 1.5089,0.52933 0.3789,0.1813 0.7852,0.33029 0.9031,0.33108 0.1183,9.3e-4 0.358,-0.033 0.5337,-0.0753 0.3035,-0.073 0.2913,-0.0371 -0.2525,0.7387 -0.3142,0.44848 -0.7561,1.08163 -0.9818,1.40701 -0.2258,0.32537 -0.4702,0.57671 -0.5432,0.55853 -0.073,-0.0181 -0.14,-0.0871 -0.149,-0.15335 -0.013,-0.0661 -0.024,-0.21149 -0.033,-0.32293 -0.013,-0.11146 -0.1991,-0.36438 -0.4223,-0.56206 -0.244,-0.21619 -0.695,-0.44362 -1.1317,-0.57072 -0.3994,-0.11622 -1.0412,-0.21133 -1.4262,-0.21133 -0.3851,0 -1.0241,0.0741 -1.42,0.16462 -0.3962,0.0906 -0.9289,0.28585 -1.1841,0.43404 -0.2553,0.14819 -0.542,0.34093 -0.6375,0.42831 -0.096,0.0873 -0.3509,0.44273 -0.5676,0.78965 -0.2792,0.44674 -0.4362,0.90662 -0.5379,1.57624 -0.1054,0.694 -0.1028,1.15699 0.013,1.74088 0.083,0.43748 0.3207,1.07701 0.5274,1.42117 0.2069,0.34414 0.6077,0.80286 0.8913,1.01936 0.2834,0.21651 0.8135,0.5029 1.1781,0.63643 0.5004,0.18327 0.8936,0.24304 1.6042,0.24381 0.5177,9.2e-4 1.144,-0.0532 1.3917,-0.11966 0.248,-0.0664 0.6611,-0.22804 0.9181,-0.35925 0.257,-0.13123 0.5769,-0.38312 0.711,-0.55976 0.1681,-0.22121 0.2208,-0.4324 0.1695,-0.67843 -0.062,-0.29555 -0.036,-0.35153 0.1465,-0.32413 0.1222,0.0182 0.7448,0.56368 1.385,1.21216 0.6402,0.64848 0.4323,1.21863 0.4323,1.26701 0,0.0483 0.5254,0.0579 0.2733,0.0212 -0.3926,-0.0573 -0.5391,-0.0156 -1.0273,0.29249 -0.313,0.19763 -0.8895,0.48441 -1.2808,0.63726 -0.3916,0.15286 -1.1074,0.34315 -1.5909,0.42286 -0.4834,0.0797 -1.2667,0.13793 -1.7407,0.1352 z m 12.216,0.005 c -0.3693,-0.005 -1.0139,-0.0732 -1.4325,-0.15206 -0.4185,-0.0788 -1.0107,-0.24255 -1.3158,-0.36369 -0.3053,-0.12113 -0.874,-0.45479 -1.2635,-0.74144 -0.3898,-0.28665 -0.8872,-0.76398 -1.1054,-1.06074 -0.2182,-0.29677 -0.5153,-0.89976 -0.6601,-1.34 -0.1447,-0.44025 -0.2631,-1.11042 -0.2631,-1.48928 0,-0.37885 0.1208,-1.05186 0.2653,-1.49557 0.1459,-0.44373 0.425,-1.0189 0.6204,-1.27816 0.1953,-0.25927 0.6217,-0.69298 0.9473,-0.96379 0.3257,-0.27082 0.9004,-0.62968 1.2776,-0.79746 0.3769,-0.16779 1.0691,-0.37543 1.5382,-0.46142 0.4689,-0.086 1.1509,-0.15634 1.5154,-0.15634 0.3645,0 1.0368,0.0686 1.4938,0.15242 0.4572,0.0838 1.1404,0.27433 1.5184,0.42333 0.3781,0.14901 0.9998,0.51987 1.3818,0.82413 0.3818,0.30426 0.8734,0.8452 1.0923,1.20207 0.2191,0.35689 0.4596,0.85641 0.5348,1.11004 0.075,0.25363 0.1367,0.90197 0.1367,1.44075 0,0.53878 -0.062,1.18713 -0.1367,1.44076 -0.074,0.25364 -0.3216,0.76279 -0.5477,1.13145 -0.2375,0.38699 -0.7017,0.89609 -1.0983,1.20461 -0.378,0.29388 -1.0424,0.6739 -1.4768,0.84443 -0.4342,0.17057 -1.1408,0.36061 -1.57,0.42232 -0.4292,0.0617 -1.0826,0.10836 -1.4521,0.10364 z m 0.4442,-1.59017 c 0.4085,-0.0324 1.0016,-0.17698 1.3759,-0.33544 0.3618,-0.15319 0.8554,-0.47986 1.0971,-0.72593 0.2415,-0.24608 0.5469,-0.68786 0.6788,-0.98174 0.1725,-0.38474 0.2373,-0.82299 0.2313,-1.56548 -0.013,-0.82289 -0.068,-1.14415 -0.3055,-1.59052 -0.1634,-0.30764 -0.4754,-0.7344 -0.6931,-0.94836 -0.2201,-0.21607 -0.7263,-0.51462 -1.1388,-0.67159 -0.566,-0.2154 -0.9349,-0.2821 -1.552,-0.28056 -0.6093,0.002 -0.9779,0.0691 -1.4906,0.27299 -0.3746,0.14905 -0.898,0.46811 -1.1631,0.70905 -0.2914,0.26474 -0.5855,0.69902 -0.7439,1.09769 -0.166,0.41773 -0.262,0.95422 -0.262,1.46285 0,0.51561 0.095,1.04565 0.2689,1.48027 0.1983,0.49937 0.4331,0.81558 0.8948,1.20476 0.4542,0.38284 0.8261,0.58276 1.355,0.72832 0.5313,0.14622 0.9238,0.18519 1.4472,0.14369 z m 12.5453,1.58832 c -0.5469,-0.004 -1.3224,-0.0636 -1.7233,-0.13294 -0.401,-0.0694 -0.9709,-0.22415 -1.2663,-0.34399 -0.2957,-0.11985 -0.7358,-0.37243 -0.9781,-0.5613 -0.2422,-0.18887 -0.5971,-0.59869 -0.7883,-0.91053 l -0.3478,-0.56713 -0.067,-3.59178 c -0.06,-3.26617 -0.087,-3.60369 -0.2983,-3.72352 -0.1273,-0.0724 -0.232,-0.18467 -0.232,-0.24932 0,-0.0822 0.5386,-0.11752 1.7896,-0.11752 1.2509,0 1.7897,0.0354 1.7897,0.11752 0,0.0646 -0.1042,0.17695 -0.2321,0.24956 -0.2127,0.1211 -0.232,0.41228 -0.232,3.5173 v 3.38529 l 0.3227,0.43823 c 0.2236,0.3037 0.5082,0.5081 0.9269,0.6657 0.4367,0.16453 0.8427,0.22673 1.4668,0.22483 0.6091,-0.002 1.0188,-0.0655 1.3931,-0.21649 0.2918,-0.11763 0.6263,-0.29999 0.7435,-0.40527 0.1183,-0.10528 0.2812,-0.34916 0.3645,-0.54193 0.1003,-0.23337 0.1515,-1.44398 0.1515,-3.62222 0,-2.78237 -0.03,-3.29089 -0.1991,-3.40005 -0.1092,-0.0706 -0.1987,-0.1923 -0.1987,-0.27043 0,-0.11336 0.3479,-0.14204 1.7233,-0.14204 1.3755,0 1.7233,0.0288 1.7233,0.14204 0,0.0782 -0.09,0.19982 -0.1987,0.27043 -0.1686,0.10878 -0.1992,0.59428 -0.2001,3.18343 0,1.68028 -0.063,3.35027 -0.1376,3.71108 -0.076,0.36081 -0.2799,0.8754 -0.4545,1.14355 -0.1747,0.26816 -0.5309,0.63332 -0.7919,0.81147 -0.2609,0.17815 -0.6576,0.39765 -0.8817,0.48777 -0.2239,0.0901 -0.8047,0.22938 -1.2907,0.30949 -0.4857,0.0801 -1.3307,0.14255 -1.8776,0.13877 z m 26.4615,-9.3e-4 c 0.415,0.083 -1.0313,-0.0513 -1.3515,-0.10022 -0.3202,-0.0489 -0.9501,-0.22293 -1.4,-0.38668 -0.4694,-0.17089 -1.1121,-0.5265 -1.5083,-0.83473 -0.3797,-0.29534 -0.8638,-0.80441 -1.076,-1.13124 -0.212,-0.32683 -0.4794,-0.87564 -0.5939,-1.21957 -0.1158,-0.34393 -0.2084,-1.00635 -0.2084,-1.47206 0,-0.46569 0.095,-1.13183 0.2099,-1.4803 0.1157,-0.34847 0.3987,-0.9095 0.629,-1.24673 0.2305,-0.33725 0.6912,-0.82447 1.024,-1.08272 0.333,-0.25826 0.9052,-0.59593 1.2717,-0.75038 0.3665,-0.15447 1.0491,-0.35099 1.5167,-0.43672 0.4676,-0.0857 1.1507,-0.15657 1.5183,-0.15741 0.3674,-9.4e-4 1.0092,0.0677 1.4259,0.15203 0.4168,0.0845 1.1257,0.29801 1.5755,0.47459 0.6094,0.23929 0.9299,0.30687 1.2585,0.2654 0.2424,-0.0306 0.4398,-0.0238 0.4384,0.0152 0,0.039 -0.3822,0.55634 -0.8469,1.14974 -0.4646,0.59338 -0.9109,1.09608 -0.992,1.11708 -0.086,0.0223 -0.1472,-0.0887 -0.1472,-0.26584 0,-0.16722 -0.1286,-0.43096 -0.2852,-0.5861 -0.1569,-0.15513 -0.5596,-0.3754 -0.8947,-0.4895 -0.3955,-0.13451 -0.9125,-0.20946 -1.4714,-0.21322 -0.6342,-0.004 -1.0269,0.0558 -1.4874,0.22773 -0.3443,0.12844 -0.8431,0.42059 -1.1086,0.64922 -0.2656,0.22862 -0.593,0.60955 -0.7278,0.84649 -0.1348,0.23694 -0.3132,0.773 -0.3966,1.19124 -0.082,0.41824 -0.1145,0.99569 -0.067,1.28323 0.046,0.28754 0.1815,0.75332 0.2993,1.03508 0.1455,0.34814 0.4307,0.68034 0.89,1.03686 0.4863,0.37767 0.8612,0.56631 1.3384,0.67355 0.3646,0.082 0.9909,0.14575 1.3919,0.14183 0.4555,-0.005 0.9922,-0.0969 1.4306,-0.24657 0.3861,-0.1317 0.7887,-0.33602 0.8949,-0.45407 0.1067,-0.11803 0.1932,-0.34348 0.1932,-0.501 0,-0.15752 0.058,-0.2864 0.1286,-0.2864 0.071,0 0.5447,0.40263 1.0539,0.89472 0.5091,0.49209 0.8953,0.9329 0.8582,0.97959 -0.037,0.0467 -0.1982,0.0862 -0.3577,0.0878 -0.16,0.002 -0.6433,0.18522 -1.0744,0.40803 -0.5037,0.26021 -1.1057,0.462 -1.6832,0.56422 -0.4948,0.0874 -2.0838,0.0648 -1.6688,0.14781 z M 34.733967,26.586678 c -1.797,0 -2.121,-0.0236 -2.121,-0.15468 0,-0.085 0.088,-0.15468 0.1942,-0.15468 0.1067,0 0.2559,-0.0898 0.3314,-0.19945 0.09,-0.13001 0.1372,-2.03256 0.1372,-5.46514 v -5.26568 l -0.265,-0.20624 c -0.146,-0.11343 -0.325,-0.20623 -0.3978,-0.20623 -0.072,0 -0.1325,-0.0729 -0.1325,-0.16201 0,-0.14479 0.4744,-0.15786 4.4739,-0.12322 3.9569,0.0343 4.5506,0.061 5.1368,0.23049 0.3648,0.10544 0.8767,0.29577 1.1379,0.42299 0.2612,0.1272 0.6436,0.3864 0.8494,0.57599 0.2061,0.18959 0.4807,0.53032 0.61,0.75718 0.1294,0.22686 0.2741,0.64447 0.3213,0.92804 0.054,0.32462 0.013,0.80203 -0.1235,1.28894 -0.1272,0.47304 -0.352,0.93228 -0.5774,1.18259 -0.2028,0.22507 -0.6234,0.56022 -0.9344,0.74478 -0.3112,0.18456 -0.8018,0.38502 -1.0904,0.44546 -0.2886,0.0604 -0.5245,0.1366 -0.5245,0.16924 0,0.0327 0.6916,1.10049 1.5371,2.37304 0.8455,1.27254 1.6508,2.36887 1.7897,2.43627 0.1387,0.0675 0.2523,0.18101 0.2523,0.25244 0,0.099 -0.504,0.12988 -2.121,0.12988 -1.7174,0 -2.1211,-0.0271 -2.1211,-0.14265 0,-0.0784 0.1195,-0.16692 0.2652,-0.19658 0.1459,-0.0296 0.2639,-0.13948 0.2625,-0.24404 0,-0.10456 -0.6213,-1.11815 -1.3774,-2.25242 l -1.3745,-2.06231 -1.3429,-0.0293 -1.3428,-0.0293 0.036,2.2464 0.036,2.2464 0.2984,0.10179 c 0.164,0.056 0.2982,0.16039 0.2982,0.232 0,0.0995 -0.5011,0.13023 -2.1211,0.13023 z m 3.6787,-6.82103 c 1.9298,-0.0314 2.2793,-0.0632 2.6705,-0.24241 0.2475,-0.11343 0.569,-0.33022 0.714,-0.48177 0.1833,-0.19129 0.2663,-0.44356 0.2709,-0.82493 0.013,-0.3338 -0.085,-0.68407 -0.2259,-0.89261 -0.1465,-0.21645 -0.4373,-0.41558 -0.7871,-0.53908 -0.4708,-0.16632 -0.8798,-0.19623 -2.7086,-0.19815 l -2.1543,-0.002 v 1.6087 1.60868 z m 31.7399,6.82103 c -1.6202,0 -1.9222,-0.0244 -1.9222,-0.15468 0,-0.085 0.087,-0.15468 0.1941,-0.15468 0.1068,0 0.256,-0.0898 0.3315,-0.19945 0.089,-0.12841 0.1371,-1.74197 0.1371,-4.52972 0,-3.79914 -0.024,-4.35016 -0.2082,-4.49233 -0.1157,-0.0891 -0.2637,-0.16203 -0.3313,-0.16203 -0.068,0 -0.1234,-0.0697 -0.1234,-0.15467 0,-0.13038 0.302,-0.15468 1.9222,-0.15468 1.6202,0 1.9222,0.0243 1.9222,0.15468 0,0.085 -0.055,0.15467 -0.1234,0.15467 -0.068,0 -0.2169,0.0729 -0.3316,0.16203 -0.1827,0.14217 -0.2083,0.69319 -0.2083,4.49233 0,2.78775 0.049,4.40131 0.1373,4.52972 0.075,0.1097 0.2248,0.19945 0.3315,0.19945 0.1067,0 0.1942,0.0697 0.1942,0.15468 0,0.13037 -0.302,0.15468 -1.9222,0.15468 z m 18.1302,0 c -1.5023,0 -1.7897,-0.0249 -1.7897,-0.15468 0,-0.085 0.087,-0.15468 0.1943,-0.15468 0.1067,0 0.2559,-0.0898 0.3314,-0.19945 0.089,-0.12832 0.1372,-1.72967 0.1372,-4.49022 v -4.29077 l -0.3315,-0.25779 c -0.1822,-0.14172 -0.3314,-0.3021 -0.3314,-0.35622 0,-0.0584 0.8628,-0.0984 2.1211,-0.0984 1.8164,0 2.1211,0.0227 2.1211,0.15791 0,0.0868 -0.09,0.18462 -0.1989,0.21727 -0.1093,0.0327 -0.1987,0.13559 -0.1986,0.22876 2e-4,0.0932 0.3133,0.56891 0.6959,1.05717 0.3826,0.48827 1.4712,1.84932 2.4192,3.02454 l 1.7232,2.13681 0.036,-3.12766 0.036,-3.12765 -0.2685,-0.17121 c -0.1476,-0.0941 -0.2684,-0.22177 -0.2684,-0.28357 0,-0.0753 0.5682,-0.11237 1.7234,-0.11237 1.2972,0 1.7233,0.0321 1.7233,0.12987 0,0.0714 -0.1195,0.18786 -0.2652,0.25866 l -0.2651,0.1288 v 4.42467 c 0,2.43356 0.036,4.49807 0.08,4.58778 0.044,0.0897 0.1636,0.1631 0.2652,0.1631 0.1016,0 0.1848,0.0697 0.1848,0.15468 0,0.13013 -0.2948,0.15468 -1.856,0.15468 -1.5613,0 -1.8559,-0.0246 -1.8559,-0.15468 0,-0.085 0.061,-0.15468 0.1324,-0.15468 0.073,0 0.1326,-0.0982 0.1326,-0.21821 0,-0.12002 -1.1781,-1.61493 -2.6181,-3.32191 l -2.6182,-3.10369 -0.035,3.18063 c -0.026,2.26094 0.013,3.22147 0.1157,3.32191 0.082,0.0777 0.2329,0.14127 0.3333,0.14127 0.1003,0 0.1827,0.0697 0.1827,0.15468 0,0.12984 -0.2873,0.15468 -1.7896,0.15468 z m 12.097703,0 c -0.945103,-0.022 -1.458203,-0.0397 -1.458203,-0.10675 0,-0.0588 0.084,-0.20952 0.1867,-0.33512 0.1028,-0.12562 0.8258,-1.66685 1.607103,-3.42498 0.7813,-1.75813 1.6256,-3.68002 1.876,-4.27086 0.3474,-0.81945 0.4349,-1.16803 0.3696,-1.4694 l -0.086,-0.39513 h 1.8028 1.8027 l -0.076,0.38669 c -0.064,0.31658 0.1627,0.91947 1.2449,3.32548 0.7273,1.61634 1.5734,3.49562 1.8808,4.17619 0.3074,0.68057 0.6427,1.36499 0.7453,1.52096 0.1028,0.15596 0.2446,0.28356 0.3157,0.28356 0.071,0 0.1291,0.0697 0.1291,0.15468 0,0.12984 -0.2872,0.15468 -1.7897,0.15468 -0.9843,0 -1.7895,-0.0407 -1.7895,-0.0906 0,-0.0498 0.09,-0.14825 0.1988,-0.21885 0.1092,-0.0706 0.1991,-0.20389 0.1996,-0.2962 0,-0.0923 -0.1936,-0.59692 -0.4309,-1.12145 l -0.4315,-0.95362 h -2.1269 -2.1268 l -0.4396,1.01682 c -0.3535,0.81771 -0.4107,1.05867 -0.2924,1.23061 0.08,0.11757 0.1472,0.26324 0.1472,0.32367 0,0.10173 -0.5764,0.13018 -1.4588,0.10962 z m 5.8327,-3.97321 c 0.03,0 -0.3362,-1.01614 -0.7473,-2.19122 -0.4111,-1.17508 -0.7861,-2.17078 -0.8337,-2.21271 -0.048,-0.0419 -0.2498,0.37571 -0.4494,0.92805 -0.1999,0.55234 -0.5686,1.53788 -0.8195,2.19008 -0.251,0.65221 -0.4581,1.22064 -0.4603,1.26318 1.7719,0.0173 1.4894,0.0224 3.3102,0.0226 z m 71.7386,3.97321 c -1.1044,-0.0221 -1.7895,-0.0395 -1.7895,-0.10312 0,-0.0567 0.1208,-0.19593 0.2651,-0.30934 0.257,-0.19977 0.2652,-0.34374 0.2652,-4.58866 0,-4.24494 -0.013,-4.38889 -0.2652,-4.58865 -0.1458,-0.11344 -0.2651,-0.25564 -0.2651,-0.31598 0,-0.0759 1.2762,-0.0998 4.1426,-0.0773 3.8759,0.0303 4.1809,0.0462 4.7391,0.2481 0.3282,0.11863 0.7934,0.34509 1.0338,0.50322 0.2406,0.15815 0.5796,0.50567 0.7532,0.77227 0.1737,0.26659 0.3565,0.76428 0.4062,1.10598 0.065,0.44949 0.029,0.78418 -0.1299,1.21062 -0.1684,0.45041 -0.3828,0.71808 -0.9098,1.13517 -0.4523,0.35806 -0.9175,0.61009 -1.3523,0.73273 -0.3647,0.10281 -0.6828,0.19795 -0.7068,0.2114 -0.024,0.0135 0.5612,0.80566 1.3006,1.76045 0.7396,0.9548 1.4603,1.81304 1.6016,1.9072 0.1413,0.0941 0.257,0.22176 0.257,0.28357 0,0.0755 -0.5868,0.11236 -1.7895,0.11236 -1.0424,0 -1.7897,-0.041 -1.7897,-0.098 0,-0.0539 0.1016,-0.14225 0.2259,-0.19634 0.1963,-0.0855 0.2037,-0.13677 0.057,-0.39181 -0.094,-0.16139 -0.6809,-0.95473 -1.3062,-1.76287 l -1.137,-1.46939 h -1.1732 -1.1732 v 1.64985 c 0,1.51236 0.023,1.66704 0.2652,1.85609 0.1456,0.11342 0.2651,0.25264 0.2651,0.30935 0,0.0637 -0.6852,0.1252 -1.7897,0.10311 z m 3.2811,-5.38471 c 1.3892,-0.0346 2.17,-0.0995 2.4964,-0.20754 0.2611,-0.0866 0.6041,-0.28515 0.7621,-0.44144 0.2251,-0.22247 0.2875,-0.42375 0.2875,-0.92663 0,-0.50289 -0.063,-0.70419 -0.2875,-0.92663 -0.158,-0.15632 -0.501,-0.356 -0.7621,-0.44376 -0.3331,-0.11191 -1.0786,-0.17352 -2.4964,-0.20627 l -2.0217,-0.0467 v 1.62464 1.62462 z m 10.3461,5.38471 c -1.4037,0 -1.8559,-0.0316 -1.8559,-0.12988 0,-0.0715 0.1209,-0.18782 0.2652,-0.25866 l 0.265,-0.1288 v -4.48378 -4.48379 l -0.265,-0.1288 c -0.1458,-0.0708 -0.2652,-0.18725 -0.2652,-0.25866 0,-0.0982 0.4522,-0.12987 1.8559,-0.12987 1.4038,0 1.856,0.0316 1.856,0.12987 0,0.0714 -0.1209,0.18782 -0.2652,0.25866 l -0.2651,0.1288 v 4.48379 4.48378 l 0.2651,0.1288 c 0.1457,0.0708 0.2652,0.18723 0.2652,0.25866 0,0.0982 -0.4522,0.12988 -1.856,0.12988 z m 8.5168,0 c -1.1953,-0.11953 -1.7233,-0.0356 -1.7233,-0.11753 0,-0.0646 0.1041,-0.17688 0.2321,-0.24941 0.2137,-0.12162 0.2319,-0.43908 0.2319,-4.08445 v -3.95255 l -1.3859,-0.0296 c -1.2221,-0.0261 -1.4289,-0.005 -1.7511,0.18045 -0.2009,0.11553 -0.4273,0.21008 -0.5031,0.21008 -0.088,0 -0.138,-0.43327 -0.138,-1.18584 0,-0.78859 0.048,-1.18583 0.1448,-1.18583 0.08,0 0.2966,0.0928 0.4819,0.20623 0.3207,0.19628 0.5378,0.20624 4.4962,0.20624 3.9951,0 4.1681,-0.009 4.3862,-0.20624 0.1247,-0.11342 0.3032,-0.20623 0.3963,-0.20623 0.1286,0 0.1694,0.30188 0.1694,1.2374 0,0.68056 -0.049,1.23739 -0.1092,1.23739 -0.06,0 -0.2496,-0.11602 -0.4208,-0.2578 -0.2948,-0.24418 -0.387,-0.25779 -1.7465,-0.25779 h -1.4351 v 3.9626 c 0,3.3848 0.028,3.98514 0.1989,4.11726 0.1093,0.085 0.1988,0.20439 0.1988,0.26517 0,0.0729 -0.5917,0.22363 -1.7232,0.11048 z m 12.524,0 c -1.0899,0 -1.657,-0.0378 -1.657,-0.11049 0,-0.0608 0.09,-0.18009 0.1989,-0.26515 0.1635,-0.1273 0.1987,-0.52294 0.1982,-2.2354 v -2.08074 l -1.7324,-2.26854 c -0.9528,-1.24768 -1.8578,-2.37296 -2.0111,-2.50056 -0.1532,-0.1276 -0.3876,-0.23201 -0.5206,-0.23201 -0.133,0 -0.242,-0.0697 -0.242,-0.15467 0,-0.13062 0.3095,-0.15468 1.9886,-0.15468 1.611,0 1.9882,0.0272 1.9882,0.14365 0,0.079 -0.09,0.17035 -0.1988,0.20299 -0.1093,0.0327 -0.1988,0.14365 -0.1988,0.24667 0,0.10302 0.453,0.81211 1.0067,1.57574 0.5536,0.76364 1.0816,1.44945 1.1733,1.52403 0.1353,0.11021 0.3568,-0.1387 1.183,-1.32957 0.5589,-0.80585 1.0513,-1.57406 1.0942,-1.70714 0.054,-0.16724 0.013,-0.26161 -0.1346,-0.30554 -0.1182,-0.035 -0.2131,-0.1282 -0.2131,-0.20718 0,-0.11595 0.3579,-0.14365 1.8559,-0.14365 1.1788,0 1.8558,0.0386 1.8558,0.10567 0,0.0581 -0.142,0.1477 -0.3157,0.19908 -0.1737,0.0514 -0.4326,0.22422 -0.5751,0.38412 -0.1428,0.1599 -0.955,1.24341 -1.8052,2.40786 l -1.5459,2.11717 v 2.18185 c 0,1.34334 0.051,2.20634 0.1326,2.24558 0.073,0.0351 0.1326,0.1306 0.1326,0.21232 0,0.12145 -0.3027,0.14859 -1.6572,0.14859 z m 52.9214,0 c -0.9843,0 -1.7895,-0.0411 -1.7895,-0.0912 0,-0.0502 0.1496,-0.16758 0.3327,-0.26087 l 0.3329,-0.16962 -0.035,-4.50824 -0.035,-4.50822 -0.2984,-0.10179 c -0.1639,-0.0559 -0.2982,-0.1604 -0.2982,-0.23202 0,-0.0996 0.5139,-0.13022 2.1872,-0.13022 1.7812,0 2.1873,0.0267 2.1873,0.14365 0,0.0789 -0.09,0.17034 -0.1988,0.20298 -0.1093,0.0327 -0.1989,0.16787 -0.1989,0.30049 0,0.13427 1.0322,1.51804 2.3289,3.12247 1.2809,1.58478 2.3847,2.92546 2.4524,2.97934 0.076,0.0606 0.1234,-1.07323 0.1234,-2.97137 0,-1.91855 -0.051,-3.14408 -0.1372,-3.26876 -0.076,-0.1097 -0.2245,-0.19945 -0.3314,-0.19945 -0.1067,0 -0.1942,-0.0697 -0.1942,-0.15468 0,-0.12955 0.2798,-0.15467 1.7234,-0.15467 1.0605,0 1.7233,0.0396 1.7233,0.10312 0,0.0567 -0.1208,0.19591 -0.265,0.30935 -0.257,0.19983 -0.2651,0.34371 -0.2651,4.63933 v 4.4331 l 0.2651,0.1288 c 0.1457,0.0708 0.265,0.18724 0.265,0.25866 0,0.098 -0.4391,0.12988 -1.7896,0.12988 -1.38,0 -1.7897,-0.0307 -1.7897,-0.13405 0,-0.0738 0.062,-0.18187 0.1367,-0.24032 0.077,-0.0608 0.092,-0.19646 0.033,-0.31694 -0.058,-0.11586 -1.237,-1.56158 -2.6222,-3.21269 -1.3853,-1.65113 -2.5634,-3.00265 -2.6182,-3.00341 -0.055,-9.3e-4 -0.099,1.36449 -0.099,3.03384 0,1.72257 0.055,3.14959 0.1293,3.29972 0.069,0.14548 0.2201,0.26449 0.3315,0.26449 0.1118,0 0.2019,0.0697 0.2019,0.15468 0,0.12984 -0.2872,0.15468 -1.7895,0.15468 z m 25.9881,0 c 1.548,0.0155 -1.9221,-0.0278 -1.9221,-0.14265 0,-0.0784 0.1157,-0.16597 0.2547,-0.19446 0.1834,-0.0373 0.2783,-0.17779 0.3387,-0.50184 0.045,-0.2475 0.067,-2.27543 0.042,-4.5065 l -0.041,-4.05648 -0.2982,-0.18779 c -0.1641,-0.10328 -0.2983,-0.23835 -0.2983,-0.30015 0,-0.0759 0.6236,-0.11237 1.9222,-0.11237 1.0573,0 1.9222,0.041 1.9222,0.0912 0,0.0502 -0.1491,0.16722 -0.3315,0.26016 l -0.3315,0.16892 v 4.48078 4.48078 l 0.3315,0.16891 c 0.1823,0.0929 0.3315,0.20997 0.3315,0.26017 0,0.0503 -0.8649,0.0913 -1.9222,0.0913 z"
     id="path30"
     sodipodi:nodetypes="sssssssssssssscscccccsssssccccccccssssssssscssssssscccccccsssccsssscssssssssscccccssssscccccsscssccccssscccssssscccsscssccssssscscsssssssssssssscssscsssssscccssssssssssssssssssssssssccsssssssscssssssssscsssscssscssssssssscssssssssssscssssssccsssssssssscsscscccssssssssssssscssssssssssssssssscsssssssccssscssssssssscccssssssssscccssssccssssscccssssccssssscscssssssssssssccssssscsscssscssscsssssssssssssssscssssssssssscssssssssscssscsssscssscssssccsssssscssssccssssscccssssccssssscscsssssssscsssssssssccssscscsssscssssssscscssssssssscsssssssssscscccccssssssscssscccscsscssssssssscsscccsscscsssssssccccssssscssssssssscccssccssssscccccsssssssscscccscssssssscssscscsssssccssssssssscscccsssssssssssscccsssccccssssccccssssscscssssssscssssscscsssscsccssssssssssssssssssscsssssccscccsssssssssssssscscssssccssscsscccsscccssssscccssccs" /></svg>
