<svg xmlns="http://www.w3.org/2000/svg" xmlns:xlink="http://www.w3.org/1999/xlink" width="3256.623" height="553.962" viewBox="0 0 861.648 146.569" xmlns:v="https://vecta.io/nano"><style><![CDATA[.B{font-family:MONKEYSAFARI SAFE DEMO}.C{fill:#e3eb2a}.D{font-size:76.206px}.E{font-size:35.837px}.F{color-interpolation-filters:sRGB}]]></style><defs><filter id="A" x="-.009" y="-.235" width="1.019" height="1.47" class="F"><feGaussianBlur stdDeviation="2.51"/></filter><filter id="B" x="-.009" y="-.111" width="1.019" height="1.222" class="F"><feGaussianBlur stdDeviation="2.51"/></filter><path id="C" d="M90.027 443.345l-.068 19.623-4.178-23.696-4.178-23.696.09-.09.09-.09 4.156 4.162 4.156 4.162zm-3.353 9.572l-.419-.032-3.175-.336-3.175-.336-2.707-.693-2.707-.693-2.453-.817-2.453-.817-2.91-1.34-2.91-1.34-2.438-1.477-2.438-1.477-2.059-1.508-2.059-1.508-1.427-1.336-1.427-1.336h-.044-.044l-1.307-1.265-1.307-1.265-1.601-1.844-1.601-1.844-.781-1.052-.781-1.052-1.392-2.123-1.392-2.123-1.555-3.043-1.555-3.043-.977-2.624-.977-2.624-.779-2.932-.779-2.932-.391-2.894-.391-2.894v-1.03-1.03l.728.148.728.148 4.081.679 4.081.679.18.111.18.111.337 2.059.337 2.059.639 2.514.639 2.514.297.794.297.794 1.393 3.081 1.393 3.081 1.381 2.211 1.381 2.211.633.794.633.794.968 1.191.968 1.191 2.131 2.129 2.131 2.129 1.865 1.478 1.865 1.478 2.399 1.491 2.399 1.491 2.748 1.211 2.748 1.211.794.352.794.352 3.175.797 3.175.797 1.66.184 1.66.184.193.296.193.296.815 4.829.815 4.829zm7.85-.067l-.728.142v-.176-.176l.669-4.409.669-4.409.121-.558.121-.558 1.79-.183 1.79-.183 3.147-.794 3.147-.794 2.012-.829 2.012-.829 2.381-1.231 2.381-1.231 1.871-1.202 1.871-1.202 2.362-1.984 2.362-1.984 1.323-1.431 1.323-1.431.926-1.048.926-1.048.687-.926.687-.926 1.409-2.249 1.409-2.249 1.538-3.404 1.538-3.404.769-2.946.769-2.946.331-2.058.331-2.058.183-.113.183-.113 4.841-.816 4.841-.816.053.076.053.076-.352 3.175-.352 3.175-.424 1.984-.424 1.984-1.169 3.572-1.169 3.572-1.536 3.175-1.536 3.175-1.4 2.249-1.4 2.249-1.082 1.455-1.082 1.455-1.451 1.72-1.451 1.72-1.63 1.587-1.63 1.587-.902.823-.902.823-2.427 1.823-2.427 1.823-2.728 1.62-2.728 1.62-2.646 1.196-2.646 1.196-2.514.841-2.514.841-3.043.741-3.043.741-2.381.178-2.381.178zm22.808-28.66l-.12.1-7.673-5.398-7.673-5.398-.397-.232-.397-.232 1.18-1.206 1.18-1.206h.278.278l6.733 6.737 6.733 6.737zm-54.279-.344h-.191l5.59-8.004 5.59-8.004.093-.116.093-.116 1.185 1.163 1.185 1.163v.267.267l-6.677 6.69-6.677 6.69zm37.814-.897l-.077.077-.983-1.573-.983-1.573v-.716-.716l.253.253.253.253.808 1.958.808 1.958zm-21.524-.183l-.165.154.149-.529.149-.529.726-3.369.726-3.369.117.117.117.117.201 1.099.201 1.099-1.029 2.528-1.029 2.528zm10.893.022h-.277l-1.95-2.05-1.95-2.05-6.965-7.011-6.965-7.011 1.472-2.249 1.472-2.249.111-.12.111-.12 7.537 7.529 7.537 7.529 5.916-5.953 5.916-5.953 1.571-1.533 1.571-1.533 1.523 2.288 1.523 2.288-.615.7-.615.7-8.322 8.401-8.322 8.401zM63.47 413.79h-.109l.768-1.521.768-1.521 1.453-3.043 1.453-3.043 1.589-3.307 1.589-3.307 2.809-5.778 2.809-5.778v-.074-.074l2.996-6.187 2.996-6.187 1.563-3.279 1.563-3.279.16.766.16.766.576 1.122.576 1.122 1.049 1.624 1.049 1.624-.175.297-.175.297-2.159 3.307-2.159 3.307-2.6 3.969-2.6 3.969-2.429 3.704-2.429 3.704-3.384 5.159-3.384 5.159-2.108 3.241-2.108 3.241zm26.552 0h-.069l-4.032-4.038-4.032-4.038 4.101-4.095 4.101-4.095v8.133 8.133zm26.172-.794h-.078l-2.862-4.564-2.862-4.564-2.186-3.44-2.186-3.44-5.35-8.599-5.35-8.599-1.911-3.043-1.911-3.043-1.405-2.249-1.405-2.249-.507-.898-.507-.898-.15-1.264-.15-1.264.568-.919.568-.919.939-.445.939-.445 1.039.176 1.039.176 1.061 1.205 1.061 1.205v.226.226l.926 2.005.926 2.005v.087.087l1.029 2.209 1.029 2.209 3.235 7.144 3.235 7.144 1.395 3.043 1.395 3.043 1.989 4.366 1.989 4.366 1.112 2.381 1.112 2.381.213.529.213.529.943 2.051.943 2.051zm-.041-5.067l-.265-.021-.529-.127-.529-.127-.251-.239-.251-.239.384.009.384.009.661.378.661.378zm-51.952-.489h-.161l.973-.661.973-.661h.146.146v.261.261l-.958.4-.958.4zm46.219-.82l-.617-.026-.661-.2-.661-.2.707-.194.707-.194.462.09.462.09.11.331.11.331zm-1.195-1.032h-.678l.313-.377.313-.377-1.757-2.798-1.757-2.798h-.173-.173l-3.05 3.042-3.05 3.042-4.097-4.105-4.097-4.105 7.13.07 7.13.07 2.464 3.923 2.464 3.923-.151.244-.151.244zm4.898-.87l-.706.134-.388-.756-.388-.756-1.353-2.969-1.353-2.969v-.14-.14h.339.339l.987 2.174.987 2.174 2.187-2.175 2.187-2.175 19.751.068 19.751.068-20.816 3.666-20.816 3.666zm-46.477-4.693l-.178-.007-3.871-4.028-3.871-4.028 3.729-.074 3.729-.074 1.543 1.543 1.543 1.543-1.223 2.565-1.223 2.565zm45.395.007h-.155l-1.223-2.565-1.223-2.565 1.543-1.543 1.543-1.543 3.73.074 3.73.074-3.895 4.035-3.895 4.035zM43.64 396.57l-19.563-.023 25.135-4.472 25.135-4.472.471.063.471.063-2.12 4.366-2.12 4.366-.42.089-.42.089.447-.864.447-.864-1.982-1.938-1.982-1.938h-4.591-4.591l1.851 1.918 1.851 1.918.771.86.771.86zm39.11.023h-6.938l2.625-4.03 2.625-4.03.217-.072.217-.072 4.095 4.102 4.095 4.102zm12.104-4.63l-4.233 4.227v-11.096-11.096l.223.251.223.251 4.01 6.436 4.01 6.436v.181.181zm-60.147 1.57l-.748.144.134-.725.134-.725.317-3.043.317-3.043.637-2.597.637-2.597 1.023-2.991 1.023-2.991 1.7-3.409 1.7-3.409 1.287-1.984 1.287-1.984 1.603-2.111 1.603-2.111 2.646-2.667 2.646-2.667 1.059-.911 1.059-.911 1.455-1.096 1.455-1.096 2.294-1.486 2.294-1.486 2.98-1.475 2.98-1.475 2.399-.867 2.399-.867 2.429-.698 2.429-.698 3.605-.53 3.605-.53h1.044 1.044l-.017.595-.017.595-.857 4.351-.857 4.351-3.245.604-3.245.604-2.694.828-2.694.828-3.232 1.563-3.232 1.563-2.721 1.834-2.721 1.834-2.131 1.933-2.131 1.933-1.441 1.588-1.441 1.588-1.363 1.852-1.363 1.852-1.332 2.151-1.332 2.151-.446 1.024-.446 1.024-.894 2.109-.894 2.109-.692 2.522-.692 2.522-.447 2.771-.447 2.771-4.351.72-4.351.72zm111.914.042l-.041.025-2.646-.476-2.646-.476-2.398-.431-2.398-.431-.329-2.293-.329-2.293-.662-2.646-.662-2.646-1.345-3.175-1.345-3.175-1.596-2.646-1.596-2.646-1.208-1.587-1.208-1.587-1.446-1.587-1.446-1.587-2.129-1.944-2.129-1.944-3.307-2.191-3.307-2.191-2.669-1.207-2.669-1.207-1.035-.383-1.035-.383-1.984-.558-1.984-.558-2.887-.528-2.887-.528-.04-.068-.04-.068-.847-4.498-.847-4.498.004-.331.004-.331h1.044 1.044l3.601.529 3.601.529 2.301.648 2.301.648 2.525.903 2.525.903 2.984 1.488 2.984 1.488 2.296 1.488 2.296 1.488 1.455 1.096 1.455 1.096 1.059.913 1.059.913 2.648 2.659 2.648 2.659 1.676 2.208 1.676 2.208 1.579 2.506 1.579 2.506 1.273 2.694 1.273 2.694.956 2.646.956 2.646.675 2.514.675 2.514.266 2.117.266 2.117.229 2.117.229 2.117zm-33.951-5.185h-.724l.251-.238.251-.238 1.946-.82 1.946-.82.171.006.171.006-1.644 1.053-1.644 1.053zm-42.158-.471l-.926.13-2.59-1.054-2.59-1.054.079-.079.079-.079 3.776.825 3.776.825-.339.177-.339.177zm35.046-.857l-.276.005-.717-1.461-.717-1.461v-.327-.327l6.815-6.811 6.815-6.811h.184.184l-6.007 8.594-6.007 8.594zm-28.322-3.78l-.244.082-6.812-6.815-6.812-6.815v-.187-.187l7.607 5.32 7.607 5.32.103.087.103.087-.654 1.514-.654 1.514zm23.034-7.364l-.113.113-.23-.622-.23-.622.789-1.938.789-1.938.081.081.081.081-.527 2.366-.527 2.366zm-18.619-1.612l-.258.457-.413-.992-.413-.992-.397-.958-.397-.958.006-.166.006-.166 1.063 1.659 1.063 1.659zm15.952-4.202l-.088.103-.248-.632-.248-.632-1.068-2.38-1.068-2.38-.704-.882-.704-.882-.832-.507-.832-.507-.595-.001-.595-.001.036-15.412.036-15.412.106.532.106.532 3.393 19.179 3.393 19.179z"/><path id="D" d="M90.386 466.178h-.162l-.896-5.167-.896-5.167.125-.125.125-.125.677 3.771.677 3.771.027-19.715.027-19.715-4.233-4.227-4.233-4.227.001.261.001.261.66 3.691.66 3.691-.027.411-.027.411-.243-.926-.243-.926-.075-.72-.075-.72-.169-.168-.169-.168-.796 1.286-.796 1.286-.932 1.455-.932 1.455-.008-.397-.008-.397 1.102-5.027 1.102-5.027.219-.249.219-.249 4.636 4.609 4.636 4.609 4.742-4.737 4.742-4.737.152.642.152.642 1.056 4.734 1.056 4.734-.005.425-.005.425-.797-1.269-.797-1.269.138-.223.138-.223-.803-1.946-.803-1.946-.253-.253-.253-.253v.727.727l.941 1.471.941 1.471-.117.117-.117.117-.863-1.402-.863-1.402-.207.529-.207.529-1.898 10.98-1.898 10.98-1.822 10.186-1.822 10.186-.171 1.257-.171 1.257zm-11.043-43.413l.165-.154 1.029-2.528 1.029-2.528-.201-1.099-.201-1.099-.117-.117-.117-.117-.726 3.369-.726 3.369-.149.529-.149.529zm9.061 32.489l-.165.165.004-.243.004-.243-1.058-5.953-1.058-5.953-1.612-9.2-1.612-9.2.098-.293.098-.293 2.733 15.524 2.733 15.524zm-3.472-2.38l-1.323-.004.731-.111.731-.111.592.114.592.114zm10.848 0l-1.323-.004.731-.111.731-.111.592.114.592.114zm-13.229-.24l-.794-.01.468-.122.468-.122.326.132.326.132zm4.525-.02l-.16.16.021-.507.021-.507.139.347.139.347zm11.085.02l-.794-.01.468-.122.468-.122.326.132.326.132zm-4.206-.814l-.16.16.021-.507.021-.507.139.347.139.347zm-7.144-.794l-.16.16.021-.507.021-.507.139.347.139.347zm7.408-1.058l-.16.16.021-.507.021-.507.139.347.139.347zm-7.673-.529l-.16.16.021-.507.021-.507.139.347.139.347zm7.938-1.058l-.16.16.021-.507.021-.507.139.347.139.347zm-8.202-.529l-.16.16.021-.507.021-.507.139.347.139.347zm8.467-1.323l-.16.16.021-.507.021-.507.139.347.139.347zm-8.731-.265l-.16.16.021-.507.021-.507.139.347.139.347zm8.996-1.323l-.16.16.021-.507.021-.507.139.347.139.347zm-9.26-.265l-.16.16.021-.507.021-.507.139.347.139.347zm-1.747-2.106h-.926l.463-.121.463-.121.463.121.463.121zm12.965.02h-.661l.331-.133.331-.133.331.133.331.133zm-15.081-.265h-.661l.331-.133.331-.133.331.133.331.133zm16.933 0h-.661l.331-.133.331-.133.331.133.331.133zm-18.146-.244l-.507-.021.347-.139.347-.139.16.16.16.16zm19.315 0l-.507-.021.347-.139.347-.139.16.16.16.16zm-23.394-1.071l-.397-.009-.397-.149-.397-.149-.632-.234-.632-.234.118-.118.118-.118 1.307.51 1.307.51zm27.441.019l-.321-.014 1.71-.635 1.71-.635.094.094.094.094-1.483.555-1.483.555zm-49.492-.515h-.091l-.504-.595-.504-.595.595.504.595.504v.091.091zm19.274-.549l-.265-.004-.794-.382-.794-.382.661.162.661.162.397.225.397.225zm33.867-.253h-.265l.397-.256.397-.256h.265.265l-.397.256-.397.256zm1.44-.521h-.249v-.104-.104l.411-.158.411-.158-.162.262-.162.262zm18.901-.265h-.1v-.1-.1l.463-.363.463-.363-.363.463-.363.463zm-57.404-.268l-.243-.004-1.984-1.076-1.984-1.076-.265-.271-.265-.271 2.381 1.263 2.381 1.263.11.087.11.087zm39.41.004h-.185l.11-.1.11-.1 1.389-.698 1.389-.698v.132.132l-1.314.666-1.314.666zm-58.65-1.058h-.08l-.912-.992-.912-.992.992.912.992.912v.08.08zm62.522-.926l-.794.41v-.132-.132l.794-.41.794-.41v.132.132zm-49.041-1.191h-.093l-1.098-.795-1.098-.795v-.147-.147l1.191.855 1.191.855v.087.087zm51.65-.45l-.889.541.265-.268.265-.268 2.117-1.558 2.117-1.558 2.778-2.793 2.778-2.793 1.191-1.676 1.191-1.676.483-.563.483-.563-.195.397-.195.397-.946 1.323-.946 1.323-.93 1.051-.93 1.052-1.522 1.618-1.522 1.618-2.351 1.929-2.351 1.929zm-67.532.185h-.1l-.363-.463-.363-.463.463.363.463.363v.1.1zm13.256-1.587h-.073l-1.316-1.211-1.316-1.211 1.389 1.12 1.389 1.12v.091.091zm-15.108-.529h-.1l-.363-.463-.363-.463.463.363.463.363v.1.1zm86.454 0h-.1v-.1-.1l.463-.363.463-.363-.363.463-.363.463zm-74.285-1.927l-.074.074-1.832-1.918-1.832-1.918-.988-1.191-.988-1.191-.822-1.058-.822-1.058-.249-.463-.249-.463h.098.098l1.751 2.345 1.751 2.345 2.115 2.211 2.115 2.211zm1.785-4.952h-.14l.088-.21.088-.21 6.433-9.183 6.433-9.183h.146.146l-.473.728-.473.728-5.236 7.474-5.236 7.474h.197.197l6.783-6.813 6.783-6.813 1.379 1.539 1.379 1.539-.233.212-.233.212-8.944 6.252-8.944 6.252zm58.444-.026l-.198-.026-9.053-6.39-9.053-6.39-.207-.251-.207-.251.794.495.794.495 7.474 5.236 7.474 5.236v-.195-.195l-6.823-6.804-6.823-6.804 1.498-1.483 1.498-1.483 6.515 9.302 6.515 9.302v.116.116zm-68.188-4.472h-.128l-1.197-2.045-1.197-2.045.001-.27.001-.27.475.794.475.794.85 1.521.85 1.521zm78.13-.135l-.289.268.691-1.205.691-1.205.794-1.441.794-1.441.005.271.005.271-1.201 2.107-1.201 2.107zm-43.351-2.775h-.132l-5.552-5.556-5.552-5.556h.132.132l5.552 5.556 5.552 5.556zm-38.164-3.547l-.11.11-.308-.675-.308-.675.011-.186.011-.186.407.751.407.751zm85-.157l-.256.397v-.265-.265l.256-.397.256-.397v.265.265zm-42.59-.265h-.132l3.167-3.175 3.167-3.175h.132.132l-3.167 3.175-3.167 3.175zm-.141-.794h-.271l-3.815-3.822-3.815-3.822-.172.106-.172.106v-.404-.404l4.057 4.051 4.057 4.051v-8.196-8.196l-4.101 4.094-4.101 4.094-3.404-3.396-3.404-3.396-1.876 2.87-1.876 2.87.809.834.809.834-.489.135-.489.135-1.403.317-1.403.317-.082-.096-.082-.096 3.377-5.159 3.377-5.159 6.917-.132 6.917-.132-4.192-4.163-4.192-4.163.322-.335.322-.335 4.033-6.214 4.033-6.214.1-.4.1-.4-1.737-2.778-1.737-2.778-.415-1.416-.415-1.416-.188.225-.188.225-1.439 3.08-1.439 3.08-.082-.215-.082-.215 1.742-9.876 1.742-9.876 1.034-5.689 1.034-5.689 1.142-6.68 1.142-6.68h.132.132l.896 5.167.896 5.167-.125.125-.125.125-.677-3.771-.677-3.771-.027 15.412-.027 15.412-.463.001-.463.001-1.006.609-1.006.609-.513.778-.513.778-.002 1.494-.002 1.494.749 1.416.749 1.416 1.247 1.938 1.247 1.938-.013 11.159-.013 11.159 4.367-4.382 4.367-4.382v.216.216l2.678 4.298 2.678 4.298.346.397.346.397-7.191-.073-7.191-.073 4.098 4.108 4.098 4.108-4.36 4.366-4.36 4.366zm-43.09-.61l-.092.092-.422-1.13-.422-1.13-.148-.794-.148-.794.662 1.832.662 1.832zm86.855-.846l-.498 1.058.168-.661.168-.661.489-1.323.489-1.323-.159.926-.159.926zm10.768-.204l-.16.16.021-.507.021-.507.139.347.139.347zm-29.396-.458h-.101l-.136-.22-.136-.22h.374.374l-.136.22-.136.22zm-69.822-3.247l-.16.16.021-.507.021-.507.139.347.139.347zm16.377.055l-.529.006 1.191-.739 1.191-.739.529-.024.529-.024.659-.206.659-.206-.417.628-.417.628-1.433.334-1.433.334zm56.753-.02l-.661-.022-1.588-.382-1.588-.382-.247-.245-.247-.245.906.26.906.26.134-.009.134-.009-.661-.378-.661-.378-.463-.009-.463-.009v-.341-.341l-.467-.916-.467-.916.665-.012.665-.012 1.455-.171 1.455-.171-1.662.347-1.662.347-.152.152-.152.152 1.286.796 1.286.796 1.455.932 1.455.932zm-21.646-.493h-.132l.479-.529.479-.529h.132.132l-.479.529-.479.529zm38.579-1.191l-.227.529.008-.397.008-.397.212-.661.212-.661.008.529.008.529zm-71.346.124l-.224-.008.529-.409.529-.409.728-.384.728-.384v.419.419l-.266-.165-.266-.165-.767.546-.767.546zm46.806-.015l-.198-.024-.794-.213-.794-.213-.751-.171-.751-.171.32-.386.32-.386h.708.708l.282-.282.282-.282.159.415.159.415-.719.004-.719.004-.365.231-.365.231 1.083.183 1.083.183.274-.17.274-.17v.412.412zm-4.729-.241h-.1v-.1-.1l.463-.363.463-.363-.363.463-.363.463zm-61.308-.463l-.133.331v-.661-.661l.133.331.133.331zm-10.319-.265l-.133.331v-.661-.661l.133.331.133.331zm111.39 0l-.133.331v-.661-.661l.133.331.133.331zm-38.764-.331h-.132l.621-.661.621-.661h.132.132l-.621.661-.621.661zm-7.366-.529h-.083v-.083-.083l.86-.777.86-.777-.777.86-.777.86zm-33.346-.286l-.207-.022-10.98-1.978-10.98-1.978-5.159-.872-5.159-.872-6.548-1.163-6.548-1.163-.001-.146-.001-.146 2.712-.445 2.712-.445 3.704-.675 3.704-.675 5.953-1.032 5.953-1.032 9.922-1.75 9.922-1.75.661-.211.661-.211-1.323-.822-1.323-.822-1.455-.932-1.455-.932.414-.007.414-.007 5.407 1.216 5.407 1.216.606.008.606.008.154-.154.154-.154-6.79-9.702-6.79-9.702.107-.107.107-.107 8.817 6.175 8.817 6.175.103.381.103.381-.219-.288-.219-.288-7.607-5.325-7.607-5.325v.195.195l6.945 6.924 6.945 6.924-.926 1.987-.926 1.987-.529.019-.529.019-25.135 4.467-25.135 4.467 19.563.023 19.563.023-.65-.728-.65-.728 2.873 2.977 2.873 2.977h.244.244l1.039-2.249 1.039-2.249h.389.389l-2.084 4.233-2.084 4.233zm3.894-17.118l.926-.13.339-.177.339-.177-3.776-.825-3.776-.825-.079.079-.079.079 2.59 1.054 2.59 1.054zm65.526 16.946l-.132.326.01-.794.01-.794.122.468.122.468zm-91.295-.143l-.16.16.021-.507.021-.507.139.347.139.347zm-10.305-.386l-.132.326.01-.794.01-.794.122.468.122.468zm111.919 0l-.132.326.01-.794.01-.794.122.468.122.468zm-28.43-.092l-.451-.021.265-.102.265-.102 15.093-2.656 15.093-2.656.385.027.385.027-.926.231-.926.231-4.762.814-4.762.814-9.604 1.706-9.604 1.706zm-73.397-1.266l-.098.626-.144-.868-.144-.868.242.242.242.242zm91.702.494h-.102v-.646-.646l.217-.134.217-.134-.114.78-.114.78zm-33.951-.529h-.132l1.437-1.455 1.437-1.455h.132.132l-1.437 1.455-1.437 1.455zm-68.094-.992l-.115.595v-1.191-1.191l.115.595.115.595zm112.443.135l-.12.46.005-1.058.005-1.058.115.598.115.598zm-103.259-.222l-.507-.021.347-.139.347-.139.16.16.16.16zm93.927 0l-.507-.021.347-.139.347-.139.16.16.16.16zm-95.515-.265l-.507-.021.347-.139.347-.139.16.16.16.16zm97.102 0l-.507-.021.347-.139.347-.139.16.16.16.16zm-98.69-.265l-.507-.021.347-.139.347-.139.16.16.16.16zm100.277 0l-.507-.021.347-.139.347-.139.16.16.16.16zm-101.865-.265l-.507-.021.347-.139.347-.139.16.16.16.16zm103.452 0l-.507-.021.347-.139.347-.139.16.16.16.16zm-105.04-.265l-.507-.021.347-.139.347-.139.16.16.16.16zm106.627 0l-.507-.021.347-.139.347-.139.16.16.16.16zm-108.215-.265l-.507-.021.347-.139.347-.139.16.16.16.16zm109.802 0l-.507-.021.347-.139.347-.139.16.16.16.16zm3.991-1.851l-.265-.042.397-.108.397-.108 3.44-.631 3.44-.631-19.779-.025-19.779-.025 2.911-2.813 2.911-2.813v-.23-.23h-4.703-4.703l-1.964 1.977-1.964 1.977.465.974.465.974-.333.206-.333.206-.306-.842-.306-.842-1.454-3.175-1.454-3.175-.544-1.124-.544-1.124.307-.005.307-.005 6.007-8.594 6.007-8.594h-.193-.193l-6.896 6.945-6.896 6.945-.831-1.977-.831-1.977.193-.18.193-.18 8.565-5.991 8.565-5.991.106.106.106.106-6.746 9.629-6.746 9.629-.007.179-.007.179.463.093.463.093 5.667-1.264 5.667-1.264.418.005.418.005-1.269.797-1.269.797-.226-.14-.226-.14-1.944.82-1.944.82-.251.238-.251.238h.727.727l1.471-.941 1.471-.941.117.117.117.117-1.365.84-1.365.84.145.145.145.145 10.93 1.942 10.93 1.942 5.159.914 5.159.914 6.68 1.15 6.68 1.15v.132.132l-5.093.871-5.093.871zm-84.544-1.568h-.132l-2.625-2.635-2.625-2.635.395-.152.395-.152 3.426.083 3.426.083-3.699.058-3.699.058 2.636 2.646 2.636 2.646zm53.915-2.504l-2.708 2.637 2.641-2.712 2.641-2.712-3.699-.058-3.699-.058 3.551-.082 3.551-.082.216.216.216.216zm-47.567.45l-.12.082-1.843-1.99-1.843-1.99 1.963 1.908 1.963 1.908zm74.999-1.406l-.507-.021.347-.139.347-.139.16.16.16.16zm-111.847-1.101l-.12.46.005-1.058.005-1.058.115.598.115.598zm112.453-.135l-.115.595v-1.191-1.191l.115.595.115.595zm-8.014-.087l-.507-.021.347-.139.347-.139.16.16.16.16zm-94.128-1.231l-.132.326.01-.794.01-.794.122.468.122.468zm91.81 0l-.132.326.01-.794.01-.794.122.468.122.468zm-101.856-1.196l-.121.463v-.926-.926l.121.463.121.463zm111.91-.127l-.132.326.01-.794.01-.794.122.468.122.468zm-101.598-.534l-.133.331v-.661-.661l.133.331.133.331zm91.266-.138l-.16.16.021-.507.021-.507.139.347.139.347zm-101.322-.915l-.132.326.01-.794.01-.794.122.468.122.468zm111.398-.137l-.121.463v-.926-.926l.121.463.121.463zm-101.078-.397l-.133.331v-.661-.661l.133.331.133.331zm90.737-.138l-.16.16.021-.507.021-.507.139.347.139.347zm-90.488-1.058l-.16.16.021-.507.021-.507.139.347.139.347zm90.223 0l-.16.16.021-.507.021-.507.139.347.139.347zm-89.958-1.058l-.16.16.021-.507.021-.507.139.347.139.347zm89.212-2.27l-.084.252-.843-2.319-.843-2.319.093-.093.093-.093.833 2.161.833 2.161zm-88.458-.569h-.12l.007-.331.007-.331.527-1.058.527-1.058-.165.529-.165.529-.248.86-.248.86zm1.618-4.208l-.649 1.43-.015-.216-.015-.216.565-1.314.565-1.314.099.099.099.099zm84.97-.126l-.124.124-.165-.43-.165-.43.008-.177.008-.177.281.483.281.483zm-51.943-2.42l-.605 1.051-.129-.389-.129-.389-.811-3.672-.811-3.672.005-.429.005-.429.797 1.269.797 1.269-.135.219-.135.219.683 1.687.683 1.687.196.265.196.265zm-32.247.669h-.12l.166-.463.166-.463.645-1.124.645-1.124h.111.111l-.801 1.587-.801 1.587zm83.33 0h-.114l-.68-1.389-.68-1.389.536.661.536.661.259.728.259.728zm-31.668-.265h-.236l.138-.223.138-.223.524-2.35.524-2.35-.088-.088-.088-.088-.742 1.892-.742 1.892-.345-.472-.345-.472v-.419-.419l1.52-2.444 1.52-2.444.086.259.086.259-.857 3.845-.857 3.845zm-18.441-2.646h-.206l-.843-1.357-.843-1.357.102-.102.102-.102.947 1.459.947 1.459zm48.545 0h-.132l-.41-.794-.41-.794h.132.132l.41.794.41.794zm-79.747-.836l-.359.439.461-.794.461-.794 1.486-2.091 1.486-2.091 1.569-1.745 1.569-1.745 2.135-1.925 2.135-1.925 2.249-1.542 2.249-1.542.595-.312.595-.312v.116.116l-1.206.707-1.206.707-2.589 1.951-2.589 1.95-2.624 2.749-2.624 2.749-1.716 2.448-1.716 2.448zm78.703-1.016h-.116l-1.473-2.102-1.473-2.102-3.242-3.388-3.242-3.388 1.716 1.587 1.716 1.587 1.456 1.588 1.456 1.588 1.201 1.587 1.201 1.587.459.728.459.728zm11.621 0h-.108l-.174-.282-.174-.282.126-.126.126-.126.157.408.157.408zm-43.106-.794h-.104l-.149-.388-.149-.388.253-.156.253-.156v.545.545zm-.224-1.594l-.079.403-1.947-11.056-1.947-11.056.166-.166.166-.166v.35.35l1.86 10.47 1.86 10.47zm-11.683-.594l-.16.16.021-.507.021-.507.139.347.139.347zm7.956-4.691h-.086l-.641-.728-.641-.728.728.641.728.641v.086.086zm25.659-3.175h-.091l-.504-.595-.504-.595.595.504.595.504v.091.091zm-72.04-1.059h-.1v-.1-.1l.463-.363.463-.363-.363.463-.363.463zm70.742-.001l-.066-.001-.794-.682-.794-.682.86.569.86.569v.114.114zm-49.811-3.887l-.923.44v-.121-.121l.818-.423.818-.423.104.104.104.104zm2.117-1.058l-.923.44v-.121-.121l.818-.423.818-.423.104.104.104.104zm-18.081-.081h-.132l.621-.661.621-.661h.132.132l-.621.661-.621.661zm75.545 0h-.086l-.641-.728-.641-.728.728.641.728.641v.086.086zm-55.741-.809l-.132-.001.468-.273.468-.273 1.492-.513 1.492-.513.289.015.289.015-2.117.772-2.117.772zm5.424-1.87l-.265-.023 1.058-.349 1.058-.349.529.003.529.003-1.323.368-1.323.368zm47.128.033h-.1l-.363-.463-.363-.463.463.363.463.363v.1.1zm-43.446-.815l-.507-.021.347-.139.347-.139.16.16.16.16zm18.521 0l-.507-.021.347-.139.347-.139.16.16.16.16zm-17.044-.285h-.661l.331-.133.331-.133.331.133.331.133zm1.588-.284h-.926l.463-.121.463-.121.463.121.463.121zm12.546.041l-.507-.021.347-.139.347-.139.16.16.16.16zm-2.067-1.374l-.16.16.021-.507.021-.507.139.347.139.347zm-1.308-2.508l-.133.331v-.661-.661l.133.331.133.331zm-.266-1.318l-.132.326.01-.794.01-.794.122.468.122.468zm-.263-1.593l-.133.331v-.661-.661l.133.331.133.331zm-.265-1.323l-.133.331v-.662-.661l.133.331.133.331zm-18.586-.087l-.507-.021.347-.139.347-.139.16.16.16.16zm19.364-.051l-.16.16.021-.507.021-.507.139.347.139.347zm-13.654-1.293h-.661l.331-.133.331-.133.331.133.331.133zm12.63-.065l-.124.124-.181-1.363-.181-1.363.118-.118.118-.118.187 1.357.187 1.357zm8.007.065h-.661l.331-.133.331-.133.331.133.331.133zm-18.918-.274l-.794-.01.468-.122.468-.122.326.132.326.132zm5.556.052h-.132v-.248-.248l-.86-.107-.86-.107.992-.042.992-.042v.397.397zm6.156-.175l-.195.307-.004-.463-.004-.463.992.04.992.04-.793.117-.793.117zm5.485.123l-.794-.01.468-.122.468-.122.326.132.326.132zm-15.346-.265l-.794-.01.468-.122.468-.122.326.132.326.132zm13.494 0l-.794-.01.468-.122.468-.122.326.132.326.132z"/><path id="E" d="M90.404 469.557l-.313.104-.108-.353-.108-.353-.432-2.301-.432-2.301-.108-.856-.108-.856-.595-3.257-.595-3.257-.807-.111-.807-.111-3.572-.449-3.572-.449-3.048-.766-3.048-.766-1.45-.548-1.45-.548-.661-.221-.661-.221-1.588-.667-1.588-.667-2.381-1.242-2.381-1.242-2.62-1.711-2.62-1.711-1.613-1.321-1.613-1.321-1.307-1.102-1.307-1.102-1.074-1.083-1.074-1.083-1.501-1.719-1.501-1.719-1.299-1.696-1.299-1.696-1.456-2.249-1.456-2.249-1.127-2.117-1.127-2.117-1.273-3.175-1.273-3.175-.821-2.826-.821-2.826-.528-2.995-.528-2.995-.168-2.268-.168-2.268-3.236-.591-3.236-.591-.895-.116-.895-.116-2.514-.484-2.514-.484v-.355-.355l2.514-.484 2.514-.484.895-.116.895-.116 3.236-.591 3.236-.591.149-2.268.149-2.268.548-3.175.548-3.175.764-2.646.764-2.646.716-1.984.716-1.984 1.349-2.778 1.349-2.778 1.428-2.381 1.428-2.381.771-.977.771-.977v-.15-.15l1.555-1.916 1.555-1.916 2.48-2.555 2.48-2.555 2.284-1.81 2.284-1.81 1.496-1.058 1.496-1.058.983-.563.983-.563 1.852-1.057 1.852-1.057 2.117-.94 2.117-.94 1.828-.706 1.828-.706.667-.121.667-.121.241-.149.241-.149 1.366-.371 1.366-.371 2.646-.511 2.646-.511 2.07-.278 2.07-.278h1.002 1.002l.579-3.109.579-3.109.119-.926.119-.926.484-2.514.484-2.514h.355.355l.484 2.514.484 2.514.119.926.119.926.579 3.109.579 3.109h1.002 1.002l2.07.278 2.07.278 2.778.52 2.778.52 1.72.551 1.72.551.529.099.529.099 1.72.692 1.72.692 2.117.947 2.117.947 1.852 1.046 1.852 1.046.983.563.983.563 1.497 1.058 1.497 1.058 2.018 1.572 2.018 1.572 3.043 3.076 3.043 3.076 1.984 2.7 1.984 2.7 1.419 2.31 1.419 2.31 1.452 3.042 1.452 3.042.773 2.117.773 2.117.771 2.91.771 2.91.545 3.572.545 3.572.067 1.323.067 1.323 2.91.576 2.91.576 1.191.149 1.191.149 2.514.487 2.514.487v.355.355l-2.514.484-2.514.484-.895.116-.895.116-3.236.591-3.236.591-.168 2.268-.167 2.268-.526 2.986-.526 2.986-.566 2.041-.566 2.041-1.055 2.91-1.055 2.91-1.509 3.055-1.509 3.055-1.698 2.621-1.698 2.621-1.943 2.394-1.943 2.394-1.66 1.72-1.66 1.72-1.825 1.587-1.825 1.587-.265.189-.265.189-.926.761-.926.761-2.381 1.586-2.381 1.586-2.514 1.345-2.514 1.345-1.455.586-1.455.586-1.323.508-1.323.508-1.164.407-1.164.407-2.408.639-2.408.639-3.44.526-3.44.526-.926.005-.926.005-.545.146-.545.146-.595 3.255-.595 3.255-.116.895-.116.895-.481 2.497-.481 2.497zm-.04-3.115h.232l.152-.86.152-.86 1.327-7.541 1.327-7.541 1.164-6.615 1.164-6.615 1.343-7.673 1.343-7.673.083-.264.083-.264.746 1.19.746 1.19.883 1.389.883 1.389h.268.268v-.112-.112l-1.195-5.378-1.195-5.378-.14-.383-.14-.383-4.82 4.815-4.82 4.815-3.238-3.246-3.238-3.246v-.237-.237l3.109 3.22 3.109 3.22.292-.002.292-.002 9.166-9.256 9.166-9.256v.18.18l-.703.734-.703.734.373.131.373.131 1.654.371 1.654.371v-.281-.281l-.623-.94-.623-.94-5.555-8.864-5.555-8.864-5.788-9.26-5.788-9.26-.489-1.439-.489-1.439.153-.81.153-.81.497-.815.497-.815.931-.442.931-.442h.965.965l.714.373.714.373.711.751.711.751 1.538 3.46 1.538 3.46.438.641.438.641-.223-1.191-.223-1.191-.53-3.043-.53-3.043-.962-5.424-.962-5.424-1.051-5.556-1.051-5.556-.251-1.852-.251-1.852-.239-1.455-.239-1.455-.671-3.798-.671-3.798-.149-.149-.149-.149-.141.141-.141.141-1.063 6.319-1.063 6.319-.93 5.027-.93 5.027-.626 3.572-.626 3.572-1.347 7.673-1.347 7.673-.083.264-.083.264-.746-1.19-.746-1.19-.883-1.389-.883-1.389h-.297-.297l.14.595.14.595.85 3.836.85 3.836.183.205.183.205 2.621-5.576 2.621-5.576.088.263.088.263-2.266 4.663-2.266 4.663v.086.086l-2.678 5.518-2.678 5.518-1.654 3.44-1.654 3.44-1.785 3.704-1.785 3.704-3.011 6.186-3.011 6.186v.362.362h.265.265v-.261-.261l2.58-3.907 2.58-3.907.133-.265.133-.265 1.743-2.646 1.743-2.646 3.301-5.027 3.301-5.027 1.463-2.249 1.463-2.249 3.038-4.63 3.038-4.63.689-1.091.689-1.091-.939-1.422-.939-1.422-.763-1.426-.763-1.426v-.422-.422l.551 1.029.551 1.029 1.403 2.262 1.403 2.262-.595.939-.595.939-3.812 5.821-3.812 5.821-2.905 4.444-2.905 4.444-3.384 5.181-3.384 5.181.109.109.109.109 1.952-.439 1.952-.439.221-.131.221-.131-.839-.865-.839-.865 1.792-2.691 1.792-2.691 7.622 7.618 7.622 7.618 3.11-3.038 3.11-3.038-3.109 3.172-3.109 3.172-7.531-7.527-7.531-7.527-.114.12-.114.12-1.484 2.223-1.484 2.223v.297.296l5.422 5.418 5.422 5.418.002.225.002.225-.953-.952-.953-.952h-.183-.183l-1.16 5.226-1.16 5.226-.117.463-.117.463h.299.299l.883-1.389.883-1.389.751-1.191.751-1.191.308 1.587.308 1.587.593 3.44.593 3.44.758 4.233.758 4.233 1.493 8.467 1.493 8.467.212 1.323.212 1.323.555 3.175.555 3.175.152.728.152.728zm7.747-59.531h-.083v-.083-.083l.86-.777.86-.777-.777.86-.777.86zm9.368-4.233h-.135l-.872-1.389-.871-1.389-.088-.116-.088-.116-1.383 1.307-1.383 1.307 1.313-1.389 1.313-1.389h.182.182l.521.883.521.883.462.705.462.705zm-21.026 50.501l.728.034v-.29-.29l-.798-4.803-.798-4.803-.25-.529-.25-.529-.265-1.587-.265-1.587-.816-4.63-.816-4.63-.657-3.558-.657-3.558-.099-.099-.099-.099-1.298 1.936-1.298 1.936-.177.469-.177.469-.414.159-.414.159-.114-.114-.114-.114.64-2.763.64-2.763.69-2.985.69-2.985.024-.587.024-.587-.037-.335-.037-.335-.89.599-.89.599-2.448 1.72-2.448 1.72-2.297 1.587-2.297 1.587-.913.681-.913.681-3.463 2.414-3.463 2.414-.373.08-.373.08.08-.373.08-.373 2.414-3.463 2.414-3.463.681-.913.681-.913 1.588-2.297 1.588-2.297 1.72-2.448 1.72-2.448.599-.89.599-.89-.268-.033-.268-.033-.331-.021-.331-.021-1.738.34-1.738.34-.281.178-.281.178-4.425 6.747-4.425 6.747-.253.265-.253.265.258-.661.258-.661 2.934-6.033 2.934-6.033v-.082-.082l-2.563.62-2.563.62-.116-.116-.116-.116.159-.414.159-.414.469-.172.469-.172 1.94-1.299 1.94-1.299-.102-.102-.102-.102-3.558-.657-3.558-.657-4.63-.812-4.63-.812-2.778-.535-2.778-.535-4.432-.74-4.432-.74v1.283 1.283l.404 2.71.404 2.71.807 3.043.807 3.043 1.186 3.043 1.186 3.043 1.434 2.714 1.434 2.714 1.371 2.048 1.371 2.048 1.652 2.117 1.652 2.117 2.871 2.841 2.871 2.841 2.627 1.998 2.627 1.998 2.184 1.319 2.184 1.319 2.994 1.438 2.994 1.438 3.572 1.182 3.572 1.182 2.778.554 2.778.554 1.984.224 1.984.224zm7.536.026l.468-.008 3.043-.369 3.043-.369 2.381-.556 2.381-.556 2.91-.95 2.91-.95 3.45-1.645 3.45-1.645 2.536-1.594 2.536-1.594 2.481-1.976 2.481-1.976 2.61-2.627 2.61-2.627 2.18-2.91 2.18-2.91 1.356-2.268 1.356-2.268 1.19-2.513 1.19-2.513.928-2.563.928-2.563.676-2.667.676-2.667.372-2.557.372-2.557.069-1.323.069-1.323-.65.083-.65.083-3.175.517-3.175.517-3.44.649-3.44.649-4.63.815-4.63.815-3.558.657-3.558.657-.099.099-.099.099 1.936 1.298 1.936 1.298.469.177.469.177.159.414.159.414-.099.099-.099.099-2.748-.648-2.748-.648-.084.084-.084.084 2.79 6.076 2.79 6.076.233.595.233.595h-.093-.093l-4.465-7.124-4.465-7.124-1.72-.338-1.72-.338-.331.021-.331.021-.268.033-.268.033.599.89.599.89 1.72 2.448 1.72 2.448 1.588 2.297 1.588 2.297.681.913.681.913 2.414 3.463 2.414 3.463.08.373.08.373-.373-.08-.373-.08-3.463-2.414-3.463-2.414-.913-.681-.913-.681-2.297-1.587-2.297-1.587-2.448-1.72-2.448-1.72-.89-.599-.89-.599-.037.335-.037.335.024.587.024.587.69 2.985.69 2.985.64 2.763.64 2.763-.114.114-.114.114-.414-.159-.414-.159-.172-.469-.172-.469-1.299-1.94-1.299-1.94-.102.102-.102.102-.657 3.558-.657 3.558-.793 4.498-.793 4.498-.312 1.852-.312 1.852-.201.265-.201.265-.696 4.63-.696 4.63-.131.595-.131.595zm-32.982-26.77l.377-.147 9.128-6.389 9.128-6.389.061-.191.061-.191-2.851-3.023-2.851-3.023-6.569 9.373-6.569 9.373-.146.377-.146.377zm58.812.051l.227.004-.129-.331-.129-.331-6.549-9.354-6.549-9.354-3.003 2.995-3.003 2.995.194.193.194.193 9.26 6.493 9.26 6.493zm-3.468-12.971l.198.01v-.238-.238l-1.025-2.209-1.025-2.209-1.463-3.175-1.463-3.175-.651-1.455-.651-1.455-.667-1.455-.667-1.455-.588-1.323-.588-1.323-.871-1.852-.871-1.852-.692-1.541-.692-1.541-3.203-7.058-3.203-7.058-.783-1.72-.783-1.72-.354-.794-.354-.794-.9-1.984-.9-1.984-.982-.86-.982-.86h-1.216-1.216l-.863.533-.863.533-.425.896-.425.896.003.754.003.754.624 1.323.624 1.323 11.192 17.859 11.193 17.859 1.23 1.984 1.23 1.984 1.437 2.305 1.437 2.305zm-53.843-4.647l.992-.183 1.011-.292 1.011-.292.643-1.191.643-1.191 4.191-8.731 4.191-8.731 1.926-4.005 1.926-4.005-.098-.291-.098-.291-8.731-6.121-8.731-6.121-.377-.145-.377-.145.147.377.147.377 6.645 9.497 6.645 9.497v.227.227h-.367-.367l-5.854-1.323-5.854-1.323h-.129-.129v.268.268l1.389.883 1.389.883 1.19.746 1.19.746-.264.082-.264.082-5.292.924-5.292.924-.981.119-.981.119-.474.147-.474.147-3.836.677-3.836.677-6.085 1.069-6.085 1.069-2.117.369-2.117.369-3.804.66-3.804.66-.143.143-.143.143.136.136.136.136 6.853 1.204 6.853 1.204 5.292.91 5.292.91 2.778.509 2.778.509 7.673 1.346 7.673 1.346.264.083.264.083-1.19.746-1.19.746-1.389.883-1.389.883v.28.28zm5.341-8.043h-.204l-4.517-4.696-4.517-4.696 4.284-.073 4.284-.073.674.727.674.727-.679-.588-.679-.588h-3.886H59.4l.008.198.008.198 4.082 4.19 4.082 4.19.261-.161.261-.161 1.073-2.268 1.073-2.268v-.556-.556l.284.284.284.284-1.381 2.944-1.381 2.944zm2.034-6.615h-.1l-.363-.463-.363-.463.463.363.463.363v.1.1zm48.982 14.783l.331.034v-.268-.268l-1.389-.883-1.389-.883-1.191-.756-1.191-.756.926-.174.926-.174 7.011-1.244 7.011-1.244 2.91-.519 2.91-.519 5.159-.904 5.159-.904 6.856-1.205 6.856-1.205.133-.133.133-.133-.15-.15-.15-.15-8.559-1.446-8.559-1.446-2.91-.54-2.91-.54-3.572-.649-3.572-.649-7.541-1.321-7.541-1.321-.264-.083-.264-.083 1.19-.746 1.19-.746 1.389-.883 1.389-.883v-.268-.268h-.082-.082l-5.937 1.322-5.937 1.322-.331.001-.331.001v-.235-.235l6.646-9.489 6.646-9.489.147-.377.147-.377-.377.147-.377.147-8.599 6.012-8.599 6.012-.185.171-.185.171 1.069 2.381 1.069 2.381 2.723 5.953 2.723 5.953 1.73 3.836 1.73 3.836.923 1.979.923 1.979 1.942.435 1.942.435zm-1.221-12.708l-5.057 4.854-.242-.62-.242-.62-1.084-2.309-1.084-2.309v-.211-.211l1.799-1.785 1.799-1.785 4.584.073 4.584.073zm-4.438 3.832l.301-.172 3.836-3.954 3.836-3.954.088-.236.088-.236h-3.949-3.949l-1.64 1.708-1.64 1.708.635 1.269.635 1.269.479 1.058.479 1.058.249.328.249.328zm-79.044-6.437h.417l4.774-.804 4.774-.804.426-.219.426-.219 1.852-.312 1.852-.312 4.498-.793 4.498-.793 3.558-.657 3.558-.657.102-.102.102-.102-1.94-1.299-1.94-1.299-.469-.172-.469-.172-.159-.414-.159-.414.114-.114.114-.114 2.763.64 2.763.64 2.985.69 2.985.69.587.024.587.024.335-.037.335-.037-.599-.89-.599-.89-1.72-2.448-1.72-2.448-1.588-2.297-1.588-2.297-.681-.913-.681-.913-2.414-3.463-2.414-3.463-.08-.373-.08-.373.373.08.373.08 3.463 2.409 3.463 2.409.926.705.926.705 2.479 1.7 2.479 1.7 1.904 1.323 1.904 1.323.746.595.746.595h.186.186l.313-.686.313-.686-.682-2.952-.682-2.952-.64-2.763-.64-2.763.114-.114.114-.114.414.159.414.159.172.469.172.469 1.299 1.94 1.299 1.94.099-.099.099-.099.64-3.428.64-3.428.853-4.895.853-4.895.382-1.852.382-1.852 1.035-5.027 1.035-5.027.01-.331.01-.331h-1.223H85l-2.812.41-2.812.41-2.249.525-2.249.525-2.778.942-2.778.942-3.184 1.517-3.184 1.517-2.637 1.656-2.637 1.656-1.97 1.498-1.97 1.498-3.085 3.043-3.085 3.043-1.476 1.881-1.476 1.881-1.718 2.622-1.718 2.622-1.312 2.64-1.312 2.64-.658 1.587-.658 1.587-.69 2.117-.69 2.117-.656 2.778-.656 2.778-.279 2.381-.279 2.381-.124 1.124-.124 1.124zm112.231-.027l.607.027-.134-.86-.134-.86-.165-1.852-.165-1.852-.515-2.702-.515-2.702-1.057-3.307-1.057-3.307-.748-1.664-.748-1.664-.59-1.291-.59-1.291-1.555-2.619-1.555-2.619-1.928-2.572-1.928-2.572-3.043-3.061-3.043-3.061-1.881-1.485-1.881-1.485-2.655-1.74-2.655-1.74-3.269-1.574-3.269-1.574-2.249-.825-2.249-.825-2.928-.757-2.928-.757-2.968-.414-2.968-.414h-1.182-1.182v.207.207l1.047 5.15 1.047 5.15.381 1.852.381 1.852.853 4.895.853 4.895.64 3.428.64 3.428.1.099.1.099 1.299-1.94 1.299-1.94.172-.469.172-.469.414-.159.414-.159.114.114.114.114-.667 2.895-.667 2.895-.606 2.527-.606 2.527.401.846.401.846h.333.333l.167-.271.167-.271 2.393-1.647 2.393-1.647 2.297-1.587 2.297-1.587.913-.681.913-.681 3.463-2.414 3.463-2.414.373-.08.373-.08-.08.373-.08.373-2.414 3.463-2.414 3.463-.681.913-.681.913-1.588 2.297-1.588 2.297-1.72 2.448-1.72 2.448-.599.89-.599.89.335.036.335.036.459-.002.459-.002 3.245-.734 3.245-.734 2.646-.602 2.646-.602.099.099.099.099-.159.414-.159.414-.469.177-.469.177-1.936 1.298-1.936 1.298.099.099.099.099 3.558.657 3.558.657 4.63.815 4.63.815 2.117.413 2.117.413 4.63.874 4.63.874zm-45.869-16.933l.11-.11.946-4.16.946-4.16v-.137-.137h-.266-.266l-1.14 1.786-1.14 1.786-.472.808-.472.808.822 1.814.822 1.814z"/></defs><g transform="translate(2.883 -323.729)"><g stroke="#000"><use xlink:href="#C" class="C"/><use xlink:href="#D" fill="#258436"/><use xlink:href="#E" fill="#050c05"/></g><use xlink:href="#C" class="C"/><use xlink:href="#D" fill="#258436"/><use xlink:href="#E" fill="#050c05"/><text xml:space="preserve" x="170.244" y="404.016" fill="#000" filter="url(#B)" class="B D"><tspan x="170.244" y="404.016">the east pacific</tspan></text><text xml:space="preserve" x="171.428" y="446.722" fill="#000" filter="url(#A)" class="B E"><tspan x="171.428" y="446.722">world assembly recommendation</tspan></text><text xml:space="preserve" x="167.478" y="401.25" fill="#325f1b" class="B D"><tspan x="167.478" y="401.25">the east pacific</tspan></text><text xml:space="preserve" x="167.478" y="401.25" class="B C D"><tspan x="167.478" y="401.25">The East Pacific</tspan></text><text xml:space="preserve" x="168.661" y="443.955" fill="#325f1b" class="B E"><tspan x="168.661" y="443.955">world assembly recommendation</tspan></text><text xml:space="preserve" x="168.661" y="443.955" class="B C E"><tspan x="168.661" y="443.955">World Assembly Recommendation</tspan></text></g></svg>