<?xml version="1.0" encoding="UTF-8" standalone="no"?>
<!-- Created with Inkscape (http://www.inkscape.org/) -->

<svg
   version="1.1"
   id="svg1"
   width="230.9801"
   height="42"
   viewBox="0 0 230.98011 42.000001"
   sodipodi:docname="estalciabutton.svg"
   xml:space="preserve"
   inkscape:version="1.3 (0e150ed6c4, 2023-07-21)"
   inkscape:export-filename="estalciabutton.png"
   inkscape:export-xdpi="96"
   inkscape:export-ydpi="96"
   xmlns:inkscape="http://www.inkscape.org/namespaces/inkscape"
   xmlns:sodipodi="http://sodipodi.sourceforge.net/DTD/sodipodi-0.dtd"
   xmlns="http://www.w3.org/2000/svg"
   xmlns:svg="http://www.w3.org/2000/svg"><sodipodi:namedview
     id="namedview1"
     pagecolor="#ffffff"
     bordercolor="#000000"
     borderopacity="0.25"
     inkscape:showpageshadow="2"
     inkscape:pageopacity="0.0"
     inkscape:pagecheckerboard="0"
     inkscape:deskcolor="#d1d1d1"
     inkscape:zoom="0.45717228"
     inkscape:cx="674.80032"
     inkscape:cy="692.2992"
     inkscape:window-width="3440"
     inkscape:window-height="1417"
     inkscape:window-x="-8"
     inkscape:window-y="1432"
     inkscape:window-maximized="1"
     inkscape:current-layer="svg1" /><defs
     id="defs1"><style
       id="style1">&#10;      .cls-1 {&#10;        fill: #fff;&#10;      }&#10;&#10;      .cls-1, .cls-2 {&#10;        stroke-width: 0px;&#10;      }&#10;&#10;      .cls-2 {&#10;        fill: #185886;&#10;      }&#10;    </style><style
       id="style1-1">&#10;      .cls-1 {&#10;        fill: #325733;&#10;      }&#10;&#10;      .cls-1, .cls-2 {&#10;        stroke-width: 0px;&#10;      }&#10;&#10;      .cls-2 {&#10;        fill: #fff;&#10;      }&#10;    </style><style
       id="style1-2">&#10;      .cls-1 {&#10;        fill: #1e90ff;&#10;      }&#10;&#10;      .cls-1, .cls-2 {&#10;        stroke-width: 0px;&#10;      }&#10;&#10;      .cls-2 {&#10;        fill: #fff;&#10;      }&#10;    </style><style
       id="style1-4">&#10;      .cls-1 {&#10;        fill: #008dac;&#10;      }&#10;&#10;      .cls-1, .cls-2 {&#10;        stroke-width: 0px;&#10;      }&#10;&#10;      .cls-2 {&#10;        fill: #fff;&#10;      }&#10;    </style></defs><path
     class="cls-1"
     d="m 21.000016,40.500001 c -10.75,0 -19.4999995,-8.75 -19.4999995,-19.5 0,-10.75 8.7499995,-19.5 19.4999995,-19.5 H 209.98002 c 10.75,0 19.5,8.75 19.5,19.5 0,10.75 -8.75,19.5 -19.5,19.5 z"
     id="path1-8"
     style="fill:#070b34;fill-opacity:1" /><path
     class="cls-2"
     d="m 209.98002,3.000001 c 9.93,0 18,8.07 18,18 0,9.93 -8.07,18 -18,18 H 21.000016 c -9.93,0 -17.9999995,-8.07 -17.9999995,-18 0,-9.93 8.0699995,-18 17.9999995,-18 H 209.98002 m 0,-2.999999970604 H 21.000016 C 9.4000165,1.029396e-6 1.6460453e-5,9.400001 1.6460453e-5,21.000001 c 0,11.6 9.400000039547,21 20.999999539547,21 H 209.98002 c 11.6,0 21,-9.4 21,-21 0,-11.6 -9.4,-20.999999970604 -21,-20.999999970604 z"
     id="path2-5" /><g
     id="g16"
     transform="translate(1.6460453e-5)"><path
       class="cls-2"
       d="m 21.48,24.13 0.02,-0.02 c 0.67,0 1.28,0 1.84,-0.02 L 23.11,23.7 21.3,23.66 c -0.11,-0.24 -0.18,-0.44 -0.21,-0.61 -0.04,-0.14 -0.07,-0.37 -0.11,-0.66 0.56,0 1.06,0 1.49,-0.02 -0.05,-0.12 -0.09,-0.24 -0.12,-0.36 l -0.02,-0.05 h -1.41 c -0.05,-0.25 -0.08,-0.62 -0.11,-1.09 v -0.2 h 1.2 c -0.01,-0.14 -0.01,-0.28 0,-0.41 -0.53,0 -0.92,0 -1.18,-0.02 0.04,-0.54 0.1,-0.96 0.18,-1.27 0.21,-0.01 0.54,-0.02 0.97,-0.02 0,-0.1 0,-0.19 0.02,-0.27 l 0.02,-0.12 c -0.16,-0.01 -0.37,-0.02 -0.64,-0.02 h -0.25 c 0.08,-0.37 0.15,-0.62 0.19,-0.73 0.04,-0.11 0.12,-0.3 0.24,-0.55 0.17,-0.01 0.41,-0.02 0.72,-0.02 l 0.11,-0.41 h -0.63 c 0.1,-0.33 0.34,-0.76 0.73,-1.29 h 0.5 c 0,0 0.05,-0.12 0.11,-0.21 0.06,-0.09 0.09,-0.16 0.09,-0.21 -0.04,-0.01 -0.08,-0.02 -0.14,-0.02 -0.06,0 -0.13,0 -0.2,-0.02 -0.01,-0.02 0.1,-0.17 0.35,-0.44 0.24,-0.27 0.47,-0.5 0.67,-0.69 0.55,-0.47 1.04,-0.83 1.47,-1.09 0.16,-0.1 0.38,-0.21 0.66,-0.36 0.29,-0.14 0.44,-0.21 0.45,-0.2 l -0.32,0.25 c -0.37,0.3 -0.71,0.64 -1.02,1.04 -0.31,0.39 -0.56,0.81 -0.75,1.25 -0.3,0.68 -0.47,1.37 -0.52,2.06 l -0.02,0.32 v 0.41 c 0.02,0.46 0.06,0.78 0.11,0.95 l 0.09,0.45 c 0.11,0.51 0.24,0.96 0.39,1.34 0.16,0.38 0.35,0.76 0.59,1.13 0.3,0.44 0.61,0.81 0.92,1.12 0.32,0.3 0.63,0.58 0.96,0.82 0.33,0.24 0.85,0.61 1.58,1.1 l 0.2,0.12 c 0.18,0.12 0.28,0.19 0.3,0.21 L 29,24.91 c 0.07,0.04 0.13,0.07 0.16,0.09 l 0.13,0.09 c 0.23,0.15 0.34,0.24 0.34,0.25 v 0.04 h -7.5 c -0.17,-0.23 -0.28,-0.41 -0.35,-0.56 -0.07,-0.15 -0.15,-0.38 -0.26,-0.71 z m 3.64,4.25 c 0.2,-0.49 0.51,-0.94 0.91,-1.35 0.41,-0.41 0.94,-0.81 1.59,-1.21 l 0.36,-0.21 h 3.9 l 0.38,0.21 c 0.66,0.39 1.19,0.8 1.59,1.22 0.41,0.42 0.7,0.87 0.89,1.34 l 0.04,0.07 h -3.15 v -0.04 c 0,0 -0.04,-0.18 -0.13,-0.4 -0.08,-0.22 -0.16,-0.4 -0.23,-0.53 -0.25,-0.51 -0.59,-0.99 -1.02,-1.42 l -0.27,-0.27 h -0.11 l -0.27,0.27 c -0.43,0.43 -0.77,0.9 -1.02,1.42 -0.06,0.14 -0.13,0.32 -0.21,0.54 -0.08,0.21 -0.13,0.35 -0.13,0.39 v 0.04 h -3.17 l 0.04,-0.07 z m 5.15,-3.01 c 0,0 0.06,-0.06 0.19,-0.15 0.13,-0.09 0.22,-0.15 0.29,-0.19 0.02,-0.01 0.07,-0.04 0.13,-0.07 l 0.05,-0.05 c 0,0 0.12,-0.1 0.3,-0.21 l 0.2,-0.12 c 0.72,-0.48 1.24,-0.84 1.58,-1.09 0.31,-0.24 0.63,-0.52 0.95,-0.84 0.37,-0.35 0.68,-0.71 0.92,-1.09 0.24,-0.38 0.44,-0.76 0.6,-1.15 0.15,-0.38 0.29,-0.83 0.39,-1.34 l 0.11,-0.45 c 0.04,-0.18 0.07,-0.5 0.09,-0.95 0.01,-0.17 0,-0.41 -0.02,-0.72 V 16.93 C 36,16.24 35.83,15.55 35.53,14.87 35.34,14.43 35.09,14.01 34.78,13.62 34.47,13.23 34.13,12.88 33.76,12.58 L 33.6,12.46 33.44,12.34 c 0,0 0.16,0.05 0.45,0.2 0.29,0.14 0.51,0.26 0.66,0.36 0.43,0.26 0.92,0.62 1.47,1.09 0.2,0.19 0.43,0.42 0.67,0.69 0.24,0.27 0.35,0.41 0.33,0.43 -0.02,0.02 -0.07,0.03 -0.14,0.03 -0.07,0 -0.13,0 -0.18,0.02 0.02,0.07 0.07,0.17 0.14,0.3 l 0.07,0.11 h 0.48 l 0.21,0.36 c 0.25,0.42 0.42,0.73 0.52,0.93 h -0.63 c 0.01,0.07 0.04,0.17 0.07,0.3 l 0.04,0.11 c 0.31,0 0.55,0 0.72,0.02 l 0.02,0.04 c 0.24,0.58 0.38,1 0.41,1.25 -0.41,0 -0.7,0 -0.88,0.02 -0.01,0.07 0,0.18 0.02,0.32 v 0.07 c 0.43,0 0.75,0 0.97,0.02 l 0.02,0.09 c 0.1,0.45 0.15,0.85 0.16,1.18 -0.26,0.01 -0.65,0.02 -1.16,0.02 l -0.02,0.41 h 1.2 v 0.36 c -0.02,0.51 -0.05,0.8 -0.09,0.88 L 38.95,22 h -1.4 l -0.14,0.41 c 0.35,0.01 0.84,0.02 1.47,0.02 v 0.05 c -0.12,0.55 -0.23,0.96 -0.32,1.22 l -1.81,0.04 -0.05,0.09 c -0.05,0.1 -0.11,0.2 -0.18,0.3 l 1.84,0.02 c -0.11,0.31 -0.19,0.54 -0.26,0.69 -0.07,0.15 -0.18,0.35 -0.33,0.6 h -7.5 V 25.4 Z"
       id="path3-8" /><path
       class="cls-2"
       d="m 54.53,18.23 -2.73,6.9 c -0.16,0.35 -0.24,0.57 -0.24,0.66 0,0.27 0.21,0.46 0.65,0.57 v 0.28 h -3.84 v -0.28 c 0.39,-0.08 0.59,-0.28 0.59,-0.6 0,-0.09 -0.08,-0.35 -0.25,-0.78 l -3.42,-8.8 c -0.17,-0.44 -0.32,-0.73 -0.46,-0.89 -0.14,-0.15 -0.34,-0.26 -0.6,-0.31 V 14.7 h 4.15 v 0.28 c -0.37,0.08 -0.55,0.25 -0.55,0.52 0,0.13 0.05,0.33 0.14,0.58 l 2.36,6.31 2.55,-6.35 c 0.11,-0.27 0.17,-0.46 0.17,-0.54 0,-0.27 -0.2,-0.44 -0.58,-0.52 V 14.7 h 4.34 v 0.28 c -0.4,0.11 -0.59,0.29 -0.59,0.57 0,0.09 0.05,0.27 0.15,0.53 l 2.44,6.31 2.35,-6.21 c 0.12,-0.31 0.18,-0.54 0.18,-0.69 0,-0.26 -0.21,-0.43 -0.63,-0.51 V 14.7 h 4.1 v 0.28 c -0.29,0.08 -0.49,0.19 -0.6,0.31 -0.11,0.13 -0.26,0.42 -0.44,0.88 l -3.42,8.8 c -0.16,0.42 -0.24,0.7 -0.24,0.84 0,0.29 0.21,0.46 0.62,0.53 v 0.28 h -3.89 v -0.28 c 0.41,-0.06 0.61,-0.26 0.61,-0.59 0,-0.11 -0.09,-0.37 -0.27,-0.79 L 54.55,18.2 Z"
       id="path4-4" /><path
       class="cls-2"
       d="m 70.19,16.64 c 1.56,0 2.85,0.4 3.89,1.19 1.24,0.96 1.86,2.29 1.86,3.99 0,1.6 -0.62,2.88 -1.86,3.84 -1.03,0.79 -2.32,1.19 -3.88,1.19 -1.56,0 -2.85,-0.4 -3.88,-1.19 -1.25,-0.96 -1.87,-2.26 -1.87,-3.92 0,-1.66 0.62,-2.98 1.87,-3.92 1.03,-0.78 2.32,-1.17 3.86,-1.19 z m 0.01,1.85 c -1.01,0 -1.83,0.32 -2.47,0.97 -0.59,0.61 -0.88,1.37 -0.88,2.28 0,0.91 0.29,1.67 0.88,2.27 0.64,0.65 1.46,0.98 2.48,0.98 1.02,0 1.83,-0.33 2.47,-0.98 0.59,-0.6 0.88,-1.34 0.88,-2.23 0,-0.96 -0.29,-1.74 -0.88,-2.32 -0.64,-0.64 -1.47,-0.96 -2.48,-0.97 z"
       id="path5-90" /><path
       class="cls-2"
       d="m 80.34,22.62 v 3.12 c 0,0.18 0.04,0.32 0.12,0.41 0.08,0.1 0.23,0.18 0.44,0.24 v 0.25 h -3.46 v -0.25 c 0.2,-0.05 0.35,-0.13 0.43,-0.23 0.08,-0.1 0.13,-0.24 0.13,-0.42 v -8.01 c 0,-0.18 -0.04,-0.32 -0.12,-0.41 -0.08,-0.09 -0.23,-0.17 -0.44,-0.24 v -0.24 h 6.42 c 0.83,0 1.47,0.04 1.91,0.12 0.44,0.09 0.83,0.24 1.17,0.46 0.71,0.46 1.06,1.21 1.06,2.26 0,0.79 -0.22,1.41 -0.65,1.86 -0.43,0.45 -1.13,0.77 -2.1,0.96 l 1.85,2.58 c 0.34,0.48 0.61,0.8 0.81,0.97 0.2,0.17 0.43,0.28 0.69,0.33 v 0.25 h -4.12 v -0.25 c 0.3,-0.08 0.46,-0.21 0.46,-0.39 0,-0.13 -0.09,-0.32 -0.28,-0.59 L 82.7,22.6 h -2.34 z m 0,-1.78 h 3.53 c 0.54,0 0.93,-0.06 1.19,-0.18 0.36,-0.16 0.54,-0.47 0.54,-0.94 0,-0.41 -0.13,-0.7 -0.38,-0.87 -0.25,-0.16 -0.7,-0.24 -1.35,-0.24 h -3.53 v 2.22 z"
       id="path6-6" /><path
       class="cls-2"
       d="m 92.67,24.86 h 5.48 c 0.19,0 0.33,-0.04 0.42,-0.12 0.09,-0.08 0.17,-0.23 0.24,-0.44 h 0.24 v 2.89 h -0.24 c -0.06,-0.21 -0.14,-0.36 -0.23,-0.44 -0.1,-0.08 -0.24,-0.12 -0.42,-0.12 h -8.38 v -0.25 c 0.2,-0.05 0.35,-0.13 0.43,-0.23 0.08,-0.1 0.13,-0.24 0.13,-0.42 v -8.01 c 0,-0.18 -0.04,-0.32 -0.12,-0.41 -0.08,-0.09 -0.23,-0.17 -0.44,-0.24 v -0.24 h 3.46 v 0.24 c -0.21,0.06 -0.36,0.13 -0.44,0.23 -0.08,0.1 -0.12,0.24 -0.12,0.42 v 7.12 z"
       id="path7-3" /><path
       class="cls-2"
       d="m 100.61,25.75 v -8.01 c 0,-0.18 -0.04,-0.32 -0.12,-0.41 -0.08,-0.09 -0.23,-0.17 -0.44,-0.24 v -0.24 h 5.74 c 1.19,0 2.14,0.15 2.82,0.45 0.97,0.42 1.66,1.11 2.09,2.08 0.3,0.68 0.45,1.46 0.45,2.37 0,1.67 -0.5,2.94 -1.49,3.8 -0.45,0.38 -0.98,0.66 -1.59,0.84 -0.61,0.17 -1.37,0.26 -2.28,0.26 h -5.74 V 26.4 c 0.2,-0.05 0.35,-0.13 0.43,-0.23 0.08,-0.1 0.13,-0.24 0.13,-0.42 z m 2.34,-0.89 h 2.5 c 1.15,0 1.98,-0.26 2.5,-0.79 0.54,-0.55 0.81,-1.33 0.81,-2.33 0,-1 -0.27,-1.79 -0.81,-2.33 -0.27,-0.27 -0.6,-0.47 -1,-0.6 -0.4,-0.13 -0.9,-0.19 -1.5,-0.19 h -2.5 z"
       id="path8-2" /><path
       class="cls-2"
       d="m 126.08,23.6 h -5.42 l -0.8,1.68 c -0.11,0.23 -0.17,0.42 -0.17,0.55 0,0.26 0.2,0.43 0.58,0.53 v 0.28 h -3.95 v -0.28 c 0.23,-0.05 0.41,-0.13 0.53,-0.25 0.12,-0.12 0.26,-0.34 0.42,-0.68 l 4.39,-9.17 c 0.14,-0.29 0.21,-0.53 0.21,-0.7 0,-0.27 -0.17,-0.46 -0.51,-0.58 V 14.7 h 4.23 v 0.28 c -0.34,0.1 -0.52,0.27 -0.52,0.52 0,0.17 0.05,0.36 0.17,0.58 l 4.54,9.2 c 0.19,0.39 0.36,0.66 0.51,0.8 0.15,0.14 0.34,0.24 0.59,0.29 v 0.28 h -4.39 v -0.28 c 0.39,-0.06 0.58,-0.25 0.58,-0.54 0,-0.12 -0.06,-0.3 -0.17,-0.54 l -0.82,-1.68 z m -0.75,-1.64 -1.93,-4.25 -1.97,4.25 z"
       id="path9-9" /><path
       class="cls-2"
       d="m 141.09,17.73 -1.18,2.28 -0.21,-0.12 c 0,-0.19 -0.06,-0.34 -0.18,-0.45 -0.33,-0.3 -0.82,-0.54 -1.47,-0.73 -0.65,-0.19 -1.3,-0.29 -1.97,-0.29 -0.57,0 -1.07,0.08 -1.5,0.24 -0.63,0.23 -0.94,0.56 -0.94,0.99 0,0.29 0.15,0.49 0.45,0.61 0.3,0.12 0.89,0.21 1.76,0.28 l 1.38,0.11 c 1.21,0.09 2.12,0.33 2.75,0.7 0.35,0.21 0.64,0.49 0.87,0.84 0.29,0.44 0.43,0.93 0.43,1.48 0,1 -0.45,1.78 -1.35,2.36 -0.86,0.55 -2.02,0.83 -3.48,0.83 -1.46,0 -2.9,-0.31 -4.27,-0.94 -0.09,-0.04 -0.17,-0.06 -0.24,-0.06 -0.12,0 -0.22,0.07 -0.32,0.21 l -0.22,-0.09 1.01,-2.4 0.22,0.09 v 0.07 c 0,0.15 0.06,0.28 0.17,0.38 0.29,0.26 0.79,0.48 1.51,0.67 0.72,0.19 1.42,0.29 2.12,0.29 0.62,0 1.17,-0.08 1.66,-0.25 0.61,-0.2 0.91,-0.52 0.91,-0.96 0,-0.36 -0.21,-0.6 -0.63,-0.74 -0.28,-0.09 -0.78,-0.17 -1.51,-0.24 l -1.37,-0.11 c -0.74,-0.06 -1.3,-0.13 -1.7,-0.23 -0.39,-0.09 -0.73,-0.23 -1.02,-0.41 -0.37,-0.23 -0.67,-0.55 -0.87,-0.95 -0.21,-0.4 -0.32,-0.84 -0.32,-1.32 0,-1.07 0.46,-1.89 1.38,-2.46 0.84,-0.51 1.88,-0.77 3.11,-0.77 0.67,0 1.29,0.07 1.88,0.22 0.58,0.15 1.27,0.41 2.08,0.78 0.24,0.11 0.4,0.17 0.5,0.17 0.1,0 0.21,-0.06 0.36,-0.19 l 0.21,0.12 z"
       id="path10-1" /><path
       class="cls-2"
       d="m 152.11,17.73 -1.18,2.28 -0.21,-0.12 c 0,-0.19 -0.06,-0.34 -0.18,-0.45 -0.33,-0.3 -0.82,-0.54 -1.47,-0.73 -0.65,-0.19 -1.3,-0.29 -1.97,-0.29 -0.56,0 -1.07,0.08 -1.5,0.24 -0.63,0.23 -0.94,0.56 -0.94,0.99 0,0.29 0.15,0.49 0.46,0.61 0.3,0.12 0.89,0.21 1.76,0.28 l 1.38,0.11 c 1.21,0.09 2.12,0.33 2.75,0.7 0.35,0.21 0.64,0.49 0.87,0.84 0.29,0.44 0.43,0.93 0.43,1.48 0,1 -0.45,1.78 -1.35,2.36 -0.86,0.55 -2.02,0.83 -3.48,0.83 -1.46,0 -2.9,-0.31 -4.27,-0.94 -0.09,-0.04 -0.17,-0.06 -0.24,-0.06 -0.12,0 -0.22,0.07 -0.32,0.21 l -0.22,-0.09 1,-2.4 0.22,0.09 v 0.07 c 0,0.15 0.06,0.28 0.17,0.38 0.29,0.26 0.8,0.48 1.51,0.67 0.72,0.19 1.42,0.29 2.12,0.29 0.62,0 1.17,-0.08 1.66,-0.25 0.61,-0.2 0.91,-0.52 0.91,-0.96 0,-0.36 -0.21,-0.6 -0.63,-0.74 -0.28,-0.09 -0.78,-0.17 -1.51,-0.24 l -1.37,-0.11 c -0.74,-0.06 -1.31,-0.13 -1.7,-0.23 -0.39,-0.09 -0.73,-0.23 -1.02,-0.41 -0.37,-0.23 -0.66,-0.55 -0.87,-0.95 -0.21,-0.4 -0.31,-0.84 -0.31,-1.32 0,-1.07 0.46,-1.89 1.38,-2.46 0.84,-0.51 1.88,-0.77 3.11,-0.77 0.67,0 1.29,0.07 1.88,0.22 0.59,0.15 1.27,0.41 2.08,0.78 0.24,0.11 0.41,0.17 0.5,0.17 0.09,0 0.21,-0.06 0.36,-0.19 l 0.21,0.12 z"
       id="path11-0" /><path
       class="cls-2"
       d="m 156.62,22.48 v 2.38 h 6.21 c 0.18,0 0.32,-0.04 0.42,-0.12 0.1,-0.08 0.17,-0.23 0.23,-0.44 h 0.25 v 2.89 h -0.25 c -0.05,-0.2 -0.13,-0.35 -0.23,-0.43 -0.1,-0.09 -0.24,-0.13 -0.42,-0.13 h -9.12 v -0.25 c 0.2,-0.05 0.35,-0.13 0.43,-0.23 0.08,-0.1 0.13,-0.24 0.13,-0.42 v -8.01 c 0,-0.18 -0.04,-0.32 -0.12,-0.41 -0.08,-0.09 -0.23,-0.17 -0.44,-0.24 v -0.24 h 8.85 c 0.19,0 0.33,-0.04 0.42,-0.12 0.1,-0.08 0.17,-0.23 0.23,-0.44 h 0.24 v 2.89 h -0.24 c -0.06,-0.21 -0.14,-0.36 -0.23,-0.44 -0.1,-0.08 -0.24,-0.12 -0.42,-0.12 h -5.94 v 2.15 h 3.69 c 0.18,0 0.32,-0.04 0.42,-0.12 0.1,-0.08 0.18,-0.23 0.24,-0.44 h 0.24 v 2.82 h -0.24 c -0.06,-0.21 -0.14,-0.35 -0.23,-0.44 -0.1,-0.08 -0.24,-0.12 -0.42,-0.12 h -3.69 z"
       id="path12-87" /><path
       class="cls-2"
       d="M 171.47,26.64 167.9,20.2 v 5.54 c 0,0.18 0.04,0.32 0.12,0.41 0.08,0.1 0.23,0.18 0.44,0.24 v 0.25 h -3.25 v -0.25 c 0.2,-0.05 0.35,-0.13 0.43,-0.23 0.08,-0.1 0.13,-0.24 0.13,-0.42 v -8.01 c 0,-0.18 -0.04,-0.32 -0.12,-0.42 -0.08,-0.1 -0.23,-0.17 -0.44,-0.23 v -0.24 h 4.14 v 0.24 c -0.27,0.09 -0.41,0.25 -0.41,0.5 0,0.25 0.1,0.53 0.3,0.87 l 2.44,4.43 2.46,-4.37 c 0.28,-0.46 0.42,-0.79 0.42,-0.98 0,-0.24 -0.14,-0.39 -0.43,-0.46 v -0.24 h 4.03 v 0.24 c -0.21,0.06 -0.36,0.13 -0.44,0.23 -0.08,0.1 -0.12,0.23 -0.12,0.42 v 8 c 0,0.18 0.04,0.32 0.12,0.42 0.08,0.1 0.23,0.18 0.44,0.23 v 0.25 h -3.46 v -0.25 c 0.2,-0.05 0.35,-0.13 0.43,-0.23 0.08,-0.1 0.13,-0.24 0.13,-0.42 v -5.55 l -3.78,6.44 z"
       id="path13-50" /><path
       class="cls-2"
       d="m 188.86,21.38 c 0.48,0.22 0.84,0.44 1.07,0.66 0.43,0.42 0.64,0.98 0.64,1.7 0,0.96 -0.36,1.69 -1.08,2.21 -0.64,0.46 -1.52,0.69 -2.65,0.69 h -6.97 v -0.25 c 0.2,-0.05 0.35,-0.13 0.43,-0.23 0.08,-0.1 0.13,-0.24 0.13,-0.42 v -8.01 c 0,-0.18 -0.04,-0.32 -0.12,-0.41 -0.08,-0.09 -0.23,-0.17 -0.44,-0.24 v -0.24 h 6.85 c 1.2,0 2.08,0.21 2.64,0.65 0.59,0.45 0.89,1.08 0.89,1.87 0,0.47 -0.1,0.85 -0.31,1.15 -0.21,0.3 -0.57,0.58 -1.08,0.87 z m -6.09,-0.86 h 3.56 c 0.56,0 0.96,-0.07 1.19,-0.21 0.23,-0.14 0.35,-0.39 0.35,-0.74 0,-0.35 -0.12,-0.59 -0.35,-0.73 -0.23,-0.14 -0.63,-0.21 -1.19,-0.21 h -3.56 v 1.9 z m 0,4.34 h 3.64 c 1.18,0 1.77,-0.43 1.77,-1.29 0,-0.86 -0.59,-1.28 -1.77,-1.28 h -3.64 z"
       id="path14-7" /><path
       class="cls-2"
       d="m 194.89,24.86 h 5.48 c 0.19,0 0.33,-0.04 0.42,-0.12 0.09,-0.08 0.17,-0.23 0.24,-0.44 h 0.24 v 2.89 h -0.24 c -0.06,-0.21 -0.14,-0.36 -0.23,-0.44 -0.1,-0.08 -0.24,-0.12 -0.42,-0.12 H 192 v -0.25 c 0.2,-0.05 0.35,-0.13 0.43,-0.23 0.08,-0.1 0.13,-0.24 0.13,-0.42 v -8.01 c 0,-0.18 -0.04,-0.32 -0.12,-0.41 -0.08,-0.09 -0.23,-0.17 -0.44,-0.24 v -0.24 h 3.46 v 0.24 c -0.21,0.06 -0.36,0.13 -0.44,0.23 -0.08,0.1 -0.12,0.24 -0.12,0.42 v 7.12 z"
       id="path15-2" /><path
       class="cls-2"
       d="m 206.68,22.34 v 3.4 c 0,0.18 0.04,0.32 0.12,0.42 0.08,0.1 0.23,0.18 0.44,0.24 v 0.24 h -3.46 V 26.4 c 0.21,-0.06 0.36,-0.14 0.44,-0.23 0.08,-0.1 0.12,-0.24 0.12,-0.42 v -3.4 l -2.9,-3.99 c -0.33,-0.45 -0.59,-0.76 -0.78,-0.92 -0.19,-0.16 -0.43,-0.28 -0.7,-0.34 v -0.24 h 4.41 v 0.24 c -0.38,0.1 -0.57,0.28 -0.57,0.53 0,0.13 0.14,0.38 0.41,0.77 l 1.42,1.97 1.39,-1.97 c 0.27,-0.39 0.41,-0.65 0.41,-0.78 0,-0.24 -0.19,-0.42 -0.56,-0.52 v -0.24 c 0,0 4.19,0 4.19,0 v 0.24 c -0.27,0.06 -0.5,0.17 -0.69,0.34 -0.19,0.17 -0.46,0.47 -0.78,0.92 l -2.9,3.99 z"
       id="path16-6" /></g></svg>
